<svg width="128" height="90" viewBox="0 0 128 90" xmlns="http://www.w3.org/2000/svg"><title>Group 31</title><g stroke="#B0DF2F" stroke-width="4" fill="none" fill-rule="evenodd" stroke-linecap="round" stroke-linejoin="round"><path d="M92 77.5c0 5.796 4.928 10.5 11 10.5 6.083 0 11-4.704 11-10.5S109.083 67 103 67c-6.072 0-11 4.704-11 10.5zM16 77.5C16 83.296 20.928 88 27 88c6.083 0 11-4.704 11-10.5S33.083 67 27 67c-6.072 0-11 4.704-11 10.5z"/><path d="M112.522 77H126V47.536L115.217 36.82 101.74 12.714H77.48V2H2v75h13.478M92 75H39"/><path d="M90 23h7.5l7.5 15M79 13v53M126 67H2"/></g></svg>