<svg width="95" height="95" viewBox="0 0 95 95" xmlns="http://www.w3.org/2000/svg"><title>Group 32</title><path d="M27.526 30.051h-3.291c.442-4.348 4.186-7.755 8.724-7.755 4.54 0 8.283 3.407 8.725 7.755h-3.292c-.425-2.581-2.689-4.563-5.433-4.563-2.744 0-5.007 1.982-5.433 4.563zm31.607-4.563c2.744 0 5.008 1.982 5.432 4.563h3.292c-.442-4.348-4.185-7.755-8.724-7.755-4.54 0-8.283 3.407-8.725 7.755H53.7c.424-2.581 2.688-4.563 5.433-4.563zM95 47.5C95 21.308 73.692 0 47.5 0S0 21.309 0 47.5C0 73.692 21.308 95 47.5 95S95 73.692 95 47.5zm-3.878 0c0 24.054-19.568 43.622-43.622 43.622S3.878 71.554 3.878 47.5c0-24.053 19.568-43.622 43.622-43.622S91.122 23.448 91.122 47.5zM69.644 58.675c.386-.87.011-1.899-.836-2.295-.842-.394-1.845-.01-2.23.86-3.749 8.467-11.997 13.938-21.016 13.938-9.021 0-17.271-5.471-21.017-13.938-.385-.87-1.385-1.256-2.23-.86-.848.396-1.222 1.424-.837 2.295 4.29 9.7 13.743 15.968 24.084 15.968 10.337 0 19.79-6.269 24.082-15.968zm-37.169-19.9a4.363 4.363 0 0 0 0 8.725 4.363 4.363 0 0 0 0-8.724zm27.142 0a4.362 4.362 0 1 0 0 8.725 4.361 4.361 0 0 0 4.363-4.362 4.361 4.361 0 0 0-4.363-4.362z" fill="#B0DF2F" fill-rule="nonzero"/></svg>