<svg width="146" height="95" viewBox="0 0 146 95" xmlns="http://www.w3.org/2000/svg"><title>Group 6</title><path d="M121.655 91.123c-5.518 0-8.115-1.668-11.124-3.601-3.078-1.975-6.565-4.215-13.22-4.215-6.65 0-10.136 2.24-13.21 4.216-3.008 1.932-5.603 3.6-11.118 3.6-5.514 0-8.111-1.668-11.12-3.6-3.075-1.976-6.561-4.216-13.215-4.216-6.65 0-10.136 2.24-13.21 4.216-3.008 1.932-5.604 3.6-11.117 3.6-5.512 0-8.106-1.668-11.114-3.6C10.135 85.547 6.65 83.307 0 83.307v3.876c5.51 0 8.106 1.669 11.113 3.6C14.187 92.761 17.673 95 24.32 95c6.65 0 10.136-2.24 13.211-4.217 3.007-1.931 5.604-3.6 11.116-3.6 5.515 0 8.112 1.669 11.122 3.6C62.845 92.761 66.332 95 72.983 95c6.653 0 10.138-2.24 13.213-4.217 3.006-1.931 5.603-3.6 11.115-3.6 5.518 0 8.115 1.669 11.126 3.602C111.513 92.76 115 95 121.655 95s10.143-2.24 13.22-4.215c3.01-1.933 5.607-3.602 11.125-3.602v-3.876c-6.655 0-10.142 2.24-13.22 4.215-3.01 1.933-5.606 3.601-11.125 3.601zm-28.34-17.756a25.03 25.03 0 0 0 .94-6.769c0-13.749-11.182-24.933-24.93-24.933-13.747 0-24.93 11.184-24.93 24.933 0 2.23.295 4.44.875 6.569l-.891.244a24.482 24.482 0 0 1 4.269-.354c6.654 0 10.14 2.24 13.216 4.215 3.008 1.932 5.605 3.6 11.12 3.6 5.514 0 8.11-1.668 11.117-3.6 2.39-1.535 5.034-3.227 9.214-3.905zm52.685-.31v3.876c-5.518 0-8.115 1.669-11.126 3.602-3.076 1.974-6.565 4.214-13.219 4.214-6.654 0-10.142-2.24-13.218-4.214-3.01-1.933-5.608-3.602-11.126-3.602-5.512 0-8.109 1.669-11.115 3.6-3.075 1.976-6.56 4.216-13.213 4.216-6.651 0-10.138-2.24-13.213-4.215-3.01-1.932-5.607-3.6-11.122-3.6-5.512 0-8.11 1.668-11.116 3.6-3.075 1.975-6.56 4.215-13.21 4.215-6.65 0-10.135-2.24-13.21-4.215-3.006-1.932-5.601-3.6-11.112-3.6v-3.877c6.649 0 10.135 2.24 13.207 4.215 3.008 1.932 5.602 3.6 11.114 3.6 5.513 0 8.11-1.668 11.117-3.6 1.731-1.113 3.594-2.31 6.079-3.143a28.89 28.89 0 0 1-.997-7.53c0-15.886 12.921-28.81 28.805-28.81 15.885 0 28.806 12.924 28.806 28.81 0 2.183-.25 4.348-.733 6.46 6.595.019 10.07 2.246 13.133 4.212 3.01 1.933 5.606 3.601 11.124 3.601 5.519 0 8.116-1.668 11.125-3.601 3.078-1.975 6.565-4.214 13.22-4.214zm-91.424-37.01a1.937 1.937 0 1 0 3.581-1.481L52.374 20.6a1.938 1.938 0 1 0-3.582 1.483l5.784 13.964zM44.009 44.02c.379.379.875.568 1.371.568s.991-.189 1.37-.568a1.938 1.938 0 0 0 0-2.74L24.982 19.507a1.937 1.937 0 1 0-2.74 2.741L44.008 44.02zm-19.19 2.043a1.937 1.937 0 1 0-1.485 3.58l13.963 5.785a1.938 1.938 0 0 0 1.483-3.58L24.82 46.061zM4.676 68.537H35.46a1.939 1.939 0 0 0 0-3.877H4.676a1.938 1.938 0 0 0 0 3.877zm64.65-33.87c1.07 0 1.938-.868 1.938-1.938V1.94a1.939 1.939 0 0 0-3.877 0v30.79c0 1.07.869 1.939 1.938 1.939zm47.04 12.443a1.938 1.938 0 0 0-2.533-1.048l-13.961 5.784a1.938 1.938 0 1 0 1.483 3.581l13.963-5.784a1.937 1.937 0 0 0 1.048-2.533zm-15.113 19.488c0 1.07.868 1.939 1.938 1.939h30.785a1.939 1.939 0 0 0 0-3.877h-30.785c-1.07 0-1.938.867-1.938 1.938zm-7.981-22.011c.496 0 .992-.189 1.37-.568l21.77-21.77a1.938 1.938 0 1 0-2.741-2.742L91.902 41.28a1.938 1.938 0 0 0 1.37 3.308zM80.495 34.564l5.783-13.963a1.938 1.938 0 1 1 3.582 1.483l-5.785 13.965a1.938 1.938 0 1 1-3.58-1.485z" fill="#B0DF2F" fill-rule="evenodd"/></svg>