<?xml version="1.0" encoding="UTF-8"?>
<svg width="100px" height="100px" viewBox="0 0 100 100" version="1.1" xmlns="http://www.w3.org/2000/svg" xmlns:xlink="http://www.w3.org/1999/xlink">
    <!-- Generator: Sketch 48.2 (47327) - http://www.bohemiancoding.com/sketch -->
    <title>Group 21</title>
    <desc>Created with Sketch.</desc>
    <defs></defs>
    <g id="Home-Revised-Final" stroke="none" stroke-width="1" fill="none" fill-rule="evenodd" transform="translate(-787.000000, -2213.000000)">
        <g id="Group-21" transform="translate(787.000000, 2213.000000)">
            <circle id="Oval-4-Copy" fill="#B0DF2F" cx="50" cy="50" r="50"></circle>
            <g id="Group-15" transform="translate(35.526316, 27.631579)" fill="#FFFFFF">
                <path d="M28.3717105,29.3684211 C28.3490132,17.4334737 27.2689967,3.69473684 24.132977,0.685894737 C23.7849507,0.276631579 23.2742599,0.0113684211 22.6973684,0.0113684211 C21.651398,0.0113684211 20.8059211,0.862105263 20.8059211,1.90610526 L20.8059211,43.5941053 C20.8059211,44.6381053 21.651398,45.4888421 22.6973684,45.4888421 C23.7414474,45.4888421 24.5888158,44.6381053 24.5888158,43.5941053 L24.5888158,30.3157895 L27.4449013,30.3157895 C27.9669408,30.3157895 28.390625,30.0808421 28.390625,29.5616842 C28.390625,29.4934737 28.3830592,29.4309474 28.3717105,29.3684211" id="Fill-3223"></path>
                <path d="M13.2401316,0.0111789474 C12.1941612,0.0111789474 11.3486842,0.861915789 11.3486842,1.90591579 L11.3486842,10.4322316 C11.3486842,11.8286526 10.582648,13.0374947 9.45723684,13.6968632 L9.45723684,1.90591579 C9.45723684,0.861915789 8.60986842,0.0111789474 7.56578947,0.0111789474 C6.51981908,0.0111789474 5.67434211,0.861915789 5.67434211,1.90591579 L5.67434211,13.6968632 C4.54703947,13.0374947 3.78289474,11.8286526 3.78289474,10.4322316 L3.78289474,1.90591579 C3.78289474,0.861915789 2.93552632,0.0111789474 1.89144737,0.0111789474 C0.845476974,0.0111789474 0,0.861915789 0,1.90591579 L0,10.4322316 C0,13.9564421 2.41537829,16.9179158 5.67434211,17.7629684 L5.67434211,43.5939158 C5.67434211,44.6379158 6.51981908,45.4886526 7.56578947,45.4886526 C8.60986842,45.4886526 9.45723684,44.6379158 9.45723684,43.5939158 L9.45723684,17.7629684 C12.7143092,16.9179158 15.1315789,13.9564421 15.1315789,10.4322316 L15.1315789,1.90591579 C15.1315789,0.861915789 14.2842105,0.0111789474 13.2401316,0.0111789474" id="Fill-3224"></path>
            </g>
        </g>
    </g>
</svg>