<?xml version="1.0" encoding="UTF-8"?>
<svg width="35px" height="35px" viewBox="0 0 35 35" version="1.1" xmlns="http://www.w3.org/2000/svg" xmlns:xlink="http://www.w3.org/1999/xlink">
    <!-- Generator: Sketch 48.2 (47327) - http://www.bohemiancoding.com/sketch -->
    <title>arrow-right</title>
    <desc>Created with Sketch.</desc>
    <defs></defs>
    <g id="Home-Revised-Final" stroke="none" stroke-width="1" fill="none" fill-rule="evenodd" transform="translate(-1094.000000, -1488.000000)">
        <g id="arrow-right" transform="translate(1095.000000, 1489.000000)">
            <circle id="Oval-3" stroke="#FFFFFF" transform="translate(16.500000, 16.500000) scale(-1, 1) translate(-16.500000, -16.500000) " cx="16.5" cy="16.5" r="17"></circle>
            <path d="M17.3983848,11.1512 C17.1715934,10.9496 16.8284066,10.9496 16.6016152,11.1512 L11.2018219,15.9512 C10.7902377,16.3196 11.0506277,17 11.6002067,17 L14.0001148,17 L14.0001148,22.4 C14.0001148,22.7312 14.2689045,23 14.6000919,23 L19.3999081,23 C19.7310955,23 19.9998852,22.7312 19.9998852,22.4 L19.9998852,17 L22.3997933,17 C22.9493723,17 23.2097623,16.3196 22.7981781,15.9512 L17.3983848,11.1512 Z" id="Fill-2881-Copy" fill="#FFFFFF" transform="translate(17.000000, 17.000000) rotate(-270.000000) translate(-17.000000, -17.000000) "></path>
        </g>
    </g>
</svg>