<svg width="100" height="100" viewBox="0 0 100 100" xmlns="http://www.w3.org/2000/svg"><title>Group 22</title><g fill="none" fill-rule="evenodd"><circle cx="50" cy="50" r="50" fill="#B0DF2F"/><path d="M60.55 36.696c8.303 4.884-1.356 11.608-1.356 12.432 0 1.038 2.943 5.551 1.356 7.104C54.926 61.744 58.44 66 50.585 66c-1.056 0-4.982-2.22-4.982-3.256 0-5.307 6.69-16.28-4.983-16.28-3.168 0-3.62-3.995-3.62-3.995 0-9.175 10.57-10.51 10.57-7.254 2.115 2.074 6.337-3.403 6.337-3.403L51.452 27c5.972.29 11.48 2.774 15.548 6.929-2.508.807-7.115 2.373-6.45 2.767M50 24c-14.358 0-26 11.642-26 26 0 14.359 11.642 26 26 26 14.359 0 26-11.641 26-26 0-14.358-11.641-26-26-26" fill="#FFF"/></g></svg>