<svg width="100" height="100" viewBox="0 0 100 100" xmlns="http://www.w3.org/2000/svg"><title>Group 40</title><g fill="none" fill-rule="evenodd"><circle cx="50" cy="50" r="50" fill="#B0DF2F"/><g fill="#FFF"><path d="M37 66v7a1 1 0 0 0 1 1h24.055c.554 0 1-.448.94-1v-7H37zM62.016 30.884a8.15 8.15 0 0 0-2.748.477C57.782 28.323 53.896 26 50.028 26c-3.892 0-7.802 2.323-9.292 5.361a8.147 8.147 0 0 0-2.746-.477c-4.405 0-7.99 3.505-7.99 7.815 0 4.05 2.998 7.29 6.988 7.759V63h5.99v-6.838c.02-.54.466-.977 1.019-.977.551 0 .999.438.999.977V63h3.974v-8.792c0-.54.445-.977.998-.977.551 0 .999.438.999.977V63h3.994v-6.838c.04-.54.487-.977 1.038-.977.553 0 .999.438.959.977V63h5.99V46.458C67 45.988 70 42.749 70 38.699c0-4.31-3.583-7.815-7.984-7.815"/></g></g></svg>