<?xml version="1.0" encoding="UTF-8"?>
<svg width="100px" height="100px" viewBox="0 0 100 100" version="1.1" xmlns="http://www.w3.org/2000/svg" xmlns:xlink="http://www.w3.org/1999/xlink">
    <!-- Generator: Sketch 48.2 (47327) - http://www.bohemiancoding.com/sketch -->
    <title>icon-box</title>
    <desc>Created with Sketch.</desc>
    <defs></defs>
    <g id="Home-Revised-Final" stroke="none" stroke-width="1" fill="none" fill-rule="evenodd" transform="translate(-787.000000, -1948.000000)">
        <g id="icon-box" transform="translate(787.000000, 1948.000000)">
            <circle id="Oval-4-Copy-3" fill="#B0DF2F" cx="50" cy="50" r="50"></circle>
            <g id="Group-12" transform="translate(28.000000, 28.000000)" fill="#FFFFFF">
                <polygon id="Fill-3209" points="11.4605905 3.97058824 1.32352941 8.55521776 21.3097837 18.5294118 30.4411765 14.6194499"></polygon>
                <path d="M5.77540107,18.9661953 C5.77540107,18.2771316 6.50695187,17.8252866 7.13647059,18.1095724 L16.762139,22.8162915 C17.1048128,22.9687892 17.3262032,23.3039076 17.3262032,23.6729144 L17.3262032,33.0863526 C17.3262032,33.7697682 16.6004278,34.2253786 15.9651337,33.9429755 L6.33946524,29.2362564 C5.99486631,29.0837587 5.77540107,28.7486403 5.77540107,28.3796335 L5.77540107,18.9661953 Z M0,34.9690402 C0,35.3436951 0.227165775,35.6825789 0.579465241,35.8313112 L21.1764706,45 L21.1764706,20.5099992 L0,10.5882353 L0,34.9690402 Z" id="Fill-3210"></path>
                <path d="M22.5,20.5099992 L22.5,45 L44.435625,35.8313112 C44.77875,35.6825789 45,35.3436951 45,34.9690402 L45,10.5882353 L22.5,20.5099992 Z" id="Fill-3211"></path>
                <path d="M42.3529412,9.46186145 L22.0882092,0.0824306536 C21.8540734,-0.0274768845 21.586753,-0.0274768845 21.3526172,0.0824306536 L13.2352941,3.8389133 L31.9053215,14.5588235 L42.3529412,9.46186145 Z" id="Fill-3212"></path>
            </g>
        </g>
    </g>
</svg>