<svg width="100" height="100" viewBox="0 0 100 100" xmlns="http://www.w3.org/2000/svg"><title>Group 21</title><g fill="none" fill-rule="evenodd"><circle fill="#B0DF2F" cx="50" cy="50" r="50"/><g fill="#FFF"><path d="M63.898 57c-.023-11.935-1.103-25.674-4.239-28.683a1.88 1.88 0 0 0-1.435-.674c-1.046 0-1.892.85-1.892 1.895v41.688c0 1.044.846 1.894 1.892 1.894 1.044 0 1.891-.85 1.891-1.894V57.947h2.856c.522 0 .946-.235.946-.754 0-.068-.008-.13-.019-.193M48.766 27.643c-1.046 0-1.891.85-1.891 1.894v8.527c0 1.396-.766 2.605-1.891 3.264v-11.79a1.895 1.895 0 0 0-1.892-1.895c-1.046 0-1.891.85-1.891 1.894v11.791c-1.128-.659-1.892-1.868-1.892-3.264v-8.527a1.895 1.895 0 0 0-1.891-1.894c-1.046 0-1.892.85-1.892 1.894v8.527c0 3.524 2.416 6.485 5.675 7.33v25.831c0 1.044.845 1.895 1.891 1.895 1.044 0 1.892-.85 1.892-1.895v-25.83c3.257-.846 5.674-3.807 5.674-7.331v-8.527a1.895 1.895 0 0 0-1.892-1.894"/></g></g></svg>