<svg width="100" height="100" viewBox="0 0 100 100" xmlns="http://www.w3.org/2000/svg"><title>Group 18</title><g fill="none" fill-rule="evenodd"><circle fill="#B0DF2F" cx="50" cy="50" r="50"/><g fill="#FFF"><path d="M56.78 59.992a2.48 2.48 0 0 1-2.234 1.413c-1.248-.054-2.117-.843-2.4-1.852l-1.566-5.606-1.29 2.64c-.394.808-1.173 1.374-2.21 1.413a2.45 2.45 0 0 1-2.1-1.14l-1.372-2.104-.381.518c-.466.64-1.212 1.023-1.996.841h-4.389c2.595 4.764 8.906 10.645 13.084 13.479a.814.814 0 0 0 .969-.036c3.656-2.876 9.638-8.927 12.263-13.443h-4.572l-1.806 3.877zM33.46 50.342h6.073l1.759-2.183a2.531 2.531 0 0 1 2.033-1.013c.85.025 1.616.445 2.066 1.128l.947 1.433 2.252-4.538a2.498 2.498 0 0 1 2.247-1.4c1.261.056 2.134.841 2.415 1.834l1.618 5.713c.467-.502 1.122-.794 1.829-.974h9.264c1.175-1.74 2.458-5.663 2.458-8.982 0-7.285-4.712-11.097-9.366-11.097-3.455 0-7.261 2.126-9.055 6.789-1.767-4.589-5.478-6.682-8.842-6.682-6.288 0-9.58 6.033-9.58 11.99 0 3.118.967 6.569 1.882 7.982"/><path d="M70.203 52.632H57.456a.848.848 0 0 0-.76.454l-1.572 3.044-2.8-9.482c-.096-.33-.39-.582-.852-.595a.835.835 0 0 0-.724.454l-3.596 6.955-2.585-3.753a.872.872 0 0 0-.71-.367.88.88 0 0 0-.674.327l-2.298 2.963h-9.772c-.47 0-.85.368-.85.822 0 .454.38.822.85.822H41.31c.265 0 .52-.123.677-.327l1.834-2.362 2.73 3.967c.191.277.456.375.79.364a.839.839 0 0 0 .677-.453l3.272-6.33 2.8 9.478c.093.32.385.583.827.598a.852.852 0 0 0 .75-.454l2.314-4.48h12.222c.467 0 .85-.37.85-.823 0-.454-.383-.822-.85-.822"/></g></g></svg>