<?xml version="1.0" encoding="UTF-8"?>
<svg width="100px" height="100px" viewBox="0 0 100 100" version="1.1" xmlns="http://www.w3.org/2000/svg" xmlns:xlink="http://www.w3.org/1999/xlink">
    <!-- Generator: Sketch 48.2 (47327) - http://www.bohemiancoding.com/sketch -->
    <title>box-hands</title>
    <desc>Created with Sketch.</desc>
    <defs></defs>
    <g id="Home-Revised-Final" stroke="none" stroke-width="1" fill="none" fill-rule="evenodd" transform="translate(-787.000000, -2081.000000)">
        <g id="box-hands" transform="translate(787.000000, 2081.000000)">
            <circle id="Oval-4-Copy-4" fill="#B0DF2F" cx="50" cy="50" r="50"></circle>
            <g id="Group-13" transform="translate(27.631579, 26.315789)" fill="#FFFFFF">
                <path d="M27.6315789,39.4736842 L27.6315789,43.8596491 C27.6315789,44.3438596 28.0526316,44.7368421 28.5714286,44.7368421 L39.8496241,44.7368421 C40.3684211,44.7368421 40.7894737,44.3438596 40.7894737,43.8596491 L40.7894737,39.4736842 L27.6315789,39.4736842 Z" id="Fill-3271"></path>
                <path d="M41.6017544,12.4756372 C39.6491228,13.9853336 38.6403509,17.9318347 38.5982456,24.2067521 L35.8017544,27.291952 L36.3245614,24.773856 C36.7684211,22.7241528 35.9508772,21.3286515 34.9438596,20.8525165 C34.0105263,20.4150916 32.6736842,20.6686432 31.7736842,22.2112432 C30.7070175,24.0383629 28.9473684,29.8777909 28.9473684,30.4023136 L28.9473684,38.1578947 L37.7192982,38.1578947 L37.7192982,36.5649715 C38.8385965,35.3436659 43.2385965,30.5358637 44.4807018,29.1655239 C44.6438596,28.9855217 44.7368421,28.7358411 44.7368421,28.480354 L44.7368421,12.8762874 C44.7368421,11.476915 42.6614035,11.6569173 41.6017544,12.4756372" id="Fill-3272"></path>
                <path d="M7.01754386,38.1578947 L15.7894737,38.1578947 L15.7894737,30.4018656 C15.7894737,29.8773126 14.0298246,24.0394828 12.9649123,22.2103219 C12.0614035,20.6676328 10.7298246,20.412131 9.79298246,20.8534523 C8.78596491,21.3276792 7.96842105,22.7232612 8.41052632,24.7672759 L8.93508772,27.2913243 L6.13859649,24.2059461 C6.09824561,17.9326018 5.0877193,13.9858727 3.13508772,12.4741535 C2.07894737,11.6592575 0,11.4753736 0,12.8748268 L0,28.4797949 C0,28.7701379 0.11754386,29.0469316 0.324561404,29.2308155 C1.80350877,30.5605864 5.96842105,35.3396321 7.01754386,36.5493946 L7.01754386,38.1578947 Z" id="Fill-3273"></path>
                <path d="M5.26315789,39.4736842 L5.26315789,43.8596491 C5.26315789,44.3438596 5.68421053,44.7368421 6.20300752,44.7368421 L17.481203,44.7368421 C18,44.7368421 18.4210526,44.3438596 18.4210526,43.8596491 L18.4210526,39.4736842 L5.26315789,39.4736842 Z" id="Fill-3274"></path>
                <path d="M21.0526316,13.1876301 L11.8421053,7.89473684 L11.8421053,17.9173007 C11.8421053,18.2391422 12.0263158,18.5329975 12.3228947,18.6869217 L21.0526316,23.6842105 L21.0526316,13.1876301 Z" id="Fill-3275"></path>
                <path d="M20.7963837,10.5263158 L31.5789474,5.19547953 L22.1244098,0.107841593 C21.8580848,-0.0359471976 21.530577,-0.0359471976 21.264252,0.107841593 L11.8421053,5.17595266 L20.7963837,10.5263158 Z" id="Fill-3276"></path>
                <path d="M23.6842105,13.1643225 L23.6842105,23.6842105 L35.0111842,18.6740722 C35.3289474,18.5198062 35.5263158,18.2252985 35.5263158,17.9044953 L35.5263158,7.89473684 L23.6842105,13.1643225 Z" id="Fill-3277"></path>
            </g>
        </g>
    </g>
</svg>