<?xml version="1.0" encoding="UTF-8"?>
<svg width="100px" height="100px" viewBox="0 0 100 100" version="1.1" xmlns="http://www.w3.org/2000/svg" xmlns:xlink="http://www.w3.org/1999/xlink">
    <!-- Generator: Sketch 48.2 (47327) - http://www.bohemiancoding.com/sketch -->
    <title>chef-hat 40</title>
    <desc>Created with Sketch.</desc>
    <defs></defs>
    <g id="Home-Revised-Final" stroke="none" stroke-width="1" fill="none" fill-rule="evenodd" transform="translate(-100.000000, -2912.000000)">
        <g id="Group-41" transform="translate(100.000000, 2912.000000)">
            <g id="chef-hat-40">
                <g id="Group-22-Copy" fill="#B0DF2F">
                    <g id="Group-18-Copy">
                        <circle id="Oval-4" cx="50" cy="50" r="50"></circle>
                    </g>
                </g>
                <g id="Group-39" transform="translate(30.000000, 26.000000)" fill="#FFFFFF">
                    <path d="M7,40 L7,47 C7,47.552 7.44790659,48 7.99979151,48 L32.0547752,48 C32.6086597,48 33.0545667,47.552 32.9945792,47 L32.9945792,40 L7,40 Z" id="Fill-3303"></path>
                    <path d="M32.015976,4.88435949 C31.0773839,4.88435949 30.1447828,5.04652022 29.2680979,5.36107297 C27.7823265,2.32300137 23.8961558,0 20.0279581,0 C16.1357963,0 12.2256615,2.32300137 10.7358962,5.36107297 C9.85921118,5.04652022 8.92661008,4.88435949 7.99001498,4.88435949 C3.58462307,4.88435949 0,8.38937586 0,12.6993347 C0,16.7494456 2.99750374,19.9887528 6.98751872,20.4576513 L6.98751872,37 L12.9785322,37 L12.9785322,30.1618967 C12.9985022,29.6226634 13.4438342,29.1850248 13.9970045,29.1850248 C14.5481777,29.1850248 14.9955067,29.6226634 14.9955067,30.1618967 L14.9955067,37 L18.9695457,37 L18.9695457,28.2081529 C18.9695457,27.6689196 19.4148777,27.231281 19.9680479,27.231281 C20.5192212,27.231281 20.9665502,27.6689196 20.9665502,28.2081529 L20.9665502,37 L24.9605592,37 L24.9605592,30.1618967 C25.0004993,29.6226634 25.4478283,29.1850248 25.9990015,29.1850248 C26.5521717,29.1850248 26.9975037,29.6226634 26.9575637,30.1618967 L26.9575637,37 L32.9485771,37 L32.9485771,20.4576513 C37.0004993,19.9887528 40,16.7494456 40,12.6993347 C40,8.38937586 36.4173739,4.88435949 32.015976,4.88435949" id="Fill-3304"></path>
                </g>
            </g>
        </g>
    </g>
</svg>