<?xml version="1.0" encoding="UTF-8"?>
<svg width="100px" height="100px" viewBox="0 0 100 100" version="1.1" xmlns="http://www.w3.org/2000/svg" xmlns:xlink="http://www.w3.org/1999/xlink">
    <!-- Generator: Sketch 48.2 (47327) - http://www.bohemiancoding.com/sketch -->
    <title>heart</title>
    <desc>Created with Sketch.</desc>
    <defs></defs>
    <g id="Home-Revised-Final" stroke="none" stroke-width="1" fill="none" fill-rule="evenodd" transform="translate(-100.000000, -2574.000000)">
        <g id="heart" transform="translate(100.000000, 2574.000000)">
            <circle id="Oval-4" fill="#B0DF2F" cx="50" cy="50" r="50"></circle>
            <g id="Group-14" transform="translate(30.263158, 30.263158)" fill="#FFFFFF">
                <path d="M26.5167655,29.7289244 C26.0890153,30.6024281 25.233515,31.1421955 24.283144,31.1421955 C23.0348458,31.0877079 22.1660303,30.299341 21.8830827,29.2896184 L20.3168846,23.6842105 L19.0269766,26.3234518 C18.6325143,27.1322515 17.8535763,27.69756 16.8166566,27.7367229 C15.9678139,27.7367229 15.2005266,27.3433908 14.7161869,26.5975923 L13.3447234,24.4930103 L12.9635763,25.0106421 C12.497545,25.6508709 11.7518949,26.0339866 10.9679637,25.8517938 L6.57894737,25.8517938 C9.17374313,30.61605 15.4851386,36.4973012 19.6627764,39.3306544 C19.8025858,39.4260076 19.962368,39.4736842 20.1221501,39.4736842 C20.3035695,39.4736842 20.48166,39.4140884 20.6314558,39.2948969 C24.2881372,36.4189753 30.2699819,30.3674505 32.8947368,25.8517938 L28.3226368,25.8517938 L26.5167655,29.7289244 Z" id="Fill-2773"></path>
                <path d="M3.19641148,20.0785042 L9.27033493,20.0785042 L11.0287081,17.895581 C11.495933,17.2624826 12.2562201,16.8826236 13.0617225,16.8826236 C13.9124402,16.9079475 14.6777512,17.3283248 15.1282297,18.0103828 L16.0744019,19.4437176 L18.3267943,14.9056683 C18.7555024,14.0429663 19.6162679,13.5060988 20.5741627,13.5060988 C21.8351675,13.5618115 22.7076555,14.3468535 22.9889952,15.3395518 L24.6066986,21.0526316 C25.0739234,20.5512177 25.7287081,20.2591483 26.4354067,20.0785042 L35.6995215,20.0785042 C36.8751196,18.3379057 38.1578947,14.4160723 38.1578947,11.0969485 C38.1578947,3.8120964 33.4454545,0 28.7916268,0 C25.3368421,0 21.5303828,2.12552231 19.7368421,6.78850293 C17.9700957,2.19980585 14.2590909,0.106360528 10.8947368,0.106360528 C4.60645933,0.106360528 1.31578947,6.14021019 1.31578947,12.0963998 C1.31578947,15.2146204 2.28205742,18.6654286 3.19641148,20.0785042" id="Fill-2774"></path>
                <path d="M39.939693,22.3684211 L27.1929825,22.3684211 C26.8683662,22.3684211 26.5777412,22.5427632 26.4332785,22.8223684 L24.8611842,25.8667763 L22.060307,16.3848684 C21.9651316,16.0542763 21.6711075,15.8026316 21.2088268,15.7894737 C20.9199013,15.7894737 20.6292763,15.9638158 20.4848136,16.2434211 L16.8885417,23.1990132 L14.3035088,19.4457237 C14.1488487,19.2203947 13.8905154,19.0871711 13.5947917,19.0789474 C13.3432566,19.0789474 13.0730263,19.2055921 12.9200658,19.40625 L10.6222588,22.3684211 L0.849780702,22.3684211 C0.380701754,22.3684211 0,22.7368421 0,23.1907895 C0,23.6447368 0.380701754,24.0131579 0.849780702,24.0131579 L11.0471491,24.0131579 C11.3122807,24.0131579 11.5672149,23.8898026 11.7235746,23.6858553 L13.5574013,21.3240132 L16.2885965,25.2911184 C16.4789474,25.5674342 16.7440789,25.6661184 17.077193,25.6546053 C17.3491228,25.6381579 17.6210526,25.4654605 17.755318,25.2023026 L21.0269737,18.8717105 L23.8261513,28.3503289 C23.9196272,28.6694079 24.2119518,28.9325658 24.6538377,28.9473684 C24.9716557,28.9440789 25.2588816,28.7697368 25.4033443,28.4934211 L27.7181469,24.0131579 L39.939693,24.0131579 C40.4070724,24.0131579 40.7894737,23.6447368 40.7894737,23.1907895 C40.7894737,22.7368421 40.4070724,22.3684211 39.939693,22.3684211" id="Fill-2775"></path>
            </g>
        </g>
    </g>
</svg>