<svg width="100" height="100" viewBox="0 0 100 100" xmlns="http://www.w3.org/2000/svg"><title>Group 24</title><g fill="none" fill-rule="evenodd"><circle fill="#B0DF2F" cx="50" cy="50" r="50"/><g fill="#FFF"><path d="M55.263 65.79v4.385c0 .485.421.878.94.878h11.278c.519 0 .94-.393.94-.878V65.79H55.263zM69.233 38.791c-1.952 1.51-2.961 5.457-3.003 11.732l-2.797 3.085.523-2.518c.444-2.05-.374-3.446-1.38-3.922-.934-.437-2.27-.184-3.17 1.359-1.067 1.827-2.827 7.667-2.827 8.191v7.756h8.772V62.88c1.12-1.222 5.52-6.03 6.761-7.4.163-.18.256-.43.256-.685V39.192c0-1.4-2.075-1.22-3.135-.4M34.65 64.474h8.771v-7.756c0-.525-1.76-6.363-2.825-8.192-.903-1.543-2.235-1.798-3.171-1.357-1.007.474-1.825 1.87-1.383 3.914l.525 2.524-2.797-3.085c-.04-6.274-1.05-10.22-3.003-11.732-1.056-.815-3.135-.999-3.135.4v15.606c0 .29.117.567.324.75 1.48 1.33 5.644 6.11 6.693 7.32v1.608zM32.895 65.79v4.385c0 .485.42.878.94.878h11.278c.519 0 .94-.393.94-.878V65.79H32.895zM48.684 39.503l-9.21-5.292v10.022a.87.87 0 0 0 .48.77L48.684 50V39.503zM48.428 36.842l10.783-5.33-9.455-5.088a.912.912 0 0 0-.86 0l-9.422 5.068 8.954 5.35z"/><path d="M51.316 39.48V50l11.327-5.01c.318-.154.515-.449.515-.77V34.21l-11.842 5.27z"/></g></g></svg>