<svg width="100" height="100" viewBox="0 0 100 100" xmlns="http://www.w3.org/2000/svg"><title>icon-box</title><g fill="none" fill-rule="evenodd"><circle fill="#B0DF2F" cx="50" cy="50" r="50"/><g fill="#FFF"><path d="M39.46 31.97l-10.136 4.585L49.31 46.53l9.131-3.91zM33.775 46.966c0-.689.732-1.14 1.361-.856l9.626 4.706a.941.941 0 0 1 .564.857v9.413c0 .684-.726 1.14-1.36.857l-9.627-4.707a.938.938 0 0 1-.564-.856v-9.414zM28 62.97c0 .375.227.714.58.862L49.175 73V48.51L28 38.588V62.97zM50.5 48.51V73l21.936-9.169A.939.939 0 0 0 73 62.97v-24.38L50.5 48.51zM70.353 37.462l-20.265-9.38a.862.862 0 0 0-.735 0l-8.118 3.757 18.67 10.72 10.448-5.097z"/></g></g></svg>