<?xml version="1.0" standalone="no"?>
<!DOCTYPE svg PUBLIC "-//W3C//DTD SVG 1.1//EN" "http://www.w3.org/Graphics/SVG/1.1/DTD/svg11.dtd" >
<svg xmlns="http://www.w3.org/2000/svg" xmlns:xlink="http://www.w3.org/1999/xlink" version="1.1">
<metadata>
Created by FontForge 20161003 at Tue Feb 13 01:49:51 2018
 By www-data
Copyright (c) 2017 by Panji Nugraha. All rights reserved.
</metadata>
<defs>
<font id="RecipeDaily-Regular" horiz-adv-x="289" >
  <font-face 
    font-family="Recipe Daily"
    font-weight="400"
    font-stretch="normal"
    units-per-em="1000"
    panose-1="0 0 5 0 0 0 0 0 0 0"
    ascent="800"
    descent="-200"
    x-height="718"
    cap-height="716"
    bbox="-380.569 -235 690.637 958.673"
    underline-thickness="50"
    underline-position="-100"
    unicode-range="U+0020-2248"
  />
<missing-glyph horiz-adv-x="500" 
d="M410 800v-1000h-317v1000h317zM333 733h-165v-33h65v-37h-66v-33h166v33h-66v37h66v33zM267 604h-100v-104h166v34h-66v70zM233 570v-36h-33v36h33zM333 473h-166v-33h66v-37h-66v-33h100v70h66v33zM333 413h-33v-66h-133v-34h166v100zM333 291h-100v-56h34v23h33v-47
h-100v80h-33v-113h166v113zM333 118h-166v-113h166v113zM300 85v-47h-100v47h100zM333 -18h-166v-33h70l-70 -47v-33h166v33h-102l70 47h32v33z" />
    <glyph glyph-name=".notdef" horiz-adv-x="500" 
d="M410 800v-1000h-317v1000h317zM333 733h-165v-33h65v-37h-66v-33h166v33h-66v37h66v33zM267 604h-100v-104h166v34h-66v70zM233 570v-36h-33v36h33zM333 473h-166v-33h66v-37h-66v-33h100v70h66v33zM333 413h-33v-66h-133v-34h166v100zM333 291h-100v-56h34v23h33v-47
h-100v80h-33v-113h166v113zM333 118h-166v-113h166v113zM300 85v-47h-100v47h100zM333 -18h-166v-33h70l-70 -47v-33h166v33h-102l70 47h32v33z" />
    <glyph glyph-name="space" unicode=" " horiz-adv-x="200" 
 />
    <glyph glyph-name="A" unicode="A" horiz-adv-x="272" 
d="M5 1c-6 0 -10 3 -14 6c-2 3 -3 6 -2 10c5 23 7 46 15 69c3 9 6 18 8 27c17 94 12 101 15 128c4 28 7 57 9 87c1 15 4 29 6 44c4 29 11 58 18 86c0 3 20 108 22 123c3 20 4 39 7 59c2 11 2 15 14 81c6 7 13 17 31 13c4 -1 8 -3 10 -7c22 -30 35 -135 44 -203
c18 -135 6 -1 28 -283c1 -17 3 -34 4 -51c1 -12 2 -35 2 -35c3 -16 2 -32 3 -48c1 -22 3 -31 7 -70c1 -14 -7 -24 -19 -29c-11 -4 -23 -3 -34 5c-2 1 -4 4 -4 7c-3 12 -1 57 -3 72c-5 1 -8 2 -11 2c-53 -3 -56 0 -89 3h-11c-2 -6 -14 -45 -15 -62c-1 -8 -5 -16 -10 -23
c-9 -10 -19 -12 -31 -11zM72 145c58 -4 54 -4 98 2c-10 42 -4 29 -9 92c-2 25 -1 21 -16 186v7c-5 39 -10 77 -14 102l-4 9c-3 -12 -5 -23 -7 -33l-6 -33c-5 -39 -16 -71 -22 -106c-2 -18 -6 -36 -7 -55c-1 -15 -3 -30 -5 -45l-3 -51l-6 -60c-1 -5 -3 -10 1 -15z" />
    <glyph glyph-name="Aacute" unicode="&#xc1;" horiz-adv-x="272" 
d="M126 769c-9 2 -16 7 -19 15c-2 5 -7 8 -6 13l2 8c10 24 22 48 38 69l3 3c2 0 4 0 5 1c14 2 24 -5 32 -14c6 -5 6 -15 2 -21c-1 -2 -4 -5 -5 -7c-6 -9 -11 -18 -14 -28s-8 -20 -13 -30c-4 -8 -16 -12 -25 -9zM5 1c-6 0 -10 3 -14 6c-2 3 -3 6 -2 10c5 23 7 46 15 69
c3 9 6 18 8 27c17 94 12 101 15 128c4 28 7 57 9 87c1 15 4 29 6 44c4 29 11 58 18 86c0 3 20 108 22 123c3 20 4 39 7 59c2 11 2 15 14 81c6 7 13 17 31 13c4 -1 8 -3 10 -7c22 -30 35 -135 44 -203c18 -135 6 -1 28 -283c1 -17 3 -34 4 -51c1 -12 2 -35 2 -35
c3 -16 2 -32 3 -48c1 -22 3 -31 7 -70c1 -14 -7 -24 -19 -29c-11 -4 -23 -3 -34 5c-2 1 -4 4 -4 7c-3 12 -1 57 -3 72c-5 1 -8 2 -11 2c-53 -3 -56 0 -89 3h-11c-2 -6 -14 -45 -15 -62c-1 -8 -5 -16 -10 -23c-9 -10 -19 -12 -31 -11zM72 145c58 -4 54 -4 98 2
c-10 42 -4 29 -9 92c-2 25 -1 21 -16 186v7c-5 39 -10 77 -14 102l-4 9c-3 -12 -5 -23 -7 -33l-6 -33c-5 -39 -16 -71 -22 -106c-2 -18 -6 -36 -7 -55c-1 -15 -3 -30 -5 -45l-3 -51l-6 -60c-1 -5 -3 -10 1 -15z" />
    <glyph glyph-name="Acircumflex" unicode="&#xc2;" horiz-adv-x="272" 
d="M170 772c-9 -1 -18 2 -24 10c-8 8 -7 11 -11 15s-8 4 -12 0c-5 -4 -9 -9 -13 -15c-11 -15 -29 -17 -42 -3c-3 3 -5 7 -7 11c-3 8 -1 16 5 21c12 12 26 22 37 35c7 9 22 11 33 6c4 -2 9 -5 12 -9c12 -11 5 -5 12 -12l16 -16c5 -6 9 -12 11 -19c1 -2 1 -5 2 -7
c0 -11 -7 -16 -19 -17zM5 1c-6 0 -10 3 -14 6c-2 3 -3 6 -2 10c5 23 7 46 15 69c3 9 6 18 8 27c17 94 12 101 15 128c4 28 7 57 9 87c1 15 4 29 6 44c4 29 11 58 18 86c0 3 20 108 22 123c3 20 4 39 7 59c2 11 2 15 14 81c6 7 13 17 31 13c4 -1 8 -3 10 -7
c22 -30 35 -135 44 -203c18 -135 6 -1 28 -283c1 -17 3 -34 4 -51c1 -12 2 -35 2 -35c3 -16 2 -32 3 -48c1 -22 3 -31 7 -70c1 -14 -7 -24 -19 -29c-11 -4 -23 -3 -34 5c-2 1 -4 4 -4 7c-3 12 -1 57 -3 72c-5 1 -8 2 -11 2c-53 -3 -56 0 -89 3h-11c-2 -6 -14 -45 -15 -62
c-1 -8 -5 -16 -10 -23c-9 -10 -19 -12 -31 -11zM72 145c58 -4 54 -4 98 2c-10 42 -4 29 -9 92c-2 25 -1 21 -16 186v7c-5 39 -10 77 -14 102l-4 9c-3 -12 -5 -23 -7 -33l-6 -33c-5 -39 -16 -71 -22 -106c-2 -18 -6 -36 -7 -55c-1 -15 -3 -30 -5 -45l-3 -51l-6 -60
c-1 -5 -3 -10 1 -15z" />
    <glyph glyph-name="Adieresis" unicode="&#xc4;" horiz-adv-x="276" 
d="M80 787c-13 6 -19 17 -24 30c-1 3 0 6 0 9c2 8 3 16 5 24c7 4 14 6 21 6c9 1 17 -2 24 -7s12 -11 16 -18c1 -1 1 -1 1 -2c5 -13 -3 -35 -15 -42c-10 -5 -19 -4 -28 0zM200 782c-11 -2 -19 2 -26 9c-9 8 -14 19 -15 31c0 7 3 14 6 20c6 11 15 15 27 14
c18 -2 32 -12 41 -28c2 -4 2 -10 3 -16c1 -9 -2 -16 -9 -22l-6 -4c-7 -1 -14 -3 -21 -4zM5 1c-6 0 -10 3 -14 6c-2 3 -3 6 -2 10c5 23 7 46 15 69c3 9 6 18 8 27c17 94 12 101 15 128c4 28 7 57 9 87c1 15 4 29 6 44c4 29 11 58 18 86c0 3 20 108 22 123c3 20 4 39 7 59
c2 11 2 15 14 81c6 7 13 17 31 13c4 -1 8 -3 10 -7c22 -30 35 -135 44 -203c18 -135 6 -1 28 -283c1 -17 3 -34 4 -51c1 -12 2 -35 2 -35c3 -16 2 -32 3 -48c1 -22 3 -31 7 -70c1 -14 -7 -24 -19 -29c-11 -4 -23 -3 -34 5c-2 1 -4 4 -4 7c-3 12 -1 57 -3 72c-5 1 -8 2 -11 2
c-53 -3 -56 0 -89 3h-11c-2 -6 -14 -45 -15 -62c-1 -8 -5 -16 -10 -23c-9 -10 -19 -12 -31 -11zM72 145c58 -4 54 -4 98 2c-10 42 -4 29 -9 92c-2 25 -1 21 -16 186v7c-5 39 -10 77 -14 102l-4 9c-3 -12 -5 -23 -7 -33l-6 -33c-5 -39 -16 -71 -22 -106c-2 -18 -6 -36 -7 -55
c-1 -15 -3 -30 -5 -45l-3 -51l-6 -60c-1 -5 -3 -10 1 -15z" />
    <glyph glyph-name="Agrave" unicode="&#xc0;" horiz-adv-x="272" 
d="M146 763c-14 1 -24 6 -30 16s-13 21 -18 32c-5 13 -3 6 -11 17c-4 5 -8 10 -11 16c-6 10 0 21 11 24c13 3 25 -1 34 -10c4 -3 7 -7 10 -11c7 -10 3 -3 9 -13c8 -12 15 -24 22 -36c6 -11 3 -26 -8 -32zM5 1c-6 0 -10 3 -14 6c-2 3 -3 6 -2 10c5 23 7 46 15 69
c3 9 6 18 8 27c17 94 12 101 15 128c4 28 7 57 9 87c1 15 4 29 6 44c4 29 11 58 18 86c0 3 20 108 22 123c3 20 4 39 7 59c2 11 2 15 14 81c6 7 13 17 31 13c4 -1 8 -3 10 -7c22 -30 35 -135 44 -203c18 -135 6 -1 28 -283c1 -17 3 -34 4 -51c1 -12 2 -35 2 -35
c3 -16 2 -32 3 -48c1 -22 3 -31 7 -70c1 -14 -7 -24 -19 -29c-11 -4 -23 -3 -34 5c-2 1 -4 4 -4 7c-3 12 -1 57 -3 72c-5 1 -8 2 -11 2c-53 -3 -56 0 -89 3h-11c-2 -6 -14 -45 -15 -62c-1 -8 -5 -16 -10 -23c-9 -10 -19 -12 -31 -11zM72 145c58 -4 54 -4 98 2
c-10 42 -4 29 -9 92c-2 25 -1 21 -16 186v7c-5 39 -10 77 -14 102l-4 9c-3 -12 -5 -23 -7 -33l-6 -33c-5 -39 -16 -71 -22 -106c-2 -18 -6 -36 -7 -55c-1 -15 -3 -30 -5 -45l-3 -51l-6 -60c-1 -5 -3 -10 1 -15z" />
    <glyph glyph-name="Aring" unicode="&#xc5;" horiz-adv-x="272" 
d="M137 772c-19 -2 -32 8 -45 20c-8 8 -11 19 -12 30c0 2 0 4 1 5c5 15 11 29 23 40c2 1 4 2 6 2c7 1 14 1 20 0c4 -1 8 -2 10 -5c4 -4 8 -7 13 -9c9 -4 15 -11 22 -18s10 -15 10 -25c0 -7 2 -13 -4 -18c-1 -2 -3 -4 -5 -6c-1 -1 -3 -2 -5 -4c-9 -11 -21 -13 -34 -12z
M135 798c6 -1 12 0 16 6c0 0 1 1 2 1c1 1 2 2 2 3c3 2 2 5 2 8c0 5 -1 9 -5 12c-3 3 -6 7 -10 9c-2 1 -4 2 -6 4c-1 1 -3 2 -4 2c-3 1 -7 0 -10 0c-1 0 -2 0 -3 -1c-5 -5 -8 -11 -11 -18v-3c1 -5 2 -10 6 -14c6 -5 12 -10 21 -9zM5 1c-6 0 -10 3 -14 6c-2 3 -3 6 -2 10
c5 23 7 46 15 69c3 9 6 18 8 27c17 94 12 101 15 128c4 28 7 57 9 87c1 15 4 29 6 44c4 29 11 58 18 86c0 3 20 108 22 123c3 20 4 39 7 59c2 11 2 15 14 81c6 7 13 17 31 13c4 -1 8 -3 10 -7c22 -30 35 -135 44 -203c18 -135 6 -1 28 -283c1 -17 3 -34 4 -51
c1 -12 2 -35 2 -35c3 -16 2 -32 3 -48c1 -22 3 -31 7 -70c1 -14 -7 -24 -19 -29c-11 -4 -23 -3 -34 5c-2 1 -4 4 -4 7c-3 12 -1 57 -3 72c-5 1 -8 2 -11 2c-53 -3 -56 0 -89 3h-11c-2 -6 -14 -45 -15 -62c-1 -8 -5 -16 -10 -23c-9 -10 -19 -12 -31 -11zM72 145
c58 -4 54 -4 98 2c-10 42 -4 29 -9 92c-2 25 -1 21 -16 186v7c-5 39 -10 77 -14 102l-4 9c-3 -12 -5 -23 -7 -33l-6 -33c-5 -39 -16 -71 -22 -106c-2 -18 -6 -36 -7 -55c-1 -15 -3 -30 -5 -45l-3 -51l-6 -60c-1 -5 -3 -10 1 -15z" />
    <glyph glyph-name="Atilde" unicode="&#xc3;" horiz-adv-x="272" 
d="M93 789c-18 -9 -32 11 -36 27c-4 10 -4 18 1 23c2 2 5 3 10 2c2 -1 5 -1 7 -2c7 -2 13 -1 20 1c9 2 17 5 26 7c7 2 15 5 22 8c6 3 12 4 17 4l14 -2c15 -3 21 -16 28 -28c5 -11 4 -27 -12 -23c-4 0 -7 1 -8 1c-10 3 -17 2 -24 3c-8 1 -15 -1 -23 -4
c-14 -5 -28 -11 -42 -17zM5 1c-6 0 -10 3 -14 6c-2 3 -3 6 -2 10c5 23 7 46 15 69c3 9 6 18 8 27c17 94 12 101 15 128c4 28 7 57 9 87c1 15 4 29 6 44c4 29 11 58 18 86c0 3 20 108 22 123c3 20 4 39 7 59c2 11 2 15 14 81c6 7 13 17 31 13c4 -1 8 -3 10 -7
c22 -30 35 -135 44 -203c18 -135 6 -1 28 -283c1 -17 3 -34 4 -51c1 -12 2 -35 2 -35c3 -16 2 -32 3 -48c1 -22 3 -31 7 -70c1 -14 -7 -24 -19 -29c-11 -4 -23 -3 -34 5c-2 1 -4 4 -4 7c-3 12 -1 57 -3 72c-5 1 -8 2 -11 2c-53 -3 -56 0 -89 3h-11c-2 -6 -14 -45 -15 -62
c-1 -8 -5 -16 -10 -23c-9 -10 -19 -12 -31 -11zM72 145c58 -4 54 -4 98 2c-10 42 -4 29 -9 92c-2 25 -1 21 -16 186v7c-5 39 -10 77 -14 102l-4 9c-3 -12 -5 -23 -7 -33l-6 -33c-5 -39 -16 -71 -22 -106c-2 -18 -6 -36 -7 -55c-1 -15 -3 -30 -5 -45l-3 -51l-6 -60
c-1 -5 -3 -10 1 -15z" />
    <glyph glyph-name="AE" unicode="&#xc6;" horiz-adv-x="391" 
d="M16 0c-5 1 -9 3 -13 7c-3 3 -4 6 -3 9c6 23 8 47 15 69c3 9 7 18 8 28c17 93 12 100 16 127c4 29 7 58 9 87c1 15 4 30 6 45c4 29 11 57 18 85c0 3 19 109 22 124c3 19 4 39 7 58c1 12 2 15 14 81c6 7 13 17 31 14c4 -1 8 -3 9 -7c14 -19 24 -65 32 -113c0 26 1 53 2 82
c0 3 2 7 4 9c8 8 18 13 29 11c12 -3 25 -1 38 -3c10 -2 21 -4 32 -1c17 -5 35 -6 32 -36c-5 -39 -53 -17 -79 -17c-1 -11 -1 -21 -1 -32c2 -38 -7 -77 2 -114c1 -4 7 -3 14 -3c17 0 48 -1 60 -11c20 -12 9 -42 -11 -44c-4 -1 -7 -2 -10 -2c-8 -1 -36 -1 -44 1
c-7 -13 -3 -374 4 -394c4 -1 10 -3 15 -2c17 3 33 -1 49 -3c5 0 10 -3 15 -6c19 -11 14 -29 5 -39c-14 -16 -37 -9 -69 -8c-14 1 -28 3 -43 -1c-9 -2 -17 0 -25 4c-5 1 -10 3 -15 7c-2 2 -4 5 -4 7c-3 12 -1 58 -4 73c-4 0 -7 1 -11 1c-52 -3 -55 1 -88 3c-4 1 -7 0 -11 0
c-2 -6 -14 -45 -15 -61c-1 -9 -5 -16 -10 -23c-9 -10 -20 -13 -32 -12zM83 144c58 -4 55 -3 99 2c-10 42 -5 29 -9 92l-16 186c0 3 0 5 -1 8c-5 38 -9 76 -13 101c-1 3 -3 5 -5 9l-6 -33c-2 -11 -5 -21 -6 -32c-5 -39 -17 -71 -22 -106c-2 -19 -6 -37 -7 -55
c-1 -15 -4 -30 -5 -45l-3 -52c-2 -20 -5 -40 -6 -59c-1 -5 -3 -10 0 -16z" />
    <glyph glyph-name="B" unicode="B" horiz-adv-x="231" 
d="M57 3c-2 0 -4 1 -6 2c-5 5 -12 6 -19 6c-9 1 -12 9 -14 16c-3 10 -4 89 -4 95s6 254 2 300c-7 81 -1 146 -3 212c-1 41 -2 61 -4 72c-1 10 7 23 17 23c31 2 59 -7 81 -33c20 -23 30 -50 35 -78c4 -22 3 -63 -3 -88c-1 -5 -3 -9 -29 -68c18 -22 21 -28 29 -38
c11 -12 17 -26 26 -40c7 -11 10 -25 15 -38c6 -14 7 -30 9 -46c4 -40 1 -68 0 -78c-7 -75 -11 -103 -31 -130c-25 -34 -44 -96 -101 -89zM67 515c4 -1 5 2 6 3c8 18 13 38 14 58c0 8 1 16 1 24c-2 15 -5 30 -11 44c-3 6 -5 12 -10 19c0 -26 0 -51 1 -75s-3 -49 -1 -73z
M66 55c4 -2 7 0 9 3c11 11 18 25 27 37c31 43 25 85 30 137c4 39 -1 77 -13 115c-7 18 -15 35 -42 72c-1 2 -3 4 -6 2c0 -19 1 -38 0 -57c-3 -25 -1 -50 -3 -75c0 -17 2 -34 0 -51c-4 -33 -4 -109 -5 -149c-1 -11 1 -23 3 -34z" />
    <glyph glyph-name="C" unicode="C" horiz-adv-x="180" 
d="M84 3c-8 1 -30 -5 -46 10c-1 1 -3 2 -5 3c-12 5 -18 15 -22 28c0 3 -2 6 -2 9c-3 32 -10 64 -8 97c1 29 -4 61 2 109c3 23 8 47 7 71c-1 3 0 6 1 9c9 57 -5 93 2 165c3 32 5 63 3 95c-1 10 -1 19 2 29c4 14 -3 8 13 47c12 27 9 23 14 26c8 6 15 12 24 16
c17 8 43 3 54 -11c5 -6 10 -14 14 -21c8 -16 -2 -31 -19 -31c-28 0 -31 12 -36 1c-7 -14 -10 -43 -9 -58c2 -122 -10 -96 -3 -169c1 -9 2 -19 2 -29c-1 -27 -1 -54 -3 -81c-2 -20 -5 -39 -8 -59c-2 -12 -4 -24 -4 -36c2 -167 1 -168 47 -155c9 2 16 -2 23 -5c1 -1 3 -2 3 -3
c8 -11 6 -25 -2 -37c-11 -15 -26 -22 -44 -20z" />
    <glyph glyph-name="Ccedilla" unicode="&#xc7;" horiz-adv-x="191" 
d="M84 -116c-9 -3 -19 -1 -28 2c-7 3 -11 8 -14 14c-3 7 1 14 8 16c3 1 7 1 11 1c7 -2 12 3 15 9c3 4 3 10 0 15c-1 2 -3 3 -5 4c-5 3 -11 5 -14 9c-5 5 -9 11 -8 18l3 15c1 7 1 13 1 20c-1 1 -2 2 -4 3c-1 2 -3 3 -5 4c-12 5 -18 15 -22 27c-1 3 -2 6 -2 9
c-3 32 -10 65 -8 97c1 29 -4 61 2 109c3 24 7 48 7 72c-1 3 0 6 1 9c9 57 -5 92 2 165c3 31 5 63 2 95c0 9 0 19 3 28c4 14 -3 8 13 47c12 27 9 24 14 27c8 5 15 11 24 15c17 8 43 3 54 -10c5 -7 10 -14 14 -22c8 -15 -2 -31 -19 -30c-28 0 -31 11 -36 0
c-7 -13 -10 -42 -9 -58c2 -122 -10 -96 -3 -168c1 -10 2 -20 2 -29c-1 -27 -1 -54 -3 -81c-2 -20 -5 -40 -8 -59c-2 -13 -4 -25 -4 -37c2 -167 1 -167 47 -155c9 3 16 -2 23 -5c1 0 2 -1 3 -3c8 -11 6 -25 -2 -36c-11 -16 -26 -22 -44 -21c-1 1 -2 1 -3 1v-13
c-1 -3 0 -6 0 -10c7 -6 15 -11 20 -19c3 -4 6 -8 7 -13c2 -8 2 -16 1 -24c0 -16 -10 -27 -23 -34c-4 -2 -8 -3 -13 -4z" />
    <glyph glyph-name="D" unicode="D" horiz-adv-x="237" 
d="M44 -5c-2 0 -4 0 -5 1c-5 5 -12 4 -18 5c-3 0 -6 0 -9 2c-12 7 -14 11 -11 26c3 16 4 31 4 47c1 10 1 20 1 30c-2 19 -1 38 1 57c4 41 6 82 8 124v37c0 14 0 27 -1 41c0 14 0 29 -2 44c-3 31 -3 62 -1 93c2 27 5 54 7 81c0 10 0 20 1 30c0 24 -2 48 1 71c1 6 0 12 -1 18
c9 9 18 15 30 15c6 0 12 3 18 4c12 4 22 0 31 -7l18 -18c6 -7 12 -13 18 -20c2 -2 4 -4 6 -7l18 -33c13 -23 21 -48 24 -74c2 -19 3 -37 6 -56c5 -32 5 -64 7 -96c3 -45 3 -89 -4 -134v-9c-2 -14 -2 -28 -4 -42l-12 -64c-2 -6 -4 -12 -7 -18c-4 -12 -11 -23 -14 -36
c-1 -4 -3 -8 -5 -11c-3 -4 -4 -9 -4 -14c-2 -13 -7 -25 -12 -37c-4 -13 -14 -21 -24 -28c-8 -5 -17 -9 -25 -15c-12 -8 -26 -8 -40 -7zM74 74c2 18 10 33 21 46l4 6c7 15 12 30 16 46c4 20 7 40 10 61c2 10 2 21 3 31c2 25 5 50 7 75c1 6 1 12 0 18c-1 33 -3 65 -5 98
c-1 30 -2 59 -4 89c-2 23 -6 46 -16 67c-8 15 -19 27 -28 41c-1 1 -3 2 -5 4c-1 -4 -1 -7 -1 -9c1 -37 -1 -74 -4 -110c-3 -32 -4 -63 -2 -95c0 -13 2 -25 3 -38s0 -26 1 -39c0 -20 2 -40 1 -60c-1 -31 -4 -63 -6 -95c-1 -17 -3 -34 -4 -51c-1 -13 -1 -27 0 -40
c1 -8 2 -15 1 -23v-16c1 -3 2 -6 8 -6z" />
    <glyph glyph-name="Eth" unicode="&#xd0;" horiz-adv-x="239" 
d="M45 -10c-1 0 -3 0 -4 1c-6 5 -12 4 -19 4c-2 0 -6 1 -8 3c-12 7 -14 11 -11 26s3 31 4 46c0 10 1 21 0 31c-1 19 0 38 2 57c4 41 6 82 7 123c1 13 0 25 0 38v1h-3h-9c-23 0 -36 16 -41 37c0 3 0 8 2 14c1 4 5 7 8 10c3 4 7 3 11 3c10 -1 21 0 31 0c0 7 0 13 -1 19
c-3 31 -3 63 -1 94l6 81c1 10 1 20 1 30c0 24 -1 47 2 71c1 6 0 12 -1 18c8 9 17 15 30 15c6 0 12 3 17 4c12 3 22 -1 31 -8c7 -5 13 -11 18 -18c7 -6 13 -13 19 -19c2 -2 4 -5 5 -7c7 -11 13 -22 19 -33c12 -24 21 -48 24 -74c1 -19 3 -38 6 -56c4 -32 5 -64 7 -96
c3 -45 2 -90 -4 -134v-9c-2 -14 -3 -28 -5 -42c-3 -21 -7 -43 -12 -64c-1 -6 -4 -12 -6 -18c-5 -12 -11 -24 -15 -36c-1 -4 -2 -8 -4 -11c-3 -5 -4 -9 -5 -14c-1 -14 -6 -26 -11 -38c-4 -12 -14 -20 -25 -27l-24 -15c-13 -8 -27 -8 -41 -7zM75 69c3 18 10 32 21 46
c2 2 3 4 4 6c8 15 13 30 16 45c4 21 8 41 11 61c2 11 2 21 3 32c2 25 5 50 7 75v18c-2 32 -3 65 -5 98c-1 29 -2 59 -4 89c-2 23 -7 45 -17 67c-7 15 -18 27 -28 40c-1 2 -2 3 -5 4c0 -4 -1 -6 -1 -9c2 -36 -1 -73 -4 -110c-2 -31 -3 -63 -2 -94c1 -13 3 -25 4 -38v-12
c8 -1 15 -1 23 -2c7 0 14 0 21 1h4c3 -20 4 -40 3 -60v-2h-11h-38v-24l-6 -95c-2 -17 -3 -34 -4 -51c-1 -13 -1 -27 0 -40c0 -8 2 -15 1 -23v-16c0 -4 2 -6 7 -6z" />
    <glyph glyph-name="E" unicode="E" horiz-adv-x="214" 
d="M54 10c-21 -6 -42 13 -42 35c1 102 4 134 4 134c1 168 -11 291 -4 526c0 3 2 7 4 9c8 8 18 13 29 11c12 -3 25 -1 38 -3c10 -2 21 -4 32 -1c17 -5 35 -6 32 -36c-5 -39 -53 -17 -79 -17c-1 -11 -1 -21 -1 -32c2 -38 -7 -77 2 -114c1 -4 7 -3 14 -3c17 0 48 -1 60 -11
c20 -12 9 -42 -11 -44c-4 -1 -7 -2 -10 -2c-8 -1 -36 -1 -44 1c-7 -13 -3 -374 4 -394c4 -1 10 -3 15 -2c17 3 33 -1 49 -3c5 0 10 -3 15 -6c19 -11 14 -29 5 -39c-14 -16 -37 -9 -69 -8c-14 1 -28 3 -43 -1z" />
    <glyph glyph-name="Eacute" unicode="&#xc9;" horiz-adv-x="214" 
d="M68 764c-9 3 -16 7 -19 16c-2 5 -7 8 -5 13c0 2 0 5 1 7c10 25 22 49 38 70c1 1 2 1 3 3h6c13 3 23 -4 31 -13c6 -5 7 -15 2 -21c-1 -3 -4 -5 -5 -7c-6 -9 -10 -18 -14 -28c-3 -11 -8 -20 -13 -30c-4 -8 -16 -12 -25 -10zM54 10c-21 -6 -42 13 -42 35c1 102 4 134 4 134
c1 168 -11 291 -4 526c0 3 2 7 4 9c8 8 18 13 29 11c12 -3 25 -1 38 -3c10 -2 21 -4 32 -1c17 -5 35 -6 32 -36c-5 -39 -53 -17 -79 -17c-1 -11 -1 -21 -1 -32c2 -38 -7 -77 2 -114c1 -4 7 -3 14 -3c17 0 48 -1 60 -11c20 -12 9 -42 -11 -44c-4 -1 -7 -2 -10 -2
c-8 -1 -36 -1 -44 1c-7 -13 -3 -374 4 -394c4 -1 10 -3 15 -2c17 3 33 -1 49 -3c5 0 10 -3 15 -6c19 -11 14 -29 5 -39c-14 -16 -37 -9 -69 -8c-14 1 -28 3 -43 -1z" />
    <glyph glyph-name="Ecircumflex" unicode="&#xca;" horiz-adv-x="214" 
d="M115 785c-10 0 -19 2 -25 10c-8 8 -7 11 -11 15s-8 4 -12 0s-9 -9 -13 -15c-11 -15 -28 -17 -42 -3c-3 3 -5 7 -6 11c-4 8 -1 16 5 21c12 12 25 22 36 35c7 9 22 11 33 6c4 -2 9 -5 13 -9c11 -11 0 0 11 -12c6 -5 11 -11 16 -16c5 -6 9 -12 12 -19c0 -2 0 -5 1 -7
c0 -11 -6 -16 -18 -17zM54 10c-21 -6 -42 13 -42 35c1 102 4 134 4 134c1 168 -11 291 -4 526c0 3 2 7 4 9c8 8 18 13 29 11c12 -3 25 -1 38 -3c10 -2 21 -4 32 -1c17 -5 35 -6 32 -36c-5 -39 -53 -17 -79 -17c-1 -11 -1 -21 -1 -32c2 -38 -7 -77 2 -114c1 -4 7 -3 14 -3
c17 0 48 -1 60 -11c20 -12 9 -42 -11 -44c-4 -1 -7 -2 -10 -2c-8 -1 -36 -1 -44 1c-7 -13 -3 -374 4 -394c4 -1 10 -3 15 -2c17 3 33 -1 49 -3c5 0 10 -3 15 -6c19 -11 14 -29 5 -39c-14 -16 -37 -9 -69 -8c-14 1 -28 3 -43 -1z" />
    <glyph glyph-name="Edieresis" unicode="&#xcb;" horiz-adv-x="214" 
d="M6 797c-13 6 -19 17 -24 30c-1 3 0 6 0 9c2 8 3 16 5 24c7 4 14 6 21 6c9 1 17 -2 24 -7s12 -11 16 -18c1 -1 1 -1 1 -2c5 -13 -3 -35 -15 -42c-10 -5 -19 -4 -28 0zM126 792c-11 -2 -19 2 -26 9c-9 8 -14 19 -15 31c0 7 3 14 6 20c6 11 15 15 27 14c18 -2 32 -12 41 -28
c2 -4 2 -10 3 -16c1 -9 -2 -16 -9 -22l-6 -4c-7 -1 -14 -3 -21 -4zM54 10c-21 -6 -42 13 -42 35c1 102 4 134 4 134c1 168 -11 291 -4 526c0 3 2 7 4 9c8 8 18 13 29 11c12 -3 25 -1 38 -3c10 -2 21 -4 32 -1c17 -5 35 -6 32 -36c-5 -39 -53 -17 -79 -17
c-1 -11 -1 -21 -1 -32c2 -38 -7 -77 2 -114c1 -4 7 -3 14 -3c17 0 48 -1 60 -11c20 -12 9 -42 -11 -44c-4 -1 -7 -2 -10 -2c-8 -1 -36 -1 -44 1c-7 -13 -3 -374 4 -394c4 -1 10 -3 15 -2c17 3 33 -1 49 -3c5 0 10 -3 15 -6c19 -11 14 -29 5 -39c-14 -16 -37 -9 -69 -8
c-14 1 -28 3 -43 -1z" />
    <glyph glyph-name="Egrave" unicode="&#xc8;" horiz-adv-x="214" 
d="M90 753c-14 1 -24 6 -30 16s-13 21 -18 32c-5 13 -3 6 -11 17c-4 5 -8 10 -11 16c-6 10 0 21 11 24c13 3 25 -1 34 -10c4 -3 7 -7 10 -11c7 -10 3 -3 9 -13c8 -12 15 -24 22 -36c6 -11 3 -26 -8 -32zM54 10c-21 -6 -42 13 -42 35c1 102 4 134 4 134c1 168 -11 291 -4 526
c0 3 2 7 4 9c8 8 18 13 29 11c12 -3 25 -1 38 -3c10 -2 21 -4 32 -1c17 -5 35 -6 32 -36c-5 -39 -53 -17 -79 -17c-1 -11 -1 -21 -1 -32c2 -38 -7 -77 2 -114c1 -4 7 -3 14 -3c17 0 48 -1 60 -11c20 -12 9 -42 -11 -44c-4 -1 -7 -2 -10 -2c-8 -1 -36 -1 -44 1
c-7 -13 -3 -374 4 -394c4 -1 10 -3 15 -2c17 3 33 -1 49 -3c5 0 10 -3 15 -6c19 -11 14 -29 5 -39c-14 -16 -37 -9 -69 -8c-14 1 -28 3 -43 -1z" />
    <glyph glyph-name="F" unicode="F" horiz-adv-x="197" 
d="M36 7c-12 -1 -21 7 -23 20c-12 95 2 72 -2 132c-1 15 -3 364 -5 386c0 0 1 59 -5 153c-1 7 -7 26 29 30c20 2 41 3 61 0c32 -3 70 -11 61 -42c-7 -26 -23 -33 -48 -23c-21 8 -30 10 -43 9c-4 -29 3 -23 4 -113c0 -37 6 -30 7 -36c4 -4 9 -4 13 -4c22 2 64 -2 72 -30
c-1 -2 -1 -6 -2 -9c-5 -13 -13 -22 -27 -23c-17 -3 -54 3 -55 3c0 -4 -2 -353 -1 -357c3 -52 12 -92 -36 -96z" />
    <glyph glyph-name="G" unicode="G" horiz-adv-x="220" 
d="M123 6c-42 -22 -87 7 -92 13c-15 24 -40 49 -27 171l2 162c1 48 -8 89 -5 175c2 32 3 63 5 95c4 49 15 69 29 84c1 1 2 1 2 2c13 15 30 20 48 22c32 4 82 -45 54 -80c-11 -15 -31 -6 -40 -3c-3 2 -6 4 -7 8c-3 5 -4 11 -10 15c-6 -7 -11 -15 -13 -24
c-4 -18 -7 -119 -8 -137c-2 -71 8 -96 6 -193l-1 -152c0 -11 0 -22 -1 -33c0 -9 0 -49 7 -60c3 -3 3 -7 5 -11c4 -5 8 -9 15 -7c3 1 6 1 10 1c30 38 12 61 -28 58c-1 1 -2 2 -2 4v7c0 18 20 42 79 38c11 0 36 -46 27 -91c-8 -46 -35 -54 -55 -64z" />
    <glyph glyph-name="H" unicode="H" horiz-adv-x="234" 
d="M158 1c-7 -1 -14 2 -20 6c-5 3 -7 8 -8 15c-3 20 0 39 0 59c1 3 0 366 0 370c-8 4 -16 7 -26 7c-7 -1 -14 1 -21 2c-5 1 -10 1 -16 -2c-1 -3 -1 -6 -1 -9c0 -13 -1 -387 2 -400c2 -8 2 -16 -1 -24c-3 -5 -6 -8 -11 -10c-12 -4 -25 -8 -38 -5c-5 2 -10 4 -13 10
c-2 6 -6 12 -4 20c1 4 -1 10 -1 15c0 6 1 11 2 17c2 7 3 13 3 20c0 28 3 56 5 84c1 12 0 24 0 36v36c1 19 1 39 1 58v133c0 8 -2 16 -3 23c-3 15 -3 29 -3 44c0 24 0 47 -1 71c0 32 -1 63 0 95c0 9 0 19 -1 28c-1 6 1 11 7 14c3 1 6 2 8 4c8 4 15 4 23 1c9 -5 15 -11 18 -20
c1 -1 1 -3 1 -5l9 -167v-6c1 -3 3 -6 7 -7c6 -1 12 -2 19 -2c7 1 15 -1 23 -1c4 0 8 1 13 2c0 11 1 19 0 28l-1 70l-3 62c0 9 1 18 3 27c1 3 2 7 2 10c0 8 4 13 10 16c15 10 38 0 42 -17c1 -3 1 -6 0 -9c-5 -23 6 -528 6 -534c-1 -3 -1 -6 0 -9c2 -17 0 -33 0 -50
c0 -14 0 -28 2 -42c1 -9 1 -19 2 -28c1 -8 -3 -15 -5 -22c-1 -1 -1 -2 -2 -2c-8 -8 -19 -10 -29 -12z" />
    <glyph glyph-name="I" unicode="I" horiz-adv-x="118" 
d="M30 14c-11 2 -17 10 -16 22c1 19 3 37 4 56c2 20 3 40 2 60c0 11 1 22 2 32c0 14 1 28 1 42c2 26 1 53 -2 79c-1 2 -1 4 -1 6c-2 160 -18 206 -8 382c0 4 1 7 2 11c7 20 24 22 40 12l6 -4c3 -3 5 -7 5 -11c-1 -7 -1 -15 -1 -22s8 -269 8 -365v-7c6 -23 2 -47 5 -71
c2 -11 0 -22 -1 -33c-1 -12 -2 -24 -2 -36c-1 -18 0 -35 -1 -53c-2 -23 -1 -47 1 -70c0 -7 -1 -13 -7 -18c0 0 -1 0 -1 -1c-9 -14 -22 -14 -36 -11z" />
    <glyph glyph-name="Iacute" unicode="&#xcd;" horiz-adv-x="129" 
d="M36 748c-9 3 -16 7 -19 16c-2 5 -7 8 -5 13c0 2 0 5 1 7c10 25 22 49 38 70c1 1 2 1 3 3h6c13 3 23 -4 31 -13c6 -5 7 -15 2 -21c-1 -3 -4 -5 -5 -7c-6 -9 -10 -18 -14 -28c-3 -11 -8 -20 -13 -30c-4 -8 -16 -12 -25 -10zM41 14c-11 2 -17 10 -16 22c1 19 3 37 4 56
c2 20 3 40 2 60c0 11 1 22 2 32c0 14 1 28 1 42c2 26 1 53 -2 79c-1 2 -1 4 -1 6c-2 160 -18 206 -8 382c0 4 1 7 2 11c7 20 24 22 40 12l6 -4c3 -3 5 -7 5 -11c-1 -7 -1 -15 -1 -22s8 -269 8 -365v-7c6 -23 2 -47 5 -71c2 -11 0 -22 -1 -33c-1 -12 -2 -24 -2 -36
c-1 -18 0 -35 -1 -53c-2 -23 -1 -47 1 -70c0 -7 -1 -13 -7 -18c0 0 -1 0 -1 -1c-9 -14 -22 -14 -36 -11z" />
    <glyph glyph-name="Icircumflex" unicode="&#xce;" horiz-adv-x="129" 
d="M99 765c-10 0 -19 2 -25 10c-8 8 -7 11 -11 15s-8 4 -12 0s-9 -9 -13 -15c-11 -15 -28 -17 -42 -3c-3 3 -5 7 -6 11c-4 8 -1 16 5 21c12 12 25 22 36 35c7 9 22 11 33 6c4 -2 9 -5 13 -9c11 -11 0 0 11 -12c6 -5 11 -11 16 -16c5 -6 9 -12 12 -19c0 -2 0 -5 1 -7
c0 -11 -6 -16 -18 -17zM41 14c-11 2 -17 10 -16 22c1 19 3 37 4 56c2 20 3 40 2 60c0 11 1 22 2 32c0 14 1 28 1 42c2 26 1 53 -2 79c-1 2 -1 4 -1 6c-2 160 -18 206 -8 382c0 4 1 7 2 11c7 20 24 22 40 12l6 -4c3 -3 5 -7 5 -11c-1 -7 -1 -15 -1 -22s8 -269 8 -365v-7
c6 -23 2 -47 5 -71c2 -11 0 -22 -1 -33c-1 -12 -2 -24 -2 -36c-1 -18 0 -35 -1 -53c-2 -23 -1 -47 1 -70c0 -7 -1 -13 -7 -18c0 0 -1 0 -1 -1c-9 -14 -22 -14 -36 -11z" />
    <glyph glyph-name="Idieresis" unicode="&#xcf;" horiz-adv-x="129" 
d="M11 767c-13 6 -19 17 -24 30c-1 3 0 6 0 9c2 8 3 16 5 24c7 4 14 6 21 6c9 1 17 -2 24 -7s12 -11 16 -18c1 -1 1 -1 1 -2c5 -13 -3 -35 -15 -42c-10 -5 -19 -4 -28 0zM101 762c-11 -2 -19 2 -26 9c-9 8 -14 19 -15 31c0 7 3 14 6 20c6 11 15 15 27 14
c18 -2 32 -12 41 -28c2 -4 2 -10 3 -16c1 -9 -2 -16 -9 -22l-6 -4c-7 -1 -14 -3 -21 -4zM41 14c-11 2 -17 10 -16 22c1 19 3 37 4 56c2 20 3 40 2 60c0 11 1 22 2 32c0 14 1 28 1 42c2 26 1 53 -2 79c-1 2 -1 4 -1 6c-2 160 -18 206 -8 382c0 4 1 7 2 11c7 20 24 22 40 12
l6 -4c3 -3 5 -7 5 -11c-1 -7 -1 -15 -1 -22s8 -269 8 -365v-7c6 -23 2 -47 5 -71c2 -11 0 -22 -1 -33c-1 -12 -2 -24 -2 -36c-1 -18 0 -35 -1 -53c-2 -23 -1 -47 1 -70c0 -7 -1 -13 -7 -18c0 0 -1 0 -1 -1c-9 -14 -22 -14 -36 -11z" />
    <glyph glyph-name="Igrave" unicode="&#xcc;" horiz-adv-x="129" 
d="M83 753c-14 1 -24 6 -30 16s-13 21 -18 32c-5 13 -3 6 -11 17c-4 5 -8 10 -11 16c-6 10 0 21 11 24c13 3 25 -1 34 -10c4 -3 7 -7 10 -11c7 -10 3 -3 9 -13c8 -12 15 -24 22 -36c6 -11 3 -26 -8 -32zM41 14c-11 2 -17 10 -16 22c1 19 3 37 4 56c2 20 3 40 2 60
c0 11 1 22 2 32c0 14 1 28 1 42c2 26 1 53 -2 79c-1 2 -1 4 -1 6c-2 160 -18 206 -8 382c0 4 1 7 2 11c7 20 24 22 40 12l6 -4c3 -3 5 -7 5 -11c-1 -7 -1 -15 -1 -22s8 -269 8 -365v-7c6 -23 2 -47 5 -71c2 -11 0 -22 -1 -33c-1 -12 -2 -24 -2 -36c-1 -18 0 -35 -1 -53
c-2 -23 -1 -47 1 -70c0 -7 -1 -13 -7 -18c0 0 -1 0 -1 -1c-9 -14 -22 -14 -36 -11z" />
    <glyph glyph-name="J" unicode="J" horiz-adv-x="176" 
d="M46 -14c-9 4 -18 7 -26 12c-10 6 -17 14 -20 25c-1 8 1 14 3 21c1 2 2 3 4 5c9 8 21 10 32 5c8 -4 15 -9 21 -16c5 -5 10 -4 13 3c5 12 9 25 10 39c2 26 -1 51 -4 76c0 7 -1 14 -1 22l-3 54c0 12 0 25 -1 37c-1 43 0 86 0 129l-3 73c-1 26 -3 51 -4 76c-2 20 -4 41 -2 61
c1 19 0 38 -1 56c0 5 -1 9 -2 13c-12 4 -21 6 -31 10c-13 4 -20 21 -12 32c2 3 5 6 8 7c7 3 15 4 23 2c11 -2 22 -5 33 -3c8 2 16 -3 22 -7c5 -2 8 -9 8 -15c1 -23 3 -45 4 -68c0 -3 0 -6 -1 -9c-4 -23 1 -46 2 -69c1 -24 5 -48 4 -73c0 -18 2 -37 3 -55v-55
c0 -20 1 -41 1 -62c0 -39 1 -79 5 -119c2 -25 4 -51 4 -76c1 -18 -1 -36 -2 -55c-2 -16 -8 -31 -17 -44c-10 -14 -23 -25 -40 -32c-10 -4 -20 -5 -30 0z" />
    <glyph glyph-name="K" unicode="K" horiz-adv-x="212" 
d="M144 -1c-7 -4 -14 -3 -20 2c-9 7 -16 16 -16 29c-2 31 -5 62 -10 93c-4 27 -9 54 -13 82c-2 14 -7 36 -12 52c-6 -16 -2 -40 -4 -54c-1 -14 -2 -28 -2 -42c0 -13 0 -27 1 -41c0 -14 1 -28 1 -42c1 -14 3 -28 4 -42c-2 -4 -5 -9 -9 -13c-2 -3 -5 -6 -9 -8
c-16 -11 -25 -10 -42 1c-2 8 -2 17 -1 26c2 17 3 35 2 52c0 2 -1 4 -1 6c1 33 1 66 2 98c1 43 3 86 3 128c1 33 0 66 -1 98c-1 23 -5 45 -7 68c-1 5 -1 10 -1 15c0 6 0 13 -1 19l-3 40c-1 28 -3 56 -4 84c-1 20 -1 39 -1 59c0 15 18 29 37 21c8 -4 13 -10 19 -19
c-5 -38 0 -75 2 -113c0 -10 0 -20 1 -30c4 -36 3 -62 9 -97c2 -7 1 -14 2 -21c3 -1 4 1 4 3c7 28 12 47 17 76c4 28 8 56 11 85c3 22 5 45 10 67c2 8 3 17 5 25c3 14 12 21 25 21c12 1 24 -9 27 -22c1 -5 1 -11 -1 -16c-6 -19 -7 -39 -10 -58c-4 -29 -7 -58 -10 -87
c-3 -18 -5 -37 -9 -55c-5 -23 -10 -36 -16 -59c-4 -15 -8 -30 -10 -46c-1 -11 -1 -22 -7 -32c-3 -5 -1 -11 0 -16c6 -16 11 -33 16 -49c11 -31 19 -72 25 -105c3 -18 5 -36 8 -55c3 -22 7 -44 11 -67c1 -6 3 -13 5 -20s1 -13 -3 -20c-5 -11 -14 -17 -24 -21z" />
    <glyph glyph-name="L" unicode="L" horiz-adv-x="175" 
d="M67 10c-15 -3 -35 1 -50 8c-4 10 -8 20 -7 31c1 8 3 15 5 22c2 9 3 18 3 27s1 19 2 28c1 5 2 10 2 15c-1 25 2 50 3 75c0 30 3 60 1 91c-1 26 0 52 -1 78c0 4 0 9 -1 13c-4 15 -3 29 -3 44v65c1 10 1 21 1 31c0 9 0 18 -2 27c-1 4 -1 8 -1 12c0 30 -1 61 -1 91
c0 13 0 26 1 39c0 9 3 18 9 25c5 4 9 6 15 6c9 1 17 -3 24 -8s10 -13 9 -22c-1 -12 -2 -23 -2 -35c-1 -23 0 -46 1 -69c0 -17 1 -33 2 -50v-21c0 -34 -1 -68 -1 -102c0 -3 0 -6 1 -9c3 -18 2 -37 2 -55c0 -11 2 -22 2 -33c1 -14 1 -28 1 -42c0 -19 0 -37 -2 -56
c-3 -32 -5 -64 -4 -96c0 -9 -1 -18 -2 -27c0 -5 -1 -9 -1 -14c0 -4 0 -8 -1 -12c-3 -6 -1 -12 -1 -19c5 -4 9 -6 15 -4c10 2 20 1 30 0c13 0 21 -12 19 -23c-2 -12 -5 -22 -19 -26c-7 -3 -14 -5 -22 -4c-9 2 -18 1 -27 -1z" />
    <glyph glyph-name="M" unicode="M" horiz-adv-x="268" 
d="M188 8c-6 2 -11 5 -12 12c-1 6 -3 12 -6 17c-3 4 -4 11 -3 16l4 40c3 25 4 32 4 39s0 14 -1 21l-6 57c0 5 -1 10 -1 15c0 29 -1 57 -1 86c0 11 1 21 2 32c1 24 0 49 0 74l3 59c-7 -5 -22 -83 -51 -83s-50 76 -53 79c0 -6 -1 -10 -1 -15v-22c0 -7 1 -13 1 -20
c1 -33 2 -66 4 -99c0 -19 2 -37 2 -56c1 -26 1 -51 -2 -77c-1 -15 0 -30 -1 -45c-1 -16 -1 -32 1 -48c2 -11 0 -22 0 -33c0 -7 -1 -14 -1 -20c0 -16 -21 -32 -39 -28c-8 2 -13 7 -14 15v6c1 16 1 31 2 47c0 5 0 10 -1 15c0 6 -2 12 -1 18c1 11 0 22 0 33c0 19 2 38 2 57
c1 16 3 32 1 48c-1 9 0 17 0 26c-1 25 -3 50 -4 75s-1 51 -3 76c-2 35 -1 70 -2 105c-1 24 1 49 2 74c1 30 3 60 4 90c0 8 2 16 6 23c6 10 18 16 30 13c11 -3 20 -8 24 -20c1 -4 2 -7 2 -10c-1 -13 3 -25 6 -38c6 -23 11 -45 18 -68c4 -16 9 -32 10 -49c1 -5 3 -10 7 -17
c3 11 6 19 7 28c5 34 13 67 19 101c3 18 8 36 8 55c0 8 12 19 22 20c7 1 15 0 22 -3c4 -2 24 -14 24 -34c1 -5 3 -11 2 -16c-2 -20 1 -40 1 -60l-3 -67v-97c0 -9 1 -18 2 -27c0 -5 1 -11 0 -16c-1 -11 0 -22 0 -33s-1 -21 -1 -32c0 -4 -1 -9 -1 -13c0 -35 -1 -70 -1 -105
c0 -11 1 -23 3 -34c2 -15 4 -31 4 -47c-1 -16 -2 -32 -5 -47c-2 -11 -2 -22 1 -33c1 -6 1 -13 1 -20c1 -4 1 -9 1 -13c1 -12 -5 -20 -16 -24c-7 -3 -14 -5 -22 -3z" />
    <glyph glyph-name="N" unicode="N" horiz-adv-x="248" 
d="M52 10c-5 -1 -11 1 -15 3c-5 2 -8 6 -9 11c-2 7 -2 14 -1 21c1 8 2 17 0 25v6c3 31 -2 62 -2 94c0 9 -2 19 -3 28v3c1 23 -4 46 -4 69c-1 19 -4 37 -2 56c-2 41 -2 82 -6 123c-2 20 -3 40 0 61c1 5 1 10 1 15c0 36 1 72 1 108c0 19 -1 38 -1 56c0 2 0 3 -1 5
c-3 6 0 11 3 17c3 5 8 9 14 10c9 2 18 -1 25 -6c6 -5 12 -11 17 -18c3 -3 4 -7 4 -11c1 -16 7 -30 13 -45c7 -15 15 -29 22 -44c1 -2 3 -5 3 -7c6 -21 18 -40 26 -61c0 -1 2 -2 4 -3v20c-1 28 -2 56 -3 83c-1 25 0 50 2 74c2 16 13 26 29 23c19 -4 29 -17 26 -36
c-1 -5 -2 -9 -2 -14c-2 -14 -3 -29 -1 -43c1 -16 0 -32 1 -47c0 -19 2 -38 3 -57c0 -14 1 -28 2 -42c0 -12 -1 -23 -1 -35c0 -21 0 -43 -1 -65v-27c1 -17 2 -35 2 -53c0 -15 0 -30 -1 -45c-1 -21 -1 -43 0 -65c1 -28 3 -57 5 -85c1 -17 2 -34 2 -51c1 -3 1 -7 2 -9
c5 -18 -2 -28 -18 -34c-10 -3 -18 -4 -27 -1c-6 2 -10 6 -12 12c-2 4 -2 9 -2 13c0 14 1 28 3 42c2 13 0 26 1 40c0 27 -4 54 -6 81c-1 23 0 46 0 69c0 21 0 43 -2 64c-2 14 -1 28 0 42c1 10 -11 38 -15 41c-7 5 -32 68 -43 91c-5 8 -9 17 -13 25c-1 2 -3 3 -5 6
c-1 -8 -1 -14 -2 -20c-1 -7 -2 -13 -2 -20c1 -25 1 -51 2 -77c1 -33 3 -67 3 -101c-1 -28 2 -57 4 -86c1 -22 1 -44 2 -66c1 -15 3 -30 4 -45c0 -4 1 -7 0 -11c-1 -15 1 -31 2 -46c1 -7 0 -13 0 -20v-15c1 -7 -1 -13 -5 -18c-1 -2 -3 -3 -5 -4c-6 -1 -12 -2 -18 -4z" />
    <glyph glyph-name="Ntilde" unicode="&#xd1;" horiz-adv-x="248" 
d="M75 758c-18 -9 -32 11 -36 27c-4 10 -4 18 1 23c2 2 5 3 10 2c2 -1 5 -1 7 -2c7 -2 13 -1 20 1c9 2 17 5 26 7c7 2 15 5 22 8c6 3 12 4 17 4l14 -2c15 -3 21 -16 28 -28c5 -11 4 -27 -12 -23c-4 0 -7 1 -8 1c-10 3 -17 2 -24 3c-8 1 -15 -1 -23 -4
c-14 -5 -28 -11 -42 -17zM52 10c-5 -1 -11 1 -15 3c-5 2 -8 6 -9 11c-2 7 -2 14 -1 21c1 8 2 17 0 25v6c3 31 -2 62 -2 94c0 9 -2 19 -3 28v3c1 23 -4 46 -4 69c-1 19 -4 37 -2 56c-2 41 -2 82 -6 123c-2 20 -3 40 0 61c1 5 1 10 1 15c0 36 1 72 1 108c0 19 -1 38 -1 56
c0 2 0 3 -1 5c-3 6 0 11 3 17c3 5 8 9 14 10c9 2 18 -1 25 -6c6 -5 12 -11 17 -18c3 -3 4 -7 4 -11c1 -16 7 -30 13 -45c7 -15 15 -29 22 -44c1 -2 3 -5 3 -7c6 -21 18 -40 26 -61c0 -1 2 -2 4 -3v20c-1 28 -2 56 -3 83c-1 25 0 50 2 74c2 16 13 26 29 23
c19 -4 29 -17 26 -36c-1 -5 -2 -9 -2 -14c-2 -14 -3 -29 -1 -43c1 -16 0 -32 1 -47c0 -19 2 -38 3 -57c0 -14 1 -28 2 -42c0 -12 -1 -23 -1 -35c0 -21 0 -43 -1 -65v-27c1 -17 2 -35 2 -53c0 -15 0 -30 -1 -45c-1 -21 -1 -43 0 -65c1 -28 3 -57 5 -85c1 -17 2 -34 2 -51
c1 -3 1 -7 2 -9c5 -18 -2 -28 -18 -34c-10 -3 -18 -4 -27 -1c-6 2 -10 6 -12 12c-2 4 -2 9 -2 13c0 14 1 28 3 42c2 13 0 26 1 40c0 27 -4 54 -6 81c-1 23 0 46 0 69c0 21 0 43 -2 64c-2 14 -1 28 0 42c1 10 -11 38 -15 41c-7 5 -32 68 -43 91c-5 8 -9 17 -13 25
c-1 2 -3 3 -5 6c-1 -8 -1 -14 -2 -20c-1 -7 -2 -13 -2 -20c1 -25 1 -51 2 -77c1 -33 3 -67 3 -101c-1 -28 2 -57 4 -86c1 -22 1 -44 2 -66c1 -15 3 -30 4 -45c0 -4 1 -7 0 -11c-1 -15 1 -31 2 -46c1 -7 0 -13 0 -20v-15c1 -7 -1 -13 -5 -18c-1 -2 -3 -3 -5 -4
c-6 -1 -12 -2 -18 -4z" />
    <glyph glyph-name="O" unicode="O" 
d="M137 10c-16 -3 -31 2 -46 4c-3 1 -5 3 -8 5c-8 7 -16 14 -21 24c-1 1 -1 3 -2 3c-10 8 -11 19 -13 31l-22 103l-3 27c-1 11 -2 22 -5 33c-3 12 -3 24 -3 37v12h1c-2 15 -4 31 -4 46c0 19 -3 38 1 58c1 9 0 19 1 28c2 40 6 79 12 119c6 31 13 61 27 90c5 10 8 21 12 31
s8 20 13 29c7 12 18 21 31 28c28 15 74 6 93 -23c3 -5 7 -9 11 -14c6 -7 10 -15 12 -24c3 -12 6 -25 8 -38c4 -17 7 -35 9 -53c2 -16 2 -32 3 -48l1 -7c1 -7 2 -14 2 -21c-1 -9 -1 -18 1 -27c1 -4 1 -7 1 -11l-3 -31c-1 -9 -1 -18 -2 -27c-1 -17 -1 -34 -2 -51
c-1 -23 -2 -45 -4 -68c-1 -26 -4 -53 -9 -79v-5c-1 -27 -9 -53 -16 -79c-4 -15 -7 -30 -13 -44c-11 -29 -29 -52 -63 -58zM130 58c2 -1 5 0 7 0c8 9 12 20 15 31c5 16 8 32 12 47c2 9 5 18 6 27l9 70c4 30 4 60 5 90c2 31 2 62 4 92c2 25 1 50 0 75c-1 22 -3 43 -6 65
c-2 16 -1 33 -6 49c-2 6 -2 13 -4 19c-2 10 -4 19 -10 27l-7 9c-4 6 -12 9 -18 7c-4 -1 -7 -3 -11 -5c-10 -26 -20 -50 -30 -75l-6 -19c-5 -14 -4 -30 -7 -44c-2 -6 -3 -12 -4 -18c-2 -18 -3 -36 -5 -54c-5 -43 -7 -86 -3 -129l3 -54l3 -29c1 -9 1 -18 2 -27
c2 -15 6 -29 8 -44l9 -45c2 -12 5 -25 8 -38c3 -14 15 -20 26 -27z" />
    <glyph glyph-name="Oacute" unicode="&#xd3;" 
d="M129 758c-9 3 -16 7 -19 16c-2 5 -7 8 -5 13c0 2 0 5 1 7c10 25 22 49 38 70c1 1 2 1 3 3h6c13 3 23 -4 31 -13c6 -5 7 -15 2 -21c-1 -3 -4 -5 -5 -7c-6 -9 -10 -18 -14 -28c-3 -11 -8 -20 -13 -30c-4 -8 -16 -12 -25 -10zM137 10c-16 -3 -31 2 -46 4c-3 1 -5 3 -8 5
c-8 7 -16 14 -21 24c-1 1 -1 3 -2 3c-10 8 -11 19 -13 31l-22 103l-3 27c-1 11 -2 22 -5 33c-3 12 -3 24 -3 37v12h1c-2 15 -4 31 -4 46c0 19 -3 38 1 58c1 9 0 19 1 28c2 40 6 79 12 119c6 31 13 61 27 90c5 10 8 21 12 31s8 20 13 29c7 12 18 21 31 28c28 15 74 6 93 -23
c3 -5 7 -9 11 -14c6 -7 10 -15 12 -24c3 -12 6 -25 8 -38c4 -17 7 -35 9 -53c2 -16 2 -32 3 -48l1 -7c1 -7 2 -14 2 -21c-1 -9 -1 -18 1 -27c1 -4 1 -7 1 -11l-3 -31c-1 -9 -1 -18 -2 -27c-1 -17 -1 -34 -2 -51c-1 -23 -2 -45 -4 -68c-1 -26 -4 -53 -9 -79v-5
c-1 -27 -9 -53 -16 -79c-4 -15 -7 -30 -13 -44c-11 -29 -29 -52 -63 -58zM130 58c2 -1 5 0 7 0c8 9 12 20 15 31c5 16 8 32 12 47c2 9 5 18 6 27l9 70c4 30 4 60 5 90c2 31 2 62 4 92c2 25 1 50 0 75c-1 22 -3 43 -6 65c-2 16 -1 33 -6 49c-2 6 -2 13 -4 19
c-2 10 -4 19 -10 27l-7 9c-4 6 -12 9 -18 7c-4 -1 -7 -3 -11 -5c-10 -26 -20 -50 -30 -75l-6 -19c-5 -14 -4 -30 -7 -44c-2 -6 -3 -12 -4 -18c-2 -18 -3 -36 -5 -54c-5 -43 -7 -86 -3 -129l3 -54l3 -29c1 -9 1 -18 2 -27c2 -15 6 -29 8 -44l9 -45c2 -12 5 -25 8 -38
c3 -14 15 -20 26 -27z" />
    <glyph glyph-name="Ocircumflex" unicode="&#xd4;" 
d="M178 775c-10 0 -19 2 -25 10c-8 8 -7 11 -11 15s-8 4 -12 0s-9 -9 -13 -15c-11 -15 -28 -17 -42 -3c-3 3 -5 7 -6 11c-4 8 -1 16 5 21c12 12 25 22 36 35c7 9 22 11 33 6c4 -2 9 -5 13 -9c11 -11 0 0 11 -12c6 -5 11 -11 16 -16c5 -6 9 -12 12 -19c0 -2 0 -5 1 -7
c0 -11 -6 -16 -18 -17zM137 10c-16 -3 -31 2 -46 4c-3 1 -5 3 -8 5c-8 7 -16 14 -21 24c-1 1 -1 3 -2 3c-10 8 -11 19 -13 31l-22 103l-3 27c-1 11 -2 22 -5 33c-3 12 -3 24 -3 37v12h1c-2 15 -4 31 -4 46c0 19 -3 38 1 58c1 9 0 19 1 28c2 40 6 79 12 119c6 31 13 61 27 90
c5 10 8 21 12 31s8 20 13 29c7 12 18 21 31 28c28 15 74 6 93 -23c3 -5 7 -9 11 -14c6 -7 10 -15 12 -24c3 -12 6 -25 8 -38c4 -17 7 -35 9 -53c2 -16 2 -32 3 -48l1 -7c1 -7 2 -14 2 -21c-1 -9 -1 -18 1 -27c1 -4 1 -7 1 -11l-3 -31c-1 -9 -1 -18 -2 -27
c-1 -17 -1 -34 -2 -51c-1 -23 -2 -45 -4 -68c-1 -26 -4 -53 -9 -79v-5c-1 -27 -9 -53 -16 -79c-4 -15 -7 -30 -13 -44c-11 -29 -29 -52 -63 -58zM130 58c2 -1 5 0 7 0c8 9 12 20 15 31c5 16 8 32 12 47c2 9 5 18 6 27l9 70c4 30 4 60 5 90c2 31 2 62 4 92c2 25 1 50 0 75
c-1 22 -3 43 -6 65c-2 16 -1 33 -6 49c-2 6 -2 13 -4 19c-2 10 -4 19 -10 27l-7 9c-4 6 -12 9 -18 7c-4 -1 -7 -3 -11 -5c-10 -26 -20 -50 -30 -75l-6 -19c-5 -14 -4 -30 -7 -44c-2 -6 -3 -12 -4 -18c-2 -18 -3 -36 -5 -54c-5 -43 -7 -86 -3 -129l3 -54l3 -29
c1 -9 1 -18 2 -27c2 -15 6 -29 8 -44l9 -45c2 -12 5 -25 8 -38c3 -14 15 -20 26 -27z" />
    <glyph glyph-name="Odieresis" unicode="&#xd6;" 
d="M80 777c-13 6 -19 17 -24 30c-1 3 0 6 0 9c2 8 3 16 5 24c7 4 14 6 21 6c9 1 17 -2 24 -7s12 -11 16 -18c1 -1 1 -1 1 -2c5 -13 -3 -35 -15 -42c-10 -5 -19 -4 -28 0zM200 772c-11 -2 -19 2 -26 9c-9 8 -14 19 -15 31c0 7 3 14 6 20c6 11 15 15 27 14
c18 -2 32 -12 41 -28c2 -4 2 -10 3 -16c1 -9 -2 -16 -9 -22l-6 -4c-7 -1 -14 -3 -21 -4zM137 10c-16 -3 -31 2 -46 4c-3 1 -5 3 -8 5c-8 7 -16 14 -21 24c-1 1 -1 3 -2 3c-10 8 -11 19 -13 31l-22 103l-3 27c-1 11 -2 22 -5 33c-3 12 -3 24 -3 37v12h1c-2 15 -4 31 -4 46
c0 19 -3 38 1 58c1 9 0 19 1 28c2 40 6 79 12 119c6 31 13 61 27 90c5 10 8 21 12 31s8 20 13 29c7 12 18 21 31 28c28 15 74 6 93 -23c3 -5 7 -9 11 -14c6 -7 10 -15 12 -24c3 -12 6 -25 8 -38c4 -17 7 -35 9 -53c2 -16 2 -32 3 -48l1 -7c1 -7 2 -14 2 -21
c-1 -9 -1 -18 1 -27c1 -4 1 -7 1 -11l-3 -31c-1 -9 -1 -18 -2 -27c-1 -17 -1 -34 -2 -51c-1 -23 -2 -45 -4 -68c-1 -26 -4 -53 -9 -79v-5c-1 -27 -9 -53 -16 -79c-4 -15 -7 -30 -13 -44c-11 -29 -29 -52 -63 -58zM130 58c2 -1 5 0 7 0c8 9 12 20 15 31c5 16 8 32 12 47
c2 9 5 18 6 27l9 70c4 30 4 60 5 90c2 31 2 62 4 92c2 25 1 50 0 75c-1 22 -3 43 -6 65c-2 16 -1 33 -6 49c-2 6 -2 13 -4 19c-2 10 -4 19 -10 27l-7 9c-4 6 -12 9 -18 7c-4 -1 -7 -3 -11 -5c-10 -26 -20 -50 -30 -75l-6 -19c-5 -14 -4 -30 -7 -44c-2 -6 -3 -12 -4 -18
c-2 -18 -3 -36 -5 -54c-5 -43 -7 -86 -3 -129l3 -54l3 -29c1 -9 1 -18 2 -27c2 -15 6 -29 8 -44l9 -45c2 -12 5 -25 8 -38c3 -14 15 -20 26 -27z" />
    <glyph glyph-name="Ograve" unicode="&#xd2;" 
d="M151 763c-14 1 -24 6 -30 16s-13 21 -18 32c-5 13 -3 6 -11 17c-4 5 -8 10 -11 16c-6 10 0 21 11 24c13 3 25 -1 34 -10c4 -3 7 -7 10 -11c7 -10 3 -3 9 -13c8 -12 15 -24 22 -36c6 -11 3 -26 -8 -32zM137 10c-16 -3 -31 2 -46 4c-3 1 -5 3 -8 5c-8 7 -16 14 -21 24
c-1 1 -1 3 -2 3c-10 8 -11 19 -13 31l-22 103l-3 27c-1 11 -2 22 -5 33c-3 12 -3 24 -3 37v12h1c-2 15 -4 31 -4 46c0 19 -3 38 1 58c1 9 0 19 1 28c2 40 6 79 12 119c6 31 13 61 27 90c5 10 8 21 12 31s8 20 13 29c7 12 18 21 31 28c28 15 74 6 93 -23c3 -5 7 -9 11 -14
c6 -7 10 -15 12 -24c3 -12 6 -25 8 -38c4 -17 7 -35 9 -53c2 -16 2 -32 3 -48l1 -7c1 -7 2 -14 2 -21c-1 -9 -1 -18 1 -27c1 -4 1 -7 1 -11l-3 -31c-1 -9 -1 -18 -2 -27c-1 -17 -1 -34 -2 -51c-1 -23 -2 -45 -4 -68c-1 -26 -4 -53 -9 -79v-5c-1 -27 -9 -53 -16 -79
c-4 -15 -7 -30 -13 -44c-11 -29 -29 -52 -63 -58zM130 58c2 -1 5 0 7 0c8 9 12 20 15 31c5 16 8 32 12 47c2 9 5 18 6 27l9 70c4 30 4 60 5 90c2 31 2 62 4 92c2 25 1 50 0 75c-1 22 -3 43 -6 65c-2 16 -1 33 -6 49c-2 6 -2 13 -4 19c-2 10 -4 19 -10 27l-7 9
c-4 6 -12 9 -18 7c-4 -1 -7 -3 -11 -5c-10 -26 -20 -50 -30 -75l-6 -19c-5 -14 -4 -30 -7 -44c-2 -6 -3 -12 -4 -18c-2 -18 -3 -36 -5 -54c-5 -43 -7 -86 -3 -129l3 -54l3 -29c1 -9 1 -18 2 -27c2 -15 6 -29 8 -44l9 -45c2 -12 5 -25 8 -38c3 -14 15 -20 26 -27z" />
    <glyph glyph-name="Oslash" unicode="&#xd8;" 
d="M133 1c-16 -3 -31 2 -46 4c-3 1 -5 3 -8 5c-8 7 -16 14 -21 24c-1 1 -1 3 -2 3c-6 5 -9 11 -10 17c-1 -3 -1 -6 -2 -9l-3 -8c-7 -21 -26 -29 -48 -27c-2 1 -8 3 -12 6s-6 7 -8 11s0 7 2 11c4 12 7 24 11 36l6 20c0 3 2 5 2 7c2 17 9 31 15 46c3 7 4 13 6 20
c1 6 3 11 5 16l-2 15c-1 11 -2 22 -5 33c-3 12 -3 24 -3 37v12h1c-2 15 -4 31 -4 46c0 19 -3 38 1 58c1 9 0 19 1 28c2 40 6 79 12 119c6 31 13 61 27 90c5 10 8 21 12 31s8 20 13 29c7 12 18 21 31 28c28 15 74 6 93 -23c3 -5 7 -9 11 -14c6 -7 10 -15 12 -23c0 0 1 1 1 2
c10 14 19 28 25 44c4 8 19 15 28 11c5 -2 11 -4 16 -7c16 -8 19 -21 11 -36c-4 -6 -7 -12 -10 -17c-17 -24 -30 -50 -41 -77l-12 -26c1 -11 1 -22 2 -34l1 -7c1 -7 2 -14 2 -21c-1 -9 -1 -18 1 -27c1 -4 1 -7 1 -11l-3 -31c-1 -9 -1 -18 -2 -27c-1 -17 -1 -34 -2 -51
c-1 -23 -2 -45 -4 -68c-1 -26 -4 -53 -9 -79v-5c-1 -27 -9 -53 -16 -79c-4 -15 -7 -30 -13 -44c-11 -29 -29 -52 -63 -58zM68 299c4 10 9 20 13 30l28 73c9 23 17 45 27 68c11 25 22 50 35 75l6 12c-1 13 -1 26 -5 38c-2 6 -2 13 -4 19c-2 10 -4 19 -10 27l-7 9
c-4 6 -12 9 -18 7c-4 -1 -7 -3 -11 -5c-10 -26 -20 -50 -30 -75l-6 -19c-5 -14 -4 -30 -7 -44c-2 -6 -3 -12 -4 -18c-2 -18 -3 -36 -5 -54c-5 -43 -7 -86 -3 -129c0 -4 1 -9 1 -14zM126 49c2 -1 5 0 7 0c8 9 12 20 15 31c5 16 8 32 12 47c2 9 5 18 6 27l9 70c4 30 4 60 5 90
c2 31 2 62 4 92c1 7 1 14 1 21l-3 -8c-10 -24 -19 -49 -28 -74c-11 -30 -25 -59 -37 -88c-10 -24 -21 -47 -31 -70c-2 -5 -3 -11 -5 -16c1 -4 1 -8 2 -12l9 -45c2 -12 5 -25 8 -38c3 -14 15 -20 26 -27z" />
    <glyph glyph-name="Otilde" unicode="&#xd5;" 
d="M123 779c-18 -9 -32 11 -36 27c-4 10 -4 18 1 23c2 2 5 3 10 2c2 -1 5 -1 7 -2c7 -2 13 -1 20 1c9 2 17 5 26 7c7 2 15 5 22 8c6 3 12 4 17 4l14 -2c15 -3 21 -16 28 -28c5 -11 4 -27 -12 -23c-4 0 -7 1 -8 1c-10 3 -17 2 -24 3c-8 1 -15 -1 -23 -4
c-14 -5 -28 -11 -42 -17zM137 10c-16 -3 -31 2 -46 4c-3 1 -5 3 -8 5c-8 7 -16 14 -21 24c-1 1 -1 3 -2 3c-10 8 -11 19 -13 31l-22 103l-3 27c-1 11 -2 22 -5 33c-3 12 -3 24 -3 37v12h1c-2 15 -4 31 -4 46c0 19 -3 38 1 58c1 9 0 19 1 28c2 40 6 79 12 119
c6 31 13 61 27 90c5 10 8 21 12 31s8 20 13 29c7 12 18 21 31 28c28 15 74 6 93 -23c3 -5 7 -9 11 -14c6 -7 10 -15 12 -24c3 -12 6 -25 8 -38c4 -17 7 -35 9 -53c2 -16 2 -32 3 -48l1 -7c1 -7 2 -14 2 -21c-1 -9 -1 -18 1 -27c1 -4 1 -7 1 -11l-3 -31c-1 -9 -1 -18 -2 -27
c-1 -17 -1 -34 -2 -51c-1 -23 -2 -45 -4 -68c-1 -26 -4 -53 -9 -79v-5c-1 -27 -9 -53 -16 -79c-4 -15 -7 -30 -13 -44c-11 -29 -29 -52 -63 -58zM130 58c2 -1 5 0 7 0c8 9 12 20 15 31c5 16 8 32 12 47c2 9 5 18 6 27l9 70c4 30 4 60 5 90c2 31 2 62 4 92c2 25 1 50 0 75
c-1 22 -3 43 -6 65c-2 16 -1 33 -6 49c-2 6 -2 13 -4 19c-2 10 -4 19 -10 27l-7 9c-4 6 -12 9 -18 7c-4 -1 -7 -3 -11 -5c-10 -26 -20 -50 -30 -75l-6 -19c-5 -14 -4 -30 -7 -44c-2 -6 -3 -12 -4 -18c-2 -18 -3 -36 -5 -54c-5 -43 -7 -86 -3 -129l3 -54l3 -29
c1 -9 1 -18 2 -27c2 -15 6 -29 8 -44l9 -45c2 -12 5 -25 8 -38c3 -14 15 -20 26 -27z" />
    <glyph glyph-name="OE" unicode="&#x152;" horiz-adv-x="419" 
d="M259 1c-21 -6 -42 13 -42 35v53c-2 -10 -5 -19 -8 -28c-11 -29 -29 -52 -63 -58c-16 -3 -31 2 -46 4c-3 1 -5 3 -8 5c-8 7 -16 14 -21 24c-1 1 -1 3 -2 3c-10 8 -11 19 -13 31l-22 103l-3 27c-1 11 -2 22 -5 33c-3 12 -3 24 -3 37v12h1c-2 15 -4 31 -4 46
c0 19 -3 38 1 58c1 9 0 19 1 28c2 40 6 79 12 119c6 31 13 61 27 90c5 10 8 21 12 31s8 20 13 29c7 12 18 21 31 28c28 15 74 6 93 -23c1 -3 4 -6 6 -9c0 6 0 12 1 17c0 3 2 7 4 9c8 8 18 13 29 11c12 -3 25 -1 38 -3c10 -2 21 -4 32 -1c17 -5 35 -6 32 -36
c-5 -39 -53 -17 -79 -17c-1 -11 -1 -21 -1 -32c2 -38 -7 -77 2 -114c1 -4 7 -3 14 -3c17 0 48 -1 60 -11c20 -12 9 -42 -11 -44c-4 -1 -7 -2 -10 -2c-8 -1 -36 -1 -44 1c-7 -13 -3 -374 4 -394c4 -1 10 -3 15 -2c17 3 33 -1 49 -3c5 0 10 -3 15 -6c19 -11 14 -29 5 -39
c-14 -16 -37 -9 -69 -8c-14 1 -28 3 -43 -1zM139 51c2 -1 5 0 7 0c8 9 12 20 15 31c5 16 8 32 12 47c2 9 5 18 6 27l9 70c4 30 4 60 5 90c2 31 2 62 4 92c2 25 1 50 0 75c-1 22 -3 43 -6 65c-2 16 -1 33 -6 49c-2 6 -2 13 -4 19c-2 10 -4 19 -10 27l-7 9c-4 6 -12 9 -18 7
c-4 -1 -7 -3 -11 -5c-10 -26 -20 -50 -30 -75l-6 -19c-5 -14 -4 -30 -7 -44c-2 -6 -3 -12 -4 -18c-2 -18 -3 -36 -5 -54c-5 -43 -7 -86 -3 -129l3 -54l3 -29c1 -9 1 -18 2 -27c2 -15 6 -29 8 -44l9 -45c2 -12 5 -25 8 -38c3 -14 15 -20 26 -27z" />
    <glyph glyph-name="P" unicode="P" horiz-adv-x="215" 
d="M43 10c-16 -4 -19 -3 -35 7c-3 12 -5 26 -8 40c0 2 0 5 1 7c7 17 8 34 9 52c1 12 1 25 1 38c0 12 2 25 3 37c1 17 3 34 3 51c1 76 1 151 1 227c1 22 2 44 2 66c0 33 1 65 -2 98c-1 12 1 24 3 36c2 10 4 19 1 28c-3 7 2 13 3 19c1 5 7 7 11 10c5 4 12 4 19 4s15 -3 23 -5
c2 -1 4 -4 6 -6c6 -6 11 -13 17 -18c25 -23 45 -49 56 -82c3 -9 8 -18 11 -28c7 -21 7 -42 6 -64s-3 -43 -6 -64c-1 -6 -3 -12 -4 -18c-2 -6 -3 -12 -4 -17c-5 -25 -16 -45 -31 -65c-6 -8 -12 -15 -19 -21c-4 -4 -8 -10 -11 -15c-5 -7 -11 -14 -18 -19c-4 -2 -5 -5 -5 -8
c-1 -9 -3 -18 -2 -27c1 -20 -2 -39 -3 -59l-3 -44c-1 -21 -1 -42 -3 -63c0 -8 -2 -16 -3 -24c-1 -5 -2 -11 0 -16c5 -11 3 -24 5 -36c1 -1 0 -4 -1 -5c-7 -7 -14 -14 -23 -16zM76 390c4 3 5 4 7 6c8 14 14 29 19 44c2 9 5 18 6 28l6 56c1 13 -1 25 -3 38
c-3 26 -13 49 -27 71c0 1 -2 2 -5 4c-1 -4 -1 -6 -1 -8c-1 -27 2 -53 2 -80c-1 -18 0 -37 -1 -55c0 -15 -1 -29 -1 -44c0 -14 0 -29 -2 -44v-16z" />
    <glyph glyph-name="Q" unicode="Q" horiz-adv-x="297" 
d="M256 416c3 -38 0 -76 -5 -114c-2 -12 -3 -24 -4 -36c-1 -6 -2 -13 -4 -19c-5 -20 -10 -40 -16 -60c-3 -11 -7 -22 -9 -33c0 -6 -2 -12 -3 -18c-1 -20 -8 -38 -20 -54c-5 -6 -7 -15 -15 -20c-2 -2 -3 -7 -2 -10c3 -12 5 -24 9 -36c4 -10 7 -21 10 -32c2 -8 0 -15 -6 -22
c-9 -10 -21 -12 -33 -13c-5 0 -11 2 -14 7s-5 10 -7 15c-4 12 -7 25 -10 38c0 1 -1 1 -2 3c-3 0 -6 1 -9 1c-12 0 -25 2 -37 5c-3 1 -7 4 -10 7c-7 9 -15 18 -19 30c-6 18 -16 33 -22 51c-3 7 -6 14 -8 21c-1 1 -1 3 -1 4c2 10 -2 19 -4 28c-2 7 -2 14 0 21c3 12 4 24 2 36
v12c0 11 -1 22 -4 32c-3 14 -3 27 -3 41c1 16 3 33 4 49c2 22 5 43 3 65c-1 16 0 33 1 50c1 15 4 30 7 44c3 19 7 38 10 57c5 28 16 54 29 80l17 30c4 7 9 13 13 20c1 2 3 3 4 5c7 15 22 22 35 29c3 1 7 1 11 1c13 0 25 -5 37 -11c4 -3 9 -6 14 -9c10 -6 20 -13 25 -25
c0 -2 1 -3 2 -4c13 -15 18 -33 21 -52c4 -19 3 -38 3 -57c0 -18 2 -34 5 -51c2 -16 3 -31 4 -47c0 -20 0 -39 1 -59zM196 324c1 24 3 49 2 73c0 11 -1 22 -1 34c-1 8 -2 16 -2 24c0 26 -1 53 -6 79c0 5 -1 9 -1 14c0 13 1 27 0 40c0 13 -1 25 -3 37c-2 11 -6 22 -14 31
c-5 8 -12 14 -23 15c-8 -10 -15 -20 -20 -31c-1 -3 -2 -7 -4 -10c-12 -17 -18 -37 -27 -57l-3 -10c-3 -14 -6 -29 -9 -44c-6 -29 -10 -57 -9 -87c1 -7 0 -14 0 -21c0 -8 -1 -16 -1 -24c-1 -9 -1 -19 -2 -28c-3 -32 -5 -65 -1 -97c2 -20 2 -41 1 -61c-1 -12 -4 -24 2 -36
c-2 -13 3 -25 7 -36c3 -11 8 -21 16 -28c0 4 -1 7 -3 11c-2 3 -3 6 -3 10c1 11 6 20 18 23c3 1 6 3 10 4c9 3 17 1 24 -7c2 -1 3 -4 4 -6c2 -3 4 -7 6 -11l4 4c1 6 2 11 3 16c3 13 5 26 9 38c5 15 8 30 13 45c1 6 3 12 3 18c3 26 8 51 10 78zM102 91l1 1c-1 1 -2 1 -2 2
c-1 2 -2 4 -3 5c0 -2 0 -4 3 -5c0 -1 1 -2 1 -3z" />
    <glyph glyph-name="R" unicode="R" horiz-adv-x="231" 
d="M156 6c-12 0 -23 4 -27 17c-3 9 -10 17 -8 27c0 2 -1 4 -2 6c-10 20 -17 42 -24 63c-6 16 -12 33 -17 50c-1 2 -3 3 -5 6c-4 -20 -6 -38 -7 -56c-1 -15 2 -28 4 -42c0 -12 1 -23 1 -35c1 -4 -1 -9 -2 -13c0 -6 -4 -9 -8 -12c-5 -3 -9 -7 -14 -8c-7 -1 -15 -1 -21 0
c-4 1 -8 4 -12 7c-1 11 -2 21 -2 32c0 6 0 13 -1 19c-2 26 -1 51 1 77c1 10 2 20 4 30c2 8 2 16 3 24c1 9 2 18 2 27c1 11 1 22 1 33c0 10 -1 19 -2 29l-3 33c0 11 -1 23 -1 34c0 14 -1 28 0 43c0 28 1 57 1 85c0 10 0 19 1 28c0 37 1 74 2 111c0 8 -1 16 0 25
c0 8 1 16 2 24c0 11 1 22 1 33c0 8 3 14 9 19c12 10 25 14 41 10c10 -3 17 -8 25 -16c14 -15 26 -32 33 -51c11 -33 26 -66 31 -101c2 -9 2 -18 2 -27c0 -16 0 -33 -2 -49c-1 -18 -4 -36 -6 -54s-9 -35 -15 -52c-7 -18 -17 -35 -29 -51c-4 -5 -9 -9 -14 -13
c-3 -3 -6 -5 -9 -7c-1 -6 1 -10 3 -14c7 -15 14 -30 20 -45c7 -18 13 -37 19 -55c8 -23 15 -46 23 -70l6 -13c6 -12 11 -23 16 -34c4 -7 7 -14 10 -21c3 -8 5 -16 5 -25c1 -7 -3 -13 -6 -19c-1 -1 -2 -3 -4 -3c-8 -2 -16 -5 -25 -6zM74 378c10 12 14 23 18 36
c4 15 4 30 7 46c1 5 1 10 1 15c1 26 2 52 2 78c0 9 -1 18 -4 27c-4 14 -8 27 -13 41c-1 4 -2 9 -8 12v-10c0 -17 0 -34 -1 -51c0 -15 -1 -30 -1 -45c-1 -40 0 -81 -3 -121c0 -8 -1 -17 2 -28z" />
    <glyph glyph-name="S" unicode="S" horiz-adv-x="225" 
d="M34 -27c-8 1 -16 3 -22 8c-4 3 -6 7 -6 10c2 8 3 16 9 22c8 8 19 13 28 20c3 2 5 4 8 5c17 11 29 26 37 44c6 13 10 25 13 39c5 18 10 37 14 55c5 18 9 35 8 54l-3 25c-3 21 -5 42 -10 63s-9 44 -21 64c-4 8 -6 17 -10 25c-17 30 -27 63 -36 97c-5 15 -5 30 -4 46
c2 19 4 37 7 55c1 10 3 20 5 30c5 17 11 34 17 51c5 15 15 24 31 28c11 3 22 7 34 6c7 0 14 -1 21 -2c10 -1 18 -8 23 -16c4 -6 5 -13 3 -18c-3 -9 -8 -19 -18 -22c-8 -3 -16 -4 -24 -7c-22 -7 -20 -4 -26 -29c-7 -26 -11 -53 -12 -80c0 -8 1 -16 2 -24c3 -14 7 -28 12 -42
c5 -13 10 -26 17 -38c6 -10 9 -22 14 -32c6 -10 9 -21 13 -32c5 -17 11 -34 15 -52c3 -13 5 -27 7 -41c1 -12 1 -23 3 -35c3 -10 2 -21 1 -31c-2 -18 -5 -37 -12 -54c-1 -3 -2 -6 -2 -9c-1 -15 -8 -28 -11 -42c-4 -14 -7 -27 -13 -40c-8 -20 -18 -39 -35 -54
c0 -1 -1 -2 -2 -2c-19 -10 -34 -28 -55 -36l-4 -3c-4 -4 -10 -6 -16 -6z" />
    <glyph glyph-name="T" unicode="T" horiz-adv-x="242" 
d="M116 -2c-8 -4 -27 -2 -34 5c-3 3 -4 6 -4 11c-1 7 -1 15 -1 22c1 15 0 30 -2 45c-1 10 -1 19 -1 29c1 28 3 55 5 83c0 8 1 16 0 24c-1 43 -1 85 -1 128c0 24 1 47 -2 71c-1 9 -1 18 -1 27c0 42 1 85 0 127c0 24 0 47 -1 71c0 7 -1 14 -1 22c-9 1 -15 2 -22 2
c-12 1 -25 4 -35 11c-3 1 -6 3 -7 5c-12 14 -4 35 14 38c5 1 10 1 15 1c9 -1 18 -1 27 -2l54 -6c10 -2 20 -2 30 -1h20c7 0 14 -3 21 -7c10 -7 13 -16 12 -27c-2 -11 -8 -20 -19 -23c-7 -3 -14 -4 -22 -3c-10 1 -19 1 -29 2c-3 -9 -2 -17 -2 -25c3 -29 3 -59 2 -89
c-1 -8 0 -16 0 -24v-58c2 -32 4 -64 5 -95c1 -11 1 -22 1 -32c0 -36 0 -71 1 -107c0 -14 -1 -27 -3 -41c-3 -29 -8 -59 -3 -88c2 -14 5 -28 1 -43c-1 -7 0 -14 2 -21c1 -11 -1 -19 -12 -25c-1 -1 -3 -2 -4 -4c-1 -1 -2 -2 -4 -3z" />
    <glyph glyph-name="U" unicode="U" horiz-adv-x="298" 
d="M118 -17c-12 0 -24 1 -36 6s-22 13 -27 26c-7 13 -15 26 -20 41c0 2 -3 5 -4 7c-8 12 -12 25 -14 38c-4 16 -5 32 -5 48c-1 12 -1 25 -1 37c-1 13 -1 26 -1 38c0 15 1 29 2 44c0 13 1 26 1 39c1 20 0 40 1 60c1 11 1 22 0 33c-1 12 -1 24 -1 35v101c0 14 0 28 1 43
c0 17 1 35 1 52v52c0 6 0 12 1 18c0 21 19 31 38 22c2 -2 5 -3 8 -5c9 -5 13 -12 13 -23c-1 -28 0 -56 -1 -84v-55h-1v-24c0 -36 0 -72 1 -109v-15c0 -8 1 -16 1 -24c-1 -16 -1 -32 -1 -48v-6l-3 -81v-52v-12c-1 -18 4 -64 9 -80c0 -3 1 -6 3 -9c7 -16 15 -32 23 -49
c5 -13 18 -18 32 -9c7 3 12 9 16 14c12 14 13 31 16 47c4 19 6 40 7 60c1 30 3 60 4 90c0 12 -1 24 -1 36v40v27c-1 27 0 54 2 81c3 33 4 66 7 100l6 62c2 14 3 26 -1 39c-3 13 -4 26 -9 38c-6 12 -1 23 7 32c8 8 17 12 29 9l11 -3c9 -3 16 -7 19 -16c2 -5 5 -10 6 -15
c1 -4 1 -8 0 -11c-3 -7 -3 -14 -3 -22v-31c0 -6 -1 -11 -2 -17l-6 -57c-1 -5 0 -11 -1 -16l-3 -30c0 -2 -1 -4 -1 -6c0 -27 -4 -54 -3 -81c0 -15 0 -30 -1 -44v-78c1 -41 -2 -82 -4 -123c0 -19 -2 -38 -5 -57c-2 -15 -6 -31 -10 -47l-1 -4c-8 -13 -16 -26 -26 -37
c-2 -3 -6 -5 -9 -8c-5 -3 -10 -7 -14 -11c-16 -13 -30 -17 -50 -16z" />
    <glyph glyph-name="Uacute" unicode="&#xda;" horiz-adv-x="298" 
d="M129 758c-9 3 -16 7 -19 16c-2 5 -7 8 -5 13c0 2 0 5 1 7c10 25 22 49 38 70c1 1 2 1 3 3h6c13 3 23 -4 31 -13c6 -5 7 -15 2 -21c-1 -3 -4 -5 -5 -7c-6 -9 -10 -18 -14 -28c-3 -11 -8 -20 -13 -30c-4 -8 -16 -12 -25 -10zM118 -17c-12 0 -24 1 -36 6s-22 13 -27 26
c-7 13 -15 26 -20 41c0 2 -3 5 -4 7c-8 12 -12 25 -14 38c-4 16 -5 32 -5 48c-1 12 -1 25 -1 37c-1 13 -1 26 -1 38c0 15 1 29 2 44c0 13 1 26 1 39c1 20 0 40 1 60c1 11 1 22 0 33c-1 12 -1 24 -1 35v101c0 14 0 28 1 43c0 17 1 35 1 52v52c0 6 0 12 1 18c0 21 19 31 38 22
c2 -2 5 -3 8 -5c9 -5 13 -12 13 -23c-1 -28 0 -56 -1 -84v-55h-1v-24c0 -36 0 -72 1 -109v-15c0 -8 1 -16 1 -24c-1 -16 -1 -32 -1 -48v-6l-3 -81v-52v-12c-1 -18 4 -64 9 -80c0 -3 1 -6 3 -9c7 -16 15 -32 23 -49c5 -13 18 -18 32 -9c7 3 12 9 16 14c12 14 13 31 16 47
c4 19 6 40 7 60c1 30 3 60 4 90c0 12 -1 24 -1 36v40v27c-1 27 0 54 2 81c3 33 4 66 7 100l6 62c2 14 3 26 -1 39c-3 13 -4 26 -9 38c-6 12 -1 23 7 32c8 8 17 12 29 9l11 -3c9 -3 16 -7 19 -16c2 -5 5 -10 6 -15c1 -4 1 -8 0 -11c-3 -7 -3 -14 -3 -22v-31
c0 -6 -1 -11 -2 -17l-6 -57c-1 -5 0 -11 -1 -16l-3 -30c0 -2 -1 -4 -1 -6c0 -27 -4 -54 -3 -81c0 -15 0 -30 -1 -44v-78c1 -41 -2 -82 -4 -123c0 -19 -2 -38 -5 -57c-2 -15 -6 -31 -10 -47l-1 -4c-8 -13 -16 -26 -26 -37c-2 -3 -6 -5 -9 -8c-5 -3 -10 -7 -14 -11
c-16 -13 -30 -17 -50 -16z" />
    <glyph glyph-name="Ucircumflex" unicode="&#xdb;" horiz-adv-x="298" 
d="M187 775c-10 0 -19 2 -25 10c-8 8 -7 11 -11 15s-8 4 -12 0s-9 -9 -13 -15c-11 -15 -28 -17 -42 -3c-3 3 -5 7 -6 11c-4 8 -1 16 5 21c12 12 25 22 36 35c7 9 22 11 33 6c4 -2 9 -5 13 -9c11 -11 0 0 11 -12c6 -5 11 -11 16 -16c5 -6 9 -12 12 -19c0 -2 0 -5 1 -7
c0 -11 -6 -16 -18 -17zM118 -17c-12 0 -24 1 -36 6s-22 13 -27 26c-7 13 -15 26 -20 41c0 2 -3 5 -4 7c-8 12 -12 25 -14 38c-4 16 -5 32 -5 48c-1 12 -1 25 -1 37c-1 13 -1 26 -1 38c0 15 1 29 2 44c0 13 1 26 1 39c1 20 0 40 1 60c1 11 1 22 0 33c-1 12 -1 24 -1 35v101
c0 14 0 28 1 43c0 17 1 35 1 52v52c0 6 0 12 1 18c0 21 19 31 38 22c2 -2 5 -3 8 -5c9 -5 13 -12 13 -23c-1 -28 0 -56 -1 -84v-55h-1v-24c0 -36 0 -72 1 -109v-15c0 -8 1 -16 1 -24c-1 -16 -1 -32 -1 -48v-6l-3 -81v-52v-12c-1 -18 4 -64 9 -80c0 -3 1 -6 3 -9
c7 -16 15 -32 23 -49c5 -13 18 -18 32 -9c7 3 12 9 16 14c12 14 13 31 16 47c4 19 6 40 7 60c1 30 3 60 4 90c0 12 -1 24 -1 36v40v27c-1 27 0 54 2 81c3 33 4 66 7 100l6 62c2 14 3 26 -1 39c-3 13 -4 26 -9 38c-6 12 -1 23 7 32c8 8 17 12 29 9l11 -3c9 -3 16 -7 19 -16
c2 -5 5 -10 6 -15c1 -4 1 -8 0 -11c-3 -7 -3 -14 -3 -22v-31c0 -6 -1 -11 -2 -17l-6 -57c-1 -5 0 -11 -1 -16l-3 -30c0 -2 -1 -4 -1 -6c0 -27 -4 -54 -3 -81c0 -15 0 -30 -1 -44v-78c1 -41 -2 -82 -4 -123c0 -19 -2 -38 -5 -57c-2 -15 -6 -31 -10 -47l-1 -4
c-8 -13 -16 -26 -26 -37c-2 -3 -6 -5 -9 -8c-5 -3 -10 -7 -14 -11c-16 -13 -30 -17 -50 -16z" />
    <glyph glyph-name="Udieresis" unicode="&#xdc;" horiz-adv-x="298" 
d="M80 777c-13 6 -19 17 -24 30c-1 3 0 6 0 9c2 8 3 16 5 24c7 4 14 6 21 6c9 1 17 -2 24 -7s12 -11 16 -18c1 -1 1 -1 1 -2c5 -13 -3 -35 -15 -42c-10 -5 -19 -4 -28 0zM200 772c-11 -2 -19 2 -26 9c-9 8 -14 19 -15 31c0 7 3 14 6 20c6 11 15 15 27 14
c18 -2 32 -12 41 -28c2 -4 2 -10 3 -16c1 -9 -2 -16 -9 -22l-6 -4c-7 -1 -14 -3 -21 -4zM118 -17c-12 0 -24 1 -36 6s-22 13 -27 26c-7 13 -15 26 -20 41c0 2 -3 5 -4 7c-8 12 -12 25 -14 38c-4 16 -5 32 -5 48c-1 12 -1 25 -1 37c-1 13 -1 26 -1 38c0 15 1 29 2 44
c0 13 1 26 1 39c1 20 0 40 1 60c1 11 1 22 0 33c-1 12 -1 24 -1 35v101c0 14 0 28 1 43c0 17 1 35 1 52v52c0 6 0 12 1 18c0 21 19 31 38 22c2 -2 5 -3 8 -5c9 -5 13 -12 13 -23c-1 -28 0 -56 -1 -84v-55h-1v-24c0 -36 0 -72 1 -109v-15c0 -8 1 -16 1 -24
c-1 -16 -1 -32 -1 -48v-6l-3 -81v-52v-12c-1 -18 4 -64 9 -80c0 -3 1 -6 3 -9c7 -16 15 -32 23 -49c5 -13 18 -18 32 -9c7 3 12 9 16 14c12 14 13 31 16 47c4 19 6 40 7 60c1 30 3 60 4 90c0 12 -1 24 -1 36v40v27c-1 27 0 54 2 81c3 33 4 66 7 100l6 62c2 14 3 26 -1 39
c-3 13 -4 26 -9 38c-6 12 -1 23 7 32c8 8 17 12 29 9l11 -3c9 -3 16 -7 19 -16c2 -5 5 -10 6 -15c1 -4 1 -8 0 -11c-3 -7 -3 -14 -3 -22v-31c0 -6 -1 -11 -2 -17l-6 -57c-1 -5 0 -11 -1 -16l-3 -30c0 -2 -1 -4 -1 -6c0 -27 -4 -54 -3 -81c0 -15 0 -30 -1 -44v-78
c1 -41 -2 -82 -4 -123c0 -19 -2 -38 -5 -57c-2 -15 -6 -31 -10 -47l-1 -4c-8 -13 -16 -26 -26 -37c-2 -3 -6 -5 -9 -8c-5 -3 -10 -7 -14 -11c-16 -13 -30 -17 -50 -16z" />
    <glyph glyph-name="Ugrave" unicode="&#xd9;" horiz-adv-x="298" 
d="M147 763c-14 1 -24 6 -30 16s-13 21 -18 32c-5 13 -3 6 -11 17c-4 5 -8 10 -11 16c-6 10 0 21 11 24c13 3 25 -1 34 -10c4 -3 7 -7 10 -11c7 -10 3 -3 9 -13c8 -12 15 -24 22 -36c6 -11 3 -26 -8 -32zM118 -17c-12 0 -24 1 -36 6s-22 13 -27 26c-7 13 -15 26 -20 41
c0 2 -3 5 -4 7c-8 12 -12 25 -14 38c-4 16 -5 32 -5 48c-1 12 -1 25 -1 37c-1 13 -1 26 -1 38c0 15 1 29 2 44c0 13 1 26 1 39c1 20 0 40 1 60c1 11 1 22 0 33c-1 12 -1 24 -1 35v101c0 14 0 28 1 43c0 17 1 35 1 52v52c0 6 0 12 1 18c0 21 19 31 38 22c2 -2 5 -3 8 -5
c9 -5 13 -12 13 -23c-1 -28 0 -56 -1 -84v-55h-1v-24c0 -36 0 -72 1 -109v-15c0 -8 1 -16 1 -24c-1 -16 -1 -32 -1 -48v-6l-3 -81v-52v-12c-1 -18 4 -64 9 -80c0 -3 1 -6 3 -9c7 -16 15 -32 23 -49c5 -13 18 -18 32 -9c7 3 12 9 16 14c12 14 13 31 16 47c4 19 6 40 7 60
c1 30 3 60 4 90c0 12 -1 24 -1 36v40v27c-1 27 0 54 2 81c3 33 4 66 7 100l6 62c2 14 3 26 -1 39c-3 13 -4 26 -9 38c-6 12 -1 23 7 32c8 8 17 12 29 9l11 -3c9 -3 16 -7 19 -16c2 -5 5 -10 6 -15c1 -4 1 -8 0 -11c-3 -7 -3 -14 -3 -22v-31c0 -6 -1 -11 -2 -17l-6 -57
c-1 -5 0 -11 -1 -16l-3 -30c0 -2 -1 -4 -1 -6c0 -27 -4 -54 -3 -81c0 -15 0 -30 -1 -44v-78c1 -41 -2 -82 -4 -123c0 -19 -2 -38 -5 -57c-2 -15 -6 -31 -10 -47l-1 -4c-8 -13 -16 -26 -26 -37c-2 -3 -6 -5 -9 -8c-5 -3 -10 -7 -14 -11c-16 -13 -30 -17 -50 -16z" />
    <glyph glyph-name="V" unicode="V" horiz-adv-x="256" 
d="M109 -7c-12 5 -21 13 -27 26c-3 9 -6 16 -4 26c2 16 -2 31 -3 47c-1 13 -1 26 -2 39l-3 39c-1 23 -3 46 -5 69c-3 21 -3 43 -8 64c-3 14 -5 29 -7 43l-3 13c-5 14 -8 27 -10 41c0 8 -3 16 -4 24c-2 5 -3 11 -4 16c-2 22 -6 43 -10 64c-1 8 -4 15 -5 22c-4 17 -6 35 -9 52
c-4 25 -4 50 -4 75c-1 14 0 27 -1 41c-1 8 3 16 9 21s13 7 21 6c3 0 5 0 8 -1c7 -1 15 -2 18 -11c3 -6 6 -12 4 -20c-1 -8 -1 -17 -1 -25c1 -37 4 -74 9 -111c4 -20 9 -40 13 -59c1 -4 1 -8 2 -12c2 -16 5 -32 8 -48c1 -7 2 -13 4 -20c2 -12 4 -24 7 -36l9 -47
c3 -15 6 -30 7 -45c1 -1 1 -3 2 -5c4 1 3 4 3 5l3 43c1 21 3 43 5 64s3 41 5 62c1 12 1 24 1 36c1 37 4 75 9 111c2 8 2 16 3 24c1 19 4 37 5 56c1 5 0 10 1 15c0 19 13 29 31 27c24 -3 32 -12 29 -37c-5 -40 -10 -81 -14 -121c-2 -13 -2 -25 -3 -38c-2 -25 -3 -50 -3 -75
c0 -7 -1 -13 -2 -20c-1 -9 -3 -19 -3 -28c1 -7 0 -13 -1 -19l-3 -40c-1 -14 -3 -29 -4 -43c-1 -27 -8 -54 -12 -80c-4 -21 -6 -41 -10 -62c0 -2 -1 -4 -2 -7c-6 -16 -7 -33 -8 -50c0 -7 0 -15 -1 -22l-3 -50c0 -5 -1 -10 -2 -15c-2 -8 -7 -14 -15 -17c-7 -2 -13 -5 -20 -7z
" />
    <glyph glyph-name="W" unicode="W" horiz-adv-x="437" 
d="M134 4c-13 -4 -29 7 -32 20c0 5 -1 9 -1 14c-1 20 -1 41 -2 61c-2 23 -3 46 -9 67c-3 10 -4 19 -4 29c1 25 -1 50 -4 75c-2 17 -6 33 -10 49c-5 20 -11 40 -14 60c-3 14 -7 28 -9 43c-3 19 -5 38 -8 57c-2 10 -4 20 -7 31c-5 21 -9 43 -15 64c-9 32 -11 65 -16 97
c-2 8 -2 17 -3 25c-2 17 11 28 24 27c6 -1 11 0 17 -1c13 -2 19 -9 19 -21c-1 -16 3 -31 5 -47c7 -49 6 -43 25 -122c5 -21 10 -41 11 -63c0 -7 2 -14 3 -20c5 -24 9 -48 14 -71l6 -24c9 -28 15 -57 16 -87c1 -14 3 -28 3 -42c1 -4 1 -9 1 -13c6 14 6 29 8 43
c1 14 2 28 5 42c3 11 3 22 5 34c1 9 3 19 5 28c3 14 6 29 7 43c1 20 3 40 10 59c1 3 1 6 1 9c2 14 9 22 22 26c10 4 20 3 30 1c11 -2 15 -12 18 -22c2 -6 1 -12 2 -18c0 -15 5 -30 8 -44c4 -19 8 -38 13 -56c0 -1 6 -127 8 -129c4 19 13 232 20 257c15 55 10 85 18 156
c3 22 6 44 13 65c2 6 4 10 7 15c4 5 10 8 16 8c9 0 18 -3 26 -6c8 -4 12 -13 11 -22c-1 -2 -2 -4 -2 -6c-6 -20 -9 -40 -12 -60c-1 -8 0 -16 -1 -24c-3 -32 -6 -63 -10 -95c-2 -14 -5 -28 -9 -43c-5 -21 -11 -41 -12 -63c0 -10 -3 -19 -5 -28l-6 -41c-1 -9 -3 -18 -4 -26
c-1 -7 -2 -13 -2 -20c1 -14 -1 -28 -1 -42c0 -18 -3 -36 -5 -54c-1 -16 -2 -32 -4 -48c-1 -9 -3 -18 -4 -27c-1 -4 -2 -8 -1 -12c1 -16 3 -32 5 -48c0 -6 1 -13 2 -19c0 -17 -9 -28 -23 -35c-6 -3 -14 -2 -22 -2c-3 0 -7 1 -10 3c-9 3 -13 11 -14 19c-1 10 -1 20 -2 29
c0 6 1 12 -2 18v3c2 12 -3 24 -4 35c0 12 -3 23 -3 35c1 13 -1 26 -3 39c-1 8 -4 16 -5 25c-3 19 -5 38 -7 57c-2 14 -5 28 -8 43c0 2 -1 3 -3 6c-5 -16 -5 -32 -7 -47l-3 -31c-3 -26 -6 -52 -10 -78c-1 -11 -3 -21 -6 -31c-6 -16 -7 -33 -6 -49c1 -13 -2 -23 -10 -32
c-4 -4 -6 -8 -6 -13c0 -7 -4 -12 -8 -16c-8 -10 -17 -16 -30 -19z" />
    <glyph glyph-name="Wacute" unicode="&#x1e82;" horiz-adv-x="437" 
d="M192 758c-9 3 -16 7 -19 16c-2 5 -7 8 -5 13c0 2 0 5 1 7c10 25 22 49 38 70c1 1 2 1 3 3h6c13 3 23 -4 31 -13c6 -5 7 -15 2 -21c-1 -3 -4 -5 -5 -7c-6 -9 -10 -18 -14 -28c-3 -11 -8 -20 -13 -30c-4 -8 -16 -12 -25 -10zM134 4c-13 -4 -29 7 -32 20c0 5 -1 9 -1 14
c-1 20 -1 41 -2 61c-2 23 -3 46 -9 67c-3 10 -4 19 -4 29c1 25 -1 50 -4 75c-2 17 -6 33 -10 49c-5 20 -11 40 -14 60c-3 14 -7 28 -9 43c-3 19 -5 38 -8 57c-2 10 -4 20 -7 31c-5 21 -9 43 -15 64c-9 32 -11 65 -16 97c-2 8 -2 17 -3 25c-2 17 11 28 24 27c6 -1 11 0 17 -1
c13 -2 19 -9 19 -21c-1 -16 3 -31 5 -47c7 -49 6 -43 25 -122c5 -21 10 -41 11 -63c0 -7 2 -14 3 -20c5 -24 9 -48 14 -71l6 -24c9 -28 15 -57 16 -87c1 -14 3 -28 3 -42c1 -4 1 -9 1 -13c6 14 6 29 8 43c1 14 2 28 5 42c3 11 3 22 5 34c1 9 3 19 5 28c3 14 6 29 7 43
c1 20 3 40 10 59c1 3 1 6 1 9c2 14 9 22 22 26c10 4 20 3 30 1c11 -2 15 -12 18 -22c2 -6 1 -12 2 -18c0 -15 5 -30 8 -44c4 -19 8 -38 13 -56c0 -1 6 -127 8 -129c4 19 13 232 20 257c15 55 10 85 18 156c3 22 6 44 13 65c2 6 4 10 7 15c4 5 10 8 16 8c9 0 18 -3 26 -6
c8 -4 12 -13 11 -22c-1 -2 -2 -4 -2 -6c-6 -20 -9 -40 -12 -60c-1 -8 0 -16 -1 -24c-3 -32 -6 -63 -10 -95c-2 -14 -5 -28 -9 -43c-5 -21 -11 -41 -12 -63c0 -10 -3 -19 -5 -28l-6 -41c-1 -9 -3 -18 -4 -26c-1 -7 -2 -13 -2 -20c1 -14 -1 -28 -1 -42c0 -18 -3 -36 -5 -54
c-1 -16 -2 -32 -4 -48c-1 -9 -3 -18 -4 -27c-1 -4 -2 -8 -1 -12c1 -16 3 -32 5 -48c0 -6 1 -13 2 -19c0 -17 -9 -28 -23 -35c-6 -3 -14 -2 -22 -2c-3 0 -7 1 -10 3c-9 3 -13 11 -14 19c-1 10 -1 20 -2 29c0 6 1 12 -2 18v3c2 12 -3 24 -4 35c0 12 -3 23 -3 35
c1 13 -1 26 -3 39c-1 8 -4 16 -5 25c-3 19 -5 38 -7 57c-2 14 -5 28 -8 43c0 2 -1 3 -3 6c-5 -16 -5 -32 -7 -47l-3 -31c-3 -26 -6 -52 -10 -78c-1 -11 -3 -21 -6 -31c-6 -16 -7 -33 -6 -49c1 -13 -2 -23 -10 -32c-4 -4 -6 -8 -6 -13c0 -7 -4 -12 -8 -16
c-8 -10 -17 -16 -30 -19z" />
    <glyph glyph-name="Wcircumflex" unicode="&#x174;" horiz-adv-x="437" 
d="M264 765c-10 0 -19 2 -25 10c-8 8 -7 11 -11 15s-8 4 -12 0s-9 -9 -13 -15c-11 -15 -28 -17 -42 -3c-3 3 -5 7 -6 11c-4 8 -1 16 5 21c12 12 25 22 36 35c7 9 22 11 33 6c4 -2 9 -5 13 -9c11 -11 0 0 11 -12c6 -5 11 -11 16 -16c5 -6 9 -12 12 -19c0 -2 0 -5 1 -7
c0 -11 -6 -16 -18 -17zM134 4c-13 -4 -29 7 -32 20c0 5 -1 9 -1 14c-1 20 -1 41 -2 61c-2 23 -3 46 -9 67c-3 10 -4 19 -4 29c1 25 -1 50 -4 75c-2 17 -6 33 -10 49c-5 20 -11 40 -14 60c-3 14 -7 28 -9 43c-3 19 -5 38 -8 57c-2 10 -4 20 -7 31c-5 21 -9 43 -15 64
c-9 32 -11 65 -16 97c-2 8 -2 17 -3 25c-2 17 11 28 24 27c6 -1 11 0 17 -1c13 -2 19 -9 19 -21c-1 -16 3 -31 5 -47c7 -49 6 -43 25 -122c5 -21 10 -41 11 -63c0 -7 2 -14 3 -20c5 -24 9 -48 14 -71l6 -24c9 -28 15 -57 16 -87c1 -14 3 -28 3 -42c1 -4 1 -9 1 -13
c6 14 6 29 8 43c1 14 2 28 5 42c3 11 3 22 5 34c1 9 3 19 5 28c3 14 6 29 7 43c1 20 3 40 10 59c1 3 1 6 1 9c2 14 9 22 22 26c10 4 20 3 30 1c11 -2 15 -12 18 -22c2 -6 1 -12 2 -18c0 -15 5 -30 8 -44c4 -19 8 -38 13 -56c0 -1 6 -127 8 -129c4 19 13 232 20 257
c15 55 10 85 18 156c3 22 6 44 13 65c2 6 4 10 7 15c4 5 10 8 16 8c9 0 18 -3 26 -6c8 -4 12 -13 11 -22c-1 -2 -2 -4 -2 -6c-6 -20 -9 -40 -12 -60c-1 -8 0 -16 -1 -24c-3 -32 -6 -63 -10 -95c-2 -14 -5 -28 -9 -43c-5 -21 -11 -41 -12 -63c0 -10 -3 -19 -5 -28l-6 -41
c-1 -9 -3 -18 -4 -26c-1 -7 -2 -13 -2 -20c1 -14 -1 -28 -1 -42c0 -18 -3 -36 -5 -54c-1 -16 -2 -32 -4 -48c-1 -9 -3 -18 -4 -27c-1 -4 -2 -8 -1 -12c1 -16 3 -32 5 -48c0 -6 1 -13 2 -19c0 -17 -9 -28 -23 -35c-6 -3 -14 -2 -22 -2c-3 0 -7 1 -10 3c-9 3 -13 11 -14 19
c-1 10 -1 20 -2 29c0 6 1 12 -2 18v3c2 12 -3 24 -4 35c0 12 -3 23 -3 35c1 13 -1 26 -3 39c-1 8 -4 16 -5 25c-3 19 -5 38 -7 57c-2 14 -5 28 -8 43c0 2 -1 3 -3 6c-5 -16 -5 -32 -7 -47l-3 -31c-3 -26 -6 -52 -10 -78c-1 -11 -3 -21 -6 -31c-6 -16 -7 -33 -6 -49
c1 -13 -2 -23 -10 -32c-4 -4 -6 -8 -6 -13c0 -7 -4 -12 -8 -16c-8 -10 -17 -16 -30 -19z" />
    <glyph glyph-name="Wdieresis" unicode="&#x1e84;" horiz-adv-x="437" 
d="M138 777c-13 6 -19 17 -24 30c-1 3 0 6 0 9c2 8 3 16 5 24c7 4 14 6 21 6c9 1 17 -2 24 -7s12 -11 16 -18c1 -1 1 -1 1 -2c5 -13 -3 -35 -15 -42c-10 -5 -19 -4 -28 0zM258 772c-11 -2 -19 2 -26 9c-9 8 -14 19 -15 31c0 7 3 14 6 20c6 11 15 15 27 14
c18 -2 32 -12 41 -28c2 -4 2 -10 3 -16c1 -9 -2 -16 -9 -22l-6 -4c-7 -1 -14 -3 -21 -4zM134 4c-13 -4 -29 7 -32 20c0 5 -1 9 -1 14c-1 20 -1 41 -2 61c-2 23 -3 46 -9 67c-3 10 -4 19 -4 29c1 25 -1 50 -4 75c-2 17 -6 33 -10 49c-5 20 -11 40 -14 60c-3 14 -7 28 -9 43
c-3 19 -5 38 -8 57c-2 10 -4 20 -7 31c-5 21 -9 43 -15 64c-9 32 -11 65 -16 97c-2 8 -2 17 -3 25c-2 17 11 28 24 27c6 -1 11 0 17 -1c13 -2 19 -9 19 -21c-1 -16 3 -31 5 -47c7 -49 6 -43 25 -122c5 -21 10 -41 11 -63c0 -7 2 -14 3 -20c5 -24 9 -48 14 -71l6 -24
c9 -28 15 -57 16 -87c1 -14 3 -28 3 -42c1 -4 1 -9 1 -13c6 14 6 29 8 43c1 14 2 28 5 42c3 11 3 22 5 34c1 9 3 19 5 28c3 14 6 29 7 43c1 20 3 40 10 59c1 3 1 6 1 9c2 14 9 22 22 26c10 4 20 3 30 1c11 -2 15 -12 18 -22c2 -6 1 -12 2 -18c0 -15 5 -30 8 -44
c4 -19 8 -38 13 -56c0 -1 6 -127 8 -129c4 19 13 232 20 257c15 55 10 85 18 156c3 22 6 44 13 65c2 6 4 10 7 15c4 5 10 8 16 8c9 0 18 -3 26 -6c8 -4 12 -13 11 -22c-1 -2 -2 -4 -2 -6c-6 -20 -9 -40 -12 -60c-1 -8 0 -16 -1 -24c-3 -32 -6 -63 -10 -95
c-2 -14 -5 -28 -9 -43c-5 -21 -11 -41 -12 -63c0 -10 -3 -19 -5 -28l-6 -41c-1 -9 -3 -18 -4 -26c-1 -7 -2 -13 -2 -20c1 -14 -1 -28 -1 -42c0 -18 -3 -36 -5 -54c-1 -16 -2 -32 -4 -48c-1 -9 -3 -18 -4 -27c-1 -4 -2 -8 -1 -12c1 -16 3 -32 5 -48c0 -6 1 -13 2 -19
c0 -17 -9 -28 -23 -35c-6 -3 -14 -2 -22 -2c-3 0 -7 1 -10 3c-9 3 -13 11 -14 19c-1 10 -1 20 -2 29c0 6 1 12 -2 18v3c2 12 -3 24 -4 35c0 12 -3 23 -3 35c1 13 -1 26 -3 39c-1 8 -4 16 -5 25c-3 19 -5 38 -7 57c-2 14 -5 28 -8 43c0 2 -1 3 -3 6c-5 -16 -5 -32 -7 -47
l-3 -31c-3 -26 -6 -52 -10 -78c-1 -11 -3 -21 -6 -31c-6 -16 -7 -33 -6 -49c1 -13 -2 -23 -10 -32c-4 -4 -6 -8 -6 -13c0 -7 -4 -12 -8 -16c-8 -10 -17 -16 -30 -19z" />
    <glyph glyph-name="Wgrave" unicode="&#x1e80;" horiz-adv-x="437" 
d="M228 763c-14 1 -24 6 -30 16s-13 21 -18 32c-5 13 -3 6 -11 17c-4 5 -8 10 -11 16c-6 10 0 21 11 24c13 3 25 -1 34 -10c4 -3 7 -7 10 -11c7 -10 3 -3 9 -13c8 -12 15 -24 22 -36c6 -11 3 -26 -8 -32zM134 4c-13 -4 -29 7 -32 20c0 5 -1 9 -1 14c-1 20 -1 41 -2 61
c-2 23 -3 46 -9 67c-3 10 -4 19 -4 29c1 25 -1 50 -4 75c-2 17 -6 33 -10 49c-5 20 -11 40 -14 60c-3 14 -7 28 -9 43c-3 19 -5 38 -8 57c-2 10 -4 20 -7 31c-5 21 -9 43 -15 64c-9 32 -11 65 -16 97c-2 8 -2 17 -3 25c-2 17 11 28 24 27c6 -1 11 0 17 -1
c13 -2 19 -9 19 -21c-1 -16 3 -31 5 -47c7 -49 6 -43 25 -122c5 -21 10 -41 11 -63c0 -7 2 -14 3 -20c5 -24 9 -48 14 -71l6 -24c9 -28 15 -57 16 -87c1 -14 3 -28 3 -42c1 -4 1 -9 1 -13c6 14 6 29 8 43c1 14 2 28 5 42c3 11 3 22 5 34c1 9 3 19 5 28c3 14 6 29 7 43
c1 20 3 40 10 59c1 3 1 6 1 9c2 14 9 22 22 26c10 4 20 3 30 1c11 -2 15 -12 18 -22c2 -6 1 -12 2 -18c0 -15 5 -30 8 -44c4 -19 8 -38 13 -56c0 -1 6 -127 8 -129c4 19 13 232 20 257c15 55 10 85 18 156c3 22 6 44 13 65c2 6 4 10 7 15c4 5 10 8 16 8c9 0 18 -3 26 -6
c8 -4 12 -13 11 -22c-1 -2 -2 -4 -2 -6c-6 -20 -9 -40 -12 -60c-1 -8 0 -16 -1 -24c-3 -32 -6 -63 -10 -95c-2 -14 -5 -28 -9 -43c-5 -21 -11 -41 -12 -63c0 -10 -3 -19 -5 -28l-6 -41c-1 -9 -3 -18 -4 -26c-1 -7 -2 -13 -2 -20c1 -14 -1 -28 -1 -42c0 -18 -3 -36 -5 -54
c-1 -16 -2 -32 -4 -48c-1 -9 -3 -18 -4 -27c-1 -4 -2 -8 -1 -12c1 -16 3 -32 5 -48c0 -6 1 -13 2 -19c0 -17 -9 -28 -23 -35c-6 -3 -14 -2 -22 -2c-3 0 -7 1 -10 3c-9 3 -13 11 -14 19c-1 10 -1 20 -2 29c0 6 1 12 -2 18v3c2 12 -3 24 -4 35c0 12 -3 23 -3 35
c1 13 -1 26 -3 39c-1 8 -4 16 -5 25c-3 19 -5 38 -7 57c-2 14 -5 28 -8 43c0 2 -1 3 -3 6c-5 -16 -5 -32 -7 -47l-3 -31c-3 -26 -6 -52 -10 -78c-1 -11 -3 -21 -6 -31c-6 -16 -7 -33 -6 -49c1 -13 -2 -23 -10 -32c-4 -4 -6 -8 -6 -13c0 -7 -4 -12 -8 -16
c-8 -10 -17 -16 -30 -19z" />
    <glyph glyph-name="X" unicode="X" horiz-adv-x="286" 
d="M195 4c-2 0 -4 3 -5 5s-2 4 -2 7c-5 16 -9 32 -12 48c-4 19 -7 38 -13 57c-9 34 -18 68 -25 103c-2 14 -5 28 -8 43c0 1 0 2 -1 4l-2 -2c-6 -13 -11 -26 -16 -39c-2 -6 -4 -12 -7 -18c-5 -12 -9 -24 -11 -36c-1 -12 -5 -23 -8 -34c-6 -23 -11 -46 -16 -69
c-2 -6 -3 -13 -2 -19c0 -9 -3 -18 -6 -26c-4 -10 -11 -17 -22 -19c-6 -2 -12 -4 -19 -4c-6 0 -10 4 -15 6c-1 0 -3 2 -3 4c-2 7 -3 14 0 22l15 49c5 22 8 44 13 66c0 4 1 7 2 10c3 6 4 12 3 18c0 8 1 16 6 23c8 11 12 24 13 38c1 6 3 13 7 18c7 9 10 19 11 29c2 9 4 17 8 26
c5 11 9 22 10 34c1 10 3 20 5 30c2 8 4 17 5 25c1 3 1 7 0 10c-7 26 -11 53 -16 79c-2 15 -7 30 -9 45c-3 19 -7 37 -12 55c-3 10 -3 21 -6 31c-7 21 -7 44 -9 66c-1 6 1 12 3 19c1 2 3 4 5 5c9 5 19 7 29 6c8 0 14 -4 18 -11c3 -7 5 -13 5 -20c0 -19 4 -37 8 -55
c4 -13 6 -27 8 -40c3 -12 5 -25 7 -37c1 -5 3 -10 4 -16c6 1 5 5 6 8c3 16 6 33 10 49c5 20 11 40 17 59c4 16 8 31 13 47c1 4 2 9 4 13c2 7 8 11 15 12c8 1 16 0 24 -1c15 -2 19 -18 16 -29c-8 -30 -17 -59 -25 -88c-3 -10 -5 -19 -8 -28c-5 -17 -7 -35 -10 -53
c-3 -25 -9 -50 -19 -73c-7 -15 -11 -31 -14 -47c-2 -7 0 -15 1 -22c1 -10 3 -20 6 -30c8 -32 13 -65 19 -97l9 -54c1 -10 3 -20 6 -29c7 -22 11 -44 17 -66c4 -17 7 -34 14 -50c3 -8 7 -16 9 -24c2 -9 0 -16 -6 -23c-13 -13 -28 -12 -44 -10z" />
    <glyph glyph-name="Y" unicode="Y" horiz-adv-x="241" 
d="M96 9c-6 -3 -11 0 -16 2c-4 1 -7 5 -8 9c-1 5 -1 11 -1 16c0 6 2 12 2 18c2 16 3 32 4 48c0 2 1 4 0 6c-1 12 1 24 2 36c4 26 3 52 3 79l3 81v9c0 23 -1 45 -1 68c-1 16 -1 32 -1 48c0 8 -1 16 -1 24c-1 4 -1 9 -3 12c-4 7 -6 15 -8 23c-4 12 -9 24 -14 36
c-4 9 -5 18 -7 28c-7 32 -14 64 -26 96c-5 16 -11 32 -17 48c-1 5 -1 10 1 15c3 10 12 14 21 18c1 1 3 0 4 0c5 0 10 0 15 -1c8 -2 17 -6 19 -17c2 -14 8 -27 12 -40c6 -17 12 -34 16 -52c4 -15 9 -57 13 -72c0 -1 1 -1 3 -3c2 13 4 51 6 63c3 28 8 55 16 81c3 7 4 14 4 21
c0 3 1 6 3 8c6 12 6 12 23 20c5 -1 10 -2 15 -2c7 0 12 -4 17 -8c6 -5 8 -20 4 -27c-11 -22 -16 -46 -19 -71l-9 -55l-28 -134v-119c1 -19 -1 -39 -3 -58c-2 -24 -1 -48 -2 -71c0 -4 1 -7 1 -11c-4 -23 -4 -46 -6 -69c-3 -23 -3 -46 -1 -68c2 -14 -8 -28 -22 -32
c-5 -1 -10 -1 -14 -3z" />
    <glyph glyph-name="Yacute" unicode="&#xdd;" horiz-adv-x="241" 
d="M96 768c-9 3 -16 7 -19 16c-2 5 -7 8 -5 13c0 2 0 5 1 7c10 25 22 49 38 70c1 1 2 1 3 3h6c13 3 23 -4 31 -13c6 -5 7 -15 2 -21c-1 -3 -4 -5 -5 -7c-6 -9 -10 -18 -14 -28c-3 -11 -8 -20 -13 -30c-4 -8 -16 -12 -25 -10zM96 9c-6 -3 -11 0 -16 2c-4 1 -7 5 -8 9
c-1 5 -1 11 -1 16c0 6 2 12 2 18c2 16 3 32 4 48c0 2 1 4 0 6c-1 12 1 24 2 36c4 26 3 52 3 79l3 81v9c0 23 -1 45 -1 68c-1 16 -1 32 -1 48c0 8 -1 16 -1 24c-1 4 -1 9 -3 12c-4 7 -6 15 -8 23c-4 12 -9 24 -14 36c-4 9 -5 18 -7 28c-7 32 -14 64 -26 96
c-5 16 -11 32 -17 48c-1 5 -1 10 1 15c3 10 12 14 21 18c1 1 3 0 4 0c5 0 10 0 15 -1c8 -2 17 -6 19 -17c2 -14 8 -27 12 -40c6 -17 12 -34 16 -52c4 -15 9 -57 13 -72c0 -1 1 -1 3 -3c2 13 4 51 6 63c3 28 8 55 16 81c3 7 4 14 4 21c0 3 1 6 3 8c6 12 6 12 23 20
c5 -1 10 -2 15 -2c7 0 12 -4 17 -8c6 -5 8 -20 4 -27c-11 -22 -16 -46 -19 -71l-9 -55l-28 -134v-119c1 -19 -1 -39 -3 -58c-2 -24 -1 -48 -2 -71c0 -4 1 -7 1 -11c-4 -23 -4 -46 -6 -69c-3 -23 -3 -46 -1 -68c2 -14 -8 -28 -22 -32c-5 -1 -10 -1 -14 -3z" />
    <glyph glyph-name="Ycircumflex" unicode="&#x176;" horiz-adv-x="241" 
d="M151 775c-10 0 -19 2 -25 10c-8 8 -7 11 -11 15s-8 4 -12 0s-9 -9 -13 -15c-11 -15 -28 -17 -42 -3c-3 3 -5 7 -6 11c-4 8 -1 16 5 21c12 12 25 22 36 35c7 9 22 11 33 6c4 -2 9 -5 13 -9c11 -11 0 0 11 -12c6 -5 11 -11 16 -16c5 -6 9 -12 12 -19c0 -2 0 -5 1 -7
c0 -11 -6 -16 -18 -17zM96 9c-6 -3 -11 0 -16 2c-4 1 -7 5 -8 9c-1 5 -1 11 -1 16c0 6 2 12 2 18c2 16 3 32 4 48c0 2 1 4 0 6c-1 12 1 24 2 36c4 26 3 52 3 79l3 81v9c0 23 -1 45 -1 68c-1 16 -1 32 -1 48c0 8 -1 16 -1 24c-1 4 -1 9 -3 12c-4 7 -6 15 -8 23
c-4 12 -9 24 -14 36c-4 9 -5 18 -7 28c-7 32 -14 64 -26 96c-5 16 -11 32 -17 48c-1 5 -1 10 1 15c3 10 12 14 21 18c1 1 3 0 4 0c5 0 10 0 15 -1c8 -2 17 -6 19 -17c2 -14 8 -27 12 -40c6 -17 12 -34 16 -52c4 -15 9 -57 13 -72c0 -1 1 -1 3 -3c2 13 4 51 6 63
c3 28 8 55 16 81c3 7 4 14 4 21c0 3 1 6 3 8c6 12 6 12 23 20c5 -1 10 -2 15 -2c7 0 12 -4 17 -8c6 -5 8 -20 4 -27c-11 -22 -16 -46 -19 -71l-9 -55l-28 -134v-119c1 -19 -1 -39 -3 -58c-2 -24 -1 -48 -2 -71c0 -4 1 -7 1 -11c-4 -23 -4 -46 -6 -69c-3 -23 -3 -46 -1 -68
c2 -14 -8 -28 -22 -32c-5 -1 -10 -1 -14 -3z" />
    <glyph glyph-name="Ydieresis" unicode="&#x178;" horiz-adv-x="241" 
d="M40 785c-13 6 -19 17 -24 30c-1 3 0 6 0 9c2 8 3 16 5 24c7 4 14 6 21 6c9 1 17 -2 24 -7s12 -11 16 -18c1 -1 1 -1 1 -2c5 -13 -3 -35 -15 -42c-10 -5 -19 -4 -28 0zM160 780c-11 -2 -19 2 -26 9c-9 8 -14 19 -15 31c0 7 3 14 6 20c6 11 15 15 27 14
c18 -2 32 -12 41 -28c2 -4 2 -10 3 -16c1 -9 -2 -16 -9 -22l-6 -4c-7 -1 -14 -3 -21 -4zM96 9c-6 -3 -11 0 -16 2c-4 1 -7 5 -8 9c-1 5 -1 11 -1 16c0 6 2 12 2 18c2 16 3 32 4 48c0 2 1 4 0 6c-1 12 1 24 2 36c4 26 3 52 3 79l3 81v9c0 23 -1 45 -1 68c-1 16 -1 32 -1 48
c0 8 -1 16 -1 24c-1 4 -1 9 -3 12c-4 7 -6 15 -8 23c-4 12 -9 24 -14 36c-4 9 -5 18 -7 28c-7 32 -14 64 -26 96c-5 16 -11 32 -17 48c-1 5 -1 10 1 15c3 10 12 14 21 18c1 1 3 0 4 0c5 0 10 0 15 -1c8 -2 17 -6 19 -17c2 -14 8 -27 12 -40c6 -17 12 -34 16 -52
c4 -15 9 -57 13 -72c0 -1 1 -1 3 -3c2 13 4 51 6 63c3 28 8 55 16 81c3 7 4 14 4 21c0 3 1 6 3 8c6 12 6 12 23 20c5 -1 10 -2 15 -2c7 0 12 -4 17 -8c6 -5 8 -20 4 -27c-11 -22 -16 -46 -19 -71l-9 -55l-28 -134v-119c1 -19 -1 -39 -3 -58c-2 -24 -1 -48 -2 -71
c0 -4 1 -7 1 -11c-4 -23 -4 -46 -6 -69c-3 -23 -3 -46 -1 -68c2 -14 -8 -28 -22 -32c-5 -1 -10 -1 -14 -3z" />
    <glyph glyph-name="Ygrave" unicode="&#x1ef2;" horiz-adv-x="241" 
d="M116 763c-14 1 -24 6 -30 16s-13 21 -18 32c-5 13 -3 6 -11 17c-4 5 -8 10 -11 16c-6 10 0 21 11 24c13 3 25 -1 34 -10c4 -3 7 -7 10 -11c7 -10 3 -3 9 -13c8 -12 15 -24 22 -36c6 -11 3 -26 -8 -32zM96 9c-6 -3 -11 0 -16 2c-4 1 -7 5 -8 9c-1 5 -1 11 -1 16
c0 6 2 12 2 18c2 16 3 32 4 48c0 2 1 4 0 6c-1 12 1 24 2 36c4 26 3 52 3 79l3 81v9c0 23 -1 45 -1 68c-1 16 -1 32 -1 48c0 8 -1 16 -1 24c-1 4 -1 9 -3 12c-4 7 -6 15 -8 23c-4 12 -9 24 -14 36c-4 9 -5 18 -7 28c-7 32 -14 64 -26 96c-5 16 -11 32 -17 48
c-1 5 -1 10 1 15c3 10 12 14 21 18c1 1 3 0 4 0c5 0 10 0 15 -1c8 -2 17 -6 19 -17c2 -14 8 -27 12 -40c6 -17 12 -34 16 -52c4 -15 9 -57 13 -72c0 -1 1 -1 3 -3c2 13 4 51 6 63c3 28 8 55 16 81c3 7 4 14 4 21c0 3 1 6 3 8c6 12 6 12 23 20c5 -1 10 -2 15 -2
c7 0 12 -4 17 -8c6 -5 8 -20 4 -27c-11 -22 -16 -46 -19 -71l-9 -55l-28 -134v-119c1 -19 -1 -39 -3 -58c-2 -24 -1 -48 -2 -71c0 -4 1 -7 1 -11c-4 -23 -4 -46 -6 -69c-3 -23 -3 -46 -1 -68c2 -14 -8 -28 -22 -32c-5 -1 -10 -1 -14 -3z" />
    <glyph glyph-name="Z" unicode="Z" horiz-adv-x="261" 
d="M154 -1c-11 2 -70 1 -82 1c-18 -1 -36 -1 -54 3c-13 2 -20 12 -18 25c1 6 2 11 4 16c5 22 5 44 11 65c3 36 15 70 23 105c0 1 1 2 1 3c4 30 16 59 20 89c2 16 7 31 11 46c3 17 5 34 8 51c4 19 10 39 14 58l9 43c5 25 10 51 15 76v3c7 11 8 25 11 37c4 15 8 29 14 43
c1 2 1 4 2 7c-2 1 -4 3 -7 3c-11 2 -86 4 -98 5c-4 0 -9 3 -12 7c-6 6 -11 11 -13 20c1 3 3 5 4 8c7 13 19 17 33 16c9 -1 81 2 90 2c3 -1 6 0 9 -1c13 -1 26 -3 39 -4c9 0 17 -3 25 -8c4 -2 5 -5 6 -8c4 -11 2 -21 -4 -29c-11 -17 -19 -35 -25 -54c-6 -21 -12 -41 -17 -61
c-2 -7 -4 -14 -5 -21c-5 -25 -9 -50 -14 -76c-3 -16 -8 -32 -12 -48c-9 -31 -16 -62 -22 -94c-5 -25 -12 -50 -18 -75c-1 -2 -1 -4 -2 -7c-4 -25 -11 -50 -18 -74c-4 -17 -7 -35 -11 -52c-4 -15 -6 -29 -6 -44c1 -3 0 -5 -1 -8v-16h13h96c11 -1 21 -4 30 -10c1 -3 1 -5 2 -7
c4 -14 -1 -25 -15 -30c-12 -4 -23 -6 -36 -5z" />
    <glyph glyph-name="A.ss01" horiz-adv-x="260" 
d="M356 -227c-19 2 -37 6 -54 16l-6 3c-15 5 -27 14 -40 23c-11 7 -20 16 -27 26c-30 42 -48 94 -52 146c-4 35 0 70 -5 105c-5 0 -8 1 -11 1c-53 -3 -56 1 -89 3c-3 1 -7 0 -11 0c-2 -6 -14 -45 -15 -61c-1 -9 -5 -16 -10 -23c-9 -10 -19 -13 -31 -12c-6 1 -10 3 -14 7
c-2 3 -3 6 -2 9c5 23 7 47 15 69c3 9 6 18 8 28c17 93 11 100 15 127c4 29 7 58 9 87c1 15 4 30 6 45c4 29 11 57 18 85c0 3 20 109 22 124c3 19 4 39 7 58c2 12 2 15 14 81c6 7 13 17 31 14c4 -1 8 -3 10 -7c22 -31 35 -136 44 -203c18 -135 6 -2 28 -284
c1 -17 3 -34 4 -51c1 -19 3 -39 4 -58c1 -21 3 -42 5 -63c6 -63 7 -135 49 -189c12 -16 28 -27 46 -37c11 -6 23 -10 34 -14c9 -2 17 -3 26 -3s18 1 27 3c21 2 37 13 48 32c3 5 6 11 6 18c0 9 2 17 2 26c1 4 1 8 1 12c3 10 6 16 16 19c12 3 21 0 29 -11c3 -4 6 -8 9 -13
c4 -6 6 -14 4 -23c-6 -25 -14 -50 -33 -70c-7 -7 -15 -13 -23 -19c-22 -16 -48 -22 -75 -24c-13 -1 -26 -3 -39 -2zM72 144c54 -4 54 -3 91 1c2 0 3 30 -2 93c-2 25 -1 21 -16 186v8c-5 38 -10 76 -14 101c-1 3 -2 5 -4 9c-3 -12 -5 -22 -7 -33l-6 -32
c-5 -39 -16 -71 -22 -106c-2 -19 -6 -37 -7 -55c-1 -15 -3 -30 -5 -45l-3 -52c-2 -20 -4 -40 -6 -59c-1 -5 -3 -10 1 -16z" />
    <glyph glyph-name="E.ss01" horiz-adv-x="214" 
d="M320 -139c-18 0 -37 1 -54 10c-14 6 -29 12 -43 19c-23 14 -42 32 -58 52c-9 11 -18 23 -26 36c-5 9 -12 18 -19 27c-11 14 -34 16 -49 6c-4 -3 -8 -7 -12 -9c-13 -4 -24 0 -35 6c-3 2 -5 7 -7 10v1c-2 2 -3 5 -3 7c-3 7 -4 15 -2 22c1 93 4 122 4 122
c1 168 -11 291 -4 526c0 3 2 7 4 9c8 8 18 13 29 11c12 -3 25 -1 38 -3c10 -2 21 -4 32 -1c17 -5 35 -6 32 -36c-5 -39 -53 -17 -79 -17c-1 -11 -1 -21 -1 -32c2 -38 -7 -77 2 -114c1 -4 7 -3 14 -3c17 0 48 -1 60 -11c20 -12 9 -42 -11 -44c-4 -1 -7 -2 -10 -2
c-8 -1 -36 -1 -44 1c-6 -12 -3 -317 3 -382h-1c6 -2 12 -3 18 -4c22 -3 40 -12 56 -27c15 -14 25 -30 36 -47c11 -15 22 -30 36 -42c21 -18 45 -31 73 -35c17 -2 34 2 50 8c21 9 42 19 62 30l6 3c25 17 49 -2 54 -26c0 -5 -1 -11 -4 -14c-5 -6 -11 -12 -19 -15
c-8 -2 -15 -5 -22 -9c-14 -8 -28 -13 -43 -20c-20 -8 -41 -12 -63 -13z" />
    <glyph glyph-name="F.ss01" horiz-adv-x="167" 
d="M550 820c2 -6 2 -13 1 -19c-3 -7 -6 -14 -13 -17c-9 -5 -17 -10 -25 -14c-3 -1 -6 -3 -8 -4c-20 -7 -41 -10 -62 -10c-3 -1 -7 -1 -10 -1c-36 -2 -79 6 -116 12c-34 6 -66 28 -101 29c-3 1 -5 1 -7 2c-2 0 -4 0 -6 1l-19 3h-1c-1 0 -2 0 -3 1c-3 0 -7 1 -11 1
c-17 2 -35 3 -52 3l-10 -1c-7 0 -13 -1 -19 -1c-9 0 -18 -2 -27 -4c1 -61 4 -184 4 -249c0 -37 6 -30 7 -36c4 -4 9 -4 13 -4c22 2 64 -2 72 -30c-1 -2 -1 -6 -2 -9c-5 -13 -13 -22 -27 -23c-17 -3 -54 3 -55 3c0 -4 -2 -353 -1 -357c3 -52 12 -92 -36 -96
c-12 -1 -21 7 -23 20c-12 95 2 72 -2 132c-1 15 -3 364 -5 386c0 0 1 136 0 231c-3 -3 -6 -6 -8 -9c-1 -1 -2 -2 -2 -3l-6 -8c-1 -4 -4 -7 -6 -11c0 -1 -1 -1 -2 -2v-1c-6 -10 -8 -22 -9 -33c1 -15 -9 -28 -24 -29c-5 0 -10 0 -14 2c-7 3 -13 8 -15 15c-11 32 5 63 23 89
l5 8c1 2 3 4 4 5c1 2 3 4 4 5c22 26 69 56 102 63c34 7 74 4 109 2c35 -1 70 -6 104 -16c35 -10 67 -27 104 -32c2 -1 5 -1 7 -1l14 -2c9 0 18 -1 27 0h9c4 -1 8 0 12 1l-1 -1c2 1 4 1 6 1c4 1 8 2 12 2c3 1 6 1 9 2c7 1 14 4 20 8l1 1v-1c0 1 1 1 1 1h-1c18 13 48 22 59 -5
z" />
    <glyph glyph-name="G.ss01" horiz-adv-x="225" 
d="M80 -235l-10 1c-3 1 -6 2 -9 2c-9 3 -17 7 -25 11l-7 6c-27 18 -35 50 -35 80v11c0 4 1 8 2 11c3 6 8 12 15 14c24 5 43 -19 39 -42c1 -2 1 -5 1 -7c2 -9 7 -18 14 -24c1 -1 3 -2 5 -3c9 -5 25 -8 34 -3c2 1 4 2 6 4c2 1 4 3 5 5c3 4 6 8 8 13c3 9 6 20 7 30c1 2 1 4 1 7
c4 33 2 65 1 98v11v17c-10 -4 -22 -7 -37 -7c-32 -2 -60 17 -64 22c-15 23 -40 48 -27 170l2 162c1 48 -8 89 -5 175c2 32 3 64 5 95c4 49 15 69 29 84c1 1 2 1 2 2c13 15 30 20 48 22c32 4 82 -45 54 -80c-11 -15 -31 -6 -40 -3c-3 2 -6 4 -7 8c-3 5 -4 11 -10 15
c-6 -7 -11 -15 -13 -24c-4 -18 -7 -119 -8 -137c-2 -70 8 -96 6 -193l-1 -152c0 -11 0 -22 -1 -33c0 -8 0 -49 7 -60c3 -3 3 -7 5 -11c4 -5 8 -9 15 -6c34 0 32 91 -8 88c-1 1 -2 3 -2 4v7c0 18 20 42 79 38c11 0 36 -46 27 -91v-2c-3 -37 -3 -73 0 -109v-10v-18v-9
c-3 -32 0 -64 -4 -96c0 -4 -1 -7 -2 -10c-1 -7 -3 -13 -5 -20c-4 -7 -7 -15 -11 -22c-2 -3 -3 -5 -5 -7c-18 -24 -51 -34 -81 -34z" />
    <glyph glyph-name="H.ss01" horiz-adv-x="234" 
d="M312 -201c-20 2 -38 6 -55 15c-2 1 -4 2 -5 3c-15 5 -28 14 -41 23c-11 7 -19 16 -27 26c-14 19 -24 40 -33 62c-22 45 -22 103 -21 152c1 3 0 366 0 370c-8 4 -16 7 -26 7c-7 -1 -14 1 -21 2c-5 1 -10 1 -16 -2c-1 -3 -1 -6 -1 -9c0 -13 -1 -386 2 -400
c2 -8 2 -16 -1 -24c-3 -5 -6 -8 -11 -10c-12 -4 -25 -8 -38 -4c-5 1 -10 3 -13 9c-2 6 -6 12 -4 20c1 5 -1 10 -1 15c0 6 1 12 2 18c2 6 3 12 3 19c0 28 3 56 5 84c1 12 0 24 0 36v37c1 19 1 38 1 57v133c0 8 -2 16 -3 24c-3 14 -3 29 -3 43c0 24 0 48 -1 71
c0 32 -1 64 0 95c0 10 0 19 -1 29c-1 6 1 11 7 13c3 1 6 2 8 4c8 5 15 5 23 1c9 -4 15 -11 18 -19c1 -2 1 -4 1 -6l9 -167v-6c1 -3 3 -6 7 -7c6 -1 12 -2 19 -2c7 1 15 -1 23 -1c4 0 8 1 13 2c0 11 1 19 0 28l-1 70l-3 62c0 9 1 18 3 27c1 3 2 7 2 10c0 8 4 13 10 16
c15 10 38 0 42 -17c1 -3 1 -6 0 -9v-2c-3 -24 -1 -48 -1 -72c0 -45 1 -89 1 -134l3 -151c0 -41 1 -81 2 -122c1 -59 1 -119 5 -178c0 -10 -1 -18 1 -28l6 -30c0 -2 7 -48 33 -78c11 -16 28 -27 45 -37c11 -6 23 -10 35 -14c8 -2 17 -3 25 -3c9 0 18 1 27 3c21 2 37 13 48 32
c4 5 6 11 6 18l3 26c0 4 0 8 1 12c2 10 5 16 15 19c13 3 22 0 29 -11l9 -12c4 -7 6 -15 4 -23c-5 -26 -14 -51 -32 -71c-7 -7 -15 -13 -23 -19c-23 -15 -48 -22 -75 -24c-13 -1 -26 -3 -39 -1z" />
    <glyph glyph-name="J.ss01" horiz-adv-x="174" 
d="M131 183c4 -33 4 -59 1 -87c-3 -36 -9 -73 -23 -106c-1 -3 -2 -7 -4 -10c-1 -3 -3 -6 -4 -9s-3 -6 -5 -9c-23 -40 -68 -68 -114 -74c-29 -4 -59 6 -87 14c-28 7 -55 15 -83 20c-26 0 -49 9 -75 3c-21 -5 -44 -24 -60 -38c-15 -13 -34 -32 -52 -13c-2 2 -4 4 -4 7
c-4 11 0 24 8 33c1 3 3 6 6 9c19 23 46 36 72 49c19 9 39 8 60 11c15 2 28 0 43 -2c25 -2 51 -5 75 -13c25 -7 48 -20 74 -25c26 -4 46 5 64 24c2 1 4 3 6 5c2 3 5 6 8 8c6 7 13 15 18 24c0 1 1 3 2 4v2c2 4 3 8 5 12c25 76 15 159 12 238c-1 43 0 86 0 129l-3 73
c-1 26 -3 51 -4 76c-2 20 -4 41 -2 61c1 19 0 38 -1 56c0 5 -1 9 -2 13c-12 4 -21 6 -31 10c-13 4 -20 21 -12 32c2 3 5 6 8 7c7 3 15 4 23 2c11 -2 22 -5 33 -3c8 2 16 -3 22 -7c5 -2 8 -9 8 -15c1 -23 3 -45 4 -68c0 -3 0 -6 -1 -9c-4 -23 1 -46 2 -69c1 -24 5 -48 4 -73
c0 -18 2 -37 3 -55v-55c0 -20 1 -41 1 -62c0 -39 1 -78 4 -116c1 -2 1 -3 1 -4z" />
    <glyph glyph-name="K.ss01" horiz-adv-x="212" 
d="M534 -145c3 -8 -1 -18 -9 -23c-2 -2 -4 -3 -7 -3c-32 -13 -63 -30 -98 -33c-3 -1 -7 -1 -11 -2c-44 -5 -75 -1 -118 11c-3 1 -6 2 -9 4c-108 47 -161 174 -180 283l-6 36c-4 23 -7 47 -11 70c-2 14 -7 37 -12 52c-6 -15 -2 -40 -4 -53c-1 -14 -2 -28 -2 -43
c0 -13 0 -27 1 -40c0 -14 1 -28 1 -42c1 -14 3 -28 4 -43c-2 -4 -5 -9 -9 -13c-2 -3 -5 -6 -9 -8c-16 -10 -25 -10 -42 1c-2 8 -2 17 -1 26c2 18 3 35 2 52c0 2 -1 4 -1 6c1 33 1 66 2 99c1 42 3 85 3 128c1 32 0 65 -1 98c-1 22 -5 45 -7 67c-1 5 -1 10 -1 15
c0 7 0 13 -1 20l-3 39c-1 28 -3 56 -4 84c-1 20 -1 40 -1 59c0 16 18 29 37 21c8 -3 13 -10 19 -19c-5 -37 0 -75 2 -113c0 -10 0 -20 1 -30c4 -35 3 -61 9 -97c2 -6 1 -14 2 -20c3 -1 4 0 4 2c7 28 12 47 17 76c4 28 8 57 11 85c3 22 5 45 10 67c2 8 3 17 5 25
c3 14 12 22 25 22c12 0 24 -10 27 -22c1 -6 1 -12 -1 -17c-6 -19 -7 -38 -10 -58c-4 -29 -7 -58 -10 -87c-3 -18 -5 -37 -9 -55c-5 -23 -10 -36 -16 -59c-4 -15 -8 -30 -10 -45c-1 -11 -1 -23 -7 -32c-3 -5 -1 -11 0 -17c6 -16 11 -32 16 -48c11 -31 19 -73 25 -105
c3 -18 5 -37 8 -55l6 -41c11 -64 40 -131 83 -180c34 -39 76 -47 126 -56c4 0 7 1 11 1c31 2 63 12 93 20c1 1 3 2 4 2h1c1 0 1 1 2 1l12 6c14 6 30 4 38 -10c2 -3 3 -6 3 -9z" />
    <glyph glyph-name="L.ss01" horiz-adv-x="175" 
d="M294 -137c-21 3 -43 5 -63 13c-8 2 -16 3 -24 6c-18 5 -33 16 -47 28c-17 13 -35 23 -54 31c-11 5 -23 3 -34 0c-7 -3 -14 -4 -22 -4c-10 1 -20 4 -28 11s-13 16 -12 27c1 4 1 8 2 12c3 12 5 23 4 35c-1 24 1 49 2 74c1 19 1 98 2 117c1 33 3 65 4 98c1 8 1 16 1 24
c2 29 3 58 4 88c1 11 1 22 1 33c2 28 3 57 5 86c0 10 2 21 3 31c4 28 1 56 -3 84c0 6 -1 12 -1 18c-1 6 -2 12 -2 18s0 12 1 18c0 8 5 11 12 12c8 1 16 1 23 -4c2 -1 5 -3 8 -4c10 -7 15 -16 15 -28c0 -17 3 -34 4 -51c2 -23 4 -45 3 -68c-3 -37 -6 -74 -7 -111
c0 -14 1 -28 0 -41c-1 -27 -3 -55 -4 -82c-1 -30 -1 -61 -2 -92c-1 -24 -2 -108 -3 -132l-3 -60v-41c1 -7 3 -9 10 -9h1c29 -1 30 0 54 -13c19 -10 39 -21 55 -36c13 -10 28 -19 44 -22c19 -5 38 -11 58 -12c11 -1 22 1 33 2l10 3c10 1 20 4 28 12l9 6c8 3 15 4 22 -1
c3 -3 7 -5 11 -8c6 -17 -3 -29 -12 -42l-2 -2c-14 -8 -28 -16 -43 -20c-8 -1 -15 -3 -23 -4c-13 -3 -27 -2 -40 0z" />
    <glyph glyph-name="M.ss01" horiz-adv-x="268" 
d="M421 -139c2 -3 2 -7 1 -12c-6 -24 -32 -33 -53 -25c-3 0 -6 1 -9 2c-12 2 -24 6 -36 10l-10 4c-12 6 -25 12 -36 20c-3 2 -5 3 -7 5c-8 6 -15 13 -22 20c-2 2 -76 52 -73 216c-3 68 -10 135 -10 203c0 11 1 21 2 32c1 24 0 49 0 74l3 59c-7 -5 -22 -83 -51 -83
s-50 76 -53 79c0 -6 -1 -10 -1 -15v-22c0 -7 1 -13 1 -20c1 -33 2 -66 4 -99c0 -19 2 -37 2 -56c1 -26 1 -51 -2 -77c-1 -15 0 -30 -1 -45c-1 -16 -1 -32 1 -48c2 -11 0 -22 0 -33c0 -7 -1 -14 -1 -20c0 -16 -21 -32 -39 -28c-8 2 -13 7 -14 15v6c1 16 1 31 2 47
c0 5 0 10 -1 15c0 6 -2 12 -1 18c1 11 0 22 0 33c0 19 2 38 2 57c1 16 3 32 1 48c-1 9 0 17 0 26c-1 25 -3 50 -4 75s-1 51 -3 76c-2 35 -1 70 -2 105c-1 24 1 49 2 74c1 30 3 60 4 90c0 8 2 16 6 23c6 10 18 16 30 13c11 -3 20 -8 24 -20c1 -4 2 -7 2 -10
c-1 -13 3 -25 6 -38c6 -23 11 -45 18 -68c4 -16 9 -32 10 -49c1 -5 3 -10 7 -17c3 11 6 19 7 28c5 34 13 67 19 101c3 18 8 36 8 55c0 8 12 19 22 20c7 1 15 0 22 -3c4 -2 24 -14 24 -34c1 -5 3 -11 2 -16c-2 -20 1 -40 1 -60l-3 -67v-97c0 -9 1 -18 2 -27c0 -5 1 -11 0 -16
c-1 -11 0 -22 0 -33s-1 -21 -1 -32c0 -4 -1 -9 -1 -13c0 -35 -1 -70 -1 -105c0 -77 3 -163 26 -236c3 -9 6 -18 11 -27c8 -14 21 -26 32 -38c7 -8 14 -17 23 -24c6 -4 17 -6 23 -9c1 0 2 -1 2 -1c11 -2 21 -2 31 -5c2 0 5 -1 7 -2c12 -2 38 -6 45 -19z" />
    <glyph glyph-name="N.ss01" horiz-adv-x="248" 
d="M300 -166c-3 1 -6 3 -8 4c-19 11 -36 24 -56 35c-7 3 -14 8 -20 13c-2 2 -5 5 -8 7c-9 9 -17 18 -24 29c-2 3 -3 6 -5 8c-22 57 -28 110 -28 170c0 32 -3 63 -6 94v1c-1 23 0 46 0 69c0 21 0 43 -2 64c-2 14 -1 28 0 42c1 10 -11 38 -15 41c-7 5 -32 68 -43 91
c-5 8 -9 17 -13 25c-1 2 -3 3 -5 6c-1 -8 -1 -14 -2 -20c-1 -7 -2 -13 -2 -20c1 -25 1 -51 2 -77c1 -33 3 -67 3 -101c-1 -28 2 -57 4 -86c1 -22 1 -44 2 -66c1 -15 3 -30 4 -45c0 -4 1 -7 0 -11c-1 -15 1 -31 2 -46c1 -7 0 -13 0 -20v-15c1 -7 -1 -13 -5 -18
c-1 -2 -3 -3 -5 -4c-6 -1 -12 -2 -18 -4c-5 -1 -11 1 -15 3c-5 2 -8 6 -9 11c-2 7 -2 14 -1 21c1 8 2 17 0 25v6c3 31 -2 62 -2 94c0 9 -2 19 -3 28v3c1 23 -4 46 -4 69c-1 19 -4 37 -2 56c-2 41 -2 82 -6 123c-2 20 -3 40 0 61c1 5 1 10 1 15c0 36 1 72 1 108
c0 19 -1 38 -1 56c0 2 0 3 -1 5c-3 6 0 11 3 17c3 5 8 9 14 10c9 2 18 -1 25 -6c6 -5 12 -11 17 -18c3 -3 4 -7 4 -11c1 -16 7 -30 13 -45c7 -15 15 -29 22 -44c1 -2 3 -5 3 -7c6 -21 18 -40 26 -61c0 -1 2 -2 4 -3v20l-3 83c-1 25 0 50 2 74c2 16 13 26 29 23
c19 -4 29 -17 26 -36c-1 -5 -2 -9 -2 -14c-2 -14 -3 -29 -1 -43c1 -16 0 -32 1 -47c0 -19 2 -38 3 -57c0 -14 1 -28 2 -42c0 -12 -1 -23 -1 -35c0 -21 0 -43 -1 -65v-27c1 -17 2 -35 2 -53c0 -15 0 -30 -1 -45c-1 -19 -1 -40 0 -60c1 -3 2 -6 2 -10c0 -42 2 -85 7 -128
c4 -35 10 -72 30 -102c2 -5 6 -8 9 -12l-2 2c10 -11 23 -19 34 -29l-4 4c12 -9 23 -20 36 -26l5 -2h-2c2 -1 4 -1 6 -2c16 -6 33 -10 49 -12c1 0 3 0 4 -1c6 -1 11 -2 16 -7c5 -6 8 -13 8 -20c0 -4 -1 -7 -2 -11c-24 -23 -64 -4 -93 -2z" />
    <glyph glyph-name="Q.ss01" horiz-adv-x="297" 
d="M476 -123c-36 0 -71 8 -105 19c-35 11 -69 26 -103 40c-1 0 -1 1 -1 1h-2l-6 3c-4 1 -8 3 -12 5l-23 9c-15 6 -30 12 -46 16c-13 4 -26 8 -40 10h-4l-4 1h-24l-1 -1c-6 -1 -12 -2 -17 -4c-1 0 -2 -1 -4 -1l-1 -1c-2 -1 -5 -2 -8 -4l-6 -4l-2 -2c-1 -1 -2 -2 -4 -3
c-2 -2 -5 -5 -7 -8l-4 -4c-7 -9 -18 -14 -29 -8c-9 6 -14 20 -7 29c6 9 13 18 22 25c12 9 24 16 38 21c-5 5 -10 11 -14 18c-1 1 -1 3 -2 3c-10 8 -11 19 -13 31l-22 103l-3 27c-1 11 -2 22 -5 33c-3 12 -3 24 -3 37v12h1c-2 15 -4 31 -4 46c0 19 -3 38 1 58c1 9 0 19 1 28
c2 40 6 79 12 119c6 31 13 61 27 90c5 10 8 21 12 31s8 20 13 29c7 12 18 21 31 28c28 15 74 6 93 -23c3 -5 7 -9 11 -14c6 -7 10 -15 12 -24c3 -12 6 -25 8 -38c4 -17 7 -35 9 -53c2 -16 2 -32 3 -48l1 -7c1 -7 2 -14 2 -21c-1 -9 -1 -18 1 -27c1 -4 1 -7 1 -11l-3 -31
c-1 -9 -1 -18 -2 -27c-1 -17 -1 -34 -2 -51c-1 -23 -2 -45 -4 -68c-1 -26 -4 -53 -9 -79v-5c-1 -27 -9 -53 -16 -79c-4 -15 -7 -30 -13 -44c-6 -17 -15 -32 -29 -43c14 -3 27 -8 40 -12l47 -18l28 -12l3 -2c2 0 4 -1 5 -2c4 -2 8 -3 12 -5c33 -13 66 -27 100 -36l25 -6
c5 0 9 -1 14 -2h3c2 -1 3 -1 4 -1c16 -2 33 -2 49 0h2c2 0 4 1 6 1l12 3l21 6c1 1 4 2 5 3s3 1 5 2c4 2 8 4 11 7l12 7l3 3c1 0 3 2 4 3c9 7 21 9 30 0c7 -8 9 -23 0 -30c-10 -8 -21 -16 -32 -22c-32 -18 -68 -27 -104 -26zM130 49c2 -1 5 0 7 0c8 9 12 20 15 31
c5 16 8 32 12 47c2 9 5 18 6 27l9 70c4 30 4 60 5 90c2 31 2 62 4 92c2 25 1 50 0 75c-1 22 -3 43 -6 65c-2 16 -1 33 -6 49c-2 6 -2 13 -4 19c-2 10 -4 19 -10 27l-7 9c-4 6 -12 9 -18 7c-4 -1 -7 -3 -11 -5c-10 -26 -20 -50 -30 -75l-6 -19c-5 -14 -4 -30 -7 -44
c-2 -6 -3 -12 -4 -18c-2 -18 -3 -36 -5 -54c-5 -43 -7 -86 -3 -129l3 -54l3 -29c1 -9 1 -18 2 -27c2 -15 6 -29 8 -44l9 -45c2 -12 5 -25 8 -38c3 -14 15 -20 26 -27z" />
    <glyph glyph-name="R.ss01" horiz-adv-x="231" 
d="M368 -186c-21 -3 -41 -3 -62 2c-17 4 -33 11 -48 21c-30 20 -54 48 -73 79c-10 14 -18 29 -25 45c-6 12 -8 27 -17 39c-4 6 -11 11 -15 18c-15 28 -22 65 -33 95c-6 16 -12 33 -17 50c-1 2 -3 3 -5 6c-4 -20 -6 -38 -7 -56c-1 -15 2 -28 4 -42c0 -12 1 -23 1 -35
c1 -4 -1 -9 -2 -13c0 -6 -4 -9 -8 -12c-5 -3 -9 -7 -14 -8c-7 -1 -15 -1 -21 0c-4 1 -8 4 -12 7c-1 11 -2 21 -2 32c0 6 0 13 -1 19c-2 26 -1 51 1 77c1 10 2 20 4 30c2 8 2 16 3 24c1 9 2 18 2 27c1 11 1 22 1 33c0 10 -1 19 -2 29l-3 33c0 11 -1 23 -1 34c0 14 -1 28 0 43
c0 28 1 57 1 85c0 10 0 19 1 28c0 37 1 74 2 111c0 8 -1 16 0 25c0 8 1 16 2 24c0 11 1 22 1 33c0 8 3 14 9 19c12 10 25 14 41 10c10 -3 17 -8 25 -16c14 -15 26 -32 33 -51c11 -33 26 -66 31 -101c2 -9 2 -18 2 -27c0 -16 0 -33 -2 -49c-1 -18 -4 -36 -6 -54
s-9 -35 -15 -52c-7 -18 -17 -35 -29 -51c-4 -5 -9 -9 -14 -13c-3 -3 -6 -5 -9 -7c-1 -6 1 -10 3 -14c7 -15 14 -30 20 -45c7 -18 13 -37 19 -55c8 -23 15 -46 23 -70l6 -13c21 -41 32 -87 52 -127c7 -14 15 -29 24 -42l8 -11l3 -4c5 -6 10 -13 16 -18c5 -6 11 -11 17 -16h1
c1 -2 3 -3 4 -4c3 -2 6 -4 10 -5l10 -6c2 0 3 -1 5 -2c6 -2 12 -3 19 -4c8 -1 17 -1 26 0c10 1 19 4 29 8c14 5 31 -6 34 -20c5 -16 -5 -29 -19 -34c-10 -4 -20 -7 -31 -9zM74 372c10 12 14 23 18 36c4 15 4 30 7 46c1 5 1 10 1 15c1 26 2 52 2 78c0 9 -1 18 -4 27
c-4 14 -8 27 -13 41c-1 4 -2 9 -8 12v-10c0 -17 0 -34 -1 -51c0 -15 -1 -30 -1 -45c-1 -40 0 -81 -3 -121c0 -8 -1 -17 2 -28z" />
    <glyph glyph-name="S.ss01" horiz-adv-x="227" 
d="M185 257c3 -10 2 -21 1 -31c-2 -18 -5 -37 -12 -54c0 -4 -2 -8 -2 -8v-1c-1 -15 -8 -28 -11 -42c-4 -14 -7 -27 -13 -40c-7 -18 -16 -35 -29 -49c-8 -11 -16 -21 -24 -31c-37 -40 -84 -72 -137 -86c-14 -4 -30 -6 -45 -7c-7 0 -15 -1 -22 0c-8 0 -15 1 -23 2
c-7 1 -15 2 -22 4l-22 6c-19 8 -37 17 -54 28l-9 6c-32 17 -56 43 -68 78c-2 2 -3 5 -4 7l-5 9l-12 28l-3 10c-6 20 -10 40 -11 61c-1 3 -1 6 -1 9c-2 19 -1 39 3 59c1 3 1 6 2 9c6 36 20 69 44 96c2 2 4 5 6 8l20 24l8 6c5 4 10 8 16 11c20 13 42 21 65 26c3 1 7 1 10 2h10
h10c24 0 47 -6 70 -10c3 -1 6 -1 9 -2c29 -8 52 -29 67 -54c1 -3 3 -6 5 -9c1 -2 3 -5 4 -8c2 -3 3 -7 5 -10c0 -2 1 -4 2 -6s2 -4 2 -7c1 -13 1 -26 4 -39l3 -20c1 -9 0 -17 -2 -25l-3 -6c-7 -11 -19 -17 -32 -13c-12 3 -20 15 -20 27c0 2 0 5 1 7c1 5 2 10 2 15v-7
c0 7 1 14 -1 20c-3 8 -4 16 -6 24l-3 7l-3 7l-8 15c-5 8 -11 16 -19 20h1l-5 3c-7 3 -13 5 -20 7h1c-10 2 -21 3 -31 5l8 -2c-12 3 -24 5 -36 6c-4 -1 -8 -2 -11 -1c-3 -1 -5 -1 -7 -2c-2 0 -4 -1 -6 -1c-4 -2 -8 -3 -11 -4c-2 -1 -4 -1 -5 -2h-1c-7 -3 -13 -6 -19 -10
c-3 -2 -7 -4 -10 -7c-1 0 -1 -1 -2 -1v-1l-2 -1l-9 -8l-9 -9c-1 -1 -2 -2 -2 -3l-1 -1l-6 -9c-2 -3 -4 -6 -6 -10c-4 -5 -13 -33 -15 -36c-1 -2 -2 -5 -2 -7c-4 -11 -6 -23 -9 -34v1c-1 -4 -1 -9 -1 -14v-10c0 -14 6 -27 8 -40l-2 8c5 -20 6 -40 12 -60v1c0 -2 1 -3 1 -4
l3 -7c1 -4 3 -9 5 -13c1 -3 3 -6 5 -9c9 -20 25 -27 34 -35c2 -1 4 -3 5 -5l7 -6s1 -1 2 -1c3 -3 7 -5 11 -8c8 -5 17 -10 26 -14c1 -1 2 -2 4 -2c1 -1 3 -1 5 -2c13 -5 27 -6 41 -8c-1 0 -1 1 -2 1c16 -2 32 -4 48 -3h-7c5 0 9 1 14 2c4 0 9 1 13 3c5 1 9 2 13 4l9 3l2 1
c6 2 12 5 15 7c9 5 17 10 25 15l8 6c1 0 3 2 3 3h1c4 4 7 6 9 7l15 14c5 5 10 10 14 16c3 2 5 5 7 7v1l2 2v1c8 11 15 23 21 35c2 5 4 10 7 15c0 2 2 6 2 7c2 3 3 6 4 9c0 1 1 2 1 2v3c5 18 10 37 14 55c3 8 4 15 6 23c2 16 2 32 0 48c0 2 -1 4 -1 7c-1 2 -1 5 -1 8
c-2 19 -4 37 -9 56c-5 21 -9 44 -21 64c-4 8 -6 17 -10 25c-24 48 -38 99 -39 153c0 42 2 100 34 132c13 12 41 28 59 28c7 0 14 -1 21 -2c10 -1 18 -8 23 -16c4 -6 5 -13 3 -18c-3 -9 -8 -19 -18 -22c-16 -5 -36 -4 -46 -20c-36 -56 -17 -147 15 -200c6 -10 9 -22 14 -32
c6 -10 9 -21 13 -32c5 -17 11 -34 15 -52c3 -13 5 -27 7 -41c1 -12 1 -23 3 -35zM-73 324h-1h1zM-72 323c-1 0 -1 0 -1 1zM-52 301l1 -1z" />
    <glyph glyph-name="T.ss01" horiz-adv-x="139" 
d="M48 1c-10 2 -19 10 -18 22c0 24 -4 48 -6 72c-1 12 0 25 -1 37c-3 39 -4 79 -2 119c1 32 3 63 5 95v26c1 23 1 46 2 69v26v66c0 15 1 30 1 45c0 30 0 70 1 100c0 17 2 29 3 46v14c5 13 3 27 1 40c-1 6 -4 10 -10 13l-19 9c-8 4 -17 8 -25 12c-6 3 -11 5 -17 7
c-34 9 -68 15 -103 14h-10c-21 0 -40 -5 -59 -13c-23 -9 -43 -22 -59 -40c-4 -4 -9 -6 -13 -6c-16 -1 -30 3 -40 16c-5 6 -6 12 -6 19c0 4 2 9 6 11c3 3 6 5 10 7c19 10 38 21 55 33c8 6 18 9 27 12c17 5 36 9 54 13c3 1 6 1 9 1c28 2 56 -1 84 -4c31 -3 60 -14 88 -26
c20 -8 40 -17 59 -25c5 -2 9 -4 12 -6c16 -10 33 -16 51 -19c9 -2 6 -2 15 -2l18 2c13 2 24 -3 34 -11c7 -6 13 -14 13 -26c-1 -8 -4 -15 -11 -19c-9 -5 -18 -8 -29 -7h-15c-18 2 -18 4 -36 6c-2 0 -4 1 -6 1c-6 1 -11 -2 -10 -8c0 -3 -9 -157 -9 -174c0 -25 -1 -49 -1 -73
c0 -15 1 -29 1 -44c0 -14 -1 -28 -2 -42c0 -11 -1 -21 0 -32c1 -25 -2 -50 -3 -75c0 -7 -1 -14 -1 -21c-1 -30 -2 -60 -2 -89c0 -15 0 -30 2 -44c4 -33 3 -66 6 -99c1 -9 1 -18 2 -28c0 -6 -2 -11 -7 -14c-4 -2 -9 -5 -13 -6c-9 -1 -17 -1 -26 0z" />
    <glyph glyph-name="U.ss01" horiz-adv-x="298" 
d="M118 -5c-12 0 -24 1 -36 6s-22 13 -27 26c-7 13 -15 26 -20 41c0 2 -3 5 -4 7c-8 12 -12 25 -14 38c-4 16 -5 32 -5 48c-1 12 -1 25 -1 37c-1 13 -1 26 -1 38c0 15 1 29 2 44c0 13 1 26 1 39c1 20 0 40 1 60c1 11 1 22 0 33c-1 12 -1 24 -1 35v101c0 14 0 28 1 43
c0 17 1 35 1 52v52c0 6 0 12 1 18c0 21 19 31 38 22c2 -2 5 -3 8 -5c9 -5 13 -12 13 -23c-1 -28 0 -56 -1 -84v-55h-1v-24c0 -36 0 -72 1 -109v-15c0 -8 1 -16 1 -24c-1 -16 -1 -32 -1 -48v-6l-3 -81v-64c-1 -18 4 -64 9 -80c0 -3 1 -6 3 -9c7 -16 15 -32 23 -49
c5 -13 18 -18 32 -9c7 3 12 9 16 14c12 14 13 31 16 47c4 19 6 40 7 60c1 30 3 60 4 90c0 12 -1 24 -1 36v67c-1 27 0 54 2 81c3 33 4 66 7 100c6 59 7 119 12 178c3 40 8 81 18 100c8 22 19 43 33 63c7 10 16 19 27 26c13 9 25 18 40 23l6 3c17 9 35 13 54 15
c13 2 26 -1 39 -2c27 -1 53 -8 75 -23c8 -6 16 -12 23 -20c19 -19 27 -44 33 -70c2 -9 0 -16 -4 -23c-3 -4 -6 -8 -9 -13c-8 -10 -17 -13 -29 -10c-10 3 -13 9 -15 19c-1 4 -1 8 -2 12c0 9 -2 17 -2 26c0 6 -2 12 -6 18c-11 18 -27 29 -48 32l-27 3c-9 0 -17 -1 -25 -4
c-12 -4 -24 -8 -35 -14c-18 -9 -34 -20 -46 -36c-25 -30 -32 -76 -33 -79c-2 -12 -13 -129 -14 -142c0 -6 -1 -11 -2 -17l-6 -57c-1 -5 0 -11 -1 -16l-3 -30c0 -2 -1 -4 -1 -6c0 -27 -4 -54 -3 -81c0 -15 0 -30 -1 -44v-78c1 -41 -2 -82 -4 -123c0 -19 -2 -38 -5 -57
c-2 -15 -6 -31 -10 -47l-1 -4c-8 -13 -16 -26 -26 -37c-2 -3 -6 -5 -9 -8c-5 -3 -10 -7 -14 -11c-16 -13 -30 -17 -50 -16z" />
    <glyph glyph-name="V.ss01" horiz-adv-x="256" 
d="M109 0c-12 5 -21 14 -27 27c-3 8 -6 16 -4 25c2 16 -2 31 -3 47c-1 13 -1 26 -2 39l-3 39c-1 23 -3 46 -5 69c-7 63 -19 123 -32 185c-2 6 -3 11 -4 17c-2 21 -6 42 -10 64c-1 7 -4 14 -5 21c-4 18 -6 35 -9 53c-4 25 -4 50 -4 75c-1 13 0 27 -1 40c-1 9 3 16 9 22
c6 5 13 6 21 6c3 0 5 -1 8 -1c7 -1 15 -3 18 -11c3 -6 6 -12 4 -20c-1 -8 -1 -17 -1 -26c1 -78 19 -153 32 -229c1 -7 2 -14 4 -21c2 -12 4 -23 7 -35l9 -48c3 -14 6 -29 7 -44c1 -2 1 -4 2 -6c4 1 3 4 3 6l3 42c1 22 3 43 5 65c2 20 3 41 5 61c1 12 1 25 1 37
c1 37 4 74 9 111c6 35 8 70 11 105c3 27 7 55 13 81c24 103 100 168 209 160c27 -1 52 -8 75 -23c8 -6 16 -12 23 -20c18 -19 27 -44 32 -70c2 -9 0 -16 -4 -23c-3 -4 -6 -8 -9 -13c-7 -10 -16 -13 -29 -10c-10 3 -13 9 -15 19c-1 4 -1 8 -1 12l-3 26c0 6 -2 12 -6 18
c-11 18 -27 29 -48 32l-27 3c-8 0 -17 -1 -25 -4c-12 -4 -24 -8 -35 -14c-17 -9 -33 -20 -45 -36c-26 -30 -33 -76 -33 -79c-13 -67 -21 -133 -28 -201c-2 -12 -2 -25 -3 -37c-2 -25 -3 -51 -3 -76c0 -6 -1 -13 -2 -19c-1 -10 -3 -19 -3 -29c1 -6 0 -13 -1 -19l-3 -39
c-1 -15 -3 -29 -4 -44c-1 -27 -8 -53 -12 -80c-4 -20 -6 -41 -10 -61c0 -3 -1 -5 -2 -7c-6 -16 -7 -33 -8 -50c0 -8 0 -15 -1 -23l-3 -49c0 -5 -1 -10 -2 -15c-2 -9 -7 -14 -15 -17c-7 -2 -13 -5 -20 -8z" />
    <glyph glyph-name="W.ss01" horiz-adv-x="437" 
d="M134 1c-13 -4 -29 7 -32 20c0 5 -1 9 -1 14c-1 20 -1 41 -2 61c-2 23 -3 46 -9 67c-3 10 -4 19 -4 29c1 25 -1 50 -4 75c-2 17 -6 33 -10 49c-5 20 -11 40 -14 60c-3 14 -7 29 -9 43c-3 19 -5 38 -8 57c-2 10 -4 20 -7 31c-5 21 -9 43 -15 64c-9 32 -11 65 -16 97
c-2 8 -2 17 -3 25c-2 17 11 28 24 27c6 -1 11 0 17 -1c13 -2 19 -9 19 -21c-1 -16 3 -31 5 -47c7 -49 6 -43 25 -122c5 -21 10 -41 11 -62c0 -7 2 -14 3 -21c5 -24 9 -48 14 -71l6 -24c9 -28 15 -57 16 -87c1 -14 3 -28 3 -42c1 -4 1 -9 1 -13c6 14 6 29 8 43
c1 14 2 28 5 42c3 11 3 23 5 34c1 9 3 19 5 28c3 14 6 29 7 43c1 20 3 40 10 60c1 2 1 5 1 8c2 14 9 22 22 26c10 4 20 3 30 1c11 -2 15 -12 18 -22c2 -6 1 -12 2 -18c0 -15 5 -30 8 -44c4 -19 8 -38 13 -56c0 -1 6 -127 8 -129c3 14 3 30 4 45c3 49 5 98 9 147
c5 58 18 115 24 173c4 44 8 87 13 130c3 19 4 38 8 57c3 18 9 34 16 51c8 22 19 43 33 63c7 10 16 19 26 26c13 9 26 18 41 23c2 1 4 2 5 3c17 9 36 13 55 15c13 2 26 -1 39 -2c27 -1 53 -8 75 -23c8 -6 16 -12 23 -20c18 -19 27 -44 33 -70c2 -9 -1 -16 -5 -23
c-2 -4 -6 -8 -9 -13c-7 -10 -16 -13 -28 -10c-10 3 -14 9 -16 19c-1 4 -1 8 -1 12c-1 9 -2 17 -2 26c-1 6 -3 12 -6 18c-11 18 -27 29 -49 32l-27 3c-8 0 -17 -1 -25 -4c-12 -4 -24 -8 -35 -14c-17 -9 -33 -20 -45 -36c-26 -30 -33 -76 -33 -79c-4 -19 -7 -39 -10 -58
c-4 -25 -8 -50 -11 -76c-6 -43 -10 -87 -17 -130c-4 -22 -8 -43 -13 -65c-14 -74 -33 -382 -32 -403c0 -17 -9 -28 -23 -35c-6 -3 -14 -2 -22 -2c-3 0 -7 1 -10 3c-9 3 -13 11 -14 20s-1 19 -2 28c0 6 1 12 -2 18v3c2 12 -3 24 -4 36c0 11 -3 22 -3 34c1 13 -1 26 -3 39
c-1 8 -4 16 -5 25c-3 19 -5 38 -7 57c-2 14 -5 28 -8 43c0 2 -1 3 -3 6c-5 -16 -5 -32 -7 -47l-3 -31c-3 -26 -6 -52 -10 -78c-1 -11 -3 -21 -6 -31c-6 -16 -7 -33 -6 -49c1 -13 -2 -23 -10 -32c-4 -4 -6 -8 -6 -13c0 -7 -4 -12 -8 -16c-8 -10 -17 -16 -30 -19z" />
    <glyph glyph-name="Y.ss01" horiz-adv-x="247" 
d="M96 1c-6 -3 -11 0 -16 2c-4 1 -7 5 -8 9c-1 5 -1 11 -1 16c0 6 2 12 2 18c2 16 3 32 4 48c0 2 1 4 0 6c-1 12 1 24 2 36c4 26 3 52 3 79l3 81v9c0 23 -1 45 -1 68c-1 16 -1 32 -1 48c0 8 -1 16 -1 24c-1 4 -1 9 -3 12c-4 7 -6 15 -8 23c-4 12 -9 24 -14 36
c-4 9 -5 18 -7 28c-7 32 -14 64 -26 96c-5 16 -11 32 -17 48c-1 5 -1 10 1 15c3 10 12 14 21 18c1 1 3 0 4 0c5 0 10 0 15 -1c8 -2 17 -6 19 -17c2 -14 8 -27 12 -40c6 -17 12 -34 16 -52c4 -15 9 -57 13 -72c0 -1 1 -1 3 -3c2 13 4 51 6 63c3 28 26 194 44 229
c8 22 19 43 33 63c7 10 16 19 26 26c13 9 26 18 41 23c2 1 4 2 5 3c17 9 36 13 55 15c13 2 26 -1 39 -2c27 -1 53 -8 75 -23c8 -6 16 -12 23 -20c18 -19 27 -44 33 -70c2 -9 -1 -16 -5 -23c-2 -4 -5 -8 -9 -13c-7 -10 -16 -13 -28 -10c-10 3 -14 9 -16 19c-1 4 -1 8 -1 12
c-1 8 -2 17 -2 26c-1 6 -3 12 -6 18c-11 18 -27 29 -49 32l-27 3c-8 0 -17 -1 -25 -4c-12 -4 -23 -8 -35 -14c-17 -9 -33 -20 -45 -36c-26 -30 -33 -76 -33 -79c-2 -8 -27 -128 -30 -153l-9 -55l-28 -134v-119c1 -19 -1 -39 -3 -58c-2 -24 -1 -48 -2 -71c0 -4 1 -7 1 -11
c-4 -23 -4 -46 -6 -69c-3 -23 -3 -46 -1 -68c2 -14 -8 -28 -22 -32c-5 -1 -10 -1 -14 -3z" />
    <glyph glyph-name="Z.ss01" horiz-adv-x="231" 
d="M306 -150c-18 -1 -37 1 -54 9c-14 7 -29 12 -43 20c-23 13 -42 31 -58 52c-10 11 -19 22 -26 35c-5 10 -12 19 -19 27c-3 3 -6 6 -10 8c-11 7 -26 7 -37 0l-2 -2c-4 -3 -8 -7 -12 -8c-13 -4 -24 0 -35 6c-3 2 -5 6 -7 10c-5 11 -8 22 -3 34c2 6 5 14 7 21c2 13 3 26 6 38
c1 4 17 80 25 115c0 1 1 2 1 3c4 30 16 59 20 90c2 15 7 30 11 45c3 17 5 34 8 51c4 20 10 39 14 59l9 42l15 76v3c7 11 8 25 11 37c4 15 8 30 14 43c1 2 1 4 2 7c-2 1 -4 3 -7 3c-11 2 -86 4 -98 5c-4 0 -9 3 -12 7c-6 6 -11 11 -13 20c1 3 3 5 4 8c7 13 19 17 33 16
c9 -1 81 2 90 2h9c13 -2 26 -4 39 -4c9 -1 17 -4 25 -9c4 -2 5 -4 6 -8c4 -10 2 -21 -4 -29c-11 -17 -19 -35 -25 -54c-6 -21 -12 -41 -17 -61c-2 -7 -4 -14 -5 -21c-5 -25 -9 -50 -14 -75c-3 -17 -8 -33 -12 -49c-9 -31 -16 -62 -22 -94c-5 -25 -12 -49 -18 -74l-2 -8
c-4 -25 -11 -50 -18 -74c-4 -17 -7 -34 -11 -52c-3 -11 -5 -23 -6 -35v-2c0 -2 0 -5 1 -7c0 -1 -1 -2 -1 -4v-11c6 -2 13 -3 19 -4c7 -1 13 -3 19 -5c14 -5 26 -12 37 -23c10 -8 17 -18 25 -29c4 -5 7 -11 11 -17c10 -16 22 -30 36 -42c21 -18 45 -32 73 -35
c17 -2 34 2 50 8c21 8 42 18 62 30c2 1 4 1 6 3c25 16 49 -2 54 -27c0 -4 -1 -10 -4 -14c-5 -6 -11 -11 -19 -14c-8 -2 -15 -6 -22 -10c-14 -7 -29 -13 -43 -19c-20 -9 -41 -13 -63 -13z" />
    <glyph glyph-name="a" unicode="a" horiz-adv-x="272" 
d="M5 1c-6 0 -10 3 -14 6c-2 3 -3 6 -2 10c5 23 7 46 15 69c3 9 6 18 8 27c17 94 12 101 15 128c4 28 7 57 9 87c1 15 4 29 6 44c4 29 11 58 18 86c0 3 20 108 22 123c3 20 4 39 7 59c2 11 2 15 14 81c6 7 13 17 31 13c4 -1 8 -3 10 -7c22 -30 35 -135 44 -203
c18 -135 6 -1 28 -283c1 -17 3 -34 4 -51c1 -12 2 -35 2 -35c3 -16 2 -32 3 -48c1 -22 3 -31 7 -70c1 -14 -7 -24 -19 -29c-11 -4 -23 -3 -34 5c-2 1 -4 4 -4 7c-3 12 -1 57 -3 72c-5 1 -8 2 -11 2c-53 -3 -56 0 -89 3h-11c-2 -6 -14 -45 -15 -62c-1 -8 -5 -16 -10 -23
c-9 -10 -19 -12 -31 -11zM72 145c58 -4 54 -4 98 2c-10 42 -4 29 -9 92c-2 25 -1 21 -16 186v7c-5 39 -10 77 -14 102l-4 9c-3 -12 -5 -23 -7 -33l-6 -33c-5 -39 -16 -71 -22 -106c-2 -18 -6 -36 -7 -55c-1 -15 -3 -30 -5 -45l-3 -51l-6 -60c-1 -5 -3 -10 1 -15z" />
    <glyph glyph-name="aacute" unicode="&#xe1;" horiz-adv-x="272" 
d="M126 769c-9 2 -16 7 -19 15c-2 5 -7 8 -6 13l2 8c10 24 22 48 38 69l3 3c2 0 4 0 5 1c14 2 24 -5 32 -14c6 -5 6 -15 2 -21c-1 -2 -4 -5 -5 -7c-6 -9 -11 -18 -14 -28s-8 -20 -13 -30c-4 -8 -16 -12 -25 -9zM5 1c-6 0 -10 3 -14 6c-2 3 -3 6 -2 10c5 23 7 46 15 69
c3 9 6 18 8 27c17 94 12 101 15 128c4 28 7 57 9 87c1 15 4 29 6 44c4 29 11 58 18 86c0 3 20 108 22 123c3 20 4 39 7 59c2 11 2 15 14 81c6 7 13 17 31 13c4 -1 8 -3 10 -7c22 -30 35 -135 44 -203c18 -135 6 -1 28 -283c1 -17 3 -34 4 -51c1 -12 2 -35 2 -35
c3 -16 2 -32 3 -48c1 -22 3 -31 7 -70c1 -14 -7 -24 -19 -29c-11 -4 -23 -3 -34 5c-2 1 -4 4 -4 7c-3 12 -1 57 -3 72c-5 1 -8 2 -11 2c-53 -3 -56 0 -89 3h-11c-2 -6 -14 -45 -15 -62c-1 -8 -5 -16 -10 -23c-9 -10 -19 -12 -31 -11zM72 145c58 -4 54 -4 98 2
c-10 42 -4 29 -9 92c-2 25 -1 21 -16 186v7c-5 39 -10 77 -14 102l-4 9c-3 -12 -5 -23 -7 -33l-6 -33c-5 -39 -16 -71 -22 -106c-2 -18 -6 -36 -7 -55c-1 -15 -3 -30 -5 -45l-3 -51l-6 -60c-1 -5 -3 -10 1 -15z" />
    <glyph glyph-name="acircumflex" unicode="&#xe2;" horiz-adv-x="272" 
d="M170 772c-9 -1 -18 2 -24 10c-8 8 -7 11 -11 15s-8 4 -12 0c-5 -4 -9 -9 -13 -15c-11 -15 -29 -17 -42 -3c-3 3 -5 7 -7 11c-3 8 -1 16 5 21c12 12 26 22 37 35c7 9 22 11 33 6c4 -2 9 -5 12 -9c12 -11 5 -5 12 -12l16 -16c5 -6 9 -12 11 -19c1 -2 1 -5 2 -7
c0 -11 -7 -16 -19 -17zM5 1c-6 0 -10 3 -14 6c-2 3 -3 6 -2 10c5 23 7 46 15 69c3 9 6 18 8 27c17 94 12 101 15 128c4 28 7 57 9 87c1 15 4 29 6 44c4 29 11 58 18 86c0 3 20 108 22 123c3 20 4 39 7 59c2 11 2 15 14 81c6 7 13 17 31 13c4 -1 8 -3 10 -7
c22 -30 35 -135 44 -203c18 -135 6 -1 28 -283c1 -17 3 -34 4 -51c1 -12 2 -35 2 -35c3 -16 2 -32 3 -48c1 -22 3 -31 7 -70c1 -14 -7 -24 -19 -29c-11 -4 -23 -3 -34 5c-2 1 -4 4 -4 7c-3 12 -1 57 -3 72c-5 1 -8 2 -11 2c-53 -3 -56 0 -89 3h-11c-2 -6 -14 -45 -15 -62
c-1 -8 -5 -16 -10 -23c-9 -10 -19 -12 -31 -11zM72 145c58 -4 54 -4 98 2c-10 42 -4 29 -9 92c-2 25 -1 21 -16 186v7c-5 39 -10 77 -14 102l-4 9c-3 -12 -5 -23 -7 -33l-6 -33c-5 -39 -16 -71 -22 -106c-2 -18 -6 -36 -7 -55c-1 -15 -3 -30 -5 -45l-3 -51l-6 -60
c-1 -5 -3 -10 1 -15z" />
    <glyph glyph-name="adieresis" unicode="&#xe4;" horiz-adv-x="276" 
d="M80 787c-13 6 -19 17 -24 30c-1 3 0 6 0 9c2 8 3 16 5 24c7 4 14 6 21 6c9 1 17 -2 24 -7s12 -11 16 -18c1 -1 1 -1 1 -2c5 -13 -3 -35 -15 -42c-10 -5 -19 -4 -28 0zM200 782c-11 -2 -19 2 -26 9c-9 8 -14 19 -15 31c0 7 3 14 6 20c6 11 15 15 27 14
c18 -2 32 -12 41 -28c2 -4 2 -10 3 -16c1 -9 -2 -16 -9 -22l-6 -4c-7 -1 -14 -3 -21 -4zM5 1c-6 0 -10 3 -14 6c-2 3 -3 6 -2 10c5 23 7 46 15 69c3 9 6 18 8 27c17 94 12 101 15 128c4 28 7 57 9 87c1 15 4 29 6 44c4 29 11 58 18 86c0 3 20 108 22 123c3 20 4 39 7 59
c2 11 2 15 14 81c6 7 13 17 31 13c4 -1 8 -3 10 -7c22 -30 35 -135 44 -203c18 -135 6 -1 28 -283c1 -17 3 -34 4 -51c1 -12 2 -35 2 -35c3 -16 2 -32 3 -48c1 -22 3 -31 7 -70c1 -14 -7 -24 -19 -29c-11 -4 -23 -3 -34 5c-2 1 -4 4 -4 7c-3 12 -1 57 -3 72c-5 1 -8 2 -11 2
c-53 -3 -56 0 -89 3h-11c-2 -6 -14 -45 -15 -62c-1 -8 -5 -16 -10 -23c-9 -10 -19 -12 -31 -11zM72 145c58 -4 54 -4 98 2c-10 42 -4 29 -9 92c-2 25 -1 21 -16 186v7c-5 39 -10 77 -14 102l-4 9c-3 -12 -5 -23 -7 -33l-6 -33c-5 -39 -16 -71 -22 -106c-2 -18 -6 -36 -7 -55
c-1 -15 -3 -30 -5 -45l-3 -51l-6 -60c-1 -5 -3 -10 1 -15z" />
    <glyph glyph-name="agrave" unicode="&#xe0;" horiz-adv-x="272" 
d="M146 763c-14 1 -24 6 -30 16s-13 21 -18 32c-5 13 -3 6 -11 17c-4 5 -8 10 -11 16c-6 10 0 21 11 24c13 3 25 -1 34 -10c4 -3 7 -7 10 -11c7 -10 3 -3 9 -13c8 -12 15 -24 22 -36c6 -11 3 -26 -8 -32zM5 1c-6 0 -10 3 -14 6c-2 3 -3 6 -2 10c5 23 7 46 15 69
c3 9 6 18 8 27c17 94 12 101 15 128c4 28 7 57 9 87c1 15 4 29 6 44c4 29 11 58 18 86c0 3 20 108 22 123c3 20 4 39 7 59c2 11 2 15 14 81c6 7 13 17 31 13c4 -1 8 -3 10 -7c22 -30 35 -135 44 -203c18 -135 6 -1 28 -283c1 -17 3 -34 4 -51c1 -12 2 -35 2 -35
c3 -16 2 -32 3 -48c1 -22 3 -31 7 -70c1 -14 -7 -24 -19 -29c-11 -4 -23 -3 -34 5c-2 1 -4 4 -4 7c-3 12 -1 57 -3 72c-5 1 -8 2 -11 2c-53 -3 -56 0 -89 3h-11c-2 -6 -14 -45 -15 -62c-1 -8 -5 -16 -10 -23c-9 -10 -19 -12 -31 -11zM72 145c58 -4 54 -4 98 2
c-10 42 -4 29 -9 92c-2 25 -1 21 -16 186v7c-5 39 -10 77 -14 102l-4 9c-3 -12 -5 -23 -7 -33l-6 -33c-5 -39 -16 -71 -22 -106c-2 -18 -6 -36 -7 -55c-1 -15 -3 -30 -5 -45l-3 -51l-6 -60c-1 -5 -3 -10 1 -15z" />
    <glyph glyph-name="aring" unicode="&#xe5;" horiz-adv-x="272" 
d="M137 772c-19 -2 -32 8 -45 20c-8 8 -11 19 -12 30c0 2 0 4 1 5c5 15 11 29 23 40c2 1 4 2 6 2c7 1 14 1 20 0c4 -1 8 -2 10 -5c4 -4 8 -7 13 -9c9 -4 15 -11 22 -18s10 -15 10 -25c0 -7 2 -13 -4 -18c-1 -2 -3 -4 -5 -6c-1 -1 -3 -2 -5 -4c-9 -11 -21 -13 -34 -12z
M135 798c6 -1 12 0 16 6c0 0 1 1 2 1c1 1 2 2 2 3c3 2 2 5 2 8c0 5 -1 9 -5 12c-3 3 -6 7 -10 9c-2 1 -4 2 -6 4c-1 1 -3 2 -4 2c-3 1 -7 0 -10 0c-1 0 -2 0 -3 -1c-5 -5 -8 -11 -11 -18v-3c1 -5 2 -10 6 -14c6 -5 12 -10 21 -9zM5 1c-6 0 -10 3 -14 6c-2 3 -3 6 -2 10
c5 23 7 46 15 69c3 9 6 18 8 27c17 94 12 101 15 128c4 28 7 57 9 87c1 15 4 29 6 44c4 29 11 58 18 86c0 3 20 108 22 123c3 20 4 39 7 59c2 11 2 15 14 81c6 7 13 17 31 13c4 -1 8 -3 10 -7c22 -30 35 -135 44 -203c18 -135 6 -1 28 -283c1 -17 3 -34 4 -51
c1 -12 2 -35 2 -35c3 -16 2 -32 3 -48c1 -22 3 -31 7 -70c1 -14 -7 -24 -19 -29c-11 -4 -23 -3 -34 5c-2 1 -4 4 -4 7c-3 12 -1 57 -3 72c-5 1 -8 2 -11 2c-53 -3 -56 0 -89 3h-11c-2 -6 -14 -45 -15 -62c-1 -8 -5 -16 -10 -23c-9 -10 -19 -12 -31 -11zM72 145
c58 -4 54 -4 98 2c-10 42 -4 29 -9 92c-2 25 -1 21 -16 186v7c-5 39 -10 77 -14 102l-4 9c-3 -12 -5 -23 -7 -33l-6 -33c-5 -39 -16 -71 -22 -106c-2 -18 -6 -36 -7 -55c-1 -15 -3 -30 -5 -45l-3 -51l-6 -60c-1 -5 -3 -10 1 -15z" />
    <glyph glyph-name="atilde" unicode="&#xe3;" horiz-adv-x="272" 
d="M93 789c-18 -9 -32 11 -36 27c-4 10 -4 18 1 23c2 2 5 3 10 2c2 -1 5 -1 7 -2c7 -2 13 -1 20 1c9 2 17 5 26 7c7 2 15 5 22 8c6 3 12 4 17 4l14 -2c15 -3 21 -16 28 -28c5 -11 4 -27 -12 -23c-4 0 -7 1 -8 1c-10 3 -17 2 -24 3c-8 1 -15 -1 -23 -4
c-14 -5 -28 -11 -42 -17zM5 1c-6 0 -10 3 -14 6c-2 3 -3 6 -2 10c5 23 7 46 15 69c3 9 6 18 8 27c17 94 12 101 15 128c4 28 7 57 9 87c1 15 4 29 6 44c4 29 11 58 18 86c0 3 20 108 22 123c3 20 4 39 7 59c2 11 2 15 14 81c6 7 13 17 31 13c4 -1 8 -3 10 -7
c22 -30 35 -135 44 -203c18 -135 6 -1 28 -283c1 -17 3 -34 4 -51c1 -12 2 -35 2 -35c3 -16 2 -32 3 -48c1 -22 3 -31 7 -70c1 -14 -7 -24 -19 -29c-11 -4 -23 -3 -34 5c-2 1 -4 4 -4 7c-3 12 -1 57 -3 72c-5 1 -8 2 -11 2c-53 -3 -56 0 -89 3h-11c-2 -6 -14 -45 -15 -62
c-1 -8 -5 -16 -10 -23c-9 -10 -19 -12 -31 -11zM72 145c58 -4 54 -4 98 2c-10 42 -4 29 -9 92c-2 25 -1 21 -16 186v7c-5 39 -10 77 -14 102l-4 9c-3 -12 -5 -23 -7 -33l-6 -33c-5 -39 -16 -71 -22 -106c-2 -18 -6 -36 -7 -55c-1 -15 -3 -30 -5 -45l-3 -51l-6 -60
c-1 -5 -3 -10 1 -15z" />
    <glyph glyph-name="ae" unicode="&#xe6;" horiz-adv-x="391" 
d="M16 0c-5 1 -9 3 -13 7c-3 3 -4 6 -3 9c6 23 8 47 15 69c3 9 7 18 8 28c17 93 12 100 16 127c4 29 7 58 9 87c1 15 4 30 6 45c4 29 11 57 18 85c0 3 19 109 22 124c3 19 4 39 7 58c1 12 2 15 14 81c6 7 13 17 31 14c4 -1 8 -3 9 -7c14 -19 24 -65 32 -113c0 26 1 53 2 82
c0 3 2 7 4 9c8 8 18 13 29 11c12 -3 25 -1 38 -3c10 -2 21 -4 32 -1c17 -5 35 -6 32 -36c-5 -39 -53 -17 -79 -17c-1 -11 -1 -21 -1 -32c2 -38 -7 -77 2 -114c1 -4 7 -3 14 -3c17 0 48 -1 60 -11c20 -12 9 -42 -11 -44c-4 -1 -7 -2 -10 -2c-8 -1 -36 -1 -44 1
c-7 -13 -3 -374 4 -394c4 -1 10 -3 15 -2c17 3 33 -1 49 -3c5 0 10 -3 15 -6c19 -11 14 -29 5 -39c-14 -16 -37 -9 -69 -8c-14 1 -28 3 -43 -1c-9 -2 -17 0 -25 4c-5 1 -10 3 -15 7c-2 2 -4 5 -4 7c-3 12 -1 58 -4 73c-4 0 -7 1 -11 1c-52 -3 -55 1 -88 3c-4 1 -7 0 -11 0
c-2 -6 -14 -45 -15 -61c-1 -9 -5 -16 -10 -23c-9 -10 -20 -13 -32 -12zM83 144c58 -4 55 -3 99 2c-10 42 -5 29 -9 92l-16 186c0 3 0 5 -1 8c-5 38 -9 76 -13 101c-1 3 -3 5 -5 9l-6 -33c-2 -11 -5 -21 -6 -32c-5 -39 -17 -71 -22 -106c-2 -19 -6 -37 -7 -55
c-1 -15 -4 -30 -5 -45l-3 -52c-2 -20 -5 -40 -6 -59c-1 -5 -3 -10 0 -16z" />
    <glyph glyph-name="b" unicode="b" horiz-adv-x="231" 
d="M57 3c-2 0 -4 1 -6 2c-5 5 -12 6 -19 6c-9 1 -12 9 -14 16c-3 10 -4 89 -4 95s6 254 2 300c-7 81 -1 146 -3 212c-1 41 -2 61 -4 72c-1 10 7 23 17 23c31 2 59 -7 81 -33c20 -23 30 -50 35 -78c4 -22 3 -63 -3 -88c-1 -5 -3 -9 -29 -68c18 -22 21 -28 29 -38
c11 -12 17 -26 26 -40c7 -11 10 -25 15 -38c6 -14 7 -30 9 -46c4 -40 1 -68 0 -78c-7 -75 -11 -103 -31 -130c-25 -34 -44 -96 -101 -89zM67 515c4 -1 5 2 6 3c8 18 13 38 14 58c0 8 1 16 1 24c-2 15 -5 30 -11 44c-3 6 -5 12 -10 19c0 -26 0 -51 1 -75s-3 -49 -1 -73z
M66 55c4 -2 7 0 9 3c11 11 18 25 27 37c31 43 25 85 30 137c4 39 -1 77 -13 115c-7 18 -15 35 -42 72c-1 2 -3 4 -6 2c0 -19 1 -38 0 -57c-3 -25 -1 -50 -3 -75c0 -17 2 -34 0 -51c-4 -33 -4 -109 -5 -149c-1 -11 1 -23 3 -34z" />
    <glyph glyph-name="c" unicode="c" horiz-adv-x="180" 
d="M84 3c-8 1 -30 -5 -46 10c-1 1 -3 2 -5 3c-12 5 -18 15 -22 28c0 3 -2 6 -2 9c-3 32 -10 64 -8 97c1 29 -4 61 2 109c3 23 8 47 7 71c-1 3 0 6 1 9c9 57 -5 93 2 165c3 32 5 63 3 95c-1 10 -1 19 2 29c4 14 -3 8 13 47c12 27 9 23 14 26c8 6 15 12 24 16
c17 8 43 3 54 -11c5 -6 10 -14 14 -21c8 -16 -2 -31 -19 -31c-28 0 -31 12 -36 1c-7 -14 -10 -43 -9 -58c2 -122 -10 -96 -3 -169c1 -9 2 -19 2 -29c-1 -27 -1 -54 -3 -81c-2 -20 -5 -39 -8 -59c-2 -12 -4 -24 -4 -36c2 -167 1 -168 47 -155c9 2 16 -2 23 -5c1 -1 3 -2 3 -3
c8 -11 6 -25 -2 -37c-11 -15 -26 -22 -44 -20z" />
    <glyph glyph-name="ccedilla" unicode="&#xe7;" horiz-adv-x="191" 
d="M84 -116c-9 -3 -19 -1 -28 2c-7 3 -11 8 -14 14c-3 7 1 14 8 16c3 1 7 1 11 1c7 -2 12 3 15 9c3 4 3 10 0 15c-1 2 -3 3 -5 4c-5 3 -11 5 -14 9c-5 5 -9 11 -8 18l3 15c1 7 1 13 1 20c-1 1 -2 2 -4 3c-1 2 -3 3 -5 4c-12 5 -18 15 -22 27c-1 3 -2 6 -2 9
c-3 32 -10 65 -8 97c1 29 -4 61 2 109c3 24 7 48 7 72c-1 3 0 6 1 9c9 57 -5 92 2 165c3 31 5 63 2 95c0 9 0 19 3 28c4 14 -3 8 13 47c12 27 9 24 14 27c8 5 15 11 24 15c17 8 43 3 54 -10c5 -7 10 -14 14 -22c8 -15 -2 -31 -19 -30c-28 0 -31 11 -36 0
c-7 -13 -10 -42 -9 -58c2 -122 -10 -96 -3 -168c1 -10 2 -20 2 -29c-1 -27 -1 -54 -3 -81c-2 -20 -5 -40 -8 -59c-2 -13 -4 -25 -4 -37c2 -167 1 -167 47 -155c9 3 16 -2 23 -5c1 0 2 -1 3 -3c8 -11 6 -25 -2 -36c-11 -16 -26 -22 -44 -21c-1 1 -2 1 -3 1v-13
c-1 -3 0 -6 0 -10c7 -6 15 -11 20 -19c3 -4 6 -8 7 -13c2 -8 2 -16 1 -24c0 -16 -10 -27 -23 -34c-4 -2 -8 -3 -13 -4z" />
    <glyph glyph-name="d" unicode="d" horiz-adv-x="237" 
d="M44 -5c-2 0 -4 0 -5 1c-5 5 -12 4 -18 5c-3 0 -6 0 -9 2c-12 7 -14 11 -11 26c3 16 4 31 4 47c1 10 1 20 1 30c-2 19 -1 38 1 57c4 41 6 82 8 124v37c0 14 0 27 -1 41c0 14 0 29 -2 44c-3 31 -3 62 -1 93c2 27 5 54 7 81c0 10 0 20 1 30c0 24 -2 48 1 71c1 6 0 12 -1 18
c9 9 18 15 30 15c6 0 12 3 18 4c12 4 22 0 31 -7l18 -18c6 -7 12 -13 18 -20c2 -2 4 -4 6 -7l18 -33c13 -23 21 -48 24 -74c2 -19 3 -37 6 -56c5 -32 5 -64 7 -96c3 -45 3 -89 -4 -134v-9c-2 -14 -2 -28 -4 -42l-12 -64c-2 -6 -4 -12 -7 -18c-4 -12 -11 -23 -14 -36
c-1 -4 -3 -8 -5 -11c-3 -4 -4 -9 -4 -14c-2 -13 -7 -25 -12 -37c-4 -13 -14 -21 -24 -28c-8 -5 -17 -9 -25 -15c-12 -8 -26 -8 -40 -7zM74 74c2 18 10 33 21 46l4 6c7 15 12 30 16 46c4 20 7 40 10 61c2 10 2 21 3 31c2 25 5 50 7 75c1 6 1 12 0 18c-1 33 -3 65 -5 98
c-1 30 -2 59 -4 89c-2 23 -6 46 -16 67c-8 15 -19 27 -28 41c-1 1 -3 2 -5 4c-1 -4 -1 -7 -1 -9c1 -37 -1 -74 -4 -110c-3 -32 -4 -63 -2 -95c0 -13 2 -25 3 -38s0 -26 1 -39c0 -20 2 -40 1 -60c-1 -31 -4 -63 -6 -95c-1 -17 -3 -34 -4 -51c-1 -13 -1 -27 0 -40
c1 -8 2 -15 1 -23v-16c1 -3 2 -6 8 -6zM69 62c1 1 1 2 1 3c-1 0 -1 1 -2 1c0 -1 -1 -2 -1 -3c0 0 1 -1 2 -1z" />
    <glyph glyph-name="eth" unicode="&#xf0;" horiz-adv-x="239" 
d="M45 -10c-1 0 -3 0 -4 1c-6 5 -12 4 -19 4c-2 0 -6 1 -8 3c-12 7 -14 11 -11 26s3 31 4 46c0 10 1 21 0 31c-1 19 0 38 2 57c4 41 6 82 7 123c1 13 0 25 0 38v1h-3h-9c-23 0 -36 16 -41 37c0 3 0 8 2 14c1 4 5 7 8 10c3 4 7 3 11 3c10 -1 21 0 31 0c0 7 0 13 -1 19
c-3 31 -3 63 -1 94l6 81c1 10 1 20 1 30c0 24 -1 47 2 71c1 6 0 12 -1 18c8 9 17 15 30 15c6 0 12 3 17 4c12 3 22 -1 31 -8c7 -5 13 -11 18 -18c7 -6 13 -13 19 -19c2 -2 4 -5 5 -7c7 -11 13 -22 19 -33c12 -24 21 -48 24 -74c1 -19 3 -38 6 -56c4 -32 5 -64 7 -96
c3 -45 2 -90 -4 -134v-9c-2 -14 -3 -28 -5 -42c-3 -21 -7 -43 -12 -64c-1 -6 -4 -12 -6 -18c-5 -12 -11 -24 -15 -36c-1 -4 -2 -8 -4 -11c-3 -5 -4 -9 -5 -14c-1 -14 -6 -26 -11 -38c-4 -12 -14 -20 -25 -27l-24 -15c-13 -8 -27 -8 -41 -7zM75 69c3 18 10 32 21 46
c2 2 3 4 4 6c8 15 13 30 16 45c4 21 8 41 11 61c2 11 2 21 3 32c2 25 5 50 7 75v18c-2 32 -3 65 -5 98c-1 29 -2 59 -4 89c-2 23 -7 45 -17 67c-7 15 -18 27 -28 40c-1 2 -2 3 -5 4c0 -4 -1 -6 -1 -9c2 -36 -1 -73 -4 -110c-2 -31 -3 -63 -2 -94c1 -13 3 -25 4 -38v-12
c8 -1 15 -1 23 -2c7 0 14 0 21 1h4c3 -20 4 -40 3 -60v-2h-11h-38v-24l-6 -95c-2 -17 -3 -34 -4 -51c-1 -13 -1 -27 0 -40c0 -8 2 -15 1 -23v-16c0 -4 2 -6 7 -6z" />
    <glyph glyph-name="e" unicode="e" horiz-adv-x="214" 
d="M54 10c-21 -6 -42 13 -42 35c1 102 4 134 4 134c1 168 -11 291 -4 526c0 3 2 7 4 9c8 8 18 13 29 11c12 -3 25 -1 38 -3c10 -2 21 -4 32 -1c17 -5 35 -6 32 -36c-5 -39 -53 -17 -79 -17c-1 -11 -1 -21 -1 -32c2 -38 -7 -77 2 -114c1 -4 7 -3 14 -3c17 0 48 -1 60 -11
c20 -12 9 -42 -11 -44c-4 -1 -7 -2 -10 -2c-8 -1 -36 -1 -44 1c-7 -13 -3 -374 4 -394c4 -1 10 -3 15 -2c17 3 33 -1 49 -3c5 0 10 -3 15 -6c19 -11 14 -29 5 -39c-14 -16 -37 -9 -69 -8c-14 1 -28 3 -43 -1z" />
    <glyph glyph-name="eacute" unicode="&#xe9;" horiz-adv-x="214" 
d="M68 764c-9 3 -16 7 -19 16c-2 5 -7 8 -5 13c0 2 0 5 1 7c10 25 22 49 38 70c1 1 2 1 3 3h6c13 3 23 -4 31 -13c6 -5 7 -15 2 -21c-1 -3 -4 -5 -5 -7c-6 -9 -10 -18 -14 -28c-3 -11 -8 -20 -13 -30c-4 -8 -16 -12 -25 -10zM54 10c-21 -6 -42 13 -42 35c1 102 4 134 4 134
c1 168 -11 291 -4 526c0 3 2 7 4 9c8 8 18 13 29 11c12 -3 25 -1 38 -3c10 -2 21 -4 32 -1c17 -5 35 -6 32 -36c-5 -39 -53 -17 -79 -17c-1 -11 -1 -21 -1 -32c2 -38 -7 -77 2 -114c1 -4 7 -3 14 -3c17 0 48 -1 60 -11c20 -12 9 -42 -11 -44c-4 -1 -7 -2 -10 -2
c-8 -1 -36 -1 -44 1c-7 -13 -3 -374 4 -394c4 -1 10 -3 15 -2c17 3 33 -1 49 -3c5 0 10 -3 15 -6c19 -11 14 -29 5 -39c-14 -16 -37 -9 -69 -8c-14 1 -28 3 -43 -1z" />
    <glyph glyph-name="ecircumflex" unicode="&#xea;" horiz-adv-x="214" 
d="M115 785c-10 0 -19 2 -25 10c-8 8 -7 11 -11 15s-8 4 -12 0s-9 -9 -13 -15c-11 -15 -28 -17 -42 -3c-3 3 -5 7 -6 11c-4 8 -1 16 5 21c12 12 25 22 36 35c7 9 22 11 33 6c4 -2 9 -5 13 -9c11 -11 0 0 11 -12c6 -5 11 -11 16 -16c5 -6 9 -12 12 -19c0 -2 0 -5 1 -7
c0 -11 -6 -16 -18 -17zM54 10c-21 -6 -42 13 -42 35c1 102 4 134 4 134c1 168 -11 291 -4 526c0 3 2 7 4 9c8 8 18 13 29 11c12 -3 25 -1 38 -3c10 -2 21 -4 32 -1c17 -5 35 -6 32 -36c-5 -39 -53 -17 -79 -17c-1 -11 -1 -21 -1 -32c2 -38 -7 -77 2 -114c1 -4 7 -3 14 -3
c17 0 48 -1 60 -11c20 -12 9 -42 -11 -44c-4 -1 -7 -2 -10 -2c-8 -1 -36 -1 -44 1c-7 -13 -3 -374 4 -394c4 -1 10 -3 15 -2c17 3 33 -1 49 -3c5 0 10 -3 15 -6c19 -11 14 -29 5 -39c-14 -16 -37 -9 -69 -8c-14 1 -28 3 -43 -1z" />
    <glyph glyph-name="edieresis" unicode="&#xeb;" horiz-adv-x="214" 
d="M6 797c-13 6 -19 17 -24 30c-1 3 0 6 0 9c2 8 3 16 5 24c7 4 14 6 21 6c9 1 17 -2 24 -7s12 -11 16 -18c1 -1 1 -1 1 -2c5 -13 -3 -35 -15 -42c-10 -5 -19 -4 -28 0zM126 792c-11 -2 -19 2 -26 9c-9 8 -14 19 -15 31c0 7 3 14 6 20c6 11 15 15 27 14c18 -2 32 -12 41 -28
c2 -4 2 -10 3 -16c1 -9 -2 -16 -9 -22l-6 -4c-7 -1 -14 -3 -21 -4zM54 10c-21 -6 -42 13 -42 35c1 102 4 134 4 134c1 168 -11 291 -4 526c0 3 2 7 4 9c8 8 18 13 29 11c12 -3 25 -1 38 -3c10 -2 21 -4 32 -1c17 -5 35 -6 32 -36c-5 -39 -53 -17 -79 -17
c-1 -11 -1 -21 -1 -32c2 -38 -7 -77 2 -114c1 -4 7 -3 14 -3c17 0 48 -1 60 -11c20 -12 9 -42 -11 -44c-4 -1 -7 -2 -10 -2c-8 -1 -36 -1 -44 1c-7 -13 -3 -374 4 -394c4 -1 10 -3 15 -2c17 3 33 -1 49 -3c5 0 10 -3 15 -6c19 -11 14 -29 5 -39c-14 -16 -37 -9 -69 -8
c-14 1 -28 3 -43 -1z" />
    <glyph glyph-name="egrave" unicode="&#xe8;" horiz-adv-x="214" 
d="M90 753c-14 1 -24 6 -30 16s-13 21 -18 32c-5 13 -3 6 -11 17c-4 5 -8 10 -11 16c-6 10 0 21 11 24c13 3 25 -1 34 -10c4 -3 7 -7 10 -11c7 -10 3 -3 9 -13c8 -12 15 -24 22 -36c6 -11 3 -26 -8 -32zM54 10c-21 -6 -42 13 -42 35c1 102 4 134 4 134c1 168 -11 291 -4 526
c0 3 2 7 4 9c8 8 18 13 29 11c12 -3 25 -1 38 -3c10 -2 21 -4 32 -1c17 -5 35 -6 32 -36c-5 -39 -53 -17 -79 -17c-1 -11 -1 -21 -1 -32c2 -38 -7 -77 2 -114c1 -4 7 -3 14 -3c17 0 48 -1 60 -11c20 -12 9 -42 -11 -44c-4 -1 -7 -2 -10 -2c-8 -1 -36 -1 -44 1
c-7 -13 -3 -374 4 -394c4 -1 10 -3 15 -2c17 3 33 -1 49 -3c5 0 10 -3 15 -6c19 -11 14 -29 5 -39c-14 -16 -37 -9 -69 -8c-14 1 -28 3 -43 -1z" />
    <glyph glyph-name="f" unicode="f" horiz-adv-x="197" 
d="M36 7c-12 -1 -21 7 -23 20c-12 95 2 72 -2 132c-1 15 -3 364 -5 386c0 0 1 59 -5 153c-1 7 -7 26 29 30c20 2 41 3 61 0c32 -3 70 -11 61 -42c-7 -26 -23 -33 -48 -23c-21 8 -30 10 -43 9c-4 -29 3 -23 4 -113c0 -37 6 -30 7 -36c4 -4 9 -4 13 -4c22 2 64 -2 72 -30
c-1 -2 -1 -6 -2 -9c-5 -13 -13 -22 -27 -23c-17 -3 -54 3 -55 3c0 -4 -2 -353 -1 -357c3 -52 12 -92 -36 -96z" />
    <glyph glyph-name="g" unicode="g" horiz-adv-x="220" 
d="M123 6c-42 -22 -87 7 -92 13c-15 24 -40 49 -27 171l2 162c1 48 -8 89 -5 175c2 32 3 63 5 95c4 49 15 69 29 84c1 1 2 1 2 2c13 15 30 20 48 22c32 4 82 -45 54 -80c-11 -15 -31 -6 -40 -3c-3 2 -6 4 -7 8c-3 5 -4 11 -10 15c-6 -7 -11 -15 -13 -24
c-4 -18 -7 -119 -8 -137c-2 -71 8 -96 6 -193l-1 -152c0 -11 0 -22 -1 -33c0 -9 0 -49 7 -60c3 -3 3 -7 5 -11c4 -5 8 -9 15 -7c3 1 6 1 10 1c30 38 12 61 -28 58c-1 1 -2 2 -2 4v7c0 18 20 42 79 38c11 0 36 -46 27 -91c-8 -46 -35 -54 -55 -64z" />
    <glyph glyph-name="h" unicode="h" horiz-adv-x="234" 
d="M158 1c-7 -1 -14 2 -20 6c-5 3 -7 8 -8 15c-3 20 0 39 0 59c1 3 0 366 0 370c-8 4 -16 7 -26 7c-7 -1 -14 1 -21 2c-5 1 -10 1 -16 -2c-1 -3 -1 -6 -1 -9c0 -13 -1 -387 2 -400c2 -8 2 -16 -1 -24c-3 -5 -6 -8 -11 -10c-12 -4 -25 -8 -38 -5c-5 2 -10 4 -13 10
c-2 6 -6 12 -4 20c1 4 -1 10 -1 15c0 6 1 11 2 17c2 7 3 13 3 20c0 28 3 56 5 84c1 12 0 24 0 36v36c1 19 1 39 1 58v133c0 8 -2 16 -3 23c-3 15 -3 29 -3 44c0 24 0 47 -1 71c0 32 -1 63 0 95c0 9 0 19 -1 28c-1 6 1 11 7 14c3 1 6 2 8 4c8 4 15 4 23 1c9 -5 15 -11 18 -20
c1 -1 1 -3 1 -5l9 -167v-6c1 -3 3 -6 7 -7c6 -1 12 -2 19 -2c7 1 15 -1 23 -1c4 0 8 1 13 2c0 11 1 19 0 28l-1 70l-3 62c0 9 1 18 3 27c1 3 2 7 2 10c0 8 4 13 10 16c15 10 38 0 42 -17c1 -3 1 -6 0 -9c-5 -23 6 -528 6 -534c-1 -3 -1 -6 0 -9c2 -17 0 -33 0 -50
c0 -14 0 -28 2 -42c1 -9 1 -19 2 -28c1 -8 -3 -15 -5 -22c-1 -1 -1 -2 -2 -2c-8 -8 -19 -10 -29 -12z" />
    <glyph glyph-name="i" unicode="i" horiz-adv-x="129" 
d="M41 14c-11 2 -17 10 -16 22c1 19 3 37 4 56c2 20 3 40 2 60c0 11 1 22 2 32c0 14 1 28 1 42c2 26 1 53 -2 79c-1 2 -1 4 -1 6c-2 160 -18 206 -8 382c0 4 1 7 2 11c7 20 24 22 40 12l6 -4c3 -3 5 -7 5 -11c-1 -7 -1 -15 -1 -22s8 -269 8 -365v-7c6 -23 2 -47 5 -71
c2 -11 0 -22 -1 -33c-1 -12 -2 -24 -2 -36c-1 -18 0 -35 -1 -53c-2 -23 -1 -47 1 -70c0 -7 -1 -13 -7 -18c0 0 -1 0 -1 -1c-9 -14 -22 -14 -36 -11z" />
    <glyph glyph-name="iacute" unicode="&#xed;" horiz-adv-x="129" 
d="M36 748c-9 3 -16 7 -19 16c-2 5 -7 8 -5 13c0 2 0 5 1 7c10 25 22 49 38 70c1 1 2 1 3 3h6c13 3 23 -4 31 -13c6 -5 7 -15 2 -21c-1 -3 -4 -5 -5 -7c-6 -9 -10 -18 -14 -28c-3 -11 -8 -20 -13 -30c-4 -8 -16 -12 -25 -10zM41 14c-11 2 -17 10 -16 22c1 19 3 37 4 56
c2 20 3 40 2 60c0 11 1 22 2 32c0 14 1 28 1 42c2 26 1 53 -2 79c-1 2 -1 4 -1 6c-2 160 -18 206 -8 382c0 4 1 7 2 11c7 20 24 22 40 12l6 -4c3 -3 5 -7 5 -11c-1 -7 -1 -15 -1 -22s8 -269 8 -365v-7c6 -23 2 -47 5 -71c2 -11 0 -22 -1 -33c-1 -12 -2 -24 -2 -36
c-1 -18 0 -35 -1 -53c-2 -23 -1 -47 1 -70c0 -7 -1 -13 -7 -18c0 0 -1 0 -1 -1c-9 -14 -22 -14 -36 -11z" />
    <glyph glyph-name="icircumflex" unicode="&#xee;" horiz-adv-x="129" 
d="M99 765c-10 0 -19 2 -25 10c-8 8 -7 11 -11 15s-8 4 -12 0s-9 -9 -13 -15c-11 -15 -28 -17 -42 -3c-3 3 -5 7 -6 11c-4 8 -1 16 5 21c12 12 25 22 36 35c7 9 22 11 33 6c4 -2 9 -5 13 -9c11 -11 0 0 11 -12c6 -5 11 -11 16 -16c5 -6 9 -12 12 -19c0 -2 0 -5 1 -7
c0 -11 -6 -16 -18 -17zM41 14c-11 2 -17 10 -16 22c1 19 3 37 4 56c2 20 3 40 2 60c0 11 1 22 2 32c0 14 1 28 1 42c2 26 1 53 -2 79c-1 2 -1 4 -1 6c-2 160 -18 206 -8 382c0 4 1 7 2 11c7 20 24 22 40 12l6 -4c3 -3 5 -7 5 -11c-1 -7 -1 -15 -1 -22s8 -269 8 -365v-7
c6 -23 2 -47 5 -71c2 -11 0 -22 -1 -33c-1 -12 -2 -24 -2 -36c-1 -18 0 -35 -1 -53c-2 -23 -1 -47 1 -70c0 -7 -1 -13 -7 -18c0 0 -1 0 -1 -1c-9 -14 -22 -14 -36 -11z" />
    <glyph glyph-name="idieresis" unicode="&#xef;" horiz-adv-x="129" 
d="M11 767c-13 6 -19 17 -24 30c-1 3 0 6 0 9c2 8 3 16 5 24c7 4 14 6 21 6c9 1 17 -2 24 -7s12 -11 16 -18c1 -1 1 -1 1 -2c5 -13 -3 -35 -15 -42c-10 -5 -19 -4 -28 0zM101 762c-11 -2 -19 2 -26 9c-9 8 -14 19 -15 31c0 7 3 14 6 20c6 11 15 15 27 14
c18 -2 32 -12 41 -28c2 -4 2 -10 3 -16c1 -9 -2 -16 -9 -22l-6 -4c-7 -1 -14 -3 -21 -4zM41 14c-11 2 -17 10 -16 22c1 19 3 37 4 56c2 20 3 40 2 60c0 11 1 22 2 32c0 14 1 28 1 42c2 26 1 53 -2 79c-1 2 -1 4 -1 6c-2 160 -18 206 -8 382c0 4 1 7 2 11c7 20 24 22 40 12
l6 -4c3 -3 5 -7 5 -11c-1 -7 -1 -15 -1 -22s8 -269 8 -365v-7c6 -23 2 -47 5 -71c2 -11 0 -22 -1 -33c-1 -12 -2 -24 -2 -36c-1 -18 0 -35 -1 -53c-2 -23 -1 -47 1 -70c0 -7 -1 -13 -7 -18c0 0 -1 0 -1 -1c-9 -14 -22 -14 -36 -11z" />
    <glyph glyph-name="igrave" unicode="&#xec;" horiz-adv-x="142" 
d="M83 753c-14 1 -24 6 -30 16s-13 21 -18 32c-5 13 -3 6 -11 17c-4 5 -8 10 -11 16c-6 10 0 21 11 24c13 3 25 -1 34 -10c4 -3 7 -7 10 -11c7 -10 3 -3 9 -13c8 -12 15 -24 22 -36c6 -11 3 -26 -8 -32zM41 14c-11 2 -17 10 -16 22c1 19 3 37 4 56c2 20 3 40 2 60
c0 11 1 22 2 32c0 14 1 28 1 42c2 26 1 53 -2 79c-1 2 -1 4 -1 6c-2 160 -18 206 -8 382c0 4 1 7 2 11c7 20 24 22 40 12l6 -4c3 -3 5 -7 5 -11c-1 -7 -1 -15 -1 -22s8 -269 8 -365v-7c6 -23 2 -47 5 -71c2 -11 0 -22 -1 -33c-1 -12 -2 -24 -2 -36c-1 -18 0 -35 -1 -53
c-2 -23 -1 -47 1 -70c0 -7 -1 -13 -7 -18c0 0 -1 0 -1 -1c-9 -14 -22 -14 -36 -11z" />
    <glyph glyph-name="j" unicode="j" horiz-adv-x="176" 
d="M46 -14c-9 4 -18 7 -26 12c-10 6 -17 14 -20 25c-1 8 1 14 3 21c1 2 2 3 4 5c9 8 21 10 32 5c8 -4 15 -9 21 -16c5 -5 10 -4 13 3c5 12 9 25 10 39c2 26 -1 51 -4 76c0 7 -1 14 -1 22l-3 54c0 12 0 25 -1 37c-1 43 0 86 0 129l-3 73c-1 26 -3 51 -4 76c-2 20 -4 41 -2 61
c1 19 0 38 -1 56c0 5 -1 9 -2 13c-12 4 -21 6 -31 10c-13 4 -20 21 -12 32c2 3 5 6 8 7c7 3 15 4 23 2c11 -2 22 -5 33 -3c8 2 16 -3 22 -7c5 -2 8 -9 8 -15c1 -23 3 -45 4 -68c0 -3 0 -6 -1 -9c-4 -23 1 -46 2 -69c1 -24 5 -48 4 -73c0 -18 2 -37 3 -55v-55
c0 -20 1 -41 1 -62c0 -39 1 -79 5 -119c2 -25 4 -51 4 -76c1 -18 -1 -36 -2 -55c-2 -16 -8 -31 -17 -44c-10 -14 -23 -25 -40 -32c-10 -4 -20 -5 -30 0z" />
    <glyph glyph-name="k" unicode="k" horiz-adv-x="212" 
d="M144 -1c-7 -4 -14 -3 -20 2c-9 7 -16 16 -16 29c-2 31 -5 62 -10 93c-4 27 -9 54 -13 82c-2 14 -7 36 -12 52c-6 -16 -2 -40 -4 -54c-1 -14 -2 -28 -2 -42c0 -13 0 -27 1 -41c0 -14 1 -28 1 -42c1 -14 3 -28 4 -42c-2 -4 -5 -9 -9 -13c-2 -3 -5 -6 -9 -8
c-16 -11 -25 -10 -42 1c-2 8 -2 17 -1 26c2 17 3 35 2 52c0 2 -1 4 -1 6c1 33 1 66 2 98c1 43 3 86 3 128c1 33 0 66 -1 98c-1 23 -5 45 -7 68c-1 5 -1 10 -1 15c0 6 0 13 -1 19l-3 40c-1 28 -3 56 -4 84c-1 20 -1 39 -1 59c0 15 18 29 37 21c8 -4 13 -10 19 -19
c-5 -38 0 -75 2 -113c0 -10 0 -20 1 -30c4 -36 3 -62 9 -97c2 -7 1 -14 2 -21c3 -1 4 1 4 3c7 28 12 47 17 76c4 28 8 56 11 85c3 22 5 45 10 67c2 8 3 17 5 25c3 14 12 21 25 21c12 1 24 -9 27 -22c1 -5 1 -11 -1 -16c-6 -19 -7 -39 -10 -58c-4 -29 -7 -58 -10 -87
c-3 -18 -5 -37 -9 -55c-5 -23 -10 -36 -16 -59c-4 -15 -8 -30 -10 -46c-1 -11 -1 -22 -7 -32c-3 -5 -1 -11 0 -16c6 -16 11 -33 16 -49c11 -31 19 -72 25 -105c3 -18 5 -36 8 -55c3 -22 7 -44 11 -67c1 -6 3 -13 5 -20s1 -13 -3 -20c-5 -11 -14 -17 -24 -21z" />
    <glyph glyph-name="l" unicode="l" horiz-adv-x="175" 
d="M67 10c-15 -3 -35 1 -50 8c-4 10 -8 20 -7 31c1 8 3 15 5 22c2 9 3 18 3 27s1 19 2 28c1 5 2 10 2 15c-1 25 2 50 3 75c0 30 3 60 1 91c-1 26 0 52 -1 78c0 4 0 9 -1 13c-4 15 -3 29 -3 44v65c1 10 1 21 1 31c0 9 0 18 -2 27c-1 4 -1 8 -1 12c0 30 -1 61 -1 91
c0 13 0 26 1 39c0 9 3 18 9 25c5 4 9 6 15 6c9 1 17 -3 24 -8s10 -13 9 -22c-1 -12 -2 -23 -2 -35c-1 -23 0 -46 1 -69c0 -17 1 -33 2 -50v-21c0 -34 -1 -68 -1 -102c0 -3 0 -6 1 -9c3 -18 2 -37 2 -55c0 -11 2 -22 2 -33c1 -14 1 -28 1 -42c0 -19 0 -37 -2 -56
c-3 -32 -5 -64 -4 -96c0 -9 -1 -18 -2 -27c0 -5 -1 -9 -1 -14c0 -4 0 -8 -1 -12c-3 -6 -1 -12 -1 -19c5 -4 9 -6 15 -4c10 2 20 1 30 0c13 0 21 -12 19 -23c-2 -12 -5 -22 -19 -26c-7 -3 -14 -5 -22 -4c-9 2 -18 1 -27 -1z" />
    <glyph glyph-name="m" unicode="m" horiz-adv-x="268" 
d="M188 8c-6 2 -11 5 -12 12c-1 6 -3 12 -6 17c-3 4 -4 11 -3 16l4 40c1 6 2 12 2 18c1 7 2 14 2 21s0 14 -1 21l-6 57c0 5 -1 10 -1 15c0 29 -1 57 -1 86c0 11 1 21 2 32c1 24 0 49 0 74l3 59c-7 -5 -22 -83 -51 -83s-50 76 -53 79c0 -6 -1 -10 -1 -15v-22
c0 -7 1 -13 1 -20c1 -33 2 -66 4 -99c0 -19 2 -37 2 -56c1 -26 1 -51 -2 -77c-1 -15 0 -30 -1 -45c-1 -16 -1 -32 1 -48c2 -11 0 -22 0 -33c0 -7 -1 -14 -1 -20c0 -16 -21 -32 -39 -28c-8 2 -13 7 -14 15v6c1 16 1 31 2 47c0 5 0 10 -1 15c0 6 -2 12 -1 18c1 11 0 22 0 33
c0 19 2 38 2 57c1 16 3 32 1 48c-1 9 0 17 0 26c-1 25 -3 50 -4 75s-1 51 -3 76c-2 35 -1 70 -2 105c-1 24 1 49 2 74c1 30 3 60 4 90c0 8 2 16 6 23c6 10 18 16 30 13c11 -3 20 -8 24 -20c1 -4 2 -7 2 -10c-1 -13 3 -25 6 -38c6 -23 11 -45 18 -68c4 -16 9 -32 10 -49
c1 -5 3 -10 7 -17c3 11 6 19 7 28c5 34 13 67 19 101c3 18 8 36 8 55c0 8 12 19 22 20c7 1 15 0 22 -3c4 -2 24 -14 24 -34c1 -5 3 -11 2 -16c-2 -20 1 -40 1 -60l-3 -67v-97c0 -9 1 -18 2 -27c0 -5 1 -11 0 -16c-1 -11 0 -22 0 -33s-1 -21 -1 -32c0 -4 -1 -9 -1 -13
c0 -35 -1 -70 -1 -105c0 -11 1 -23 3 -34c2 -15 4 -31 4 -47c-1 -16 -2 -32 -5 -47c-2 -11 -2 -22 1 -33c1 -6 1 -13 1 -20c1 -4 1 -9 1 -13c1 -12 -5 -20 -16 -24c-7 -3 -14 -5 -22 -3z" />
    <glyph glyph-name="n" unicode="n" horiz-adv-x="248" 
d="M52 10c-5 -1 -11 1 -15 3c-5 2 -8 6 -9 11c-2 7 -2 14 -1 21c1 8 2 17 0 25v6c3 31 -2 62 -2 94c0 9 -2 19 -3 28v3c1 23 -4 46 -4 69c-1 19 -4 37 -2 56c-2 41 -2 82 -6 123c-2 20 -3 40 0 61c1 5 1 10 1 15c0 36 1 72 1 108c0 19 -1 38 -1 56c0 2 0 3 -1 5
c-3 6 0 11 3 17c3 5 8 9 14 10c9 2 18 -1 25 -6c6 -5 12 -11 17 -18c3 -3 4 -7 4 -11c1 -16 7 -30 13 -45c7 -15 15 -29 22 -44c1 -2 3 -5 3 -7c6 -21 18 -40 26 -61c0 -1 2 -2 4 -3v20c-1 28 -2 56 -3 83c-1 25 0 50 2 74c2 16 13 26 29 23c19 -4 29 -17 26 -36
c-1 -5 -2 -9 -2 -14c-2 -14 -3 -29 -1 -43c1 -16 0 -32 1 -47c0 -19 2 -38 3 -57c0 -14 1 -28 2 -42c0 -12 -1 -23 -1 -35c0 -21 0 -43 -1 -65v-27c1 -17 2 -35 2 -53c0 -15 0 -30 -1 -45c-1 -21 -1 -43 0 -65c1 -28 3 -57 5 -85c1 -17 2 -34 2 -51c1 -3 1 -7 2 -9
c5 -18 -2 -28 -18 -34c-10 -3 -18 -4 -27 -1c-6 2 -10 6 -12 12c-2 4 -2 9 -2 13c0 14 1 28 3 42c2 13 0 26 1 40c0 27 -4 54 -6 81c-1 23 0 46 0 69c0 21 0 43 -2 64c-2 14 -1 28 0 42c1 10 -11 38 -15 41c-7 5 -32 68 -43 91c-5 8 -9 17 -13 25c-1 2 -3 3 -5 6
c-1 -8 -1 -14 -2 -20c-1 -7 -2 -13 -2 -20c1 -25 1 -51 2 -77c1 -33 3 -67 3 -101c-1 -28 2 -57 4 -86c1 -22 1 -44 2 -66c1 -15 3 -30 4 -45c0 -4 1 -7 0 -11c-1 -15 1 -31 2 -46c1 -7 0 -13 0 -20v-15c1 -7 -1 -13 -5 -18c-1 -2 -3 -3 -5 -4c-6 -1 -12 -2 -18 -4z" />
    <glyph glyph-name="ntilde" unicode="&#xf1;" horiz-adv-x="248" 
d="M75 758c-18 -9 -32 11 -36 27c-4 10 -4 18 1 23c2 2 5 3 10 2c2 -1 5 -1 7 -2c7 -2 13 -1 20 1c9 2 17 5 26 7c7 2 15 5 22 8c6 3 12 4 17 4l14 -2c15 -3 21 -16 28 -28c5 -11 4 -27 -12 -23c-4 0 -7 1 -8 1c-10 3 -17 2 -24 3c-8 1 -15 -1 -23 -4
c-14 -5 -28 -11 -42 -17zM52 10c-5 -1 -11 1 -15 3c-5 2 -8 6 -9 11c-2 7 -2 14 -1 21c1 8 2 17 0 25v6c3 31 -2 62 -2 94c0 9 -2 19 -3 28v3c1 23 -4 46 -4 69c-1 19 -4 37 -2 56c-2 41 -2 82 -6 123c-2 20 -3 40 0 61c1 5 1 10 1 15c0 36 1 72 1 108c0 19 -1 38 -1 56
c0 2 0 3 -1 5c-3 6 0 11 3 17c3 5 8 9 14 10c9 2 18 -1 25 -6c6 -5 12 -11 17 -18c3 -3 4 -7 4 -11c1 -16 7 -30 13 -45c7 -15 15 -29 22 -44c1 -2 3 -5 3 -7c6 -21 18 -40 26 -61c0 -1 2 -2 4 -3v20c-1 28 -2 56 -3 83c-1 25 0 50 2 74c2 16 13 26 29 23
c19 -4 29 -17 26 -36c-1 -5 -2 -9 -2 -14c-2 -14 -3 -29 -1 -43c1 -16 0 -32 1 -47c0 -19 2 -38 3 -57c0 -14 1 -28 2 -42c0 -12 -1 -23 -1 -35c0 -21 0 -43 -1 -65v-27c1 -17 2 -35 2 -53c0 -15 0 -30 -1 -45c-1 -21 -1 -43 0 -65c1 -28 3 -57 5 -85c1 -17 2 -34 2 -51
c1 -3 1 -7 2 -9c5 -18 -2 -28 -18 -34c-10 -3 -18 -4 -27 -1c-6 2 -10 6 -12 12c-2 4 -2 9 -2 13c0 14 1 28 3 42c2 13 0 26 1 40c0 27 -4 54 -6 81c-1 23 0 46 0 69c0 21 0 43 -2 64c-2 14 -1 28 0 42c1 10 -11 38 -15 41c-7 5 -32 68 -43 91c-5 8 -9 17 -13 25
c-1 2 -3 3 -5 6c-1 -8 -1 -14 -2 -20c-1 -7 -2 -13 -2 -20c1 -25 1 -51 2 -77c1 -33 3 -67 3 -101c-1 -28 2 -57 4 -86c1 -22 1 -44 2 -66c1 -15 3 -30 4 -45c0 -4 1 -7 0 -11c-1 -15 1 -31 2 -46c1 -7 0 -13 0 -20v-15c1 -7 -1 -13 -5 -18c-1 -2 -3 -3 -5 -4
c-6 -1 -12 -2 -18 -4z" />
    <glyph glyph-name="o" unicode="o" 
d="M137 10c-16 -3 -31 2 -46 4c-3 1 -5 3 -8 5c-8 7 -16 14 -21 24c-1 1 -1 3 -2 3c-10 8 -11 19 -13 31l-22 103l-3 27c-1 11 -2 22 -5 33c-3 12 -3 24 -3 37v12h1c-2 15 -4 31 -4 46c0 19 -3 38 1 58c1 9 0 19 1 28c2 40 6 79 12 119c6 31 13 61 27 90c5 10 8 21 12 31
s8 20 13 29c7 12 18 21 31 28c28 15 74 6 93 -23c3 -5 7 -9 11 -14c6 -7 10 -15 12 -24c3 -12 6 -25 8 -38c4 -17 7 -35 9 -53c2 -16 2 -32 3 -48l1 -7c1 -7 2 -14 2 -21c-1 -9 -1 -18 1 -27c1 -4 1 -7 1 -11l-3 -31c-1 -9 -1 -18 -2 -27c-1 -17 -1 -34 -2 -51
c-1 -23 -2 -45 -4 -68c-1 -26 -4 -53 -9 -79v-5c-1 -27 -9 -53 -16 -79c-4 -15 -7 -30 -13 -44c-11 -29 -29 -52 -63 -58zM130 58c2 -1 5 0 7 0c8 9 12 20 15 31c5 16 8 32 12 47c2 9 5 18 6 27l9 70c4 30 4 60 5 90c2 31 2 62 4 92c2 25 1 50 0 75c-1 22 -3 43 -6 65
c-2 16 -1 33 -6 49c-2 6 -2 13 -4 19c-2 10 -4 19 -10 27l-7 9c-4 6 -12 9 -18 7c-4 -1 -7 -3 -11 -5c-10 -26 -20 -50 -30 -75l-6 -19c-5 -14 -4 -30 -7 -44c-2 -6 -3 -12 -4 -18c-2 -18 -3 -36 -5 -54c-5 -43 -7 -86 -3 -129l3 -54l3 -29c1 -9 1 -18 2 -27
c2 -15 6 -29 8 -44l9 -45c2 -12 5 -25 8 -38c3 -14 15 -20 26 -27z" />
    <glyph glyph-name="oacute" unicode="&#xf3;" 
d="M129 758c-9 3 -16 7 -19 16c-2 5 -7 8 -5 13c0 2 0 5 1 7c10 25 22 49 38 70c1 1 2 1 3 3h6c13 3 23 -4 31 -13c6 -5 7 -15 2 -21c-1 -3 -4 -5 -5 -7c-6 -9 -10 -18 -14 -28c-3 -11 -8 -20 -13 -30c-4 -8 -16 -12 -25 -10zM137 10c-16 -3 -31 2 -46 4c-3 1 -5 3 -8 5
c-8 7 -16 14 -21 24c-1 1 -1 3 -2 3c-10 8 -11 19 -13 31l-22 103l-3 27c-1 11 -2 22 -5 33c-3 12 -3 24 -3 37v12h1c-2 15 -4 31 -4 46c0 19 -3 38 1 58c1 9 0 19 1 28c2 40 6 79 12 119c6 31 13 61 27 90c5 10 8 21 12 31s8 20 13 29c7 12 18 21 31 28c28 15 74 6 93 -23
c3 -5 7 -9 11 -14c6 -7 10 -15 12 -24c3 -12 6 -25 8 -38c4 -17 7 -35 9 -53c2 -16 2 -32 3 -48l1 -7c1 -7 2 -14 2 -21c-1 -9 -1 -18 1 -27c1 -4 1 -7 1 -11l-3 -31c-1 -9 -1 -18 -2 -27c-1 -17 -1 -34 -2 -51c-1 -23 -2 -45 -4 -68c-1 -26 -4 -53 -9 -79v-5
c-1 -27 -9 -53 -16 -79c-4 -15 -7 -30 -13 -44c-11 -29 -29 -52 -63 -58zM130 58c2 -1 5 0 7 0c8 9 12 20 15 31c5 16 8 32 12 47c2 9 5 18 6 27l9 70c4 30 4 60 5 90c2 31 2 62 4 92c2 25 1 50 0 75c-1 22 -3 43 -6 65c-2 16 -1 33 -6 49c-2 6 -2 13 -4 19
c-2 10 -4 19 -10 27l-7 9c-4 6 -12 9 -18 7c-4 -1 -7 -3 -11 -5c-10 -26 -20 -50 -30 -75l-6 -19c-5 -14 -4 -30 -7 -44c-2 -6 -3 -12 -4 -18c-2 -18 -3 -36 -5 -54c-5 -43 -7 -86 -3 -129l3 -54l3 -29c1 -9 1 -18 2 -27c2 -15 6 -29 8 -44l9 -45c2 -12 5 -25 8 -38
c3 -14 15 -20 26 -27z" />
    <glyph glyph-name="ocircumflex" unicode="&#xf4;" 
d="M178 775c-10 0 -19 2 -25 10c-8 8 -7 11 -11 15s-8 4 -12 0s-9 -9 -13 -15c-11 -15 -28 -17 -42 -3c-3 3 -5 7 -6 11c-4 8 -1 16 5 21c12 12 25 22 36 35c7 9 22 11 33 6c4 -2 9 -5 13 -9c11 -11 0 0 11 -12c6 -5 11 -11 16 -16c5 -6 9 -12 12 -19c0 -2 0 -5 1 -7
c0 -11 -6 -16 -18 -17zM137 10c-16 -3 -31 2 -46 4c-3 1 -5 3 -8 5c-8 7 -16 14 -21 24c-1 1 -1 3 -2 3c-10 8 -11 19 -13 31l-22 103l-3 27c-1 11 -2 22 -5 33c-3 12 -3 24 -3 37v12h1c-2 15 -4 31 -4 46c0 19 -3 38 1 58c1 9 0 19 1 28c2 40 6 79 12 119c6 31 13 61 27 90
c5 10 8 21 12 31s8 20 13 29c7 12 18 21 31 28c28 15 74 6 93 -23c3 -5 7 -9 11 -14c6 -7 10 -15 12 -24c3 -12 6 -25 8 -38c4 -17 7 -35 9 -53c2 -16 2 -32 3 -48l1 -7c1 -7 2 -14 2 -21c-1 -9 -1 -18 1 -27c1 -4 1 -7 1 -11l-3 -31c-1 -9 -1 -18 -2 -27
c-1 -17 -1 -34 -2 -51c-1 -23 -2 -45 -4 -68c-1 -26 -4 -53 -9 -79v-5c-1 -27 -9 -53 -16 -79c-4 -15 -7 -30 -13 -44c-11 -29 -29 -52 -63 -58zM130 58c2 -1 5 0 7 0c8 9 12 20 15 31c5 16 8 32 12 47c2 9 5 18 6 27l9 70c4 30 4 60 5 90c2 31 2 62 4 92c2 25 1 50 0 75
c-1 22 -3 43 -6 65c-2 16 -1 33 -6 49c-2 6 -2 13 -4 19c-2 10 -4 19 -10 27l-7 9c-4 6 -12 9 -18 7c-4 -1 -7 -3 -11 -5c-10 -26 -20 -50 -30 -75l-6 -19c-5 -14 -4 -30 -7 -44c-2 -6 -3 -12 -4 -18c-2 -18 -3 -36 -5 -54c-5 -43 -7 -86 -3 -129l3 -54l3 -29
c1 -9 1 -18 2 -27c2 -15 6 -29 8 -44l9 -45c2 -12 5 -25 8 -38c3 -14 15 -20 26 -27z" />
    <glyph glyph-name="odieresis" unicode="&#xf6;" 
d="M80 777c-13 6 -19 17 -24 30c-1 3 0 6 0 9c2 8 3 16 5 24c7 4 14 6 21 6c9 1 17 -2 24 -7s12 -11 16 -18c1 -1 1 -1 1 -2c5 -13 -3 -35 -15 -42c-10 -5 -19 -4 -28 0zM200 772c-11 -2 -19 2 -26 9c-9 8 -14 19 -15 31c0 7 3 14 6 20c6 11 15 15 27 14
c18 -2 32 -12 41 -28c2 -4 2 -10 3 -16c1 -9 -2 -16 -9 -22l-6 -4c-7 -1 -14 -3 -21 -4zM137 10c-16 -3 -31 2 -46 4c-3 1 -5 3 -8 5c-8 7 -16 14 -21 24c-1 1 -1 3 -2 3c-10 8 -11 19 -13 31l-22 103l-3 27c-1 11 -2 22 -5 33c-3 12 -3 24 -3 37v12h1c-2 15 -4 31 -4 46
c0 19 -3 38 1 58c1 9 0 19 1 28c2 40 6 79 12 119c6 31 13 61 27 90c5 10 8 21 12 31s8 20 13 29c7 12 18 21 31 28c28 15 74 6 93 -23c3 -5 7 -9 11 -14c6 -7 10 -15 12 -24c3 -12 6 -25 8 -38c4 -17 7 -35 9 -53c2 -16 2 -32 3 -48l1 -7c1 -7 2 -14 2 -21
c-1 -9 -1 -18 1 -27c1 -4 1 -7 1 -11l-3 -31c-1 -9 -1 -18 -2 -27c-1 -17 -1 -34 -2 -51c-1 -23 -2 -45 -4 -68c-1 -26 -4 -53 -9 -79v-5c-1 -27 -9 -53 -16 -79c-4 -15 -7 -30 -13 -44c-11 -29 -29 -52 -63 -58zM130 58c2 -1 5 0 7 0c8 9 12 20 15 31c5 16 8 32 12 47
c2 9 5 18 6 27l9 70c4 30 4 60 5 90c2 31 2 62 4 92c2 25 1 50 0 75c-1 22 -3 43 -6 65c-2 16 -1 33 -6 49c-2 6 -2 13 -4 19c-2 10 -4 19 -10 27l-7 9c-4 6 -12 9 -18 7c-4 -1 -7 -3 -11 -5c-10 -26 -20 -50 -30 -75l-6 -19c-5 -14 -4 -30 -7 -44c-2 -6 -3 -12 -4 -18
c-2 -18 -3 -36 -5 -54c-5 -43 -7 -86 -3 -129l3 -54l3 -29c1 -9 1 -18 2 -27c2 -15 6 -29 8 -44l9 -45c2 -12 5 -25 8 -38c3 -14 15 -20 26 -27z" />
    <glyph glyph-name="ograve" unicode="&#xf2;" 
d="M151 763c-14 1 -24 6 -30 16s-13 21 -18 32c-5 13 -3 6 -11 17c-4 5 -8 10 -11 16c-6 10 0 21 11 24c13 3 25 -1 34 -10c4 -3 7 -7 10 -11c7 -10 3 -3 9 -13c8 -12 15 -24 22 -36c6 -11 3 -26 -8 -32zM137 10c-16 -3 -31 2 -46 4c-3 1 -5 3 -8 5c-8 7 -16 14 -21 24
c-1 1 -1 3 -2 3c-10 8 -11 19 -13 31l-22 103l-3 27c-1 11 -2 22 -5 33c-3 12 -3 24 -3 37v12h1c-2 15 -4 31 -4 46c0 19 -3 38 1 58c1 9 0 19 1 28c2 40 6 79 12 119c6 31 13 61 27 90c5 10 8 21 12 31s8 20 13 29c7 12 18 21 31 28c28 15 74 6 93 -23c3 -5 7 -9 11 -14
c6 -7 10 -15 12 -24c3 -12 6 -25 8 -38c4 -17 7 -35 9 -53c2 -16 2 -32 3 -48l1 -7c1 -7 2 -14 2 -21c-1 -9 -1 -18 1 -27c1 -4 1 -7 1 -11l-3 -31c-1 -9 -1 -18 -2 -27c-1 -17 -1 -34 -2 -51c-1 -23 -2 -45 -4 -68c-1 -26 -4 -53 -9 -79v-5c-1 -27 -9 -53 -16 -79
c-4 -15 -7 -30 -13 -44c-11 -29 -29 -52 -63 -58zM130 58c2 -1 5 0 7 0c8 9 12 20 15 31c5 16 8 32 12 47c2 9 5 18 6 27l9 70c4 30 4 60 5 90c2 31 2 62 4 92c2 25 1 50 0 75c-1 22 -3 43 -6 65c-2 16 -1 33 -6 49c-2 6 -2 13 -4 19c-2 10 -4 19 -10 27l-7 9
c-4 6 -12 9 -18 7c-4 -1 -7 -3 -11 -5c-10 -26 -20 -50 -30 -75l-6 -19c-5 -14 -4 -30 -7 -44c-2 -6 -3 -12 -4 -18c-2 -18 -3 -36 -5 -54c-5 -43 -7 -86 -3 -129l3 -54l3 -29c1 -9 1 -18 2 -27c2 -15 6 -29 8 -44l9 -45c2 -12 5 -25 8 -38c3 -14 15 -20 26 -27z" />
    <glyph glyph-name="oslash" unicode="&#xf8;" horiz-adv-x="345" 
d="M133 1c-16 -3 -31 2 -46 4c-3 1 -5 3 -8 5c-8 7 -16 14 -21 24c-1 1 -1 3 -2 3c-6 5 -9 11 -10 17c-1 -3 -1 -6 -2 -9l-3 -8c-7 -21 -26 -29 -48 -27c-2 1 -8 3 -12 6s-6 7 -8 11s0 7 2 11c4 12 7 24 11 36l6 20c0 3 2 5 2 7c2 17 9 31 15 46c3 7 4 13 6 20
c1 6 3 11 5 16l-2 15c-1 11 -2 22 -5 33c-3 12 -3 24 -3 37v12h1c-2 15 -4 31 -4 46c0 19 -3 38 1 58c1 9 0 19 1 28c2 40 6 79 12 119c6 31 13 61 27 90c5 10 8 21 12 31s8 20 13 29c7 12 18 21 31 28c28 15 74 6 93 -23c3 -5 7 -9 11 -14c6 -7 10 -15 12 -23c0 0 1 1 1 2
c10 14 19 28 25 44c4 8 19 15 28 11c5 -2 11 -4 16 -7c16 -8 19 -21 11 -36c-4 -6 -7 -12 -10 -17c-17 -24 -30 -50 -41 -77l-12 -26c1 -11 1 -22 2 -34l1 -7c1 -7 2 -14 2 -21c-1 -9 -1 -18 1 -27c1 -4 1 -7 1 -11l-3 -31c-1 -9 -1 -18 -2 -27c-1 -17 -1 -34 -2 -51
c-1 -23 -2 -45 -4 -68c-1 -26 -4 -53 -9 -79v-5c-1 -27 -9 -53 -16 -79c-4 -15 -7 -30 -13 -44c-11 -29 -29 -52 -63 -58zM68 299c4 10 9 20 13 30l28 73c9 23 17 45 27 68c11 25 22 50 35 75l6 12c-1 13 -1 26 -5 38c-2 6 -2 13 -4 19c-2 10 -4 19 -10 27l-7 9
c-4 6 -12 9 -18 7c-4 -1 -7 -3 -11 -5c-10 -26 -20 -50 -30 -75l-6 -19c-5 -14 -4 -30 -7 -44c-2 -6 -3 -12 -4 -18c-2 -18 -3 -36 -5 -54c-5 -43 -7 -86 -3 -129c0 -4 1 -9 1 -14zM126 49c2 -1 5 0 7 0c8 9 12 20 15 31c5 16 8 32 12 47c2 9 5 18 6 27l9 70c4 30 4 60 5 90
c2 31 2 62 4 92c1 7 1 14 1 21l-3 -8c-10 -24 -19 -49 -28 -74c-11 -30 -25 -59 -37 -88c-10 -24 -21 -47 -31 -70c-2 -5 -3 -11 -5 -16c1 -4 1 -8 2 -12l9 -45c2 -12 5 -25 8 -38c3 -14 15 -20 26 -27z" />
    <glyph glyph-name="otilde" unicode="&#xf5;" 
d="M123 779c-18 -9 -32 11 -36 27c-4 10 -4 18 1 23c2 2 5 3 10 2c2 -1 5 -1 7 -2c7 -2 13 -1 20 1c9 2 17 5 26 7c7 2 15 5 22 8c6 3 12 4 17 4l14 -2c15 -3 21 -16 28 -28c5 -11 4 -27 -12 -23c-4 0 -7 1 -8 1c-10 3 -17 2 -24 3c-8 1 -15 -1 -23 -4
c-14 -5 -28 -11 -42 -17zM137 10c-16 -3 -31 2 -46 4c-3 1 -5 3 -8 5c-8 7 -16 14 -21 24c-1 1 -1 3 -2 3c-10 8 -11 19 -13 31l-22 103l-3 27c-1 11 -2 22 -5 33c-3 12 -3 24 -3 37v12h1c-2 15 -4 31 -4 46c0 19 -3 38 1 58c1 9 0 19 1 28c2 40 6 79 12 119
c6 31 13 61 27 90c5 10 8 21 12 31s8 20 13 29c7 12 18 21 31 28c28 15 74 6 93 -23c3 -5 7 -9 11 -14c6 -7 10 -15 12 -24c3 -12 6 -25 8 -38c4 -17 7 -35 9 -53c2 -16 2 -32 3 -48l1 -7c1 -7 2 -14 2 -21c-1 -9 -1 -18 1 -27c1 -4 1 -7 1 -11l-3 -31c-1 -9 -1 -18 -2 -27
c-1 -17 -1 -34 -2 -51c-1 -23 -2 -45 -4 -68c-1 -26 -4 -53 -9 -79v-5c-1 -27 -9 -53 -16 -79c-4 -15 -7 -30 -13 -44c-11 -29 -29 -52 -63 -58zM130 58c2 -1 5 0 7 0c8 9 12 20 15 31c5 16 8 32 12 47c2 9 5 18 6 27l9 70c4 30 4 60 5 90c2 31 2 62 4 92c2 25 1 50 0 75
c-1 22 -3 43 -6 65c-2 16 -1 33 -6 49c-2 6 -2 13 -4 19c-2 10 -4 19 -10 27l-7 9c-4 6 -12 9 -18 7c-4 -1 -7 -3 -11 -5c-10 -26 -20 -50 -30 -75l-6 -19c-5 -14 -4 -30 -7 -44c-2 -6 -3 -12 -4 -18c-2 -18 -3 -36 -5 -54c-5 -43 -7 -86 -3 -129l3 -54l3 -29
c1 -9 1 -18 2 -27c2 -15 6 -29 8 -44l9 -45c2 -12 5 -25 8 -38c3 -14 15 -20 26 -27z" />
    <glyph glyph-name="oe" unicode="&#x153;" horiz-adv-x="419" 
d="M259 1c-21 -6 -42 13 -42 35v53c-2 -10 -5 -19 -8 -28c-11 -29 -29 -52 -63 -58c-16 -3 -31 2 -46 4c-3 1 -5 3 -8 5c-8 7 -16 14 -21 24c-1 1 -1 3 -2 3c-10 8 -11 19 -13 31l-22 103l-3 27c-1 11 -2 22 -5 33c-3 12 -3 24 -3 37v12h1c-2 15 -4 31 -4 46
c0 19 -3 38 1 58c1 9 0 19 1 28c2 40 6 79 12 119c6 31 13 61 27 90c5 10 8 21 12 31s8 20 13 29c7 12 18 21 31 28c28 15 74 6 93 -23c1 -3 4 -6 6 -9c0 6 0 12 1 17c0 3 2 7 4 9c8 8 18 13 29 11c12 -3 25 -1 38 -3c10 -2 21 -4 32 -1c17 -5 35 -6 32 -36
c-5 -39 -53 -17 -79 -17c-1 -11 -1 -21 -1 -32c2 -38 -7 -77 2 -114c1 -4 7 -3 14 -3c17 0 48 -1 60 -11c20 -12 9 -42 -11 -44c-4 -1 -7 -2 -10 -2c-8 -1 -36 -1 -44 1c-7 -13 -3 -374 4 -394c4 -1 10 -3 15 -2c17 3 33 -1 49 -3c5 0 10 -3 15 -6c19 -11 14 -29 5 -39
c-14 -16 -37 -9 -69 -8c-14 1 -28 3 -43 -1zM139 51c2 -1 5 0 7 0c8 9 12 20 15 31c5 16 8 32 12 47c2 9 5 18 6 27l9 70c4 30 4 60 5 90c2 31 2 62 4 92c2 25 1 50 0 75c-1 22 -3 43 -6 65c-2 16 -1 33 -6 49c-2 6 -2 13 -4 19c-2 10 -4 19 -10 27l-7 9c-4 6 -12 9 -18 7
c-4 -1 -7 -3 -11 -5c-10 -26 -20 -50 -30 -75l-6 -19c-5 -14 -4 -30 -7 -44c-2 -6 -3 -12 -4 -18c-2 -18 -3 -36 -5 -54c-5 -43 -7 -86 -3 -129l3 -54l3 -29c1 -9 1 -18 2 -27c2 -15 6 -29 8 -44l9 -45c2 -12 5 -25 8 -38c3 -14 15 -20 26 -27z" />
    <glyph glyph-name="p" unicode="p" horiz-adv-x="214" 
d="M43 10c-16 -4 -19 -3 -35 7c-3 12 -5 26 -8 40c0 2 0 5 1 7c7 17 8 34 9 52c1 12 1 25 1 38c0 12 2 25 3 37c1 17 3 34 3 51c1 76 1 151 1 227c1 22 2 44 2 66c0 33 1 65 -2 98c-1 12 1 24 3 36c2 10 4 19 1 28c-3 7 2 13 3 19c1 5 7 7 11 10c5 4 12 4 19 4s15 -3 23 -5
c2 -1 4 -4 6 -6c6 -6 11 -13 17 -18c25 -23 45 -49 56 -82c3 -9 8 -18 11 -28c7 -21 7 -42 6 -64s-3 -43 -6 -64c-1 -6 -3 -12 -4 -18c-2 -6 -3 -12 -4 -17c-5 -25 -16 -45 -31 -65c-6 -8 -12 -15 -19 -21c-4 -4 -8 -10 -11 -15c-5 -7 -11 -14 -18 -19c-4 -2 -5 -5 -5 -8
c-1 -9 -3 -18 -2 -27c1 -20 -2 -39 -3 -59l-3 -44c-1 -21 -1 -42 -3 -63c0 -8 -2 -16 -3 -24c-1 -5 -2 -11 0 -16c5 -11 3 -24 5 -36c1 -1 0 -4 -1 -5c-7 -7 -14 -14 -23 -16zM76 390c4 3 5 4 7 6c8 14 14 29 19 44c2 9 5 18 6 28l6 56c1 13 -1 25 -3 38
c-3 26 -13 49 -27 71c0 1 -2 2 -5 4c-1 -4 -1 -6 -1 -8c-1 -27 2 -53 2 -80c-1 -18 0 -37 -1 -55c0 -15 -1 -29 -1 -44c0 -14 0 -29 -2 -44v-16z" />
    <glyph glyph-name="q" unicode="q" horiz-adv-x="297" 
d="M256 416c3 -38 0 -76 -5 -114c-2 -12 -3 -24 -4 -36c-1 -6 -2 -13 -4 -19c-5 -20 -10 -40 -16 -60c-3 -11 -7 -22 -9 -33c0 -6 -2 -12 -3 -18c-1 -20 -8 -38 -20 -54c-5 -6 -7 -15 -15 -20c-2 -2 -3 -7 -2 -10c3 -12 5 -24 9 -36c4 -10 7 -21 10 -32c2 -8 0 -15 -6 -22
c-9 -10 -21 -12 -33 -13c-5 0 -11 2 -14 7s-5 10 -7 15c-4 12 -7 25 -10 38c0 1 -1 1 -2 3c-3 0 -6 1 -9 1c-12 0 -25 2 -37 5c-3 1 -7 4 -10 7c-7 9 -15 18 -19 30c-6 18 -16 33 -22 51c-3 7 -6 14 -8 21c-1 1 -1 3 -1 4c2 10 -2 19 -4 28c-2 7 -2 14 0 21c3 12 4 24 2 36
v12c0 11 -1 22 -4 32c-3 14 -3 27 -3 41c1 16 3 33 4 49c2 22 5 43 3 65c-1 16 0 33 1 50c1 15 4 30 7 44c3 19 7 38 10 57c5 28 16 54 29 80l17 30c4 7 9 13 13 20c1 2 3 3 4 5c7 15 22 22 35 29c3 1 7 1 11 1c13 0 25 -5 37 -11c4 -3 9 -6 14 -9c10 -6 20 -13 25 -25
c0 -2 1 -3 2 -4c13 -15 18 -33 21 -52c4 -19 3 -38 3 -57c0 -18 2 -34 5 -51c2 -16 3 -31 4 -47c0 -20 0 -39 1 -59zM196 324c1 24 3 49 2 73c0 11 -1 22 -1 34c-1 8 -2 16 -2 24c0 26 -1 53 -6 79c0 5 -1 9 -1 14c0 13 1 27 0 40c0 13 -1 25 -3 37c-2 11 -6 22 -14 31
c-5 8 -12 14 -23 15c-8 -10 -15 -20 -20 -31c-1 -3 -2 -7 -4 -10c-12 -17 -18 -37 -27 -57l-3 -10c-3 -14 -6 -29 -9 -44c-6 -29 -10 -57 -9 -87c1 -7 0 -14 0 -21c0 -8 -1 -16 -1 -24c-1 -9 -1 -19 -2 -28c-3 -32 -5 -65 -1 -97c2 -20 2 -41 1 -61c-1 -12 -4 -24 2 -36
c-2 -13 3 -25 7 -36c3 -11 8 -21 16 -28c0 4 -1 7 -3 11c-2 3 -3 6 -3 10c1 11 6 20 18 23c3 1 6 3 10 4c9 3 17 1 24 -7c2 -1 3 -4 4 -6c2 -3 4 -7 6 -11l4 4c1 6 2 11 3 16c3 13 5 26 9 38c5 15 8 30 13 45c1 6 3 12 3 18c3 26 8 51 10 78zM102 91l1 1c-1 1 -2 1 -2 2
c-1 2 -2 4 -3 5c0 -2 0 -4 3 -5c0 -1 1 -2 1 -3z" />
    <glyph glyph-name="r" unicode="r" horiz-adv-x="231" 
d="M156 6c-12 0 -23 4 -27 17c-3 9 -10 17 -8 27c0 2 -1 4 -2 6c-10 20 -17 42 -24 63c-6 16 -12 33 -17 50c-1 2 -3 3 -5 6c-4 -20 -6 -38 -7 -56c-1 -15 2 -28 4 -42c0 -12 1 -23 1 -35c1 -4 -1 -9 -2 -13c0 -6 -4 -9 -8 -12c-5 -3 -9 -7 -14 -8c-7 -1 -15 -1 -21 0
c-4 1 -8 4 -12 7c-1 11 -2 21 -2 32c0 6 0 13 -1 19c-2 26 -1 51 1 77c1 10 2 20 4 30c2 8 2 16 3 24c1 9 2 18 2 27c1 11 1 22 1 33c0 10 -1 19 -2 29l-3 33c0 11 -1 23 -1 34c0 14 -1 28 0 43c0 28 1 57 1 85c0 10 0 19 1 28c0 37 1 74 2 111c0 8 -1 16 0 25
c0 8 1 16 2 24c0 11 1 22 1 33c0 8 3 14 9 19c12 10 25 14 41 10c10 -3 17 -8 25 -16c14 -15 26 -32 33 -51c11 -33 26 -66 31 -101c2 -9 2 -18 2 -27c0 -16 0 -33 -2 -49c-1 -18 -4 -36 -6 -54s-9 -35 -15 -52c-7 -18 -17 -35 -29 -51c-4 -5 -9 -9 -14 -13
c-3 -3 -6 -5 -9 -7c-1 -6 1 -10 3 -14c7 -15 14 -30 20 -45c7 -18 13 -37 19 -55c8 -23 15 -46 23 -70l6 -13c6 -12 11 -23 16 -34c4 -7 7 -14 10 -21c3 -8 5 -16 5 -25c1 -7 -3 -13 -6 -19c-1 -1 -2 -3 -4 -3c-8 -2 -16 -5 -25 -6zM74 378c10 12 14 23 18 36
c4 15 4 30 7 46c1 5 1 10 1 15c1 26 2 52 2 78c0 9 -1 18 -4 27c-4 14 -8 27 -13 41c-1 4 -2 9 -8 12v-10c0 -17 0 -34 -1 -51c0 -15 -1 -30 -1 -45c-1 -40 0 -81 -3 -121c0 -8 -1 -17 2 -28z" />
    <glyph glyph-name="s" unicode="s" horiz-adv-x="225" 
d="M34 -27c-8 1 -16 3 -22 8c-4 3 -6 7 -6 10c2 8 3 16 9 22c8 8 19 13 28 20c3 2 5 4 8 5c17 11 29 26 37 44c6 13 10 25 13 39c5 18 10 37 14 55c5 18 9 35 8 54l-3 25c-3 21 -5 42 -10 63s-9 44 -21 64c-4 8 -6 17 -10 25c-17 30 -27 63 -36 97c-5 15 -5 30 -4 46
c2 19 4 37 7 55c1 10 3 20 5 30c5 17 11 34 17 51c5 15 15 24 31 28c11 3 22 7 34 6c7 0 14 -1 21 -2c10 -1 18 -8 23 -16c4 -6 5 -13 3 -18c-3 -9 -8 -19 -18 -22c-8 -3 -16 -4 -24 -7c-22 -7 -20 -4 -26 -29c-7 -26 -11 -53 -12 -80c0 -8 1 -16 2 -24c3 -14 7 -28 12 -42
c5 -13 10 -26 17 -38c6 -10 9 -22 14 -32c6 -10 9 -21 13 -32c5 -17 11 -34 15 -52c3 -13 5 -27 7 -41c1 -12 1 -23 3 -35c3 -10 2 -21 1 -31c-2 -18 -5 -37 -12 -54c-1 -3 -2 -6 -2 -9c-1 -15 -8 -28 -11 -42c-4 -14 -7 -27 -13 -40c-8 -20 -18 -39 -35 -54
c0 -1 -1 -2 -2 -2c-19 -10 -34 -28 -55 -36l-4 -3c-4 -4 -10 -6 -16 -6z" />
    <glyph glyph-name="t" unicode="t" horiz-adv-x="242" 
d="M116 -2c-8 -4 -27 -2 -34 5c-3 3 -4 6 -4 11c-1 7 -1 15 -1 22c1 15 0 30 -2 45c-1 10 -1 19 -1 29c1 28 3 55 5 83c0 8 1 16 0 24c-1 43 -1 85 -1 128c0 24 1 47 -2 71c-1 9 -1 18 -1 27c0 42 1 85 0 127c0 24 0 47 -1 71c0 7 -1 14 -1 22c-9 1 -15 2 -22 2
c-12 1 -25 4 -35 11c-3 1 -6 3 -7 5c-12 14 -4 35 14 38c5 1 10 1 15 1c9 -1 18 -1 27 -2l54 -6c10 -2 20 -2 30 -1h20c7 0 14 -3 21 -7c10 -7 13 -16 12 -27c-2 -11 -8 -20 -19 -23c-7 -3 -14 -4 -22 -3c-10 1 -19 1 -29 2c-3 -9 -2 -17 -2 -25c3 -29 3 -59 2 -89
c-1 -8 0 -16 0 -24v-58c2 -32 4 -64 5 -95c1 -11 1 -22 1 -32c0 -36 0 -71 1 -107c0 -14 -1 -27 -3 -41c-3 -29 -8 -59 -3 -88c2 -14 5 -28 1 -43c-1 -7 0 -14 2 -21c1 -11 -1 -19 -12 -25c-1 -1 -3 -2 -4 -4c-1 -1 -2 -2 -4 -3z" />
    <glyph glyph-name="u" unicode="u" horiz-adv-x="298" 
d="M118 -17c-12 0 -24 1 -36 6s-22 13 -27 26c-7 13 -15 26 -20 41c0 2 -3 5 -4 7c-8 12 -12 25 -14 38c-4 16 -5 32 -5 48c-1 12 -1 25 -1 37c-1 13 -1 26 -1 38c0 15 1 29 2 44c0 13 1 26 1 39c1 20 0 40 1 60c1 11 1 22 0 33c-1 12 -1 24 -1 35v101c0 14 0 28 1 43
c0 17 1 35 1 52v52c0 6 0 12 1 18c0 21 19 31 38 22c2 -2 5 -3 8 -5c9 -5 13 -12 13 -23c-1 -28 0 -56 -1 -84v-55h-1v-24c0 -36 0 -72 1 -109v-15c0 -8 1 -16 1 -24c-1 -16 -1 -32 -1 -48v-6l-3 -81v-52v-12c-1 -18 4 -64 9 -80c0 -3 1 -6 3 -9c7 -16 15 -32 23 -49
c5 -13 18 -18 32 -9c7 3 12 9 16 14c12 14 13 31 16 47c4 19 6 40 7 60c1 30 3 60 4 90c0 12 -1 24 -1 36v40v27c-1 27 0 54 2 81c3 33 4 66 7 100l6 62c2 14 3 26 -1 39c-3 13 -4 26 -9 38c-6 12 -1 23 7 32c8 8 17 12 29 9l11 -3c9 -3 16 -7 19 -16c2 -5 5 -10 6 -15
c1 -4 1 -8 0 -11c-3 -7 -3 -14 -3 -22v-31c0 -6 -1 -11 -2 -17l-6 -57c-1 -5 0 -11 -1 -16l-3 -30c0 -2 -1 -4 -1 -6c0 -27 -4 -54 -3 -81c0 -15 0 -30 -1 -44v-78c1 -41 -2 -82 -4 -123c0 -19 -2 -38 -5 -57c-2 -15 -6 -31 -10 -47l-1 -4c-8 -13 -16 -26 -26 -37
c-2 -3 -6 -5 -9 -8c-5 -3 -10 -7 -14 -11c-16 -13 -30 -17 -50 -16z" />
    <glyph glyph-name="uacute" unicode="&#xfa;" horiz-adv-x="298" 
d="M129 758c-9 3 -16 7 -19 16c-2 5 -7 8 -5 13c0 2 0 5 1 7c10 25 22 49 38 70c1 1 2 1 3 3h6c13 3 23 -4 31 -13c6 -5 7 -15 2 -21c-1 -3 -4 -5 -5 -7c-6 -9 -10 -18 -14 -28c-3 -11 -8 -20 -13 -30c-4 -8 -16 -12 -25 -10zM118 -17c-12 0 -24 1 -36 6s-22 13 -27 26
c-7 13 -15 26 -20 41c0 2 -3 5 -4 7c-8 12 -12 25 -14 38c-4 16 -5 32 -5 48c-1 12 -1 25 -1 37c-1 13 -1 26 -1 38c0 15 1 29 2 44c0 13 1 26 1 39c1 20 0 40 1 60c1 11 1 22 0 33c-1 12 -1 24 -1 35v101c0 14 0 28 1 43c0 17 1 35 1 52v52c0 6 0 12 1 18c0 21 19 31 38 22
c2 -2 5 -3 8 -5c9 -5 13 -12 13 -23c-1 -28 0 -56 -1 -84v-55h-1v-24c0 -36 0 -72 1 -109v-15c0 -8 1 -16 1 -24c-1 -16 -1 -32 -1 -48v-6l-3 -81v-52v-12c-1 -18 4 -64 9 -80c0 -3 1 -6 3 -9c7 -16 15 -32 23 -49c5 -13 18 -18 32 -9c7 3 12 9 16 14c12 14 13 31 16 47
c4 19 6 40 7 60c1 30 3 60 4 90c0 12 -1 24 -1 36v40v27c-1 27 0 54 2 81c3 33 4 66 7 100l6 62c2 14 3 26 -1 39c-3 13 -4 26 -9 38c-6 12 -1 23 7 32c8 8 17 12 29 9l11 -3c9 -3 16 -7 19 -16c2 -5 5 -10 6 -15c1 -4 1 -8 0 -11c-3 -7 -3 -14 -3 -22v-31
c0 -6 -1 -11 -2 -17l-6 -57c-1 -5 0 -11 -1 -16l-3 -30c0 -2 -1 -4 -1 -6c0 -27 -4 -54 -3 -81c0 -15 0 -30 -1 -44v-78c1 -41 -2 -82 -4 -123c0 -19 -2 -38 -5 -57c-2 -15 -6 -31 -10 -47l-1 -4c-8 -13 -16 -26 -26 -37c-2 -3 -6 -5 -9 -8c-5 -3 -10 -7 -14 -11
c-16 -13 -30 -17 -50 -16z" />
    <glyph glyph-name="ucircumflex" unicode="&#xfb;" horiz-adv-x="298" 
d="M187 775c-10 0 -19 2 -25 10c-8 8 -7 11 -11 15s-8 4 -12 0s-9 -9 -13 -15c-11 -15 -28 -17 -42 -3c-3 3 -5 7 -6 11c-4 8 -1 16 5 21c12 12 25 22 36 35c7 9 22 11 33 6c4 -2 9 -5 13 -9c11 -11 0 0 11 -12c6 -5 11 -11 16 -16c5 -6 9 -12 12 -19c0 -2 0 -5 1 -7
c0 -11 -6 -16 -18 -17zM118 -17c-12 0 -24 1 -36 6s-22 13 -27 26c-7 13 -15 26 -20 41c0 2 -3 5 -4 7c-8 12 -12 25 -14 38c-4 16 -5 32 -5 48c-1 12 -1 25 -1 37c-1 13 -1 26 -1 38c0 15 1 29 2 44c0 13 1 26 1 39c1 20 0 40 1 60c1 11 1 22 0 33c-1 12 -1 24 -1 35v101
c0 14 0 28 1 43c0 17 1 35 1 52v52c0 6 0 12 1 18c0 21 19 31 38 22c2 -2 5 -3 8 -5c9 -5 13 -12 13 -23c-1 -28 0 -56 -1 -84v-55h-1v-24c0 -36 0 -72 1 -109v-15c0 -8 1 -16 1 -24c-1 -16 -1 -32 -1 -48v-6l-3 -81v-52v-12c-1 -18 4 -64 9 -80c0 -3 1 -6 3 -9
c7 -16 15 -32 23 -49c5 -13 18 -18 32 -9c7 3 12 9 16 14c12 14 13 31 16 47c4 19 6 40 7 60c1 30 3 60 4 90c0 12 -1 24 -1 36v40v27c-1 27 0 54 2 81c3 33 4 66 7 100l6 62c2 14 3 26 -1 39c-3 13 -4 26 -9 38c-6 12 -1 23 7 32c8 8 17 12 29 9l11 -3c9 -3 16 -7 19 -16
c2 -5 5 -10 6 -15c1 -4 1 -8 0 -11c-3 -7 -3 -14 -3 -22v-31c0 -6 -1 -11 -2 -17l-6 -57c-1 -5 0 -11 -1 -16l-3 -30c0 -2 -1 -4 -1 -6c0 -27 -4 -54 -3 -81c0 -15 0 -30 -1 -44v-78c1 -41 -2 -82 -4 -123c0 -19 -2 -38 -5 -57c-2 -15 -6 -31 -10 -47l-1 -4
c-8 -13 -16 -26 -26 -37c-2 -3 -6 -5 -9 -8c-5 -3 -10 -7 -14 -11c-16 -13 -30 -17 -50 -16z" />
    <glyph glyph-name="udieresis" unicode="&#xfc;" horiz-adv-x="298" 
d="M80 777c-13 6 -19 17 -24 30c-1 3 0 6 0 9c2 8 3 16 5 24c7 4 14 6 21 6c9 1 17 -2 24 -7s12 -11 16 -18c1 -1 1 -1 1 -2c5 -13 -3 -35 -15 -42c-10 -5 -19 -4 -28 0zM200 772c-11 -2 -19 2 -26 9c-9 8 -14 19 -15 31c0 7 3 14 6 20c6 11 15 15 27 14
c18 -2 32 -12 41 -28c2 -4 2 -10 3 -16c1 -9 -2 -16 -9 -22l-6 -4c-7 -1 -14 -3 -21 -4zM118 -17c-12 0 -24 1 -36 6s-22 13 -27 26c-7 13 -15 26 -20 41c0 2 -3 5 -4 7c-8 12 -12 25 -14 38c-4 16 -5 32 -5 48c-1 12 -1 25 -1 37c-1 13 -1 26 -1 38c0 15 1 29 2 44
c0 13 1 26 1 39c1 20 0 40 1 60c1 11 1 22 0 33c-1 12 -1 24 -1 35v101c0 14 0 28 1 43c0 17 1 35 1 52v52c0 6 0 12 1 18c0 21 19 31 38 22c2 -2 5 -3 8 -5c9 -5 13 -12 13 -23c-1 -28 0 -56 -1 -84v-55h-1v-24c0 -36 0 -72 1 -109v-15c0 -8 1 -16 1 -24
c-1 -16 -1 -32 -1 -48v-6l-3 -81v-52v-12c-1 -18 4 -64 9 -80c0 -3 1 -6 3 -9c7 -16 15 -32 23 -49c5 -13 18 -18 32 -9c7 3 12 9 16 14c12 14 13 31 16 47c4 19 6 40 7 60c1 30 3 60 4 90c0 12 -1 24 -1 36v40v27c-1 27 0 54 2 81c3 33 4 66 7 100l6 62c2 14 3 26 -1 39
c-3 13 -4 26 -9 38c-6 12 -1 23 7 32c8 8 17 12 29 9l11 -3c9 -3 16 -7 19 -16c2 -5 5 -10 6 -15c1 -4 1 -8 0 -11c-3 -7 -3 -14 -3 -22v-31c0 -6 -1 -11 -2 -17l-6 -57c-1 -5 0 -11 -1 -16l-3 -30c0 -2 -1 -4 -1 -6c0 -27 -4 -54 -3 -81c0 -15 0 -30 -1 -44v-78
c1 -41 -2 -82 -4 -123c0 -19 -2 -38 -5 -57c-2 -15 -6 -31 -10 -47l-1 -4c-8 -13 -16 -26 -26 -37c-2 -3 -6 -5 -9 -8c-5 -3 -10 -7 -14 -11c-16 -13 -30 -17 -50 -16z" />
    <glyph glyph-name="ugrave" unicode="&#xf9;" horiz-adv-x="298" 
d="M147 763c-14 1 -24 6 -30 16s-13 21 -18 32c-5 13 -3 6 -11 17c-4 5 -8 10 -11 16c-6 10 0 21 11 24c13 3 25 -1 34 -10c4 -3 7 -7 10 -11c7 -10 3 -3 9 -13c8 -12 15 -24 22 -36c6 -11 3 -26 -8 -32zM118 -17c-12 0 -24 1 -36 6s-22 13 -27 26c-7 13 -15 26 -20 41
c0 2 -3 5 -4 7c-8 12 -12 25 -14 38c-4 16 -5 32 -5 48c-1 12 -1 25 -1 37c-1 13 -1 26 -1 38c0 15 1 29 2 44c0 13 1 26 1 39c1 20 0 40 1 60c1 11 1 22 0 33c-1 12 -1 24 -1 35v101c0 14 0 28 1 43c0 17 1 35 1 52v52c0 6 0 12 1 18c0 21 19 31 38 22c2 -2 5 -3 8 -5
c9 -5 13 -12 13 -23c-1 -28 0 -56 -1 -84v-55h-1v-24c0 -36 0 -72 1 -109v-15c0 -8 1 -16 1 -24c-1 -16 -1 -32 -1 -48v-6l-3 -81v-52v-12c-1 -18 4 -64 9 -80c0 -3 1 -6 3 -9c7 -16 15 -32 23 -49c5 -13 18 -18 32 -9c7 3 12 9 16 14c12 14 13 31 16 47c4 19 6 40 7 60
c1 30 3 60 4 90c0 12 -1 24 -1 36v40v27c-1 27 0 54 2 81c3 33 4 66 7 100l6 62c2 14 3 26 -1 39c-3 13 -4 26 -9 38c-6 12 -1 23 7 32c8 8 17 12 29 9l11 -3c9 -3 16 -7 19 -16c2 -5 5 -10 6 -15c1 -4 1 -8 0 -11c-3 -7 -3 -14 -3 -22v-31c0 -6 -1 -11 -2 -17l-6 -57
c-1 -5 0 -11 -1 -16l-3 -30c0 -2 -1 -4 -1 -6c0 -27 -4 -54 -3 -81c0 -15 0 -30 -1 -44v-78c1 -41 -2 -82 -4 -123c0 -19 -2 -38 -5 -57c-2 -15 -6 -31 -10 -47l-1 -4c-8 -13 -16 -26 -26 -37c-2 -3 -6 -5 -9 -8c-5 -3 -10 -7 -14 -11c-16 -13 -30 -17 -50 -16z" />
    <glyph glyph-name="v" unicode="v" horiz-adv-x="256" 
d="M109 -7c-12 5 -21 13 -27 26c-3 9 -6 16 -4 26c2 16 -2 31 -3 47c-1 13 -1 26 -2 39l-3 39c-1 23 -3 46 -5 69c-3 21 -3 43 -8 64c-3 14 -5 29 -7 43l-3 13c-5 14 -8 27 -10 41c0 8 -3 16 -4 24c-2 5 -3 11 -4 16c-2 22 -6 43 -10 64c-1 8 -4 15 -5 22c-4 17 -6 35 -9 52
c-4 25 -4 50 -4 75c-1 14 0 27 -1 41c-1 8 3 16 9 21s13 7 21 6c3 0 5 0 8 -1c7 -1 15 -2 18 -11c3 -6 6 -12 4 -20c-1 -8 -1 -17 -1 -25c1 -37 4 -74 9 -111c4 -20 9 -40 13 -59c1 -4 1 -8 2 -12c2 -16 5 -32 8 -48c1 -7 2 -13 4 -20c2 -12 4 -24 7 -36l9 -47
c3 -15 6 -30 7 -45c1 -1 1 -3 2 -5c4 1 3 4 3 5l3 43c1 21 3 43 5 64s3 41 5 62c1 12 1 24 1 36c1 37 4 75 9 111c2 8 2 16 3 24c1 19 4 37 5 56c1 5 0 10 1 15c0 19 13 29 31 27c24 -3 32 -12 29 -37c-5 -40 -10 -81 -14 -121c-2 -13 -2 -25 -3 -38c-2 -25 -3 -50 -3 -75
c0 -7 -1 -13 -2 -20c-1 -9 -3 -19 -3 -28c1 -7 0 -13 -1 -19l-3 -40c-1 -14 -3 -29 -4 -43c-1 -27 -8 -54 -12 -80c-4 -21 -6 -41 -10 -62c0 -2 -1 -4 -2 -7c-6 -16 -7 -33 -8 -50c0 -7 0 -15 -1 -22l-3 -50c0 -5 -1 -10 -2 -15c-2 -8 -7 -14 -15 -17c-7 -2 -13 -5 -20 -7z
" />
    <glyph glyph-name="w" unicode="w" horiz-adv-x="437" 
d="M134 4c-13 -4 -29 7 -32 20c0 5 -1 9 -1 14c-1 20 -1 41 -2 61c-2 23 -3 46 -9 67c-3 10 -4 19 -4 29c1 25 -1 50 -4 75c-2 17 -6 33 -10 49c-5 20 -11 40 -14 60c-3 14 -7 28 -9 43c-3 19 -5 38 -8 57c-2 10 -4 20 -7 31c-5 21 -9 43 -15 64c-9 32 -11 65 -16 97
c-2 8 -2 17 -3 25c-2 17 11 28 24 27c6 -1 11 0 17 -1c13 -2 19 -9 19 -21c-1 -16 3 -31 5 -47c7 -49 6 -43 25 -122c5 -21 10 -41 11 -63c0 -7 2 -14 3 -20c5 -24 9 -48 14 -71l6 -24c9 -28 15 -57 16 -87c1 -14 3 -28 3 -42c1 -4 1 -9 1 -13c6 14 6 29 8 43
c1 14 2 28 5 42c3 11 3 22 5 34c1 9 3 19 5 28c3 14 6 29 7 43c1 20 3 40 10 59c1 3 1 6 1 9c2 14 9 22 22 26c10 4 20 3 30 1c11 -2 15 -12 18 -22c2 -6 1 -12 2 -18c0 -15 5 -30 8 -44c4 -19 8 -38 13 -56c0 -1 6 -127 8 -129c4 19 13 232 20 257c15 55 10 85 18 156
c3 22 6 44 13 65c2 6 4 10 7 15c4 5 10 8 16 8c9 0 18 -3 26 -6c8 -4 12 -13 11 -22c-1 -2 -2 -4 -2 -6c-6 -20 -9 -40 -12 -60c-1 -8 0 -16 -1 -24c-3 -32 -6 -63 -10 -95c-2 -14 -5 -28 -9 -43c-5 -21 -11 -41 -12 -63c0 -10 -3 -19 -5 -28l-6 -41c-1 -9 -3 -18 -4 -26
c-1 -7 -2 -13 -2 -20c1 -14 -1 -28 -1 -42c0 -18 -3 -36 -5 -54c-1 -16 -2 -32 -4 -48c-1 -9 -3 -18 -4 -27c-1 -4 -2 -8 -1 -12c1 -16 3 -32 5 -48c0 -6 1 -13 2 -19c0 -17 -9 -28 -23 -35c-6 -3 -14 -2 -22 -2c-3 0 -7 1 -10 3c-9 3 -13 11 -14 19c-1 10 -1 20 -2 29
c0 6 1 12 -2 18v3c2 12 -3 24 -4 35c0 12 -3 23 -3 35c1 13 -1 26 -3 39c-1 8 -4 16 -5 25c-3 19 -5 38 -7 57c-2 14 -5 28 -8 43c0 2 -1 3 -3 6c-5 -16 -5 -32 -7 -47l-3 -31c-3 -26 -6 -52 -10 -78c-1 -11 -3 -21 -6 -31c-6 -16 -7 -33 -6 -49c1 -13 -2 -23 -10 -32
c-4 -4 -6 -8 -6 -13c0 -7 -4 -12 -8 -16c-8 -10 -17 -16 -30 -19z" />
    <glyph glyph-name="wacute" unicode="&#x1e83;" horiz-adv-x="437" 
d="M192 758c-9 3 -16 7 -19 16c-2 5 -7 8 -5 13c0 2 0 5 1 7c10 25 22 49 38 70c1 1 2 1 3 3h6c13 3 23 -4 31 -13c6 -5 7 -15 2 -21c-1 -3 -4 -5 -5 -7c-6 -9 -10 -18 -14 -28c-3 -11 -8 -20 -13 -30c-4 -8 -16 -12 -25 -10zM134 4c-13 -4 -29 7 -32 20c0 5 -1 9 -1 14
c-1 20 -1 41 -2 61c-2 23 -3 46 -9 67c-3 10 -4 19 -4 29c1 25 -1 50 -4 75c-2 17 -6 33 -10 49c-5 20 -11 40 -14 60c-3 14 -7 28 -9 43c-3 19 -5 38 -8 57c-2 10 -4 20 -7 31c-5 21 -9 43 -15 64c-9 32 -11 65 -16 97c-2 8 -2 17 -3 25c-2 17 11 28 24 27c6 -1 11 0 17 -1
c13 -2 19 -9 19 -21c-1 -16 3 -31 5 -47c7 -49 6 -43 25 -122c5 -21 10 -41 11 -63c0 -7 2 -14 3 -20c5 -24 9 -48 14 -71l6 -24c9 -28 15 -57 16 -87c1 -14 3 -28 3 -42c1 -4 1 -9 1 -13c6 14 6 29 8 43c1 14 2 28 5 42c3 11 3 22 5 34c1 9 3 19 5 28c3 14 6 29 7 43
c1 20 3 40 10 59c1 3 1 6 1 9c2 14 9 22 22 26c10 4 20 3 30 1c11 -2 15 -12 18 -22c2 -6 1 -12 2 -18c0 -15 5 -30 8 -44c4 -19 8 -38 13 -56c0 -1 6 -127 8 -129c4 19 13 232 20 257c15 55 10 85 18 156c3 22 6 44 13 65c2 6 4 10 7 15c4 5 10 8 16 8c9 0 18 -3 26 -6
c8 -4 12 -13 11 -22c-1 -2 -2 -4 -2 -6c-6 -20 -9 -40 -12 -60c-1 -8 0 -16 -1 -24c-3 -32 -6 -63 -10 -95c-2 -14 -5 -28 -9 -43c-5 -21 -11 -41 -12 -63c0 -10 -3 -19 -5 -28l-6 -41c-1 -9 -3 -18 -4 -26c-1 -7 -2 -13 -2 -20c1 -14 -1 -28 -1 -42c0 -18 -3 -36 -5 -54
c-1 -16 -2 -32 -4 -48c-1 -9 -3 -18 -4 -27c-1 -4 -2 -8 -1 -12c1 -16 3 -32 5 -48c0 -6 1 -13 2 -19c0 -17 -9 -28 -23 -35c-6 -3 -14 -2 -22 -2c-3 0 -7 1 -10 3c-9 3 -13 11 -14 19c-1 10 -1 20 -2 29c0 6 1 12 -2 18v3c2 12 -3 24 -4 35c0 12 -3 23 -3 35
c1 13 -1 26 -3 39c-1 8 -4 16 -5 25c-3 19 -5 38 -7 57c-2 14 -5 28 -8 43c0 2 -1 3 -3 6c-5 -16 -5 -32 -7 -47l-3 -31c-3 -26 -6 -52 -10 -78c-1 -11 -3 -21 -6 -31c-6 -16 -7 -33 -6 -49c1 -13 -2 -23 -10 -32c-4 -4 -6 -8 -6 -13c0 -7 -4 -12 -8 -16
c-8 -10 -17 -16 -30 -19z" />
    <glyph glyph-name="wcircumflex" unicode="&#x175;" horiz-adv-x="437" 
d="M264 765c-10 0 -19 2 -25 10c-8 8 -7 11 -11 15s-8 4 -12 0s-9 -9 -13 -15c-11 -15 -28 -17 -42 -3c-3 3 -5 7 -6 11c-4 8 -1 16 5 21c12 12 25 22 36 35c7 9 22 11 33 6c4 -2 9 -5 13 -9c11 -11 0 0 11 -12c6 -5 11 -11 16 -16c5 -6 9 -12 12 -19c0 -2 0 -5 1 -7
c0 -11 -6 -16 -18 -17zM134 4c-13 -4 -29 7 -32 20c0 5 -1 9 -1 14c-1 20 -1 41 -2 61c-2 23 -3 46 -9 67c-3 10 -4 19 -4 29c1 25 -1 50 -4 75c-2 17 -6 33 -10 49c-5 20 -11 40 -14 60c-3 14 -7 28 -9 43c-3 19 -5 38 -8 57c-2 10 -4 20 -7 31c-5 21 -9 43 -15 64
c-9 32 -11 65 -16 97c-2 8 -2 17 -3 25c-2 17 11 28 24 27c6 -1 11 0 17 -1c13 -2 19 -9 19 -21c-1 -16 3 -31 5 -47c7 -49 6 -43 25 -122c5 -21 10 -41 11 -63c0 -7 2 -14 3 -20c5 -24 9 -48 14 -71l6 -24c9 -28 15 -57 16 -87c1 -14 3 -28 3 -42c1 -4 1 -9 1 -13
c6 14 6 29 8 43c1 14 2 28 5 42c3 11 3 22 5 34c1 9 3 19 5 28c3 14 6 29 7 43c1 20 3 40 10 59c1 3 1 6 1 9c2 14 9 22 22 26c10 4 20 3 30 1c11 -2 15 -12 18 -22c2 -6 1 -12 2 -18c0 -15 5 -30 8 -44c4 -19 8 -38 13 -56c0 -1 6 -127 8 -129c4 19 13 232 20 257
c15 55 10 85 18 156c3 22 6 44 13 65c2 6 4 10 7 15c4 5 10 8 16 8c9 0 18 -3 26 -6c8 -4 12 -13 11 -22c-1 -2 -2 -4 -2 -6c-6 -20 -9 -40 -12 -60c-1 -8 0 -16 -1 -24c-3 -32 -6 -63 -10 -95c-2 -14 -5 -28 -9 -43c-5 -21 -11 -41 -12 -63c0 -10 -3 -19 -5 -28l-6 -41
c-1 -9 -3 -18 -4 -26c-1 -7 -2 -13 -2 -20c1 -14 -1 -28 -1 -42c0 -18 -3 -36 -5 -54c-1 -16 -2 -32 -4 -48c-1 -9 -3 -18 -4 -27c-1 -4 -2 -8 -1 -12c1 -16 3 -32 5 -48c0 -6 1 -13 2 -19c0 -17 -9 -28 -23 -35c-6 -3 -14 -2 -22 -2c-3 0 -7 1 -10 3c-9 3 -13 11 -14 19
c-1 10 -1 20 -2 29c0 6 1 12 -2 18v3c2 12 -3 24 -4 35c0 12 -3 23 -3 35c1 13 -1 26 -3 39c-1 8 -4 16 -5 25c-3 19 -5 38 -7 57c-2 14 -5 28 -8 43c0 2 -1 3 -3 6c-5 -16 -5 -32 -7 -47l-3 -31c-3 -26 -6 -52 -10 -78c-1 -11 -3 -21 -6 -31c-6 -16 -7 -33 -6 -49
c1 -13 -2 -23 -10 -32c-4 -4 -6 -8 -6 -13c0 -7 -4 -12 -8 -16c-8 -10 -17 -16 -30 -19z" />
    <glyph glyph-name="wdieresis" unicode="&#x1e85;" horiz-adv-x="437" 
d="M138 777c-13 6 -19 17 -24 30c-1 3 0 6 0 9c2 8 3 16 5 24c7 4 14 6 21 6c9 1 17 -2 24 -7s12 -11 16 -18c1 -1 1 -1 1 -2c5 -13 -3 -35 -15 -42c-10 -5 -19 -4 -28 0zM258 772c-11 -2 -19 2 -26 9c-9 8 -14 19 -15 31c0 7 3 14 6 20c6 11 15 15 27 14
c18 -2 32 -12 41 -28c2 -4 2 -10 3 -16c1 -9 -2 -16 -9 -22l-6 -4c-7 -1 -14 -3 -21 -4zM134 4c-13 -4 -29 7 -32 20c0 5 -1 9 -1 14c-1 20 -1 41 -2 61c-2 23 -3 46 -9 67c-3 10 -4 19 -4 29c1 25 -1 50 -4 75c-2 17 -6 33 -10 49c-5 20 -11 40 -14 60c-3 14 -7 28 -9 43
c-3 19 -5 38 -8 57c-2 10 -4 20 -7 31c-5 21 -9 43 -15 64c-9 32 -11 65 -16 97c-2 8 -2 17 -3 25c-2 17 11 28 24 27c6 -1 11 0 17 -1c13 -2 19 -9 19 -21c-1 -16 3 -31 5 -47c7 -49 6 -43 25 -122c5 -21 10 -41 11 -63c0 -7 2 -14 3 -20c5 -24 9 -48 14 -71l6 -24
c9 -28 15 -57 16 -87c1 -14 3 -28 3 -42c1 -4 1 -9 1 -13c6 14 6 29 8 43c1 14 2 28 5 42c3 11 3 22 5 34c1 9 3 19 5 28c3 14 6 29 7 43c1 20 3 40 10 59c1 3 1 6 1 9c2 14 9 22 22 26c10 4 20 3 30 1c11 -2 15 -12 18 -22c2 -6 1 -12 2 -18c0 -15 5 -30 8 -44
c4 -19 8 -38 13 -56c0 -1 6 -127 8 -129c4 19 13 232 20 257c15 55 10 85 18 156c3 22 6 44 13 65c2 6 4 10 7 15c4 5 10 8 16 8c9 0 18 -3 26 -6c8 -4 12 -13 11 -22c-1 -2 -2 -4 -2 -6c-6 -20 -9 -40 -12 -60c-1 -8 0 -16 -1 -24c-3 -32 -6 -63 -10 -95
c-2 -14 -5 -28 -9 -43c-5 -21 -11 -41 -12 -63c0 -10 -3 -19 -5 -28l-6 -41c-1 -9 -3 -18 -4 -26c-1 -7 -2 -13 -2 -20c1 -14 -1 -28 -1 -42c0 -18 -3 -36 -5 -54c-1 -16 -2 -32 -4 -48c-1 -9 -3 -18 -4 -27c-1 -4 -2 -8 -1 -12c1 -16 3 -32 5 -48c0 -6 1 -13 2 -19
c0 -17 -9 -28 -23 -35c-6 -3 -14 -2 -22 -2c-3 0 -7 1 -10 3c-9 3 -13 11 -14 19c-1 10 -1 20 -2 29c0 6 1 12 -2 18v3c2 12 -3 24 -4 35c0 12 -3 23 -3 35c1 13 -1 26 -3 39c-1 8 -4 16 -5 25c-3 19 -5 38 -7 57c-2 14 -5 28 -8 43c0 2 -1 3 -3 6c-5 -16 -5 -32 -7 -47
l-3 -31c-3 -26 -6 -52 -10 -78c-1 -11 -3 -21 -6 -31c-6 -16 -7 -33 -6 -49c1 -13 -2 -23 -10 -32c-4 -4 -6 -8 -6 -13c0 -7 -4 -12 -8 -16c-8 -10 -17 -16 -30 -19z" />
    <glyph glyph-name="wgrave" unicode="&#x1e81;" horiz-adv-x="437" 
d="M218 763c-14 1 -24 6 -30 16s-13 21 -18 32c-5 13 -3 6 -11 17c-4 5 -8 10 -11 16c-6 10 0 21 11 24c13 3 25 -1 34 -10c4 -3 7 -7 10 -11c7 -10 3 -3 9 -13c8 -12 15 -24 22 -36c6 -11 3 -26 -8 -32zM134 4c-13 -4 -29 7 -32 20c0 5 -1 9 -1 14c-1 20 -1 41 -2 61
c-2 23 -3 46 -9 67c-3 10 -4 19 -4 29c1 25 -1 50 -4 75c-2 17 -6 33 -10 49c-5 20 -11 40 -14 60c-3 14 -7 28 -9 43c-3 19 -5 38 -8 57c-2 10 -4 20 -7 31c-5 21 -9 43 -15 64c-9 32 -11 65 -16 97c-2 8 -2 17 -3 25c-2 17 11 28 24 27c6 -1 11 0 17 -1
c13 -2 19 -9 19 -21c-1 -16 3 -31 5 -47c7 -49 6 -43 25 -122c5 -21 10 -41 11 -63c0 -7 2 -14 3 -20c5 -24 9 -48 14 -71l6 -24c9 -28 15 -57 16 -87c1 -14 3 -28 3 -42c1 -4 1 -9 1 -13c6 14 6 29 8 43c1 14 2 28 5 42c3 11 3 22 5 34c1 9 3 19 5 28c3 14 6 29 7 43
c1 20 3 40 10 59c1 3 1 6 1 9c2 14 9 22 22 26c10 4 20 3 30 1c11 -2 15 -12 18 -22c2 -6 1 -12 2 -18c0 -15 5 -30 8 -44c4 -19 8 -38 13 -56c0 -1 6 -127 8 -129c4 19 13 232 20 257c15 55 10 85 18 156c3 22 6 44 13 65c2 6 4 10 7 15c4 5 10 8 16 8c9 0 18 -3 26 -6
c8 -4 12 -13 11 -22c-1 -2 -2 -4 -2 -6c-6 -20 -9 -40 -12 -60c-1 -8 0 -16 -1 -24c-3 -32 -6 -63 -10 -95c-2 -14 -5 -28 -9 -43c-5 -21 -11 -41 -12 -63c0 -10 -3 -19 -5 -28l-6 -41c-1 -9 -3 -18 -4 -26c-1 -7 -2 -13 -2 -20c1 -14 -1 -28 -1 -42c0 -18 -3 -36 -5 -54
c-1 -16 -2 -32 -4 -48c-1 -9 -3 -18 -4 -27c-1 -4 -2 -8 -1 -12c1 -16 3 -32 5 -48c0 -6 1 -13 2 -19c0 -17 -9 -28 -23 -35c-6 -3 -14 -2 -22 -2c-3 0 -7 1 -10 3c-9 3 -13 11 -14 19c-1 10 -1 20 -2 29c0 6 1 12 -2 18v3c2 12 -3 24 -4 35c0 12 -3 23 -3 35
c1 13 -1 26 -3 39c-1 8 -4 16 -5 25c-3 19 -5 38 -7 57c-2 14 -5 28 -8 43c0 2 -1 3 -3 6c-5 -16 -5 -32 -7 -47l-3 -31c-3 -26 -6 -52 -10 -78c-1 -11 -3 -21 -6 -31c-6 -16 -7 -33 -6 -49c1 -13 -2 -23 -10 -32c-4 -4 -6 -8 -6 -13c0 -7 -4 -12 -8 -16
c-8 -10 -17 -16 -30 -19z" />
    <glyph glyph-name="x" unicode="x" horiz-adv-x="286" 
d="M195 4c-2 0 -4 3 -5 5s-2 4 -2 7c-5 16 -9 32 -12 48c-4 19 -7 38 -13 57c-9 34 -18 68 -25 103c-2 14 -5 28 -8 43c0 1 0 2 -1 4l-2 -2c-6 -13 -11 -26 -16 -39c-2 -6 -4 -12 -7 -18c-5 -12 -9 -24 -11 -36c-1 -12 -5 -23 -8 -34c-6 -23 -11 -46 -16 -69
c-2 -6 -3 -13 -2 -19c0 -9 -3 -18 -6 -26c-4 -10 -11 -17 -22 -19c-6 -2 -12 -4 -19 -4c-6 0 -10 4 -15 6c-1 0 -3 2 -3 4c-2 7 -3 14 0 22l15 49c5 22 8 44 13 66c0 4 1 7 2 10c3 6 4 12 3 18c0 8 1 16 6 23c8 11 12 24 13 38c1 6 3 13 7 18c7 9 10 19 11 29c2 9 4 17 8 26
c5 11 9 22 10 34c1 10 3 20 5 30c2 8 4 17 5 25c1 3 1 7 0 10c-7 26 -11 53 -16 79c-2 15 -7 30 -9 45c-3 19 -7 37 -12 55c-3 10 -3 21 -6 31c-7 21 -7 44 -9 66c-1 6 1 12 3 19c1 2 3 4 5 5c9 5 19 7 29 6c8 0 14 -4 18 -11c3 -7 5 -13 5 -20c0 -19 4 -37 8 -55
c4 -13 6 -27 8 -40c3 -12 5 -25 7 -37c1 -5 3 -10 4 -16c6 1 5 5 6 8c3 16 6 33 10 49c5 20 11 40 17 59c4 16 8 31 13 47c1 4 2 9 4 13c2 7 8 11 15 12c8 1 16 0 24 -1c15 -2 19 -18 16 -29c-8 -30 -17 -59 -25 -88c-3 -10 -5 -19 -8 -28c-5 -17 -7 -35 -10 -53
c-3 -25 -9 -50 -19 -73c-7 -15 -11 -31 -14 -47c-2 -7 0 -15 1 -22c1 -10 3 -20 6 -30c8 -32 13 -65 19 -97l9 -54c1 -10 3 -20 6 -29c7 -22 11 -44 17 -66c4 -17 7 -34 14 -50c3 -8 7 -16 9 -24c2 -9 0 -16 -6 -23c-13 -13 -28 -12 -44 -10z" />
    <glyph glyph-name="y" unicode="y" horiz-adv-x="241" 
d="M96 9c-6 -3 -11 0 -16 2c-4 1 -7 5 -8 9c-1 5 -1 11 -1 16c0 6 2 12 2 18c2 16 3 32 4 48c0 2 1 4 0 6c-1 12 1 24 2 36c4 26 3 52 3 79l3 81v9c0 23 -1 45 -1 68c-1 16 -1 32 -1 48c0 8 -1 16 -1 24c-1 4 -1 9 -3 12c-4 7 -6 15 -8 23c-4 12 -9 24 -14 36
c-4 9 -5 18 -7 28c-7 32 -14 64 -26 96c-5 16 -11 32 -17 48c-1 5 -1 10 1 15c3 10 12 14 21 18c1 1 3 0 4 0c5 0 10 0 15 -1c8 -2 17 -6 19 -17c2 -14 8 -27 12 -40c6 -17 12 -34 16 -52c4 -15 9 -57 13 -72c0 -1 1 -1 3 -3c2 13 4 51 6 63c3 28 8 55 16 81c3 7 4 14 4 21
c0 3 1 6 3 8c6 12 6 12 23 20c5 -1 10 -2 15 -2c7 0 12 -4 17 -8c6 -5 8 -20 4 -27c-11 -22 -16 -46 -19 -71l-9 -55l-28 -134v-119c1 -19 -1 -39 -3 -58c-2 -24 -1 -48 -2 -71c0 -4 1 -7 1 -11c-4 -23 -4 -46 -6 -69c-3 -23 -3 -46 -1 -68c2 -14 -8 -28 -22 -32
c-5 -1 -10 -1 -14 -3z" />
    <glyph glyph-name="yacute" unicode="&#xfd;" horiz-adv-x="241" 
d="M96 768c-9 3 -16 7 -19 16c-2 5 -7 8 -5 13c0 2 0 5 1 7c10 25 22 49 38 70c1 1 2 1 3 3h6c13 3 23 -4 31 -13c6 -5 7 -15 2 -21c-1 -3 -4 -5 -5 -7c-6 -9 -10 -18 -14 -28c-3 -11 -8 -20 -13 -30c-4 -8 -16 -12 -25 -10zM96 9c-6 -3 -11 0 -16 2c-4 1 -7 5 -8 9
c-1 5 -1 11 -1 16c0 6 2 12 2 18c2 16 3 32 4 48c0 2 1 4 0 6c-1 12 1 24 2 36c4 26 3 52 3 79l3 81v9c0 23 -1 45 -1 68c-1 16 -1 32 -1 48c0 8 -1 16 -1 24c-1 4 -1 9 -3 12c-4 7 -6 15 -8 23c-4 12 -9 24 -14 36c-4 9 -5 18 -7 28c-7 32 -14 64 -26 96
c-5 16 -11 32 -17 48c-1 5 -1 10 1 15c3 10 12 14 21 18c1 1 3 0 4 0c5 0 10 0 15 -1c8 -2 17 -6 19 -17c2 -14 8 -27 12 -40c6 -17 12 -34 16 -52c4 -15 9 -57 13 -72c0 -1 1 -1 3 -3c2 13 4 51 6 63c3 28 8 55 16 81c3 7 4 14 4 21c0 3 1 6 3 8c6 12 6 12 23 20
c5 -1 10 -2 15 -2c7 0 12 -4 17 -8c6 -5 8 -20 4 -27c-11 -22 -16 -46 -19 -71l-9 -55l-28 -134v-119c1 -19 -1 -39 -3 -58c-2 -24 -1 -48 -2 -71c0 -4 1 -7 1 -11c-4 -23 -4 -46 -6 -69c-3 -23 -3 -46 -1 -68c2 -14 -8 -28 -22 -32c-5 -1 -10 -1 -14 -3z" />
    <glyph glyph-name="ycircumflex" unicode="&#x177;" horiz-adv-x="241" 
d="M151 775c-10 0 -19 2 -25 10c-8 8 -7 11 -11 15s-8 4 -12 0s-9 -9 -13 -15c-11 -15 -28 -17 -42 -3c-3 3 -5 7 -6 11c-4 8 -1 16 5 21c12 12 25 22 36 35c7 9 22 11 33 6c4 -2 9 -5 13 -9c11 -11 0 0 11 -12c6 -5 11 -11 16 -16c5 -6 9 -12 12 -19c0 -2 0 -5 1 -7
c0 -11 -6 -16 -18 -17zM96 9c-6 -3 -11 0 -16 2c-4 1 -7 5 -8 9c-1 5 -1 11 -1 16c0 6 2 12 2 18c2 16 3 32 4 48c0 2 1 4 0 6c-1 12 1 24 2 36c4 26 3 52 3 79l3 81v9c0 23 -1 45 -1 68c-1 16 -1 32 -1 48c0 8 -1 16 -1 24c-1 4 -1 9 -3 12c-4 7 -6 15 -8 23
c-4 12 -9 24 -14 36c-4 9 -5 18 -7 28c-7 32 -14 64 -26 96c-5 16 -11 32 -17 48c-1 5 -1 10 1 15c3 10 12 14 21 18c1 1 3 0 4 0c5 0 10 0 15 -1c8 -2 17 -6 19 -17c2 -14 8 -27 12 -40c6 -17 12 -34 16 -52c4 -15 9 -57 13 -72c0 -1 1 -1 3 -3c2 13 4 51 6 63
c3 28 8 55 16 81c3 7 4 14 4 21c0 3 1 6 3 8c6 12 6 12 23 20c5 -1 10 -2 15 -2c7 0 12 -4 17 -8c6 -5 8 -20 4 -27c-11 -22 -16 -46 -19 -71l-9 -55l-28 -134v-119c1 -19 -1 -39 -3 -58c-2 -24 -1 -48 -2 -71c0 -4 1 -7 1 -11c-4 -23 -4 -46 -6 -69c-3 -23 -3 -46 -1 -68
c2 -14 -8 -28 -22 -32c-5 -1 -10 -1 -14 -3z" />
    <glyph glyph-name="ydieresis" unicode="&#xff;" horiz-adv-x="241" 
d="M40 785c-13 6 -19 17 -24 30c-1 3 0 6 0 9c2 8 3 16 5 24c7 4 14 6 21 6c9 1 17 -2 24 -7s12 -11 16 -18c1 -1 1 -1 1 -2c5 -13 -3 -35 -15 -42c-10 -5 -19 -4 -28 0zM160 780c-11 -2 -19 2 -26 9c-9 8 -14 19 -15 31c0 7 3 14 6 20c6 11 15 15 27 14
c18 -2 32 -12 41 -28c2 -4 2 -10 3 -16c1 -9 -2 -16 -9 -22l-6 -4c-7 -1 -14 -3 -21 -4zM96 9c-6 -3 -11 0 -16 2c-4 1 -7 5 -8 9c-1 5 -1 11 -1 16c0 6 2 12 2 18c2 16 3 32 4 48c0 2 1 4 0 6c-1 12 1 24 2 36c4 26 3 52 3 79l3 81v9c0 23 -1 45 -1 68c-1 16 -1 32 -1 48
c0 8 -1 16 -1 24c-1 4 -1 9 -3 12c-4 7 -6 15 -8 23c-4 12 -9 24 -14 36c-4 9 -5 18 -7 28c-7 32 -14 64 -26 96c-5 16 -11 32 -17 48c-1 5 -1 10 1 15c3 10 12 14 21 18c1 1 3 0 4 0c5 0 10 0 15 -1c8 -2 17 -6 19 -17c2 -14 8 -27 12 -40c6 -17 12 -34 16 -52
c4 -15 9 -57 13 -72c0 -1 1 -1 3 -3c2 13 4 51 6 63c3 28 8 55 16 81c3 7 4 14 4 21c0 3 1 6 3 8c6 12 6 12 23 20c5 -1 10 -2 15 -2c7 0 12 -4 17 -8c6 -5 8 -20 4 -27c-11 -22 -16 -46 -19 -71l-9 -55l-28 -134v-119c1 -19 -1 -39 -3 -58c-2 -24 -1 -48 -2 -71
c0 -4 1 -7 1 -11c-4 -23 -4 -46 -6 -69c-3 -23 -3 -46 -1 -68c2 -14 -8 -28 -22 -32c-5 -1 -10 -1 -14 -3z" />
    <glyph glyph-name="ygrave" unicode="&#x1ef3;" horiz-adv-x="241" 
d="M116 763c-14 1 -24 6 -30 16s-13 21 -18 32c-5 13 -3 6 -11 17c-4 5 -8 10 -11 16c-6 10 0 21 11 24c13 3 25 -1 34 -10c4 -3 7 -7 10 -11c7 -10 3 -3 9 -13c8 -12 15 -24 22 -36c6 -11 3 -26 -8 -32zM96 9c-6 -3 -11 0 -16 2c-4 1 -7 5 -8 9c-1 5 -1 11 -1 16
c0 6 2 12 2 18c2 16 3 32 4 48c0 2 1 4 0 6c-1 12 1 24 2 36c4 26 3 52 3 79l3 81v9c0 23 -1 45 -1 68c-1 16 -1 32 -1 48c0 8 -1 16 -1 24c-1 4 -1 9 -3 12c-4 7 -6 15 -8 23c-4 12 -9 24 -14 36c-4 9 -5 18 -7 28c-7 32 -14 64 -26 96c-5 16 -11 32 -17 48
c-1 5 -1 10 1 15c3 10 12 14 21 18c1 1 3 0 4 0c5 0 10 0 15 -1c8 -2 17 -6 19 -17c2 -14 8 -27 12 -40c6 -17 12 -34 16 -52c4 -15 9 -57 13 -72c0 -1 1 -1 3 -3c2 13 4 51 6 63c3 28 8 55 16 81c3 7 4 14 4 21c0 3 1 6 3 8c6 12 6 12 23 20c5 -1 10 -2 15 -2
c7 0 12 -4 17 -8c6 -5 8 -20 4 -27c-11 -22 -16 -46 -19 -71l-9 -55l-28 -134v-119c1 -19 -1 -39 -3 -58c-2 -24 -1 -48 -2 -71c0 -4 1 -7 1 -11c-4 -23 -4 -46 -6 -69c-3 -23 -3 -46 -1 -68c2 -14 -8 -28 -22 -32c-5 -1 -10 -1 -14 -3z" />
    <glyph glyph-name="z" unicode="z" horiz-adv-x="261" 
d="M154 -1c-11 2 -70 1 -82 1c-18 -1 -36 -1 -54 3c-13 2 -20 12 -18 25c1 6 2 11 4 16c5 22 5 44 11 65c3 36 15 70 23 105c0 1 1 2 1 3c4 30 16 59 20 89c2 16 7 31 11 46c3 17 5 34 8 51c4 19 10 39 14 58l9 43c5 25 10 51 15 76v3c7 11 8 25 11 37c4 15 8 29 14 43
c1 2 1 4 2 7c-2 1 -4 3 -7 3c-11 2 -86 4 -98 5c-4 0 -9 3 -12 7c-6 6 -11 11 -13 20c1 3 3 5 4 8c7 13 19 17 33 16c9 -1 81 2 90 2c3 -1 6 0 9 -1c13 -1 26 -3 39 -4c9 0 17 -3 25 -8c4 -2 5 -5 6 -8c4 -11 2 -21 -4 -29c-11 -17 -19 -35 -25 -54c-6 -21 -12 -41 -17 -61
c-2 -7 -4 -14 -5 -21c-5 -25 -9 -50 -14 -76c-3 -16 -8 -32 -12 -48c-9 -31 -16 -62 -22 -94c-5 -25 -12 -50 -18 -75c-1 -2 -1 -4 -2 -7c-4 -25 -11 -50 -18 -74c-4 -17 -7 -35 -11 -52c-4 -15 -6 -29 -6 -44c1 -3 0 -5 -1 -8v-16h13h96c11 -1 21 -4 30 -10c1 -3 1 -5 2 -7
c4 -14 -1 -25 -15 -30c-12 -4 -23 -6 -36 -5z" />
    <glyph glyph-name="a.ss01" horiz-adv-x="260" 
d="M356 -227c-19 2 -37 6 -54 16l-6 3c-15 5 -27 14 -40 23c-11 7 -20 16 -27 26c-30 42 -48 94 -52 146c-4 35 0 70 -5 105c-5 0 -8 1 -11 1c-53 -3 -56 1 -89 3c-3 1 -7 0 -11 0c-2 -6 -14 -45 -15 -61c-1 -9 -5 -16 -10 -23c-9 -10 -19 -13 -31 -12c-6 1 -10 3 -14 7
c-2 3 -3 6 -2 9c5 23 7 47 15 69c3 9 6 18 8 28c17 93 11 100 15 127c4 29 7 58 9 87c1 15 4 30 6 45c4 29 11 57 18 85c0 3 20 109 22 124c3 19 4 39 7 58c2 12 2 15 14 81c6 7 13 17 31 14c4 -1 8 -3 10 -7c22 -31 35 -136 44 -203c18 -135 6 -2 28 -284
c1 -17 3 -34 4 -51c1 -19 3 -39 4 -58c1 -21 3 -42 5 -63c6 -63 7 -135 49 -189c12 -16 28 -27 46 -37c11 -6 23 -10 34 -14c9 -2 17 -3 26 -3s18 1 27 3c21 2 37 13 48 32c3 5 6 11 6 18c0 9 2 17 2 26c1 4 1 8 1 12c3 10 6 16 16 19c12 3 21 0 29 -11c3 -4 6 -8 9 -13
c4 -6 6 -14 4 -23c-6 -25 -14 -50 -33 -70c-7 -7 -15 -13 -23 -19c-22 -16 -48 -22 -75 -24c-13 -1 -26 -3 -39 -2zM72 144c54 -4 54 -3 91 1c2 0 3 30 -2 93c-2 25 -1 21 -16 186v8c-5 38 -10 76 -14 101c-1 3 -2 5 -4 9c-3 -12 -5 -22 -7 -33l-6 -32
c-5 -39 -16 -71 -22 -106c-2 -19 -6 -37 -7 -55c-1 -15 -3 -30 -5 -45l-3 -52c-2 -20 -4 -40 -6 -59c-1 -5 -3 -10 1 -16z" />
    <glyph glyph-name="e.ss01" horiz-adv-x="214" 
d="M320 -139c-18 0 -37 1 -54 10c-14 6 -29 12 -43 19c-23 14 -42 32 -58 52c-9 11 -18 23 -26 36c-5 9 -12 18 -19 27c-11 14 -34 16 -49 6c-4 -3 -8 -7 -12 -9c-13 -4 -24 0 -35 6c-3 2 -5 7 -7 10v1c-2 2 -3 5 -3 7c-3 7 -4 15 -2 22c1 93 4 122 4 122
c1 168 -11 291 -4 526c0 3 2 7 4 9c8 8 18 13 29 11c12 -3 25 -1 38 -3c10 -2 21 -4 32 -1c17 -5 35 -6 32 -36c-5 -39 -53 -17 -79 -17c-1 -11 -1 -21 -1 -32c2 -38 -7 -77 2 -114c1 -4 7 -3 14 -3c17 0 48 -1 60 -11c20 -12 9 -42 -11 -44c-4 -1 -7 -2 -10 -2
c-8 -1 -36 -1 -44 1c-6 -12 -3 -317 3 -382h-1c6 -2 12 -3 18 -4c22 -3 40 -12 56 -27c15 -14 25 -30 36 -47c11 -15 22 -30 36 -42c21 -18 45 -31 73 -35c17 -2 34 2 50 8c21 9 42 19 62 30l6 3c25 17 49 -2 54 -26c0 -5 -1 -11 -4 -14c-5 -6 -11 -12 -19 -15
c-8 -2 -15 -5 -22 -9c-14 -8 -28 -13 -43 -20c-20 -8 -41 -12 -63 -13z" />
    <glyph glyph-name="f.ss01" horiz-adv-x="167" 
d="M550 820c2 -6 2 -13 1 -19c-3 -7 -6 -14 -13 -17c-9 -5 -17 -10 -25 -14c-3 -1 -6 -3 -8 -4c-20 -7 -41 -10 -62 -10c-3 -1 -7 -1 -10 -1c-36 -2 -79 6 -116 12c-34 6 -66 28 -101 29c-3 1 -5 1 -7 2c-2 0 -4 0 -6 1l-19 3h-1c-1 0 -2 0 -3 1c-3 0 -7 1 -11 1
c-17 2 -35 3 -52 3l-10 -1c-7 0 -13 -1 -19 -1c-9 0 -18 -2 -27 -4c1 -61 4 -184 4 -249c0 -37 6 -30 7 -36c4 -4 9 -4 13 -4c22 2 64 -2 72 -30c-1 -2 -1 -6 -2 -9c-5 -13 -13 -22 -27 -23c-17 -3 -54 3 -55 3c0 -4 -2 -353 -1 -357c3 -52 12 -92 -36 -96
c-12 -1 -21 7 -23 20c-12 95 2 72 -2 132c-1 15 -3 364 -5 386c0 0 1 136 0 231c-3 -3 -6 -6 -8 -9c-1 -1 -2 -2 -2 -3l-6 -8c-1 -4 -4 -7 -6 -11c0 -1 -1 -1 -2 -2v-1c-6 -10 -8 -22 -9 -33c1 -15 -9 -28 -24 -29c-5 0 -10 0 -14 2c-7 3 -13 8 -15 15c-11 32 5 63 23 89
l5 8c1 2 3 4 4 5c1 2 3 4 4 5c22 26 69 56 102 63c34 7 74 4 109 2c35 -1 70 -6 104 -16c35 -10 67 -27 104 -32c2 -1 5 -1 7 -1l14 -2c9 0 18 -1 27 0h9c4 -1 8 0 12 1l-1 -1c2 1 4 1 6 1c4 1 8 2 12 2c3 1 6 1 9 2c7 1 14 4 20 8l1 1v-1c0 1 1 1 1 1h-1c18 13 48 22 59 -5
z" />
    <glyph glyph-name="g.ss01" horiz-adv-x="225" 
d="M80 -235l-10 1c-3 1 -6 2 -9 2c-9 3 -17 7 -25 11l-7 6c-27 18 -35 50 -35 80v11c0 4 1 8 2 11c3 6 8 12 15 14c24 5 43 -19 39 -42c1 -2 1 -5 1 -7c2 -9 7 -18 14 -24c1 -1 3 -2 5 -3c9 -5 25 -8 34 -3c2 1 4 2 6 4c2 1 4 3 5 5c3 4 6 8 8 13c3 9 6 20 7 30c1 2 1 4 1 7
c4 33 2 65 1 98v11v17c-10 -4 -22 -7 -37 -7c-32 -2 -60 17 -64 22c-15 23 -40 48 -27 170l2 162c1 48 -8 89 -5 175c2 32 3 64 5 95c4 49 15 69 29 84c1 1 2 1 2 2c13 15 30 20 48 22c32 4 82 -45 54 -80c-11 -15 -31 -6 -40 -3c-3 2 -6 4 -7 8c-3 5 -4 11 -10 15
c-6 -7 -11 -15 -13 -24c-4 -18 -7 -119 -8 -137c-2 -70 8 -96 6 -193l-1 -152c0 -11 0 -22 -1 -33c0 -8 0 -49 7 -60c3 -3 3 -7 5 -11c4 -5 8 -9 15 -6c34 0 32 91 -8 88c-1 1 -2 3 -2 4v7c0 18 20 42 79 38c11 0 36 -46 27 -91v-2c-3 -37 -3 -73 0 -109v-10v-18v-9
c-3 -32 0 -64 -4 -96c0 -4 -1 -7 -2 -10c-1 -7 -3 -13 -5 -20c-4 -7 -7 -15 -11 -22c-2 -3 -3 -5 -5 -7c-18 -24 -51 -34 -81 -34z" />
    <glyph glyph-name="h.ss01" horiz-adv-x="234" 
d="M312 -201c-20 2 -38 6 -55 15c-2 1 -4 2 -5 3c-15 5 -28 14 -41 23c-11 7 -19 16 -27 26c-14 19 -24 40 -33 62c-22 45 -22 103 -21 152c1 3 0 366 0 370c-8 4 -16 7 -26 7c-7 -1 -14 1 -21 2c-5 1 -10 1 -16 -2c-1 -3 -1 -6 -1 -9c0 -13 -1 -386 2 -400
c2 -8 2 -16 -1 -24c-3 -5 -6 -8 -11 -10c-12 -4 -25 -8 -38 -4c-5 1 -10 3 -13 9c-2 6 -6 12 -4 20c1 5 -1 10 -1 15c0 6 1 12 2 18c2 6 3 12 3 19c0 28 3 56 5 84c1 12 0 24 0 36v37c1 19 1 38 1 57v133c0 8 -2 16 -3 24c-3 14 -3 29 -3 43c0 24 0 48 -1 71
c0 32 -1 64 0 95c0 10 0 19 -1 29c-1 6 1 11 7 13c3 1 6 2 8 4c8 5 15 5 23 1c9 -4 15 -11 18 -19c1 -2 1 -4 1 -6l9 -167v-6c1 -3 3 -6 7 -7c6 -1 12 -2 19 -2c7 1 15 -1 23 -1c4 0 8 1 13 2c0 11 1 19 0 28l-1 70l-3 62c0 9 1 18 3 27c1 3 2 7 2 10c0 8 4 13 10 16
c15 10 38 0 42 -17c1 -3 1 -6 0 -9v-2c-3 -24 -1 -48 -1 -72c0 -45 1 -89 1 -134l3 -151c0 -41 1 -81 2 -122c1 -59 1 -119 5 -178c0 -10 -1 -18 1 -28l6 -30c0 -2 7 -48 33 -78c11 -16 28 -27 45 -37c11 -6 23 -10 35 -14c8 -2 17 -3 25 -3c9 0 18 1 27 3c21 2 37 13 48 32
c4 5 6 11 6 18l3 26c0 4 0 8 1 12c2 10 5 16 15 19c13 3 22 0 29 -11l9 -12c4 -7 6 -15 4 -23c-5 -26 -14 -51 -32 -71c-7 -7 -15 -13 -23 -19c-23 -15 -48 -22 -75 -24c-13 -1 -26 -3 -39 -1z" />
    <glyph glyph-name="j.ss01" horiz-adv-x="174" 
d="M131 183c4 -33 4 -59 1 -87c-3 -36 -9 -73 -23 -106c-1 -3 -2 -7 -4 -10c-1 -3 -3 -6 -4 -9s-3 -6 -5 -9c-23 -40 -68 -68 -114 -74c-29 -4 -59 6 -87 14c-28 7 -55 15 -83 20c-26 0 -49 9 -75 3c-21 -5 -44 -24 -60 -38c-15 -13 -34 -32 -52 -13c-2 2 -4 4 -4 7
c-4 11 0 24 8 33c1 3 3 6 6 9c19 23 46 36 72 49c19 9 39 8 60 11c15 2 28 0 43 -2c25 -2 51 -5 75 -13c25 -7 48 -20 74 -25c26 -4 46 5 64 24c2 1 4 3 6 5c2 3 5 6 8 8c6 7 13 15 18 24c0 1 1 3 2 4v2c2 4 3 8 5 12c25 76 15 159 12 238c-1 43 0 86 0 129l-3 73
c-1 26 -3 51 -4 76c-2 20 -4 41 -2 61c1 19 0 38 -1 56c0 5 -1 9 -2 13c-12 4 -21 6 -31 10c-13 4 -20 21 -12 32c2 3 5 6 8 7c7 3 15 4 23 2c11 -2 22 -5 33 -3c8 2 16 -3 22 -7c5 -2 8 -9 8 -15c1 -23 3 -45 4 -68c0 -3 0 -6 -1 -9c-4 -23 1 -46 2 -69c1 -24 5 -48 4 -73
c0 -18 2 -37 3 -55v-55c0 -20 1 -41 1 -62c0 -39 1 -78 4 -116c1 -2 1 -3 1 -4z" />
    <glyph glyph-name="k.ss01" horiz-adv-x="212" 
d="M534 -145c3 -8 -1 -18 -9 -23c-2 -2 -4 -3 -7 -3c-32 -13 -63 -30 -98 -33c-3 -1 -7 -1 -11 -2c-44 -5 -75 -1 -118 11c-3 1 -6 2 -9 4c-108 47 -161 174 -180 283l-6 36c-4 23 -7 47 -11 70c-2 14 -7 37 -12 52c-6 -15 -2 -40 -4 -53c-1 -14 -2 -28 -2 -43
c0 -13 0 -27 1 -40c0 -14 1 -28 1 -42c1 -14 3 -28 4 -43c-2 -4 -5 -9 -9 -13c-2 -3 -5 -6 -9 -8c-16 -10 -25 -10 -42 1c-2 8 -2 17 -1 26c2 18 3 35 2 52c0 2 -1 4 -1 6c1 33 1 66 2 99c1 42 3 85 3 128c1 32 0 65 -1 98c-1 22 -5 45 -7 67c-1 5 -1 10 -1 15
c0 7 0 13 -1 20l-3 39c-1 28 -3 56 -4 84c-1 20 -1 40 -1 59c0 16 18 29 37 21c8 -3 13 -10 19 -19c-5 -37 0 -75 2 -113c0 -10 0 -20 1 -30c4 -35 3 -61 9 -97c2 -6 1 -14 2 -20c3 -1 4 0 4 2c7 28 12 47 17 76c4 28 8 57 11 85c3 22 5 45 10 67c2 8 3 17 5 25
c3 14 12 22 25 22c12 0 24 -10 27 -22c1 -6 1 -12 -1 -17c-6 -19 -7 -38 -10 -58c-4 -29 -7 -58 -10 -87c-3 -18 -5 -37 -9 -55c-5 -23 -10 -36 -16 -59c-4 -15 -8 -30 -10 -45c-1 -11 -1 -23 -7 -32c-3 -5 -1 -11 0 -17c6 -16 11 -32 16 -48c11 -31 19 -73 25 -105
c3 -18 5 -37 8 -55l6 -41c11 -64 40 -131 83 -180c34 -39 76 -47 126 -56c4 0 7 1 11 1c31 2 63 12 93 20c1 1 3 2 4 2h1c1 0 1 1 2 1l12 6c14 6 30 4 38 -10c2 -3 3 -6 3 -9z" />
    <glyph glyph-name="l.ss01" horiz-adv-x="175" 
d="M294 -137c-21 3 -43 5 -63 13c-8 2 -16 3 -24 6c-18 5 -33 16 -47 28c-17 13 -35 23 -54 31c-11 5 -23 3 -34 0c-7 -3 -14 -4 -22 -4c-10 1 -20 4 -28 11s-13 16 -12 27c1 4 1 8 2 12c3 12 5 23 4 35c-1 24 1 49 2 74c1 19 1 98 2 117c1 33 3 65 4 98c1 8 1 16 1 24
c2 29 3 58 4 88c1 11 1 22 1 33c2 28 3 57 5 86c0 10 2 21 3 31c4 28 1 56 -3 84c0 6 -1 12 -1 18c-1 6 -2 12 -2 18s0 12 1 18c0 8 5 11 12 12c8 1 16 1 23 -4c2 -1 5 -3 8 -4c10 -7 15 -16 15 -28c0 -17 3 -34 4 -51c2 -23 4 -45 3 -68c-3 -37 -6 -74 -7 -111
c0 -14 1 -28 0 -41c-1 -27 -3 -55 -4 -82c-1 -30 -1 -61 -2 -92c-1 -24 -2 -108 -3 -132l-3 -60v-41c1 -7 3 -9 10 -9h1c29 -1 30 0 54 -13c19 -10 39 -21 55 -36c13 -10 28 -19 44 -22c19 -5 38 -11 58 -12c11 -1 22 1 33 2l10 3c10 1 20 4 28 12l9 6c8 3 15 4 22 -1
c3 -3 7 -5 11 -8c6 -17 -3 -29 -12 -42l-2 -2c-14 -8 -28 -16 -43 -20c-8 -1 -15 -3 -23 -4c-13 -3 -27 -2 -40 0z" />
    <glyph glyph-name="m.ss01" horiz-adv-x="268" 
d="M421 -139c2 -3 2 -7 1 -12c-6 -24 -32 -33 -53 -25c-3 0 -6 1 -9 2c-12 2 -24 6 -36 10l-10 4c-12 6 -25 12 -36 20c-3 2 -5 3 -7 5c-8 6 -15 13 -22 20c-2 2 -76 52 -73 216c-3 68 -10 135 -10 203c0 11 1 21 2 32c1 24 0 49 0 74l3 59c-7 -5 -22 -83 -51 -83
s-50 76 -53 79c0 -6 -1 -10 -1 -15v-22c0 -7 1 -13 1 -20c1 -33 2 -66 4 -99c0 -19 2 -37 2 -56c1 -26 1 -51 -2 -77c-1 -15 0 -30 -1 -45c-1 -16 -1 -32 1 -48c2 -11 0 -22 0 -33c0 -7 -1 -14 -1 -20c0 -16 -21 -32 -39 -28c-8 2 -13 7 -14 15v6c1 16 1 31 2 47
c0 5 0 10 -1 15c0 6 -2 12 -1 18c1 11 0 22 0 33c0 19 2 38 2 57c1 16 3 32 1 48c-1 9 0 17 0 26c-1 25 -3 50 -4 75s-1 51 -3 76c-2 35 -1 70 -2 105c-1 24 1 49 2 74c1 30 3 60 4 90c0 8 2 16 6 23c6 10 18 16 30 13c11 -3 20 -8 24 -20c1 -4 2 -7 2 -10
c-1 -13 3 -25 6 -38c6 -23 11 -45 18 -68c4 -16 9 -32 10 -49c1 -5 3 -10 7 -17c3 11 6 19 7 28c5 34 13 67 19 101c3 18 8 36 8 55c0 8 12 19 22 20c7 1 15 0 22 -3c4 -2 24 -14 24 -34c1 -5 3 -11 2 -16c-2 -20 1 -40 1 -60l-3 -67v-97c0 -9 1 -18 2 -27c0 -5 1 -11 0 -16
c-1 -11 0 -22 0 -33s-1 -21 -1 -32c0 -4 -1 -9 -1 -13c0 -35 -1 -70 -1 -105c0 -77 3 -163 26 -236c3 -9 6 -18 11 -27c8 -14 21 -26 32 -38c7 -8 14 -17 23 -24c6 -4 17 -6 23 -9c1 0 2 -1 2 -1c11 -2 21 -2 31 -5c2 0 5 -1 7 -2c12 -2 38 -6 45 -19z" />
    <glyph glyph-name="n.ss01" horiz-adv-x="248" 
d="M300 -166c-3 1 -6 3 -8 4c-19 11 -36 24 -56 35c-7 3 -14 8 -20 13c-2 2 -5 5 -8 7c-9 9 -17 18 -24 29c-2 3 -3 6 -5 8c-22 57 -28 110 -28 170c0 32 -3 63 -6 94v1c-1 23 0 46 0 69c0 21 0 43 -2 64c-2 14 -1 28 0 42c1 10 -11 38 -15 41c-7 5 -32 68 -43 91
c-5 8 -9 17 -13 25c-1 2 -3 3 -5 6c-1 -8 -1 -14 -2 -20c-1 -7 -2 -13 -2 -20c1 -25 1 -51 2 -77c1 -33 3 -67 3 -101c-1 -28 2 -57 4 -86c1 -22 1 -44 2 -66c1 -15 3 -30 4 -45c0 -4 1 -7 0 -11c-1 -15 1 -31 2 -46c1 -7 0 -13 0 -20v-15c1 -7 -1 -13 -5 -18
c-1 -2 -3 -3 -5 -4c-6 -1 -12 -2 -18 -4c-5 -1 -11 1 -15 3c-5 2 -8 6 -9 11c-2 7 -2 14 -1 21c1 8 2 17 0 25v6c3 31 -2 62 -2 94c0 9 -2 19 -3 28v3c1 23 -4 46 -4 69c-1 19 -4 37 -2 56c-2 41 -2 82 -6 123c-2 20 -3 40 0 61c1 5 1 10 1 15c0 36 1 72 1 108
c0 19 -1 38 -1 56c0 2 0 3 -1 5c-3 6 0 11 3 17c3 5 8 9 14 10c9 2 18 -1 25 -6c6 -5 12 -11 17 -18c3 -3 4 -7 4 -11c1 -16 7 -30 13 -45c7 -15 15 -29 22 -44c1 -2 3 -5 3 -7c6 -21 18 -40 26 -61c0 -1 2 -2 4 -3v20l-3 83c-1 25 0 50 2 74c2 16 13 26 29 23
c19 -4 29 -17 26 -36c-1 -5 -2 -9 -2 -14c-2 -14 -3 -29 -1 -43c1 -16 0 -32 1 -47c0 -19 2 -38 3 -57c0 -14 1 -28 2 -42c0 -12 -1 -23 -1 -35c0 -21 0 -43 -1 -65v-27c1 -17 2 -35 2 -53c0 -15 0 -30 -1 -45c-1 -19 -1 -40 0 -60c1 -3 2 -6 2 -10c0 -42 2 -85 7 -128
c4 -35 10 -72 30 -102c2 -5 6 -8 9 -12l-2 2c10 -11 23 -19 34 -29l-4 4c12 -9 23 -20 36 -26l5 -2h-2c2 -1 4 -1 6 -2c16 -6 33 -10 49 -12c1 0 3 0 4 -1c6 -1 11 -2 16 -7c5 -6 8 -13 8 -20c0 -4 -1 -7 -2 -11c-24 -23 -64 -4 -93 -2z" />
    <glyph glyph-name="q.ss01" horiz-adv-x="297" 
d="M476 -123c-36 0 -71 8 -105 19c-35 11 -69 26 -103 40c-1 0 -1 1 -1 1h-2l-6 3c-4 1 -8 3 -12 5l-23 9c-15 6 -30 12 -46 16c-13 4 -26 8 -40 10h-4l-4 1h-24l-1 -1c-6 -1 -12 -2 -17 -4c-1 0 -2 -1 -4 -1l-1 -1c-2 -1 -5 -2 -8 -4l-6 -4l-2 -2c-1 -1 -2 -2 -4 -3
c-2 -2 -5 -5 -7 -8l-4 -4c-7 -9 -18 -14 -29 -8c-9 6 -14 20 -7 29c6 9 13 18 22 25c12 9 24 16 38 21c-5 5 -10 11 -14 18c-1 1 -1 3 -2 3c-10 8 -11 19 -13 31l-22 103l-3 27c-1 11 -2 22 -5 33c-3 12 -3 24 -3 37v12h1c-2 15 -4 31 -4 46c0 19 -3 38 1 58c1 9 0 19 1 28
c2 40 6 79 12 119c6 31 13 61 27 90c5 10 8 21 12 31s8 20 13 29c7 12 18 21 31 28c28 15 74 6 93 -23c3 -5 7 -9 11 -14c6 -7 10 -15 12 -24c3 -12 6 -25 8 -38c4 -17 7 -35 9 -53c2 -16 2 -32 3 -48l1 -7c1 -7 2 -14 2 -21c-1 -9 -1 -18 1 -27c1 -4 1 -7 1 -11l-3 -31
c-1 -9 -1 -18 -2 -27c-1 -17 -1 -34 -2 -51c-1 -23 -2 -45 -4 -68c-1 -26 -4 -53 -9 -79v-5c-1 -27 -9 -53 -16 -79c-4 -15 -7 -30 -13 -44c-6 -17 -15 -32 -29 -43c14 -3 27 -8 40 -12l47 -18l28 -12l3 -2c2 0 4 -1 5 -2c4 -2 8 -3 12 -5c33 -13 66 -27 100 -36l25 -6
c5 0 9 -1 14 -2h3c2 -1 3 -1 4 -1c16 -2 33 -2 49 0h2c2 0 4 1 6 1l12 3l21 6c1 1 4 2 5 3s3 1 5 2c4 2 8 4 11 7l12 7l3 3c1 0 3 2 4 3c9 7 21 9 30 0c7 -8 9 -23 0 -30c-10 -8 -21 -16 -32 -22c-32 -18 -68 -27 -104 -26zM130 49c2 -1 5 0 7 0c8 9 12 20 15 31
c5 16 8 32 12 47c2 9 5 18 6 27l9 70c4 30 4 60 5 90c2 31 2 62 4 92c2 25 1 50 0 75c-1 22 -3 43 -6 65c-2 16 -1 33 -6 49c-2 6 -2 13 -4 19c-2 10 -4 19 -10 27l-7 9c-4 6 -12 9 -18 7c-4 -1 -7 -3 -11 -5c-10 -26 -20 -50 -30 -75l-6 -19c-5 -14 -4 -30 -7 -44
c-2 -6 -3 -12 -4 -18c-2 -18 -3 -36 -5 -54c-5 -43 -7 -86 -3 -129l3 -54l3 -29c1 -9 1 -18 2 -27c2 -15 6 -29 8 -44l9 -45c2 -12 5 -25 8 -38c3 -14 15 -20 26 -27z" />
    <glyph glyph-name="r.ss01" horiz-adv-x="231" 
d="M368 -186c-21 -3 -41 -3 -62 2c-17 4 -33 11 -48 21c-30 20 -54 48 -73 79c-10 14 -18 29 -25 45c-6 12 -8 27 -17 39c-4 6 -11 11 -15 18c-15 28 -22 65 -33 95c-6 16 -12 33 -17 50c-1 2 -3 3 -5 6c-4 -20 -6 -38 -7 -56c-1 -15 2 -28 4 -42c0 -12 1 -23 1 -35
c1 -4 -1 -9 -2 -13c0 -6 -4 -9 -8 -12c-5 -3 -9 -7 -14 -8c-7 -1 -15 -1 -21 0c-4 1 -8 4 -12 7c-1 11 -2 21 -2 32c0 6 0 13 -1 19c-2 26 -1 51 1 77c1 10 2 20 4 30c2 8 2 16 3 24c1 9 2 18 2 27c1 11 1 22 1 33c0 10 -1 19 -2 29l-3 33c0 11 -1 23 -1 34c0 14 -1 28 0 43
c0 28 1 57 1 85c0 10 0 19 1 28c0 37 1 74 2 111c0 8 -1 16 0 25c0 8 1 16 2 24c0 11 1 22 1 33c0 8 3 14 9 19c12 10 25 14 41 10c10 -3 17 -8 25 -16c14 -15 26 -32 33 -51c11 -33 26 -66 31 -101c2 -9 2 -18 2 -27c0 -16 0 -33 -2 -49c-1 -18 -4 -36 -6 -54
s-9 -35 -15 -52c-7 -18 -17 -35 -29 -51c-4 -5 -9 -9 -14 -13c-3 -3 -6 -5 -9 -7c-1 -6 1 -10 3 -14c7 -15 14 -30 20 -45c7 -18 13 -37 19 -55c8 -23 15 -46 23 -70l6 -13c21 -41 32 -87 52 -127c7 -14 15 -29 24 -42l8 -11l3 -4c5 -6 10 -13 16 -18c5 -6 11 -11 17 -16h1
c1 -2 3 -3 4 -4c3 -2 6 -4 10 -5l10 -6c2 0 3 -1 5 -2c6 -2 12 -3 19 -4c8 -1 17 -1 26 0c10 1 19 4 29 8c14 5 31 -6 34 -20c5 -16 -5 -29 -19 -34c-10 -4 -20 -7 -31 -9zM74 372c10 12 14 23 18 36c4 15 4 30 7 46c1 5 1 10 1 15c1 26 2 52 2 78c0 9 -1 18 -4 27
c-4 14 -8 27 -13 41c-1 4 -2 9 -8 12v-10c0 -17 0 -34 -1 -51c0 -15 -1 -30 -1 -45c-1 -40 0 -81 -3 -121c0 -8 -1 -17 2 -28z" />
    <glyph glyph-name="s.ss01" horiz-adv-x="227" 
d="M185 257c3 -10 2 -21 1 -31c-2 -18 -5 -37 -12 -54c0 -4 -2 -8 -2 -8v-1c-1 -15 -8 -28 -11 -42c-4 -14 -7 -27 -13 -40c-7 -18 -16 -35 -29 -49c-8 -11 -16 -21 -24 -31c-37 -40 -84 -72 -137 -86c-14 -4 -30 -6 -45 -7c-7 0 -15 -1 -22 0c-8 0 -15 1 -23 2
c-7 1 -15 2 -22 4l-22 6c-19 8 -37 17 -54 28l-9 6c-32 17 -56 43 -68 78c-2 2 -3 5 -4 7l-5 9l-12 28l-3 10c-6 20 -10 40 -11 61c-1 3 -1 6 -1 9c-2 19 -1 39 3 59c1 3 1 6 2 9c6 36 20 69 44 96c2 2 4 5 6 8l20 24l8 6c5 4 10 8 16 11c20 13 42 21 65 26c3 1 7 1 10 2h10
h10c24 0 47 -6 70 -10c3 -1 6 -1 9 -2c29 -8 52 -29 67 -54c1 -3 3 -6 5 -9c1 -2 3 -5 4 -8c2 -3 3 -7 5 -10c0 -2 1 -4 2 -6s2 -4 2 -7c1 -13 1 -26 4 -39l3 -20c1 -9 0 -17 -2 -25l-3 -6c-7 -11 -19 -17 -32 -13c-12 3 -20 15 -20 27c0 2 0 5 1 7c1 5 2 10 2 15v-7
c0 7 1 14 -1 20c-3 8 -4 16 -6 24l-3 7l-3 7l-8 15c-5 8 -11 16 -19 20h1l-5 3c-7 3 -13 5 -20 7h1c-10 2 -21 3 -31 5l8 -2c-12 3 -24 5 -36 6c-4 -1 -8 -2 -11 -1c-3 -1 -5 -1 -7 -2c-2 0 -4 -1 -6 -1c-4 -2 -8 -3 -11 -4c-2 -1 -4 -1 -5 -2h-1c-7 -3 -13 -6 -19 -10
c-3 -2 -7 -4 -10 -7c-1 0 -1 -1 -2 -1v-1l-2 -1l-9 -8l-9 -9c-1 -1 -2 -2 -2 -3l-1 -1l-6 -9c-2 -3 -4 -6 -6 -10c-4 -5 -13 -33 -15 -36c-1 -2 -2 -5 -2 -7c-4 -11 -6 -23 -9 -34v1c-1 -4 -1 -9 -1 -14v-10c0 -14 6 -27 8 -40l-2 8c5 -20 6 -40 12 -60v1c0 -2 1 -3 1 -4
l3 -7c1 -4 3 -9 5 -13c1 -3 3 -6 5 -9c9 -20 25 -27 34 -35c2 -1 4 -3 5 -5l7 -6s1 -1 2 -1c3 -3 7 -5 11 -8c8 -5 17 -10 26 -14c1 -1 2 -2 4 -2c1 -1 3 -1 5 -2c13 -5 27 -6 41 -8c-1 0 -1 1 -2 1c16 -2 32 -4 48 -3h-7c5 0 9 1 14 2c4 0 9 1 13 3c5 1 9 2 13 4l9 3l2 1
c6 2 12 5 15 7c9 5 17 10 25 15l8 6c1 0 3 2 3 3h1c4 4 7 6 9 7l15 14c5 5 10 10 14 16c3 2 5 5 7 7v1l2 2v1c8 11 15 23 21 35c2 5 4 10 7 15c0 2 2 6 2 7c2 3 3 6 4 9c0 1 1 2 1 2v3c5 18 10 37 14 55c3 8 4 15 6 23c2 16 2 32 0 48c0 2 -1 4 -1 7c-1 2 -1 5 -1 8
c-2 19 -4 37 -9 56c-5 21 -9 44 -21 64c-4 8 -6 17 -10 25c-24 48 -38 99 -39 153c0 42 2 100 34 132c13 12 41 28 59 28c7 0 14 -1 21 -2c10 -1 18 -8 23 -16c4 -6 5 -13 3 -18c-3 -9 -8 -19 -18 -22c-16 -5 -36 -4 -46 -20c-36 -56 -17 -147 15 -200c6 -10 9 -22 14 -32
c6 -10 9 -21 13 -32c5 -17 11 -34 15 -52c3 -13 5 -27 7 -41c1 -12 1 -23 3 -35zM-73 324h-1h1zM-72 323c-1 0 -1 0 -1 1zM-52 301l1 -1z" />
    <glyph glyph-name="t.ss01" horiz-adv-x="139" 
d="M48 1c-10 2 -19 10 -18 22c0 24 -4 48 -6 72c-1 12 0 25 -1 37c-3 39 -4 79 -2 119c1 32 3 63 5 95v26c1 23 1 46 2 69v26v66c0 15 1 30 1 45c0 30 0 70 1 100c0 17 2 29 3 46v14c5 13 3 27 1 40c-1 6 -4 10 -10 13l-19 9c-8 4 -17 8 -25 12c-6 3 -11 5 -17 7
c-34 9 -68 15 -103 14h-10c-21 0 -40 -5 -59 -13c-23 -9 -43 -22 -59 -40c-4 -4 -9 -6 -13 -6c-16 -1 -30 3 -40 16c-5 6 -6 12 -6 19c0 4 2 9 6 11c3 3 6 5 10 7c19 10 38 21 55 33c8 6 18 9 27 12c17 5 36 9 54 13c3 1 6 1 9 1c28 2 56 -1 84 -4c31 -3 60 -14 88 -26
c20 -8 40 -17 59 -25c5 -2 9 -4 12 -6c16 -10 33 -16 51 -19c9 -2 6 -2 15 -2l18 2c13 2 24 -3 34 -11c7 -6 13 -14 13 -26c-1 -8 -4 -15 -11 -19c-9 -5 -18 -8 -29 -7h-15c-18 2 -18 4 -36 6c-2 0 -4 1 -6 1c-6 1 -11 -2 -10 -8c0 -3 -9 -157 -9 -174c0 -25 -1 -49 -1 -73
c0 -15 1 -29 1 -44c0 -14 -1 -28 -2 -42c0 -11 -1 -21 0 -32c1 -25 -2 -50 -3 -75c0 -7 -1 -14 -1 -21c-1 -30 -2 -60 -2 -89c0 -15 0 -30 2 -44c4 -33 3 -66 6 -99c1 -9 1 -18 2 -28c0 -6 -2 -11 -7 -14c-4 -2 -9 -5 -13 -6c-9 -1 -17 -1 -26 0z" />
    <glyph glyph-name="u.ss01" horiz-adv-x="298" 
d="M118 -5c-12 0 -24 1 -36 6s-22 13 -27 26c-7 13 -15 26 -20 41c0 2 -3 5 -4 7c-8 12 -12 25 -14 38c-4 16 -5 32 -5 48c-1 12 -1 25 -1 37c-1 13 -1 26 -1 38c0 15 1 29 2 44c0 13 1 26 1 39c1 20 0 40 1 60c1 11 1 22 0 33c-1 12 -1 24 -1 35v101c0 14 0 28 1 43
c0 17 1 35 1 52v52c0 6 0 12 1 18c0 21 19 31 38 22c2 -2 5 -3 8 -5c9 -5 13 -12 13 -23c-1 -28 0 -56 -1 -84v-55h-1v-24c0 -36 0 -72 1 -109v-15c0 -8 1 -16 1 -24c-1 -16 -1 -32 -1 -48v-6l-3 -81v-64c-1 -18 4 -64 9 -80c0 -3 1 -6 3 -9c7 -16 15 -32 23 -49
c5 -13 18 -18 32 -9c7 3 12 9 16 14c12 14 13 31 16 47c4 19 6 40 7 60c1 30 3 60 4 90c0 12 -1 24 -1 36v67c-1 27 0 54 2 81c3 33 4 66 7 100c6 59 7 119 12 178c3 40 8 81 18 100c8 22 19 43 33 63c7 10 16 19 27 26c13 9 25 18 40 23l6 3c17 9 35 13 54 15
c13 2 26 -1 39 -2c27 -1 53 -8 75 -23c8 -6 16 -12 23 -20c19 -19 27 -44 33 -70c2 -9 0 -16 -4 -23c-3 -4 -6 -8 -9 -13c-8 -10 -17 -13 -29 -10c-10 3 -13 9 -15 19c-1 4 -1 8 -2 12c0 9 -2 17 -2 26c0 6 -2 12 -6 18c-11 18 -27 29 -48 32l-27 3c-9 0 -17 -1 -25 -4
c-12 -4 -24 -8 -35 -14c-18 -9 -34 -20 -46 -36c-25 -30 -32 -76 -33 -79c-2 -12 -13 -129 -14 -142c0 -6 -1 -11 -2 -17l-6 -57c-1 -5 0 -11 -1 -16l-3 -30c0 -2 -1 -4 -1 -6c0 -27 -4 -54 -3 -81c0 -15 0 -30 -1 -44v-78c1 -41 -2 -82 -4 -123c0 -19 -2 -38 -5 -57
c-2 -15 -6 -31 -10 -47l-1 -4c-8 -13 -16 -26 -26 -37c-2 -3 -6 -5 -9 -8c-5 -3 -10 -7 -14 -11c-16 -13 -30 -17 -50 -16z" />
    <glyph glyph-name="v.ss01" horiz-adv-x="256" 
d="M109 0c-12 5 -21 14 -27 27c-3 8 -6 16 -4 25c2 16 -2 31 -3 47c-1 13 -1 26 -2 39l-3 39c-1 23 -3 46 -5 69c-7 63 -19 123 -32 185c-2 6 -3 11 -4 17c-2 21 -6 42 -10 64c-1 7 -4 14 -5 21c-4 18 -6 35 -9 53c-4 25 -4 50 -4 75c-1 13 0 27 -1 40c-1 9 3 16 9 22
c6 5 13 6 21 6c3 0 5 -1 8 -1c7 -1 15 -3 18 -11c3 -6 6 -12 4 -20c-1 -8 -1 -17 -1 -26c1 -78 19 -153 32 -229c1 -7 2 -14 4 -21c2 -12 4 -23 7 -35l9 -48c3 -14 6 -29 7 -44c1 -2 1 -4 2 -6c4 1 3 4 3 6l3 42c1 22 3 43 5 65c2 20 3 41 5 61c1 12 1 25 1 37
c1 37 4 74 9 111c6 35 8 70 11 105c3 27 7 55 13 81c24 103 100 168 209 160c27 -1 52 -8 75 -23c8 -6 16 -12 23 -20c18 -19 27 -44 32 -70c2 -9 0 -16 -4 -23c-3 -4 -6 -8 -9 -13c-7 -10 -16 -13 -29 -10c-10 3 -13 9 -15 19c-1 4 -1 8 -1 12l-3 26c0 6 -2 12 -6 18
c-11 18 -27 29 -48 32l-27 3c-8 0 -17 -1 -25 -4c-12 -4 -24 -8 -35 -14c-17 -9 -33 -20 -45 -36c-26 -30 -33 -76 -33 -79c-13 -67 -21 -133 -28 -201c-2 -12 -2 -25 -3 -37c-2 -25 -3 -51 -3 -76c0 -6 -1 -13 -2 -19c-1 -10 -3 -19 -3 -29c1 -6 0 -13 -1 -19l-3 -39
c-1 -15 -3 -29 -4 -44c-1 -27 -8 -53 -12 -80c-4 -20 -6 -41 -10 -61c0 -3 -1 -5 -2 -7c-6 -16 -7 -33 -8 -50c0 -8 0 -15 -1 -23l-3 -49c0 -5 -1 -10 -2 -15c-2 -9 -7 -14 -15 -17c-7 -2 -13 -5 -20 -8z" />
    <glyph glyph-name="w.ss01" horiz-adv-x="437" 
d="M134 1c-13 -4 -29 7 -32 20c0 5 -1 9 -1 14c-1 20 -1 41 -2 61c-2 23 -3 46 -9 67c-3 10 -4 19 -4 29c1 25 -1 50 -4 75c-2 17 -6 33 -10 49c-5 20 -11 40 -14 60c-3 14 -7 29 -9 43c-3 19 -5 38 -8 57c-2 10 -4 20 -7 31c-5 21 -9 43 -15 64c-9 32 -11 65 -16 97
c-2 8 -2 17 -3 25c-2 17 11 28 24 27c6 -1 11 0 17 -1c13 -2 19 -9 19 -21c-1 -16 3 -31 5 -47c7 -49 6 -43 25 -122c5 -21 10 -41 11 -62c0 -7 2 -14 3 -21c5 -24 9 -48 14 -71l6 -24c9 -28 15 -57 16 -87c1 -14 3 -28 3 -42c1 -4 1 -9 1 -13c6 14 6 29 8 43
c1 14 2 28 5 42c3 11 3 23 5 34c1 9 3 19 5 28c3 14 6 29 7 43c1 20 3 40 10 60c1 2 1 5 1 8c2 14 9 22 22 26c10 4 20 3 30 1c11 -2 15 -12 18 -22c2 -6 1 -12 2 -18c0 -15 5 -30 8 -44c4 -19 8 -38 13 -56c0 -1 6 -127 8 -129c3 14 3 30 4 45c3 49 5 98 9 147
c5 58 18 115 24 173c4 44 8 87 13 130c3 19 4 38 8 57c3 18 9 34 16 51c8 22 19 43 33 63c7 10 16 19 26 26c13 9 26 18 41 23c2 1 4 2 5 3c17 9 36 13 55 15c13 2 26 -1 39 -2c27 -1 53 -8 75 -23c8 -6 16 -12 23 -20c18 -19 27 -44 33 -70c2 -9 -1 -16 -5 -23
c-2 -4 -6 -8 -9 -13c-7 -10 -16 -13 -28 -10c-10 3 -14 9 -16 19c-1 4 -1 8 -1 12c-1 9 -2 17 -2 26c-1 6 -3 12 -6 18c-11 18 -27 29 -49 32l-27 3c-8 0 -17 -1 -25 -4c-12 -4 -24 -8 -35 -14c-17 -9 -33 -20 -45 -36c-26 -30 -33 -76 -33 -79c-4 -19 -7 -39 -10 -58
c-4 -25 -8 -50 -11 -76c-6 -43 -10 -87 -17 -130c-4 -22 -8 -43 -13 -65c-14 -74 -33 -382 -32 -403c0 -17 -9 -28 -23 -35c-6 -3 -14 -2 -22 -2c-3 0 -7 1 -10 3c-9 3 -13 11 -14 20s-1 19 -2 28c0 6 1 12 -2 18v3c2 12 -3 24 -4 36c0 11 -3 22 -3 34c1 13 -1 26 -3 39
c-1 8 -4 16 -5 25c-3 19 -5 38 -7 57c-2 14 -5 28 -8 43c0 2 -1 3 -3 6c-5 -16 -5 -32 -7 -47l-3 -31c-3 -26 -6 -52 -10 -78c-1 -11 -3 -21 -6 -31c-6 -16 -7 -33 -6 -49c1 -13 -2 -23 -10 -32c-4 -4 -6 -8 -6 -13c0 -7 -4 -12 -8 -16c-8 -10 -17 -16 -30 -19z" />
    <glyph glyph-name="y.ss01" horiz-adv-x="247" 
d="M96 1c-6 -3 -11 0 -16 2c-4 1 -7 5 -8 9c-1 5 -1 11 -1 16c0 6 2 12 2 18c2 16 3 32 4 48c0 2 1 4 0 6c-1 12 1 24 2 36c4 26 3 52 3 79l3 81v9c0 23 -1 45 -1 68c-1 16 -1 32 -1 48c0 8 -1 16 -1 24c-1 4 -1 9 -3 12c-4 7 -6 15 -8 23c-4 12 -9 24 -14 36
c-4 9 -5 18 -7 28c-7 32 -14 64 -26 96c-5 16 -11 32 -17 48c-1 5 -1 10 1 15c3 10 12 14 21 18c1 1 3 0 4 0c5 0 10 0 15 -1c8 -2 17 -6 19 -17c2 -14 8 -27 12 -40c6 -17 12 -34 16 -52c4 -15 9 -57 13 -72c0 -1 1 -1 3 -3c2 13 4 51 6 63c3 28 26 194 44 229
c8 22 19 43 33 63c7 10 16 19 26 26c13 9 26 18 41 23c2 1 4 2 5 3c17 9 36 13 55 15c13 2 26 -1 39 -2c27 -1 53 -8 75 -23c8 -6 16 -12 23 -20c18 -19 27 -44 33 -70c2 -9 -1 -16 -5 -23c-2 -4 -5 -8 -9 -13c-7 -10 -16 -13 -28 -10c-10 3 -14 9 -16 19c-1 4 -1 8 -1 12
c-1 8 -2 17 -2 26c-1 6 -3 12 -6 18c-11 18 -27 29 -49 32l-27 3c-8 0 -17 -1 -25 -4c-12 -4 -23 -8 -35 -14c-17 -9 -33 -20 -45 -36c-26 -30 -33 -76 -33 -79c-2 -8 -27 -128 -30 -153l-9 -55l-28 -134v-119c1 -19 -1 -39 -3 -58c-2 -24 -1 -48 -2 -71c0 -4 1 -7 1 -11
c-4 -23 -4 -46 -6 -69c-3 -23 -3 -46 -1 -68c2 -14 -8 -28 -22 -32c-5 -1 -10 -1 -14 -3z" />
    <glyph glyph-name="z.ss01" horiz-adv-x="231" 
d="M306 -150c-18 -1 -37 1 -54 9c-14 7 -29 12 -43 20c-23 13 -42 31 -58 52c-10 11 -19 22 -26 35c-5 10 -12 19 -19 27c-3 3 -6 6 -10 8c-11 7 -26 7 -37 0l-2 -2c-4 -3 -8 -7 -12 -8c-13 -4 -24 0 -35 6c-3 2 -5 6 -7 10c-5 11 -8 22 -3 34c2 6 5 14 7 21c2 13 3 26 6 38
c1 4 17 80 25 115c0 1 1 2 1 3c4 30 16 59 20 90c2 15 7 30 11 45c3 17 5 34 8 51c4 20 10 39 14 59l9 42l15 76v3c7 11 8 25 11 37c4 15 8 30 14 43c1 2 1 4 2 7c-2 1 -4 3 -7 3c-11 2 -86 4 -98 5c-4 0 -9 3 -12 7c-6 6 -11 11 -13 20c1 3 3 5 4 8c7 13 19 17 33 16
c9 -1 81 2 90 2h9c13 -2 26 -4 39 -4c9 -1 17 -4 25 -9c4 -2 5 -4 6 -8c4 -10 2 -21 -4 -29c-11 -17 -19 -35 -25 -54c-6 -21 -12 -41 -17 -61c-2 -7 -4 -14 -5 -21c-5 -25 -9 -50 -14 -75c-3 -17 -8 -33 -12 -49c-9 -31 -16 -62 -22 -94c-5 -25 -12 -49 -18 -74l-2 -8
c-4 -25 -11 -50 -18 -74c-4 -17 -7 -34 -11 -52c-3 -11 -5 -23 -6 -35v-2c0 -2 0 -5 1 -7c0 -1 -1 -2 -1 -4v-11c6 -2 13 -3 19 -4c7 -1 13 -3 19 -5c14 -5 26 -12 37 -23c10 -8 17 -18 25 -29c4 -5 7 -11 11 -17c10 -16 22 -30 36 -42c21 -18 45 -32 73 -35
c17 -2 34 2 50 8c21 8 42 18 62 30c2 1 4 1 6 3c25 16 49 -2 54 -27c0 -4 -1 -10 -4 -14c-5 -6 -11 -11 -19 -14c-8 -2 -15 -6 -22 -10c-14 -7 -29 -13 -43 -19c-20 -9 -41 -13 -63 -13z" />
    <glyph glyph-name="T_T" horiz-adv-x="405" 
d="M253 2c-2 1 -3 2 -4 3c-1 2 -3 3 -4 4c-11 6 -13 14 -12 25c2 7 3 14 2 21c-4 15 -1 29 1 43c5 29 0 59 -3 88c-2 14 -3 27 -3 41c1 36 1 71 1 107c0 10 0 21 1 32c1 31 3 63 5 95v58c0 8 1 16 0 24c-1 30 -1 60 2 89c0 6 0 12 -1 18c0 3 -1 5 -1 7c-7 -1 -13 -1 -20 -1
h-6c-20 -3 -49 3 -68 3c-5 0 -10 -3 -13 -6c-2 -3 -3 -5 -3 -9c-1 -4 0 -8 0 -12c3 -29 3 -59 2 -89c-1 -8 0 -16 0 -24v-58c2 -32 4 -64 5 -95c1 -11 1 -22 1 -32c0 -36 0 -71 1 -107c0 -14 -1 -27 -3 -41c-3 -29 -8 -59 -3 -88c2 -14 5 -28 1 -43c-1 -7 0 -14 2 -21
c1 -11 -1 -19 -12 -25c-1 -1 -3 -2 -4 -4c-1 -1 -2 -2 -4 -3c-8 -4 -27 -2 -34 5c-3 3 -4 6 -4 11c-1 7 -1 15 -1 22c1 15 0 30 -2 45c-1 10 -1 19 -1 29c1 28 3 55 5 83c0 8 1 16 0 24c-1 43 -1 85 -1 128c0 24 1 47 -2 71c-1 9 -1 18 -1 27c0 42 1 85 0 127
c0 24 0 47 -1 71c0 7 -1 14 -1 22c-9 1 -15 2 -22 2c-12 1 -25 4 -35 11c-3 1 -6 3 -7 5c-12 14 -4 35 14 38c5 1 10 1 15 1c9 -1 18 -1 27 -2c12 -1 24 -3 36 -4c3 0 6 -1 9 -1h8h9c26 1 63 -1 89 -1c3 0 6 1 9 1c8 1 17 3 25 5l10 1c18 3 37 4 56 0h10c6 0 12 0 19 -1
l9 -3c2 -2 5 -3 7 -5c3 -4 7 -9 7 -14c-1 -24 -28 -29 -49 -31c-3 0 -6 0 -9 -1c-9 2 -15 -2 -12 -12v-11c-1 -24 -1 -47 -1 -71c-1 -42 0 -85 0 -127c0 -9 0 -18 -1 -27c-3 -24 -2 -47 -2 -71c0 -43 0 -85 -1 -128c-1 -8 0 -16 0 -24c2 -28 4 -55 5 -83c0 -10 0 -19 -1 -29
c-2 -15 -3 -30 -2 -45c0 -7 0 -15 -1 -22c0 -5 -1 -8 -4 -11c-7 -7 -26 -9 -34 -5z" />
    <glyph glyph-name="zero" unicode="0" horiz-adv-x="271" 
d="M150 12c-29 -17 -58 -15 -86 3c-4 3 -9 6 -14 8c-13 4 -20 15 -28 24l-10 15c0 14 -1 29 -6 43v2c1 19 -1 38 -2 57c-1 11 -1 23 -1 34l-3 15v10c1 7 2 13 2 20c1 32 3 64 4 96c1 7 1 14 1 21c0 26 4 51 6 77c1 8 2 16 2 24c2 17 7 33 9 50c3 19 8 36 9 55
c0 10 4 19 7 28c3 13 6 26 11 39c6 17 11 36 23 50c2 2 4 5 5 8c5 10 14 15 23 20c7 5 15 4 23 2c17 -4 33 -9 48 -18c1 -1 2 -1 4 -2c27 -13 40 -35 47 -63c6 -28 8 -57 5 -85c-1 -12 -1 -24 -1 -35c0 -20 -4 -39 -7 -58c-3 -18 -4 -36 -5 -55c-3 -31 1 -62 2 -93
c0 -11 2 -23 2 -34c0 -9 -1 -18 -2 -27c0 -3 -1 -5 -1 -8c1 -16 -1 -32 -4 -48c0 -8 -1 -15 -2 -23c-3 -22 -6 -44 -8 -67c-1 -12 -5 -22 -13 -31c-7 -7 -12 -16 -21 -22c-1 -1 -3 -4 -3 -6c-1 -9 -6 -14 -15 -18c0 -4 -1 -6 -1 -8zM109 66c8 2 13 8 19 12c4 4 4 9 5 14
c3 18 4 37 10 54c1 2 1 3 1 5c-1 11 2 22 3 33c2 11 2 23 3 34c3 26 1 52 -1 78c0 5 -1 9 0 14c0 16 -1 31 -4 46c-1 6 -1 11 0 17c0 11 2 23 2 34c1 21 4 42 8 63c2 11 3 22 4 33c1 14 1 29 2 44c3 26 -1 52 -7 77c-1 6 -5 11 -8 16c-1 3 -5 4 -7 4c-8 1 -16 -5 -18 -13
l-3 -8c-4 -15 -8 -30 -13 -45c-4 -13 -6 -27 -7 -40c-2 -18 -4 -35 -9 -52c-5 -19 -6 -39 -9 -58c-3 -24 -7 -47 -6 -71c0 -6 0 -13 -1 -19c-1 -31 -3 -63 -5 -94v-9c1 -20 2 -41 3 -60v-18c-2 -21 1 -41 3 -62c1 -6 4 -12 7 -18c5 -8 19 -13 28 -11z" />
    <glyph glyph-name="one" unicode="1" horiz-adv-x="188" 
d="M92 4c-8 1 -12 8 -17 14c-2 2 -3 6 -5 9c2 7 5 14 0 21c-1 1 -1 3 -1 5c3 21 3 42 8 63c1 4 0 8 0 12c-1 19 -3 37 -4 56c-1 4 -1 8 -1 12c2 16 0 32 0 48v13c1 14 0 28 -1 42c-1 12 0 23 -1 35c0 17 1 34 2 51l3 59c1 20 1 41 2 61c2 11 1 23 1 34c1 22 1 45 1 67
c0 1 0 2 -1 4c-3 -1 -7 -1 -10 -3c-5 -3 -10 -3 -16 -2c-11 2 -22 4 -30 14c-4 5 -6 10 -6 15c-1 8 2 13 8 17l9 5c7 4 15 8 21 15c5 5 11 11 19 13l6 3c12 8 26 11 39 9c9 -1 15 -5 21 -10c2 -2 3 -4 4 -5c2 -12 7 -24 4 -37c-3 -15 -2 -30 -1 -45c0 -7 -1 -15 -1 -22
c-1 -21 -1 -41 -2 -61c-2 -38 -3 -77 -5 -116c-1 -24 -1 -48 -2 -72v-14c0 -7 2 -15 2 -22c-2 -29 2 -57 -1 -86c0 -4 0 -8 1 -12c3 -24 5 -47 3 -71v-4c1 -19 -1 -38 0 -57v-6c5 -11 1 -21 -1 -31c-1 -7 -5 -12 -12 -15c-11 -6 -23 -8 -36 -6z" />
    <glyph glyph-name="two" unicode="2" horiz-adv-x="225" 
d="M124 -13c-11 1 -22 3 -32 6c-7 1 -12 1 -18 1c-16 1 -31 1 -46 7c-4 2 -7 5 -11 7c-5 4 -7 10 -7 16c0 11 1 22 4 33c4 16 4 32 7 48l6 34c0 2 1 5 1 7c5 29 9 58 14 86c3 15 7 29 11 43l24 78c2 7 3 15 5 23c5 30 11 59 18 89c3 11 5 23 7 35c3 12 5 24 8 35
c3 14 5 28 5 42c1 13 1 25 2 38c0 9 -3 16 -9 24c-8 -4 -15 -10 -19 -17c-7 -12 -17 -14 -29 -14c-9 0 -18 4 -26 9c-5 3 -9 7 -9 14c1 5 0 9 0 14c0 4 2 7 5 10c6 6 12 11 15 19c0 2 2 3 4 4c10 10 22 15 36 18l27 3c6 0 12 -1 18 -4l29 -14c2 -2 6 -5 7 -8
c4 -17 12 -33 13 -51c0 -9 0 -19 1 -28c2 -31 -5 -60 -11 -90l-6 -31c-3 -13 -6 -25 -9 -38c-5 -24 -11 -48 -15 -72c-3 -22 -10 -42 -16 -63c-10 -34 -21 -67 -26 -102c-3 -24 -10 -48 -14 -73c-3 -18 -3 -38 -3 -57c0 -4 3 -8 4 -13c6 -2 11 -4 16 -4c13 0 25 -3 37 -5
c14 -3 24 -9 26 -24c0 -4 -7 -6 -3 -12c1 -3 -1 -6 -3 -8c-10 -11 -23 -16 -38 -15z" />
    <glyph glyph-name="three" unicode="3" horiz-adv-x="254" 
d="M59 -12c-5 -1 -8 1 -12 1c-12 -1 -22 3 -31 10c-7 5 -11 12 -8 20c3 9 6 17 10 24c7 12 19 14 31 14c8 0 12 -2 21 -8c8 4 15 9 21 15c3 3 7 7 11 10c7 7 11 16 12 25c3 14 6 28 11 41v3c2 17 4 33 6 49c1 4 1 8 2 12c3 21 7 41 10 62c2 16 3 33 4 49c0 5 0 10 1 15
c2 14 -2 28 -3 42l-3 21c-2 27 -4 55 -7 83c0 3 0 7 -1 10c-1 7 -6 12 -12 15c-3 1 -22 4 -25 3c-12 -6 -23 0 -35 3l-7 3c-10 4 -18 18 -14 28c2 6 6 11 11 14c12 6 22 15 35 20c11 4 20 14 26 24c2 4 3 8 1 12c-2 6 -5 12 -8 17c-2 5 -6 8 -11 10c-6 2 -13 5 -19 8
c-2 1 -4 1 -6 1c-10 -3 -19 2 -27 7c-3 1 -6 3 -9 5c-10 8 -14 19 -9 31c3 8 10 12 18 14c13 3 26 2 39 2c17 0 30 -8 44 -15c16 -7 28 -20 40 -31c3 -3 6 -7 8 -11l8 -20c5 -12 2 -23 -1 -35c-1 -6 -3 -12 -6 -17c-2 -6 -5 -11 -8 -18c1 -1 2 -3 4 -5c14 -13 21 -29 27 -47
c1 -4 2 -7 2 -11c3 -22 6 -44 8 -66c1 -21 4 -42 6 -63c1 -9 0 -19 0 -28l-3 -50c0 -7 -2 -14 -3 -21c-2 -18 -6 -36 -7 -55c-2 -28 -7 -55 -12 -82c-3 -12 -5 -24 -8 -37c-4 -13 -8 -26 -18 -37c-13 -14 -25 -30 -42 -41c-4 -3 -9 -5 -14 -7c-16 -6 -32 -11 -48 -18z" />
    <glyph glyph-name="four" unicode="4" horiz-adv-x="233" 
d="M140 -3c-11 1 -20 7 -24 18c4 15 5 30 1 46v7c2 9 3 18 1 27c-1 7 1 15 0 22c0 8 -4 11 -11 8c-7 -2 -13 0 -20 -1c-15 0 -30 0 -45 -1c-11 0 -20 2 -29 7c-8 4 -12 9 -13 18c-1 16 4 37 12 51c4 7 6 15 6 23c1 28 5 56 11 83c4 16 7 32 7 48c0 10 2 19 4 28
c3 17 5 33 6 50l3 27c3 17 5 33 8 50c4 29 8 57 13 85c3 23 8 46 12 69l3 11c2 10 4 20 5 30c2 16 12 23 28 23c9 1 18 -1 27 -5s13 -10 12 -20c-1 -5 -1 -10 -2 -15c-6 -32 -12 -63 -17 -95c-2 -11 -4 -22 -5 -33c-3 -24 -6 -48 -10 -72c-2 -17 -5 -34 -8 -50
c-1 -12 -2 -23 -4 -35v-4c-6 -17 -6 -34 -7 -51c-2 -18 -5 -35 -9 -52c-4 -20 -8 -41 -6 -61c0 -4 -1 -8 -2 -12c-2 -7 -2 -15 -2 -22c-1 -6 1 -10 6 -14c10 2 18 3 27 5c4 11 5 22 4 33c-1 41 -2 81 0 121c1 7 1 13 0 20c-1 15 1 31 3 46c0 5 0 10 -1 15c-1 17 12 31 29 32
c4 0 8 -1 12 -1c12 1 20 -6 26 -15c1 -2 2 -5 2 -7c-4 -12 -2 -25 -3 -38v-71c0 -27 -1 -55 0 -83c1 -11 -1 -23 -1 -34c0 -23 -6 -46 -5 -69c1 -17 2 -33 2 -50c1 -8 1 -16 1 -24c0 -5 0 -9 -1 -14c0 -3 0 -6 1 -10c3 -16 -6 -26 -17 -36c-9 -7 -20 -8 -30 -8z" />
    <glyph glyph-name="five" unicode="5" horiz-adv-x="235" 
d="M121 4c-72 -18 -85 56 -85 56c-4 8 -6 24 2 29c3 3 7 4 10 6c9 6 19 5 28 1c5 -2 16 -11 24 -11c9 1 5 24 7 34c9 59 16 118 17 178c2 58 -3 116 -1 174c0 14 -1 29 -1 43c-1 9 -6 15 -15 17c-3 0 -6 1 -9 1c-11 0 -23 2 -34 3c-8 0 -16 5 -24 8c-1 0 -2 2 -3 3
c-6 11 -11 22 -12 35c-3 23 -3 46 -3 69c0 5 0 9 -1 14c-2 9 -1 18 1 27c4 12 13 19 25 21c9 1 19 2 28 1c15 -1 29 -2 44 -5c10 -2 20 -6 29 -10c6 -3 11 -9 13 -15c-1 -7 -2 -13 -4 -19c-2 -9 -9 -13 -17 -15c-10 -3 -21 -4 -32 -5c-6 0 -11 0 -16 -3c-2 -8 -2 -16 0 -24
c2 -7 6 -13 16 -13c8 -1 16 -3 24 -6c13 -4 23 -12 33 -20c5 -5 9 -10 11 -16c27 -59 19 -127 15 -189c-5 -70 0 -140 -10 -209c-3 -23 -6 -47 -8 -70c-2 -9 -3 -19 -3 -28c0 -11 -4 -20 -8 -29c0 -1 -2 -2 -2 -4c-4 -13 -15 -19 -27 -24c-4 -2 -8 -3 -12 -5z" />
    <glyph glyph-name="six" unicode="6" horiz-adv-x="251" 
d="M84 9c-8 6 -18 7 -27 13c-7 4 -12 11 -19 15s-10 11 -11 19c-3 22 -7 43 -7 66c0 30 2 60 4 90c2 20 1 41 1 62c1 24 2 49 2 74c1 7 1 15 2 22c0 8 1 15 1 23c1 5 1 11 1 16c-4 28 -2 55 -3 83c-1 14 0 28 -1 42c-1 18 -1 36 4 54c3 10 5 21 6 31c1 14 8 26 15 38
c2 3 5 6 6 10c3 9 9 15 17 20c8 6 14 14 25 17s23 4 35 0c15 -4 25 -13 37 -22c2 -2 3 -5 5 -7l6 -13c-2 -4 -3 -9 -4 -14c-2 -10 -9 -15 -17 -17c-10 -2 -20 -2 -29 4c-4 3 -8 5 -12 7c-9 -8 -15 -18 -18 -30c-7 -30 -11 -61 -9 -92c1 -12 1 -24 2 -36c1 -34 2 -68 2 -102
c0 -13 -1 -26 -2 -39c-3 -31 -4 -62 -3 -94c0 -11 -1 -23 -2 -34v-8c6 -2 10 2 15 2s10 0 15 1c4 0 8 1 12 2c17 1 34 -1 49 -8c15 -6 22 -19 22 -34c0 -8 1 -15 4 -22c4 -12 3 -24 3 -36c0 -1 0 -2 -1 -3c-9 -15 -11 -33 -22 -46c-7 -8 -13 -18 -23 -25
c-14 -8 -27 -17 -41 -24c-13 -6 -26 -7 -40 -5zM110 68c10 2 15 10 21 16s9 15 6 22c-4 12 -4 26 -12 36c-12 8 -24 8 -37 6c-4 -15 -1 -29 -2 -44c0 -11 7 -19 9 -28c6 -3 11 -5 15 -8z" />
    <glyph glyph-name="seven" unicode="7" horiz-adv-x="197" 
d="M61 4c-10 -2 -18 -1 -26 5l-4 3c-1 9 -1 17 -1 25s3 16 4 25c2 15 4 30 4 44c0 18 2 34 1 52c0 12 2 24 3 36v13c-1 18 0 36 2 54c3 23 5 45 7 68l3 25c1 16 2 31 4 47l3 39c3 24 5 48 8 72c2 18 3 36 3 54c0 17 2 34 4 51c2 9 3 18 3 27c-6 3 -11 4 -17 5
c-4 0 -9 0 -13 1c-24 5 -37 18 -39 43c3 3 7 7 10 11c7 8 15 10 25 10c11 0 22 1 33 -2c6 -2 13 -3 19 -2c7 2 14 0 21 0c16 -1 29 -8 36 -24c0 -2 1 -3 2 -4c0 -1 0 -2 1 -3c-4 -16 -11 -31 -12 -48c-3 -25 -5 -50 -7 -75c-1 -23 -3 -47 -5 -71c-2 -18 -5 -35 -6 -53
c-2 -16 -3 -32 -4 -47c-2 -20 -3 -40 -6 -60c-4 -24 -7 -48 -10 -72c-2 -17 -1 -35 -3 -52c-2 -24 -1 -48 -2 -73c0 -6 -1 -12 -1 -18c-1 -9 -1 -18 -2 -27c0 -8 -1 -17 -2 -25c0 -3 -1 -6 -1 -9c2 -11 -2 -20 -10 -27c-7 -7 -15 -14 -25 -18z" />
    <glyph glyph-name="eight" unicode="8" horiz-adv-x="265" 
d="M90 -4c-1 0 -3 0 -4 1c-11 6 -23 11 -33 19c-11 8 -23 17 -32 28c-10 11 -16 24 -13 40c3 13 -4 26 -5 39c0 9 0 17 1 26c2 21 1 49 2 70c0 16 3 33 5 49c3 20 6 39 10 58c3 16 15 24 15 40c1 12 7 23 9 34c3 14 7 28 10 41c2 9 6 17 9 25c-1 2 -2 2 -2 2
c-23 15 -30 39 -36 64c-3 10 -2 21 -2 32c2 9 3 19 5 28c1 7 4 13 6 20c4 13 7 28 14 41c4 9 8 18 13 27c2 3 3 5 5 6l18 16c13 11 27 13 41 6c8 -3 17 -5 24 -10c13 -8 22 -19 28 -32c6 -14 11 -29 15 -43c2 -3 2 -7 3 -11c-1 -24 1 -47 -6 -70c-6 -18 -10 -38 -22 -54
c-4 -6 -4 -13 0 -20c6 -10 11 -21 16 -32c7 -14 12 -29 18 -43c2 -3 3 -6 4 -10c16 -42 21 -86 19 -130c-1 -13 -1 -26 -2 -38c0 -8 -1 -16 -2 -24c0 -5 -1 -10 -1 -15c-1 -19 -1 -37 -2 -56c0 -3 0 -6 -1 -9c-4 -14 -6 -30 -13 -43c-1 -2 -2 -4 -2 -7
c-5 -17 -15 -30 -29 -40c-4 -2 -10 -5 -14 -8c-2 -2 -4 -4 -7 -4c-11 -2 -20 -7 -31 -11c-10 -5 -20 -4 -31 -2zM106 514c3 10 7 18 10 27c2 4 3 8 5 13c7 19 4 38 4 58c0 7 -2 16 -10 22c-1 -2 -3 -3 -3 -5c-12 -26 -19 -55 -19 -85c0 -8 3 -16 6 -22c1 -3 4 -4 7 -8z
M126 55c2 3 5 6 7 10c6 14 12 29 15 45c2 15 4 31 2 46c0 4 1 9 1 13l3 64c3 30 2 59 0 88c-1 3 -2 5 -2 8c-4 20 -11 39 -18 58c-4 9 -8 17 -13 27l-4 -7c-3 -21 -20 -62 -21 -65c-7 -32 -13 -65 -19 -98c0 -4 -1 -7 -2 -11c1 -19 0 -39 -4 -58v-8c-1 -20 5 -48 5 -68
c-1 -9 1 -16 4 -23c6 -11 14 -17 26 -19c7 0 13 -1 20 -2z" />
    <glyph glyph-name="nine" unicode="9" horiz-adv-x="211" 
d="M56 -6c-16 -3 -29 4 -41 15c-7 7 -7 21 0 29c5 5 11 10 20 8c4 -1 9 0 13 1c10 1 16 6 17 16c1 6 2 13 2 19c0 30 9 60 8 90c0 11 3 23 1 34c-1 3 0 5 1 8c2 11 5 23 7 35c0 2 1 3 1 4c-2 15 3 29 5 44c2 26 3 53 10 79c1 4 1 10 1 15c-1 23 1 47 -1 70c-1 22 0 44 -1 65
c0 1 0 2 -1 4c-12 -1 -23 0 -33 5c-9 4 -18 9 -24 18c-3 4 -8 6 -10 10c-12 17 -16 35 -11 55c2 8 3 16 6 24c3 9 8 18 11 27c4 15 17 21 30 27c4 2 9 4 14 4l37 6c15 2 29 -4 39 -15c5 -5 7 -11 7 -18c1 -15 5 -30 3 -45v-1c5 -17 3 -33 1 -50c0 -4 -1 -8 0 -12
c2 -10 1 -21 0 -31c-2 -27 -1 -54 2 -80c1 -7 1 -13 1 -20c-1 -16 0 -32 -2 -48c0 -10 -3 -21 -6 -31c-3 -12 -5 -24 -5 -36c0 -5 0 -11 -2 -16c-3 -14 -5 -29 -5 -43c-1 -4 -1 -8 -2 -12c-4 -17 -5 -35 -7 -52c-1 -4 -1 -7 -1 -11c1 -5 0 -11 0 -16c-1 -15 -4 -29 -6 -43
c-3 -17 -4 -35 -5 -53c0 -10 -3 -19 -5 -29l-3 -6c-3 -21 -19 -31 -38 -38c-9 -3 -18 -4 -28 -6zM101 587c2 15 0 31 -2 49c-6 -5 -12 -7 -14 -11c-3 -5 -6 -10 -5 -16c2 -6 -7 -13 3 -19c4 -3 9 -5 18 -3z" />
    <glyph glyph-name="fraction" unicode="&#x2044;" horiz-adv-x="600" 
 />
    <glyph glyph-name="asterisk" unicode="*" horiz-adv-x="232" 
d="M45 597c-12 5 -16 14 -15 29l6 13c3 3 5 6 7 10c-6 0 -12 1 -17 4c-11 6 -23 12 -25 24c-3 13 3 21 16 28c4 1 9 2 14 2h17c-4 7 -7 14 -7 21c0 13 0 26 9 34c10 9 20 7 33 0c2 -4 6 -8 8 -12l6 -12c10 9 20 16 31 22c13 6 21 2 22 -12c0 -3 0 -6 1 -8c4 -9 1 -19 -6 -28
c14 -3 26 -8 37 -15c13 -7 13 -16 3 -25c-3 -1 -6 -3 -7 -5c-5 -8 -15 -12 -26 -11c-1 1 -3 1 -4 1c1 -2 1 -3 2 -4c3 -14 5 -28 5 -40c0 -15 -8 -20 -21 -14l-8 3c-9 0 -17 7 -21 18l-6 10c-4 -11 -11 -20 -20 -25c-11 -7 -23 -12 -34 -8z" />
    <glyph glyph-name="backslash" unicode="\" horiz-adv-x="225" 
d="M136 -22c-6 1 -9 5 -11 11c-4 11 -8 23 -8 35c0 16 -4 32 -7 48l-1 7c1 9 0 17 -2 25c-1 5 -4 10 -1 15c-3 4 -3 10 -4 15c-5 18 -8 36 -3 55c-1 7 -2 15 -4 23s-4 16 -2 25c2 4 2 10 2 15c-1 8 -3 17 -3 25c0 3 -2 5 -4 8c1 1 2 2 1 2c-4 7 -2 15 -3 22
c-4 20 -5 41 -13 60c-3 9 -4 18 -5 27c-1 18 -5 36 -9 53c-3 16 -6 31 -8 46c-3 20 -6 39 -8 59c-2 31 -11 61 -15 92c-2 16 -10 31 -16 46c-5 13 -2 22 10 31c7 6 16 8 25 10c8 1 18 -6 21 -15l12 -31c2 -6 5 -12 6 -18l12 -51c2 -12 3 -25 5 -38c4 -22 7 -43 10 -64v-3
c2 -25 7 -49 12 -73s8 -48 14 -71s9 -46 14 -68c3 -14 2 -28 3 -42c0 -8 1 -16 2 -24c0 -9 1 -17 1 -26c1 -9 2 -18 2 -27c1 -6 2 -11 1 -17c-2 -14 0 -28 2 -42c2 -18 4 -36 8 -55c1 -10 2 -21 7 -30c1 -2 1 -4 2 -6c4 -8 6 -16 3 -25c3 -13 -6 -19 -15 -25
c-10 -7 -22 -7 -33 -4z" />
    <glyph glyph-name="periodcentered" unicode="&#xb7;" horiz-adv-x="184" 
d="M77 261c-25 -2 -43 11 -60 27c-11 12 -16 27 -17 42c0 3 0 5 1 7c7 21 15 40 32 54c2 1 5 3 8 3c9 1 19 1 28 0c4 -1 9 -2 14 -7c4 -5 10 -10 17 -12c12 -6 20 -15 29 -24c10 -10 14 -22 15 -35c0 -9 2 -18 -6 -25l-6 -8c-2 -2 -6 -3 -7 -5c-13 -16 -29 -19 -48 -17z" />
    <glyph glyph-name="bullet" unicode="&#x2022;" horiz-adv-x="244" 
d="M109 205c-35 -2 -61 16 -85 39c-16 16 -22 37 -24 59c0 4 0 7 1 10c10 29 22 56 46 76c3 2 7 5 11 5c13 1 27 1 40 -1c6 -1 13 -2 19 -9c6 -8 15 -14 24 -18c17 -8 29 -21 42 -34c14 -13 20 -30 21 -49c0 -13 3 -25 -8 -35c-3 -4 -6 -8 -9 -11s-8 -5 -10 -8
c-18 -22 -41 -26 -68 -24z" />
    </font>
</defs>
</svg>
